<svg xmlns="http://www.w3.org/2000/svg" width="467.694" height="643.557" viewBox="0 0 467.694 643.557">
  <g id="Сгруппировать_2429" data-name="Сгруппировать 2429" transform="translate(-1262.388)" opacity="0.451" style="mix-blend-mode: screen;isolation: isolate">
    <path id="Контур_4859" data-name="Контур 4859" d="M264.915,587.806c.3-.3.669.569.669-.67s-.271-1.509-.271-1.509" transform="translate(997.473 -147.02)" fill="#0e1c2b"/>
    <path id="Контур_4860" data-name="Контур 4860" d="M218.393,669.516c-1.81,5-.947,6.039-.947,7.33s-1.38,4.486-1.38,6.211-1.381,2.848-1.769,4.525-2.115,2.116-3.838,3.84-.431,6.555-.952,9.4-3.013,2.412-4.31,2.412-1.9,1.036-2.672,1.811,0,1.726,0,3.106-1.335,2.588-1.335,6.166-2.632,2.632-2.632,2.632a3.493,3.493,0,0,1-1.293,2.669s7.247,60.538,7.247,66.752,0,9.053,1.81,14.225.774,8.023.774,12.935,0,4.141,2.068,6.211,1.167,3.62,1.167,6.853-2.456,2.463-2.456,4.79v6.984c0,15.523-11.9,19.92-19.405,17.593s-2.716-12.032-5.431-14.748a3.752,3.752,0,0,1-.595-.715c.689-.459-.5-.827,0,0-.5.336-2,.715-5.875.715-10.35,0-25.613,4.657-28.458,1.811s-2.975-2.975,0-5.952,14.23-3.621,14.23-6.2a4.936,4.936,0,0,1,1.811-3.884s4.785,0,4.785-1.938S167,823.106,167,818.967s1.035-4.655-.257-12.935-6.642-32.168-6.642-36.307-4.225-19.316-4.225-23.456-.777-2.2-1.553-8.149-4.268-20.44-6.208-29.232a37.2,37.2,0,0,1,.58-19.21c1.1-3.1.584-3.752.584-3.752s-4.4-.776-5.563-.776-2.911-.581-3.232,1.1a12.172,12.172,0,0,1-1.62,3.623s1.49,8.729,1.49,9.895.709,5.948-5.179,8.086-6.786-9.252-6.786-9.252l-5-40.746s.5-.5-.452-.28S118.2,654.881,118,653.91s.7-.346.359-1.724.345-1.812.345-1.812-.778,0-1.123-1.467,1.058-3.387,1.058-3.387a4.015,4.015,0,0,1-.755-2.778c0-2.028,2.286-2.285,2.286-2.285s-9.574-61.831-9.574-62.568,2.717,0,2.717,0-2.114-2.109,5.391-3.147,8.882,2.758,8.882,2.758,4.659,58.9,4.659,60.11,1.29-.173,1.29-.861,1.381-1.38,2.2-2.2a8.114,8.114,0,0,1,2.974-2.112,3.187,3.187,0,0,1,2.584,0c0-1.033,4.314-25.87,4.314-28.888s0-4.313,2.328-7.588,1.724-7.861,1.724-7.861a2.32,2.32,0,0,1-1.422-.486c-.485-.485,1.036-1.746,1.749-2.455s.389-3.17.389-3.17l10.995-12.675c0-.648.258-4.917-4.206-4.6s-9.768-.32-9.119-2.842a3.37,3.37,0,0,0-1.035-3.685c-3.428-.97.258-2.848-.9-4.012-1-1-.139-3.524.12-4.217a.319.319,0,0,0,.074-.18s-.03.068-.074.18c-.168.233-.752.518-2.772-.311-2.847-1.165,1.032-6.206,2.846-8.018s-.52-3.365-1.426-4.271,2.331-7.633,2.331-7.633-6.533-2.779-7.892-4.136,6.726-2.589,7.247-3.1,1.163,1.165,8.536-7.374,20.63-5.242,28.584,2.716a21.315,21.315,0,0,1,5.048,22.9c-2.07,4.915-1.164,4.783-2.07,6.918s-3.557,0-3.557,0-1.489,1.488-1.875,1.878,0,.643,0,2.846,0,3.233-.646,4.654a1.35,1.35,0,0,0,.646,1.942,13,13,0,0,1,3.577-.9c1.339,0,.907.907,2.03,3.405s1.162,3.061,2.715,4.614,1.853,1.854,5,2.934,2.459,2.459,9.873,9.01,9.832,18.542,9.832,21.817,1.205,6.034,3.106,9.832,3.1,12.763,4.138,16.038,1.294,22.164,1.294,24.407S220.206,664.516,218.393,669.516Zm-81.02,2.08v-18.2l-2.973,1.031c0,.517,1.033,4.4,2.069,9.055a45.255,45.255,0,0,1,.9,8.115v.164C137.373,672.263,137.383,672.139,137.373,671.6Z" transform="translate(1267.208 -212.99)" fill="#0e1c2b"/>
    <path id="Контур_4861" data-name="Контур 4861" d="M43.731,729.343H20.6A42.9,42.9,0,0,0,15.816,742.9H10.225v11.974c-50.252-.274-81.209-1.927-64.618-1.6q-.794-82.955-1.592-165.932c-10.173.235-30.519,2.766-37.5-1.6h-1.591v-72.6c-2.128-1.586-4.256-3.193-6.38-4.79-4.173-7.165-8.434-23.035-7.182-31.9q-3.983-.4-7.981-.8s-3.19-37.46-3.19-76.585q-.4-2.787-.8-5.583c.268-.531.535-1.067.8-1.6,2.928-1.059,20.481-2.659,23.926-2.385q-.781-48.677-1.587-97.341-3.989-.387-7.983-.785v-3.2c2.659-.528,5.324-1.049,7.983-1.6v-56.63c2.269-4.37,9.1-6.081,15.158-6.389.264.529.531,1.067.8,1.6-.912,3.342-1.145,1.761,0,4.792,15.013-1.139,78.9-6.064,98.12-2.4l-.792,3.19q9.563,1.2,19.138,2.385c-3.821,11.312-.259,24.424,0,37.505,1.6-.268,3.2-.534,4.79-.813v3.205c-12.337,1.529-22.12,7.7-32.713,11.167q.407,6.781.8,13.568c9.11,2.321,13.117,7.788,21.546,11.157,6.567,2.629,13.017-.48,19.143,2.4-.471,20.568,5.437,61.392-3.986,77.388q-7.188.391-14.368.8a14.176,14.176,0,0,0-6.37,7.168c-.276,9.583.035,126.474,0,138.018,6.79-.36,11.193-.577,17.545,1.592v3.19q-8.384.8-16.753,1.6c2.491,8.921,1.861,44.19,1.591,59.034-.795-.525.843.963,4.79,2.4.795-.268,2.213,0,3.983,0q4,.4,7.984.784v3.194c-.537.537-1.071,1.064-1.6,1.6-4.267-.849-2.777-.017-7.175,0q1.575,15.156,3.186,30.32c3.835-.543,4.855-.712,7.981.8v.8c-.273,1.853.167,2.189-.1,4.055-1.33-.527-16.13.464-20.646.716-.39,11.358-2.615,25.511,2.391,30.329,7.967,4.777,18.707,4.551,27.125,7.983q.8,13.97,1.6,27.924,25.12,1.592,50.252,3.191v-4c-5.483.216-7.7-.231-10.377-2.4v-.789c.277-.262.54-.543.806-.8q5.978-.8,11.961-1.6,5.181-9.574,10.371-19.15c5.085-17.116-2.13-260.063-2.391-280.81-6.916-.795-13.832-1.6-20.747-2.383v-.812c3.535-3.388,2.907-14.286,1.6-19.934q-5.98-.805-11.966-1.6v-2.39c3.87-1.687,1.49-1.553,4-4q9.558.4,19.139.8v-3.19c-5.156-.2-13.153-.368-15.951-3.194v-.785c7.388-.265,14.481.07,19.144,2.385v4.784c1.334-.273,2.664-.532,3.984-.8.062-16.167-1.608-61.619-3.984-69.4,2.9-.5,2.412-.32,3.984-1.594V277.016q15.564-1.61,31.119-3.2v3.2c-.271.791-.534,1.593-.8,2.393-6.789-1.537-1.6,19.932-1.6,19.932,4.062.151,6.573-.048,8.78,1.608v.8c-6.21.561.8,453.132.8,453.132-22.916,0-38.041-.006-59.035,0,.638-6.227,2.132-17.453,4.791-22.353,1.061-.516,2.126-1.059,3.19-1.583,1.058.793,2.127,1.583,3.19,2.388v-3.987q-25.123-1.577-50.252-3.187c-2.413.988-1.192,2.686-6.393,3.187m51.857-347.817c.264,1.326.534,2.652.791,3.985h4v-.8C104.369,383.653,102.772,382.584,101.174,381.526Zm14.355,7.18H101.174v3.984c1.9,1.128,2.1,1.307,5.581,1.593,2.928-.523,5.86-1.066,8.774-1.593Zm0-9.585c-.786-.256-1.588-.521-2.382-.784-1.342,1.322-2.66,2.652-4,3.979h1.6c1.592.268,3.192.535,4.78.8Zm-211.411,40.69v-1.594c.924-2.348.512-10.726-1.587-12.763C-97.734,410.544-97.99,417.091-95.882,419.811Zm.807,74.984c-1.6-.524-3.191-1.052-4.79-1.58v5.576c1.6,1.066,3.191,2.124,4.79,3.2Zm31.911-248.9c-.262,1.606-.54,3.2-.8,4.791q7.577.4,15.163.8v-5.6Zm.8-3.182q6.783.411,13.567.791c.264-1.6.532-3.187.791-4.774q-7.576-.416-15.153-.8C-62.9,239.51-62.641,241.116-62.368,242.71Zm7.182,11.967c-2.4-.262-4.79-.527-7.182-.8-.273.539-.535,1.061-.8,1.6q7.179,1.2,14.362,2.391v-3.188Zm-22.336-19.948c7.883-1.049,3.771-.143,11.963,0v-3.984C-71.448,230.667-74.986,231.435-77.522,234.729Zm11.963,7.981v-4.787q-5.188.389-10.374.8v.784c3.058.936,3,1.318,4.786,3.2Zm-1.6,3.993c.537.527,1.071,1.055,1.6,1.591C-66.674,246.758-65.639,247.82-67.157,246.7Zm-2.389,1.591c-.537-.259-1.07-.535-1.6-.795h-5.586c-1.852.535-3.717,1.061-5.577,1.6-.267.527-.533,1.055-.8,1.589h14.358C-69.018,249.881-69.283,249.094-69.546,248.293Zm-22.338.8c5.344-1.541,14.616-2.711,16.753-4.79h-1.6Q-84.3,246.686-91.884,249.094Zm-.792,5.583c.258,2.664.527,5.312.792,7.982q13.161-2.4,26.325-4.794v-3.989q-13.163-.8-26.325-1.6C-92.149,253.083-92.418,253.876-92.676,254.677Zm3.184,20.739v13.567q10.774.405,21.536.8V277.016Q-78.719,276.212-89.493,275.416Zm-3.184,3.993c.258,2.924.527,5.854.792,8.771h.8Q-91.885,283.8-92.676,279.409Zm0,41.476,5.4-.415q14.361-1.986,28.726-3.983c.792-2.39,4.434-1.541,9.747-5.169V295.361q-21.936-1.188-43.875-2.393Zm8.768,114.079c-1.33.276-2.659.535-3.992.8v.8h6.388v-6.382h-4Q-84.7,432.574-83.908,434.964Zm-4.79,4.792q.411,2,.8,3.989c2.13-.262,4.256-.537,6.388-.794v-3.2Zm-1.582,40.68v2.4q17.134.783,34.3,1.592c-.8-1.592-1.605-3.2-2.394-4.789h-1.6q-7.973-.4-15.958-.795C-80.71,479.377-85.507,479.911-90.28,480.437Zm7.97-94.139q3.589-.789,7.179-1.587,3.189,3.987,6.379,7.979h7.986V369.552c-6.257,1.263-16.441,2.068-23.141,3.984q.4-3.585.8-7.174h-8.774V387.9c4.342,1.236,3.2.343,3.186,3.992h5.588C-83.464,388.551-83.513,388.987-82.31,386.3Zm1.593-60.62v-3.993q-4.39,1.207-8.775,2.39c.268.535.532,1.078.795,1.6q13.97,1.187,27.931,2.395v-7.187q-6.787.414-13.568.8c-.267,1.6-.535,3.193-.8,4.784C-76.995,326.209-78.858,325.941-80.717,325.677Zm19.951,19.145v-8.773q-11.568,1.185-23.141,2.388.8,2.391,1.6,4.788Q-71.542,344.03-60.767,344.823Zm-22.343.8v3.988h.8q10.768-1.2,21.544-2.388Q-71.944,346.42-83.11,345.623Zm22.343-14.365c-7.451-.541-14.9-1.058-22.343-1.588v6.379h.8C-77.07,335.16-63.276,335.434-60.767,331.258Zm-28.726-2.391v7.972H-86.3v-7.972Zm0,11.164c1.809,1.664.836,1.339,3.193.8C-87.369,340.568-88.424,340.309-89.493,340.031Zm0,4q.4,3.589.795,7.174c.8-.268,1.6-.527,2.4-.8v-5.576C-87.369,344.555-88.424,344.291-89.493,344.029ZM-74.335,425.4c3.007-4.063,9.94-2.062,14.359-.8q-.4-9.972-.791-19.943-9.182-.4-18.354-.795C-80.45,412.9-81.948,425.9-74.335,425.4Zm14.359,11.964v-9.576h-2.393c.268,3.455.528,6.91.8,10.364C-61.043,437.892-60.506,437.633-59.976,437.364Zm-1.592,6.382v3.989c.525-.262,1.061-.537,1.592-.8v-.8C-60.506,445.339-61.043,444.547-61.568,443.746Zm-10.374-2.4q-3.189-.792-6.377-1.589v3.2Q-75.13,442.151-71.942,441.346Zm-6.377,3.2c1.436,1.617,0,.556,2.385,1.594C-76.733,445.61-77.522,445.075-78.319,444.547Zm6.377-8.784c1.549-2.752,1.834-5.255,0-7.179-.267,1.6-.537,3.193-.8,4.789-2.391.267-4.781.541-7.178.789.269.8.533,1.6.8,2.4.263.265.535.537.8.8C-74.554,437.23-73.688,437.764-71.942,435.763Zm15.156,7.983v2.395h1.6C-56.186,443.731-55.173,445.191-56.786,443.746Zm.8-27.92h.8c.235-4.5.217-8.863-1.6-11.172C-56.516,408.386-56.253,412.094-55.984,415.825Zm.8,87.758c.264-2.395.528-4.8.793-7.188-.265-.539-.529-1.067-.793-1.6-8.963-.213-30.481-3.239-34.307,0v7.986Q-72.339,503.182-55.186,503.583Zm-35.9,6.371c.257.8.525,1.608.8,2.4q17.134,16.356,34.3,32.706V509.954Zm36.691-118.062c-.055-5.119.935-15.819-2.394-19.958C-57.173,378.124-58.274,389.522-54.392,391.892ZM-87.1,424.6m33.5,156.363q-.4-13.16-.8-26.328-18.342-17.938-36.691-35.894.385,31.505.8,63.022Q-71.946,581.358-53.594,580.961ZM-52,393.487q1.208.409,2.406.8h.795V379.925c-1.336-.534-2.661-1.06-4-1.588A23.353,23.353,0,0,0-52,393.487Zm3.992-115.68H-65.559c.268,4.253.531,8.52.8,12.769H-48.8A69.973,69.973,0,0,0-48.011,277.808Zm6.389,1.6c-.8-.538-1.6-1.067-2.4-1.6v3.2h.8C-42.7,280.464-42.158,279.935-41.622,279.409Zm0-21.544c-1.307-3.485-.036-2.342-3.989-3.188v2.385c.526.279,1.062.542,1.588.8Zm0-11.163q-1.2-.4-2.4-.81c-1.445,2.979-1.956,4.251.8,6.389.526-.268,1.064-.531,1.6-.793Zm0-6.389c-1.075-.525-2.125-1.066-3.188-1.587V243.5h3.188Zm0-8.772h-1.6q-9.97-1.2-19.942-2.4c-.19,4.124-.584,3.611.8,6.38h20.747Zm73.391,30.314c-.263-3.454-.534-6.918-.8-10.368H29.379q-11.173,2.787-22.348,5.575c.52,2.9.326,2.417,1.6,3.994Q20.2,261.452,31.769,261.856Zm-19.946-8.773q5.989-1.6,11.975-3.2H7.031v3.2Zm19.946-17.559q-11.957,2.4-23.936,4.79c-.256,2.122-.531,4.251-.8,6.389H17.4q7.183.4,14.366.8Zm-22.327,1.6h2.382q6.382-1.6,12.767-3.179c-4.786-.287-9.573-.549-14.365-.815C9.963,234.471,9.7,235.794,9.441,237.124Zm-31.123,19.15q-6.787-.405-13.562-.8c-.263.529-.528,1.065-.8,1.588.8.279,1.6.542,2.4.8,3.992.264,7.976.537,11.967.793Zm2.39-3.191c-.264-1.859-.523-3.72-.8-5.585q-7.57-.4-15.152-.8c-.263.265-.528.527-.8.8q.411,2.8.8,5.585Zm0-12.769c-5.049-.525-10.1-1.066-15.152-1.587-1.033,1.685-.99,1.142-1.6,3.983.274.542.539,1.058.8,1.594,4.785.26,9.57.542,14.362.8.532-.26,1.066-.541,1.589-.8Zm0-3.19c-.264-1.868-.523-3.728-.8-5.582H-36.046q.411,2.782.8,5.582c5.049.274,10.106.528,15.152.8C-19.815,237.652-19.556,237.4-19.292,237.124Zm7.978,19.939c-1.591-.263-3.19-.523-4.787-.789q.8,4.385,1.6,8.769h3.19Zm0-15.946c-1.591-.265-3.19-.539-4.787-.8v13.563h4C-12.374,250.683-11.046,242.983-11.314,241.116Zm.8-3.194c-.26-1.06-.528-2.128-.8-3.193v-3.187H-12.9c-1.067.537-2.128,1.054-3.2,1.588v4.792Zm14.362,19.14H-8.123c.269,2.393.533,4.794.8,7.186,3.192.259,6.384.532,9.573.795v-1.6C2.783,261.32,3.321,259.2,3.845,257.062Zm0-15.946q-5.975.4-11.967.787v11.972q5.19.411,10.373.8c.533-.262,1.071-.527,1.594-.8Zm.8-3.194c-.428-5.754-1.605-6.338,3.188-7.971v-.808c-9.306-.136-10.939,2.572-15.955,3.193v5.586ZM30.97,637.611m-1.592-29.528c1.061,9.839,2.127,20.925,3.191,30.766.526.257,1.058-.714,1.6-.446.527-1.861-.394-20.7-.8-30.32Zm-5.581,0q.387,15.156.792,30.32h2.391s1.062-28.716.795-30.32Zm27.115,90.952c.253-4.646.292-9.569-1.6-11.975C47.733,691.3,48.131,696.7,50.913,699.035ZM24.59,687.856c.533,2.938,1.062,5.855,1.591,8.773h8.773V687.06C31.506,687.34,28.044,687.6,24.59,687.856ZM35.753,707.8c-.257-1.331-.535-2.651-.8-3.988H26.181c1.07,1.866,2.122,3.726,3.2,5.6C32.992,709.361,33.954,709.246,35.753,707.8Zm7.185-9.569h.793V687.856c-1.33-.259-2.659-.516-3.988-.8C39.353,690.891,39.047,696,42.938,698.231Zm1.6,11.176c-.273-1.869-.535-3.73-.8-5.6H39.743V710.2C41.343,709.945,42.938,709.661,44.536,709.407Zm7.176-4.794c-1.066-.269-2.128-.529-3.191-.8-.07,4.85-.471,5.041,3.191,6.388Zm67.812,25.527q-5.186-.4-10.373-.8v7.182c3.463-.27,6.916-.527,10.373-.8Zm0-19.137h-2.4q-3.994-.414-7.977-.8v4h10.373Zm-1.6-19.158q-3.2,6.4-6.384,12.768c2.664-.269,5.323-.529,7.98-.8C119.741,698.7,119.4,693.484,117.929,691.845ZM142.663,281.8" transform="translate(1576.256 -223.562)" fill="#0e1c2b" fill-rule="evenodd"/>
  </g>
</svg>
