<svg xmlns="http://www.w3.org/2000/svg" width="289.195" height="289.482" viewBox="0 0 289.195 289.482">
  <path id="Контур_4866" data-name="Контур 4866" d="M365.233,210.69c.2-4.433.191-8.928-.019-13.361l-12.342.585q-.289-6.1-1.144-12.173l12.242-1.715c-.616-4.4-1.445-8.821-2.463-13.139l-12.034,2.837q-1.4-5.939-3.353-11.758l11.722-3.936c-1.413-4.211-3.043-8.405-4.842-12.469l-11.306,5.007q-2.465-5.565-5.459-10.937L347.02,133.6c-2.167-3.875-4.544-7.7-7.064-11.355l-10.183,7.011q-3.44-5-7.392-9.734l9.5-7.922c-2.8-3.352-5.788-6.626-8.894-9.731l-.109-.108-8.739,8.738q-4.371-4.362-9.041-8.225l7.9-9.513c-3.418-2.839-7.006-5.549-10.665-8.056l-6.989,10.2q-5.078-3.479-10.39-6.439l6.008-10.8c-3.88-2.16-7.91-4.162-11.978-5.951L274,83.028q-5.618-2.472-11.4-4.4L266.506,66.9c-4.209-1.4-8.537-2.626-12.864-3.635l-2.809,12.042q-5.966-1.391-12.021-2.227L240.5,60.834c-4.4-.605-8.873-1.014-13.306-1.214l-.557,12.347q-6.111-.276-12.227.008l-.577-12.344c-4.432.208-8.909.623-13.3,1.237l1.708,12.243q-6.048.844-12.018,2.248l-2.829-12.037c-4.327,1.017-8.655,2.248-12.861,3.658l3.93,11.725q-5.779,1.937-11.4,4.418l-5-11.307c-4.064,1.8-8.09,3.807-11.967,5.972l6.027,10.787q-5.3,2.963-10.379,6.457l-7.005-10.188c-3.652,2.512-7.236,5.228-10.651,8.074l7.917,9.5q-4.625,3.855-8.975,8.185l-.053.055-8.744-8.732c-3.141,3.146-6.168,6.465-8.994,9.864l9.508,7.906q-3.941,4.74-7.374,9.748l-10.2-6.994c-2.514,3.666-4.884,7.49-7.043,11.366l10.795,6.014q-2.991,5.369-5.44,10.947L88.17,145.792c-1.79,4.061-3.412,8.258-4.819,12.472l11.728,3.917Q93.138,168,91.748,173.94l-12.04-2.815c-1.01,4.319-1.831,8.74-2.44,13.14l12.246,1.695q-.84,6.064-1.123,12.175l-12.346-.564c-.2,4.432-.2,8.927,0,13.361l12.345-.571q.283,6.1,1.129,12.173l-12.245,1.7c.612,4.4,1.435,8.821,2.448,13.141l12.038-2.822q1.393,5.94,3.339,11.762L83.376,250.24c1.41,4.215,3.035,8.411,4.828,12.475l11.31-4.994q2.459,5.567,5.446,10.945l-10.791,6.019c2.163,3.876,4.535,7.7,7.052,11.364l10.192-7q3.435,5,7.38,9.743l-9.5,7.911c2.829,3.4,5.858,6.716,9,9.86l.252.252,8.7-8.774q4.377,4.357,9.05,8.217l-7.888,9.523c3.424,2.836,7.016,5.542,10.673,8.042l6.977-10.21q5.081,3.473,10.4,6.426l-6,10.807c3.884,2.155,7.916,4.152,11.985,5.937l4.966-11.319q5.62,2.466,11.41,4.381l-3.9,11.735c4.211,1.4,8.54,2.616,12.868,3.62l2.795-12.045q5.968,1.384,12.023,2.213l-1.674,12.25c4.4.6,8.873,1,13.308,1.2l.542-12.35q6.111.269,12.227-.02l.594,12.342c4.436-.214,8.912-.634,13.3-1.252l-1.722-12.24q6.047-.85,12.015-2.263l2.844,12.033c4.328-1.024,8.653-2.259,12.856-3.673l-3.944-11.72q5.777-1.945,11.4-4.432l5.015,11.3c4.062-1.8,8.086-3.816,11.959-5.985l-6.039-10.783q5.3-2.969,10.372-6.466l7.017,10.178c3.648-2.515,7.229-5.236,10.641-8.086l-7.928-9.491q4.562-3.81,8.857-8.085c.054-.054.107-.11.161-.165l8.753,8.725c3.138-3.148,6.161-6.471,8.986-9.876l-9.518-7.894q3.936-4.745,7.361-9.758l10.206,6.982c2.509-3.667,4.874-7.494,7.03-11.374l-10.8-6q2.986-5.373,5.43-10.952l11.317,4.974c1.784-4.062,3.4-8.261,4.8-12.479l-11.733-3.9q1.935-5.818,3.317-11.765l12.044,2.8c1.005-4.324,1.822-8.746,2.425-13.142l-12.249-1.681q.833-6.065,1.108-12.176Zm-72.37-95L230.17,178.384l-9.535-9.534-9.534,9.534L148.407,115.69A114.281,114.281,0,0,1,292.863,115.69ZM229.65,213.228a12.748,12.748,0,1,1,0-18.029A12.748,12.748,0,0,1,229.65,213.228Zm-97.538,63.214a114.282,114.282,0,0,1,0-144.456l62.693,62.693-9.534,9.534,9.534,9.535Zm16.3,16.3L211.1,230.043l9.534,9.534,9.535-9.534,62.693,62.693A114.28,114.28,0,0,1,148.407,292.737Zm160.751-16.3-62.693-62.693L256,204.214l-9.535-9.535,62.693-62.693A114.28,114.28,0,0,1,309.158,276.442Z" transform="translate(348.815 -75.895) rotate(90)" fill="#101f30" opacity="0.449" style="mix-blend-mode: screen;isolation: isolate"/>
</svg>
