<svg xmlns="http://www.w3.org/2000/svg" width="480.144" height="480.621" viewBox="0 0 480.144 480.621">
  <path id="Контур_4854" data-name="Контур 4854" d="M556.277,310.439c.328-7.36.317-14.823-.031-22.184l-20.492.971q-.48-10.136-1.9-20.211l20.325-2.848c-1.023-7.305-2.4-14.645-4.089-21.814l-19.98,4.711q-2.324-9.86-5.567-19.522l19.462-6.535c-2.347-6.991-5.052-13.955-8.039-20.7l-18.77,8.313q-4.092-9.239-9.063-18.158l17.906-10.016c-3.6-6.433-7.544-12.777-11.729-18.853L497.4,175.23q-5.711-8.3-12.273-16.161L500.9,145.916c-4.643-5.565-9.61-11-14.766-16.156l-.18-.18-14.509,14.508q-7.258-7.242-15.011-13.655l13.117-15.794c-5.675-4.713-11.632-9.212-17.707-13.375l-11.6,16.937q-8.43-5.776-17.251-10.691l9.974-17.928c-6.443-3.585-13.133-6.91-19.886-9.881l-8.269,18.785q-9.327-4.1-18.935-7.3l6.491-19.476c-6.988-2.329-14.173-4.359-21.357-6.035l-4.664,19.993q-9.9-2.31-19.958-3.7l2.8-20.335c-7.3-1.005-14.732-1.684-22.092-2.015l-.924,20.5q-10.145-.458-20.3.013l-.958-20.495c-7.359.345-14.792,1.035-22.089,2.053l2.836,20.327q-10.042,1.4-19.953,3.733l-4.7-19.984c-7.184,1.689-14.369,3.733-21.352,6.073l6.525,19.466q-9.6,3.217-18.931,7.335l-8.3-18.773c-6.748,2.984-13.432,6.32-19.869,9.916l10.006,17.91q-8.806,4.92-17.231,10.72L180.224,101.5c-6.064,4.17-12.013,8.68-17.683,13.4l13.145,15.772q-7.679,6.4-14.9,13.589l-.089.091-14.518-14.5c-5.216,5.223-10.241,10.734-14.933,16.377l15.787,13.127q-6.543,7.87-12.243,16.185l-16.93-11.611c-4.174,6.086-8.108,12.436-11.693,18.871l17.922,9.985q-4.965,8.914-9.032,18.175l-18.781-8.279c-2.972,6.743-5.665,13.71-8,20.707l19.473,6.5q-3.223,9.654-5.53,19.525L82.227,244.75c-1.677,7.171-3.04,14.51-4.051,21.815l20.331,2.814q-1.394,10.067-1.864,20.214l-20.5-.937c-.337,7.358-.335,14.821.005,22.184l20.5-.948q.47,10.136,1.874,20.211l-20.33,2.824c1.015,7.305,2.382,14.646,4.064,21.818l19.987-4.686q2.312,9.862,5.543,19.529L88.316,376.1c2.34,7,5.038,13.965,8.015,20.711l18.778-8.291q4.082,9.243,9.041,18.171l-17.917,9.993c3.591,6.436,7.53,12.785,11.708,18.867l16.921-11.622q5.7,8.3,12.252,16.176l-15.78,13.134c4.7,5.642,9.725,11.15,14.945,16.37l.418.418,14.453-14.568q7.267,7.234,15.026,13.642l-13.1,15.81c5.686,4.709,11.648,9.2,17.721,13.352l11.584-16.951q8.436,5.766,17.264,10.669l-9.955,17.943c6.448,3.578,13.142,6.894,19.9,9.857l8.245-18.793q9.331,4.094,18.944,7.274l-6.467,19.483c6.991,2.321,14.179,4.344,21.364,6.01l4.64-20q9.909,2.3,19.962,3.674l-2.78,20.338c7.3,1,14.732,1.668,22.095,1.992l.9-20.5q10.146.446,20.3-.033l.985,20.492c7.365-.355,14.8-1.053,22.083-2.079L347,517.318q10.04-1.412,19.949-3.756l4.722,19.978c7.185-1.7,14.367-3.75,21.344-6.1l-6.548-19.458q9.591-3.228,18.92-7.359l8.326,18.764c6.744-2.992,13.424-6.336,19.855-9.937l-10.027-17.9q8.8-4.93,17.221-10.735l11.65,16.9c6.057-4.175,12-8.693,17.667-13.425L456.92,468.529q7.575-6.326,14.7-13.424c.09-.09.178-.183.268-.274l14.532,14.485c5.21-5.226,10.229-10.743,14.919-16.4l-15.8-13.106q6.535-7.878,12.222-16.2L514.707,435.2c4.166-6.088,8.092-12.441,11.671-18.884l-17.936-9.965q4.957-8.92,9.015-18.183l18.79,8.258c2.963-6.744,5.648-13.715,7.977-20.719l-19.48-6.479q3.213-9.66,5.507-19.533l20,4.651c1.669-7.179,3.024-14.521,4.027-21.819l-20.337-2.791q1.382-10.069,1.839-20.215ZM436.122,152.712,332.035,256.8,316.2,240.971l-15.83,15.83L196.286,152.712A189.738,189.738,0,0,1,436.122,152.712ZM331.171,314.652a21.166,21.166,0,1,1,0-29.933A21.165,21.165,0,0,1,331.171,314.652ZM169.231,419.6a189.74,189.74,0,0,1,0-239.838L273.32,283.855l-15.83,15.83,15.83,15.831Zm27.055,27.055L300.375,342.571,316.2,358.4l15.831-15.83L436.122,446.658A189.736,189.736,0,0,1,196.286,446.659ZM463.177,419.6,359.088,315.516l15.831-15.83-15.831-15.831L463.177,179.767A189.737,189.737,0,0,1,463.177,419.6Z" transform="translate(539.764 -75.895) rotate(90)" fill="#102032" opacity="0.449" style="mix-blend-mode: screen;isolation: isolate"/>
</svg>
