<svg xmlns="http://www.w3.org/2000/svg" xmlns:xlink="http://www.w3.org/1999/xlink" viewBox="0 0 182.88 182.88"><defs><style>.cls-1,.cls-10,.cls-11,.cls-12,.cls-13,.cls-14,.cls-15,.cls-16,.cls-17,.cls-18,.cls-19,.cls-20,.cls-21,.cls-22,.cls-23,.cls-24,.cls-25,.cls-26,.cls-27,.cls-28,.cls-29,.cls-3,.cls-30,.cls-31,.cls-32,.cls-33,.cls-34,.cls-35,.cls-36,.cls-37,.cls-38,.cls-39,.cls-40,.cls-41,.cls-42,.cls-43,.cls-44,.cls-45,.cls-46,.cls-47,.cls-48,.cls-49,.cls-50,.cls-51,.cls-52,.cls-53,.cls-54,.cls-55,.cls-56,.cls-57,.cls-58,.cls-59,.cls-6,.cls-60,.cls-61,.cls-62,.cls-63,.cls-64,.cls-65,.cls-68,.cls-7,.cls-8,.cls-9{isolation:isolate;}.cls-2{fill:none;stroke:#efefef;}.cls-2,.cls-67{stroke-miterlimit:10;stroke-width:2.73px;}.cls-3{fill:#0a141f;opacity:0.1;}.cls-17,.cls-4{opacity:0.2;}.cls-5{fill-opacity:0;}.cls-6{opacity:0.02;}.cls-7{opacity:0.03;}.cls-8{opacity:0.05;}.cls-9{opacity:0.07;}.cls-10{opacity:0.08;}.cls-11{opacity:0.1;}.cls-12{opacity:0.12;}.cls-13{opacity:0.13;}.cls-14{opacity:0.15;}.cls-15{opacity:0.16;}.cls-16{opacity:0.18;}.cls-18{opacity:0.21;}.cls-19{opacity:0.23;}.cls-20{opacity:0.25;}.cls-21{opacity:0.26;}.cls-22{opacity:0.28;}.cls-23{opacity:0.29;}.cls-24{opacity:0.31;}.cls-25{opacity:0.33;}.cls-26{opacity:0.34;}.cls-27{opacity:0.36;}.cls-28{opacity:0.38;}.cls-29{opacity:0.39;}.cls-30{opacity:0.41;}.cls-31{opacity:0.43;}.cls-32{opacity:0.44;}.cls-33{opacity:0.46;}.cls-34{opacity:0.47;}.cls-35{opacity:0.49;}.cls-36{opacity:0.51;}.cls-37{opacity:0.52;}.cls-38{opacity:0.54;}.cls-39{opacity:0.56;}.cls-40{opacity:0.57;}.cls-41{opacity:0.59;}.cls-42{opacity:0.61;}.cls-43{opacity:0.62;}.cls-44{opacity:0.64;}.cls-45{opacity:0.66;}.cls-46{opacity:0.67;}.cls-47{opacity:0.69;}.cls-48{opacity:0.7;}.cls-49{opacity:0.72;}.cls-50{opacity:0.74;}.cls-51{opacity:0.75;}.cls-52{opacity:0.77;}.cls-53{opacity:0.79;}.cls-54{opacity:0.8;}.cls-55{opacity:0.82;}.cls-56{opacity:0.84;}.cls-57{opacity:0.85;}.cls-58{opacity:0.87;}.cls-59{opacity:0.88;}.cls-60{opacity:0.9;}.cls-61{opacity:0.92;}.cls-62{opacity:0.93;}.cls-63{opacity:0.95;}.cls-64{opacity:0.97;}.cls-65{opacity:0.98;}.cls-66{fill:#efefef;}.cls-67{stroke:#fff;opacity:0.35;mix-blend-mode:overlay;fill:url(#radial-gradient);}.cls-68{opacity:0.2;mix-blend-mode:screen;fill:url(#linear-gradient);}</style><radialGradient id="radial-gradient" cx="-202.62" cy="511.96" r="0.38" gradientTransform="matrix(93.54, 93.54, 132.44, -132.44, -48711.31, 86735.32)" gradientUnits="userSpaceOnUse"><stop offset="0" stop-color="#fff"/><stop offset="0.27" stop-color="#fbfbfb"/><stop offset="0.5" stop-color="#f1f1f1"/><stop offset="0.72" stop-color="#dfe0e1"/><stop offset="0.93" stop-color="#c6c8c9"/><stop offset="1" stop-color="#bcbec0"/></radialGradient><linearGradient id="linear-gradient" x1="-204.23" y1="509.37" x2="-204.11" y2="510.26" gradientTransform="matrix(156.97, 0, 0, -126.47, 32154.21, 64537.89)" gradientUnits="userSpaceOnUse"><stop offset="0" stop-color="#0a141f"/><stop offset="1" stop-color="#fff"/></linearGradient></defs><g class="cls-1"><g id="Layer_1" data-name="Layer 1"><g id="Сгруппировать_41" data-name="Сгруппировать 41"><g id="Сгруппировать_40" data-name="Сгруппировать 40"><path id="Контур_1375" data-name="Контур 1375" class="cls-2" d="M105.1,175.86a19.31,19.31,0,0,1-27.31,0L7,105.1A19.31,19.31,0,0,1,7,77.79L77.79,7a19.3,19.3,0,0,1,27.3,0h0l70.77,70.77a19.31,19.31,0,0,1,0,27.31Z"/><path id="Контур_1376" data-name="Контур 1376" class="cls-3" d="M105.1,175.86a19.31,19.31,0,0,1-27.31,0L7,105.1A19.31,19.31,0,0,1,7,77.79L77.79,7a19.3,19.3,0,0,1,27.3,0h0l70.77,70.77a19.31,19.31,0,0,1,0,27.31Z"/><g id="Сгруппировать_39" data-name="Сгруппировать 39" class="cls-4"><path id="Контур_1377" data-name="Контур 1377" class="cls-5" d="M104,169.08a17.77,17.77,0,0,1-25.12,0L13.81,104a17.77,17.77,0,0,1,0-25.12L78.88,13.81a17.77,17.77,0,0,1,25.12,0l65.08,65.07a17.77,17.77,0,0,1,0,25.12Z"/><path id="Контур_1378" data-name="Контур 1378" class="cls-6" d="M104,168.82a17.71,17.71,0,0,1-25,0L14.06,104a17.71,17.71,0,0,1,0-25L78.93,14.06a17.7,17.7,0,0,1,25,0l64.86,64.87a17.7,17.7,0,0,1,0,25Z"/><path id="Контур_1379" data-name="Контур 1379" class="cls-7" d="M103.92,168.56a17.64,17.64,0,0,1-25,0L14.32,103.92a17.64,17.64,0,0,1,0-25L79,14.32a17.66,17.66,0,0,1,25,0L168.56,79a17.64,17.64,0,0,1,0,25Z"/><path id="Контур_1380" data-name="Контур 1380" class="cls-8" d="M103.88,168.31a17.6,17.6,0,0,1-24.87,0L14.58,103.88a17.58,17.58,0,0,1,0-24.87L79,14.58a17.58,17.58,0,0,1,24.87,0L168.31,79a17.6,17.6,0,0,1,0,24.87Z"/><path id="Контур_1381" data-name="Контур 1381" class="cls-9" d="M103.83,168.05a17.51,17.51,0,0,1-24.78,0L14.83,103.84a17.54,17.54,0,0,1,0-24.79L79.05,14.83a17.53,17.53,0,0,1,24.78,0l64.22,64.22a17.54,17.54,0,0,1,0,24.79Z"/><path id="Контур_1382" data-name="Контур 1382" class="cls-10" d="M103.79,167.79a17.47,17.47,0,0,1-24.7,0l-64-64a17.48,17.48,0,0,1,0-24.7l64-64a17.48,17.48,0,0,1,24.7,0l64,64a17.47,17.47,0,0,1,0,24.7Z"/><path id="Контур_1383" data-name="Контур 1383" class="cls-11" d="M103.75,167.54a17.41,17.41,0,0,1-24.62,0L15.35,103.75a17.41,17.41,0,0,1,0-24.62L79.13,15.35a17.41,17.41,0,0,1,24.62,0l63.79,63.78a17.42,17.42,0,0,1,0,24.62Z"/><path id="Контур_1384" data-name="Контур 1384" class="cls-12" d="M103.71,167.28a17.35,17.35,0,0,1-24.54,0L15.6,103.71a17.36,17.36,0,0,1,0-24.54L79.17,15.6a17.36,17.36,0,0,1,24.54,0l63.57,63.58a17.33,17.33,0,0,1,0,24.53Z"/><path id="Контур_1385" data-name="Контур 1385" class="cls-13" d="M103.67,167a17.3,17.3,0,0,1-24.46,0L15.86,103.67a17.29,17.29,0,0,1,0-24.45L79.21,15.86a17.3,17.3,0,0,1,24.46,0L167,79.22a17.29,17.29,0,0,1,0,24.45Z"/><path id="Контур_1386" data-name="Контур 1386" class="cls-14" d="M103.63,166.77a17.23,17.23,0,0,1-24.37,0L16.12,103.63a17.23,17.23,0,0,1,0-24.37L79.26,16.12a17.23,17.23,0,0,1,24.37,0l63.14,63.14a17.23,17.23,0,0,1,0,24.37Z"/><path id="Контур_1387" data-name="Контур 1387" class="cls-15" d="M103.59,166.51a17.17,17.17,0,0,1-24.29,0L16.37,103.59a17.19,17.19,0,0,1,0-24.29L79.29,16.37a17.19,17.19,0,0,1,24.29,0L166.51,79.3a17.17,17.17,0,0,1,0,24.29Z"/><path id="Контур_1388" data-name="Контур 1388" class="cls-16" d="M103.54,166.26a17.12,17.12,0,0,1-24.2,0L16.63,103.55a17.11,17.11,0,0,1,0-24.21L79.34,16.63a17.13,17.13,0,0,1,24.21,0l62.71,62.71a17.12,17.12,0,0,1,0,24.2Z"/><path id="Контур_1389" data-name="Контур 1389" class="cls-17" d="M103.5,166a17.06,17.06,0,0,1-24.12,0l-62.5-62.5a17.07,17.07,0,0,1,0-24.13l62.5-62.5a17.06,17.06,0,0,1,24.12,0L166,79.37a17.07,17.07,0,0,1,0,24.13Z"/><path id="Контур_1390" data-name="Контур 1390" class="cls-18" d="M103.46,165.75a17,17,0,0,1-24,0L17.14,103.46a17,17,0,0,1,0-24L79.42,17.15a17,17,0,0,1,24,0l62.28,62.27a17,17,0,0,1,0,24Z"/><path id="Контур_1391" data-name="Контур 1391" class="cls-19" d="M103.42,165.49a17,17,0,0,1-24,0L17.4,103.42a16.94,16.94,0,0,1,0-24L79.46,17.39a17,17,0,0,1,24,0l62.07,62.07a17,17,0,0,1,0,24Z"/><path id="Контур_1392" data-name="Контур 1392" class="cls-20" d="M103.38,165.23a16.89,16.89,0,0,1-23.88,0L17.65,103.38a16.88,16.88,0,0,1,0-23.87L79.5,17.66a16.88,16.88,0,0,1,23.88,0l61.86,61.85a16.88,16.88,0,0,1,0,23.87Z"/><path id="Контур_1393" data-name="Контур 1393" class="cls-21" d="M103.34,165a16.84,16.84,0,0,1-23.79,0L17.91,103.34a16.82,16.82,0,0,1,0-23.79L79.55,17.91a16.82,16.82,0,0,1,23.79,0L165,79.55a16.84,16.84,0,0,1,0,23.79Z"/><path id="Контур_1394" data-name="Контур 1394" class="cls-22" d="M103.3,164.72a16.76,16.76,0,0,1-23.71,0L18.16,103.3a16.78,16.78,0,0,1,0-23.71L79.59,18.17a16.76,16.76,0,0,1,23.71,0l61.42,61.42a16.78,16.78,0,0,1,0,23.71Z"/><path id="Контур_1395" data-name="Контур 1395" class="cls-23" d="M103.25,164.46a16.69,16.69,0,0,1-23.62,0l-61.21-61.2a16.72,16.72,0,0,1,0-23.63L79.63,18.42a16.71,16.71,0,0,1,23.62,0l61.21,61.21a16.72,16.72,0,0,1,0,23.63Z"/><path id="Контур_1396" data-name="Контур 1396" class="cls-24" d="M103.21,164.21a16.65,16.65,0,0,1-23.54,0l-61-61a16.65,16.65,0,0,1,0-23.54l61-61a16.65,16.65,0,0,1,23.54,0l61,61a16.65,16.65,0,0,1,0,23.54Z"/><path id="Контур_1397" data-name="Контур 1397" class="cls-25" d="M103.17,164a16.59,16.59,0,0,1-23.46,0L18.93,103.17a16.6,16.6,0,0,1,0-23.46L79.71,18.94a16.59,16.59,0,0,1,23.46,0L164,79.72a16.57,16.57,0,0,1,0,23.45Z"/><path id="Контур_1398" data-name="Контур 1398" class="cls-26" d="M103.13,163.69a16.53,16.53,0,0,1-23.38,0L19.19,103.13a16.53,16.53,0,0,1,0-23.37L79.75,19.19a16.54,16.54,0,0,1,23.38,0l60.56,60.57a16.51,16.51,0,0,1,0,23.37Z"/><path id="Контур_1399" data-name="Контур 1399" class="cls-27" d="M103.09,163.44a16.47,16.47,0,0,1-23.29,0L19.45,103.09a16.45,16.45,0,0,1,0-23.29L79.79,19.45a16.48,16.48,0,0,1,23.3,0L163.44,79.8a16.47,16.47,0,0,1,0,23.29Z"/><path id="Контур_1400" data-name="Контур 1400" class="cls-28" d="M103.05,163.18a16.41,16.41,0,0,1-23.21,0L19.7,103.05a16.41,16.41,0,0,1,0-23.21L79.84,19.71a16.41,16.41,0,0,1,23.21,0l60.13,60.13a16.41,16.41,0,0,1,0,23.21Z"/><path id="Контур_1401" data-name="Контур 1401" class="cls-29" d="M103,162.93a16.37,16.37,0,0,1-23.13,0L20,103a16.35,16.35,0,0,1,0-23.13L79.88,20A16.35,16.35,0,0,1,103,20l59.91,59.92a16.35,16.35,0,0,1,0,23.13Z"/><path id="Контур_1402" data-name="Контур 1402" class="cls-30" d="M103,162.67a16.3,16.3,0,0,1-23,0L20.22,103a16.31,16.31,0,0,1,0-23l59.7-59.7a16.3,16.3,0,0,1,23,0l59.7,59.7a16.31,16.31,0,0,1,0,23Z"/><path id="Контур_1403" data-name="Контур 1403" class="cls-31" d="M102.92,162.41a16.24,16.24,0,0,1-23,0L20.47,102.92a16.24,16.24,0,0,1,0-23L80,20.47a16.24,16.24,0,0,1,23,0L162.41,80a16.25,16.25,0,0,1,0,23Z"/><path id="Контур_1404" data-name="Контур 1404" class="cls-32" d="M102.88,162.16a16.19,16.19,0,0,1-22.88,0L20.73,102.88a16.18,16.18,0,0,1,0-22.88L80,20.73a16.18,16.18,0,0,1,22.88,0L162.16,80a16.19,16.19,0,0,1,0,22.88Z"/><path id="Контур_1405" data-name="Контур 1405" class="cls-33" d="M102.84,161.9a16.11,16.11,0,0,1-22.8,0h0L21,102.84A16.11,16.11,0,0,1,21,80h0L80,21a16.12,16.12,0,0,1,22.8,0h0L161.9,80a16.12,16.12,0,0,1,0,22.8h0Z"/><path id="Контур_1406" data-name="Контур 1406" class="cls-34" d="M102.8,161.64a16,16,0,0,1-22.71,0L21.24,102.8a16.06,16.06,0,0,1,0-22.71L80.08,21.24a16.07,16.07,0,0,1,22.72,0l58.84,58.85a16.06,16.06,0,0,1,0,22.71Z"/><path id="Контур_1407" data-name="Контур 1407" class="cls-35" d="M102.76,161.39a16,16,0,0,1-22.63,0h0L21.5,102.76a16,16,0,0,1,0-22.63h0L80.13,21.5a16,16,0,0,1,22.62,0h0l58.63,58.63a16,16,0,0,1,0,22.63h0Z"/><path id="Контур_1408" data-name="Контур 1408" class="cls-36" d="M102.71,161.13a15.94,15.94,0,0,1-22.55,0h0L21.75,102.72a16,16,0,0,1,0-22.55L80.17,21.76a15.93,15.93,0,0,1,22.54,0l58.42,58.41a16,16,0,0,1,0,22.55Z"/><path id="Контур_1409" data-name="Контур 1409" class="cls-37" d="M102.67,160.87a15.87,15.87,0,0,1-22.46,0L22,102.67a15.89,15.89,0,0,1,0-22.46L80.21,22a15.89,15.89,0,0,1,22.46,0l58.2,58.2a15.87,15.87,0,0,1,0,22.46Z"/><path id="Контур_1410" data-name="Контур 1410" class="cls-38" d="M102.63,160.61a15.83,15.83,0,0,1-22.38,0h0l-58-58a15.83,15.83,0,0,1,0-22.38l58-58a15.83,15.83,0,0,1,22.38,0l58,58a15.83,15.83,0,0,1,0,22.38Z"/><path id="Контур_1411" data-name="Контур 1411" class="cls-39" d="M102.59,160.36a15.77,15.77,0,0,1-22.3,0h0L22.52,102.59a15.76,15.76,0,0,1,0-22.3h0L80.29,22.52a15.78,15.78,0,0,1,22.3,0l57.77,57.77a15.76,15.76,0,0,1,0,22.3h0Z"/><path id="Контур_1412" data-name="Контур 1412" class="cls-40" d="M102.55,160.11a15.72,15.72,0,0,1-22.22,0L22.78,102.55a15.69,15.69,0,0,1,0-22.21L80.33,22.78a15.72,15.72,0,0,1,22.22,0L160.1,80.34a15.69,15.69,0,0,1,0,22.21Z"/><path id="Контур_1413" data-name="Контур 1413" class="cls-41" d="M102.51,159.85a15.65,15.65,0,0,1-22.13,0h0L23,102.51a15.65,15.65,0,0,1,0-22.13L80.37,23a15.66,15.66,0,0,1,22.14,0l57.34,57.34a15.65,15.65,0,0,1,0,22.13Z"/><path id="Контур_1414" data-name="Контур 1414" class="cls-42" d="M102.47,159.59a15.59,15.59,0,0,1-22,0h0L23.29,102.47a15.59,15.59,0,0,1,0-22h0L80.42,23.29a15.59,15.59,0,0,1,22,0l57.12,57.13a15.59,15.59,0,0,1,0,22h0Z"/><path id="Контур_1415" data-name="Контур 1415" class="cls-43" d="M102.42,159.34a15.54,15.54,0,0,1-22,0h0L23.55,102.43a15.53,15.53,0,0,1,0-22h0L80.46,23.55a15.52,15.52,0,0,1,22,0h0l56.91,56.91a15.54,15.54,0,0,1,0,22Z"/><path id="Контур_1416" data-name="Контур 1416" class="cls-44" d="M102.38,159.08a15.48,15.48,0,0,1-21.88,0l-56.7-56.7a15.48,15.48,0,0,1,0-21.88L80.5,23.8a15.48,15.48,0,0,1,21.88,0l56.7,56.7a15.46,15.46,0,0,1,0,21.88h0Z"/><path id="Контур_1417" data-name="Контур 1417" class="cls-45" d="M102.35,158.82a15.41,15.41,0,0,1-21.8,0L24.06,102.34a15.42,15.42,0,0,1,0-21.8h0L80.55,24.06a15.41,15.41,0,0,1,21.8,0l56.48,56.48a15.41,15.41,0,0,1,0,21.8Z"/><path id="Контур_1418" data-name="Контур 1418" class="cls-46" d="M102.3,158.57a15.35,15.35,0,0,1-21.72,0L24.32,102.3a15.35,15.35,0,0,1,0-21.72L80.58,24.32a15.35,15.35,0,0,1,21.72,0l56.27,56.27a15.36,15.36,0,0,1,0,21.71h0Z"/><path id="Контур_1419" data-name="Контур 1419" class="cls-47" d="M102.26,158.31a15.3,15.3,0,0,1-21.63,0l-56.06-56a15.31,15.31,0,0,1,0-21.64l56.06-56a15.3,15.3,0,0,1,21.63,0l56.05,56.06a15.3,15.3,0,0,1,0,21.63Z"/><path id="Контур_1420" data-name="Контур 1420" class="cls-48" d="M102.22,158.06a15.24,15.24,0,0,1-21.55,0L24.83,102.22a15.24,15.24,0,0,1,0-21.55L80.67,24.83a15.24,15.24,0,0,1,21.55,0l55.83,55.84a15.24,15.24,0,0,1,0,21.55Z"/><path id="Контур_1421" data-name="Контур 1421" class="cls-49" d="M102.18,157.8a15.18,15.18,0,0,1-21.47,0h0L25.09,102.18a15.18,15.18,0,0,1,0-21.47h0L80.71,25.09a15.18,15.18,0,0,1,21.47,0h0L157.8,80.71a15.18,15.18,0,0,1,0,21.47h0Z"/><path id="Контур_1422" data-name="Контур 1422" class="cls-50" d="M102.14,157.54a15.12,15.12,0,0,1-21.39,0h0l-55.41-55.4a15.14,15.14,0,0,1,0-21.39h0L80.75,25.34a15.13,15.13,0,0,1,21.38,0h0l55.41,55.41a15.12,15.12,0,0,1,0,21.39Z"/><path id="Контур_1423" data-name="Контур 1423" class="cls-51" d="M102.09,157.29a15.06,15.06,0,0,1-21.3,0L25.6,102.09a15.06,15.06,0,0,1,0-21.3L80.79,25.6a15.06,15.06,0,0,1,21.3,0l55.19,55.19a15.06,15.06,0,0,1,0,21.3Z"/><path id="Контур_1424" data-name="Контур 1424" class="cls-52" d="M102.05,157a15,15,0,0,1-21.21,0h0l-55-55a15,15,0,0,1,0-21.21h0l55-55a15,15,0,0,1,21.21,0h0l55,55a15,15,0,0,1,0,21.21h0Z"/><path id="Контур_1425" data-name="Контур 1425" class="cls-53" d="M102,156.77a14.94,14.94,0,0,1-21.14,0h0L26.11,102a14.94,14.94,0,0,1,0-21.14L80.87,26.11a15,15,0,0,1,21.14,0h0l54.76,54.77a14.93,14.93,0,0,1,0,21.13Z"/><path id="Контур_1426" data-name="Контур 1426" class="cls-54" d="M102,156.52a14.89,14.89,0,0,1-21,0h0L26.37,102a14.88,14.88,0,0,1,0-21h0L80.91,26.37a14.89,14.89,0,0,1,21.06,0h0l54.54,54.55a14.87,14.87,0,0,1,0,21Z"/><path id="Контур_1427" data-name="Контур 1427" class="cls-55" d="M101.93,156.26a14.83,14.83,0,0,1-21,0h0L26.62,101.93a14.83,14.83,0,0,1,0-21h0L81,26.62a14.83,14.83,0,0,1,21,0h0L156.26,81a14.83,14.83,0,0,1,0,21h0Z"/><path id="Контур_1428" data-name="Контур 1428" class="cls-56" d="M101.89,156A14.78,14.78,0,0,1,81,156h0L26.88,101.89a14.77,14.77,0,0,1,0-20.89L81,26.89a14.77,14.77,0,0,1,20.88,0h0L156,81a14.77,14.77,0,0,1,0,20.89h0Z"/><path id="Контур_1429" data-name="Контур 1429" class="cls-57" d="M101.84,155.75a14.71,14.71,0,0,1-20.8,0l-53.9-53.9a14.71,14.71,0,0,1,0-20.8L81,27.15a14.71,14.71,0,0,1,20.8,0l53.9,53.9a14.7,14.7,0,0,1,0,20.8Z"/><path id="Контур_1430" data-name="Контур 1430" class="cls-58" d="M101.8,155.49a14.65,14.65,0,0,1-20.72,0h0L27.39,101.8a14.65,14.65,0,0,1,0-20.72h0L81.08,27.39a14.65,14.65,0,0,1,20.72,0h0l53.69,53.69a14.65,14.65,0,0,1,0,20.72h0Z"/><path id="Контур_1431" data-name="Контур 1431" class="cls-59" d="M101.76,155.24a14.59,14.59,0,0,1-20.64,0h0L27.65,101.76a14.59,14.59,0,0,1,0-20.64h0L81.13,27.65a14.58,14.58,0,0,1,20.63,0h0l53.48,53.47a14.61,14.61,0,0,1,0,20.64Z"/><path id="Контур_1432" data-name="Контур 1432" class="cls-60" d="M101.72,155a14.53,14.53,0,0,1-20.56,0h0L27.91,101.72a14.54,14.54,0,0,1,0-20.56h0L81.16,27.91a14.54,14.54,0,0,1,20.56,0h0L155,81.17a14.52,14.52,0,0,1,0,20.55h0Z"/><path id="Контур_1433" data-name="Контур 1433" class="cls-61" d="M101.68,154.73a14.48,14.48,0,0,1-20.47,0h0l-53-53a14.48,14.48,0,0,1,0-20.47h0l53-53a14.49,14.49,0,0,1,20.48,0h0l53,53.05a14.48,14.48,0,0,1,0,20.47h0Z"/><path id="Контур_1434" data-name="Контур 1434" class="cls-62" d="M101.64,154.47a14.42,14.42,0,0,1-20.39,0h0L28.42,101.64a14.42,14.42,0,0,1,0-20.39h0L81.25,28.42a14.41,14.41,0,0,1,20.38,0h0l52.83,52.83a14.42,14.42,0,0,1,0,20.39h0Z"/><path id="Контур_1435" data-name="Контур 1435" class="cls-63" d="M101.59,154.21a14.35,14.35,0,0,1-20.3,0h0L28.67,101.6a14.38,14.38,0,0,1,0-20.31h0L81.29,28.68a14.36,14.36,0,0,1,20.3,0h0l52.62,52.61a14.36,14.36,0,0,1,0,20.31h0Z"/><path id="Контур_1436" data-name="Контур 1436" class="cls-64" d="M101.55,154a14.3,14.3,0,0,1-20.22,0h0l-52.4-52.4a14.3,14.3,0,0,1,0-20.22h0l52.4-52.4a14.3,14.3,0,0,1,20.22,0h0L154,81.33a14.3,14.3,0,0,1,0,20.22Z"/><path id="Контур_1437" data-name="Контур 1437" class="cls-65" d="M101.52,153.7a14.24,14.24,0,0,1-20.14,0h0L29.19,101.51a14.24,14.24,0,0,1,0-20.14h0L81.37,29.19a14.24,14.24,0,0,1,20.14,0h0L153.7,81.37a14.26,14.26,0,0,1,0,20.15Z"/><path id="Контур_1438" data-name="Контур 1438" d="M101.47,153.44a14.18,14.18,0,0,1-20.06,0h0l-52-52a14.18,14.18,0,0,1,0-20h0l52-52a14.18,14.18,0,0,1,20.06,0h0l52,52a14.18,14.18,0,0,1,0,20.06h0Z"/></g><path class="cls-66" d="M57.5,123.25a2.08,2.08,0,1,1,0-4.15h3.23a2.08,2.08,0,1,1,0,4.15Zm10.77,0a2.08,2.08,0,0,1,0-4.15h3.24a2.08,2.08,0,0,1,0,4.15Zm10.78,0a2.08,2.08,0,1,1,0-4.15h3.23a2.08,2.08,0,1,1,0,4.15Zm10.77,0a2.08,2.08,0,0,1,0-4.15h3.24a2.08,2.08,0,0,1,0,4.15Zm10.78,0a2.08,2.08,0,1,1,0-4.15h3.23a2.08,2.08,0,1,1,0,4.15Zm10.77,0a2.08,2.08,0,0,1,0-4.15h3.23a2.08,2.08,0,1,1,0,4.15Zm10.78,0a2.08,2.08,0,1,1,0-4.15h3.23a2.08,2.08,0,1,1,0,4.15Zm1.43-64.53a5.79,5.79,0,0,0-3.78-1.33c-3,0-6,2.06-6,5.51v1.21a2.32,2.32,0,0,0-1.39-.67c-.72-.07-1.46-.1-2.2-.1-8.7,0-15.87,4.88-16.17,5.09a2.31,2.31,0,0,0,2.64,3.8c.06,0,6.28-4.27,13.52-4.27.59,0,1.18,0,1.75.08l.24,0a2.28,2.28,0,0,0,1.61-.67v4.8a2.22,2.22,0,0,0-1.59-.67h-.11C105.52,71.74,99.48,77.43,98,79l-1.53-4a2.33,2.33,0,0,0-2.16-1.49H76.34A2.31,2.31,0,0,0,74.19,75l-2.57,6.7a2.33,2.33,0,0,0-2.27-1.85H61.49a2.3,2.3,0,0,0-2.31,2.31v3.93a2.3,2.3,0,0,0,.67,1.63l-4,3.38A2.3,2.3,0,0,0,55,92.83v7.87a2.31,2.31,0,1,0,4.62,0V93.91l2.68-2.26H97v10.14a2.13,2.13,0,0,0,.25,1,7.11,7.11,0,0,0-2.53-.48H61.92a6.9,6.9,0,0,0,0,13.8H94.69a6.89,6.89,0,0,0,4.61-12,2.31,2.31,0,0,0,2.29-2.31V89.34a2.31,2.31,0,0,0-1.41-2.13,1.43,1.43,0,0,0,.12-.21,2.29,2.29,0,0,0,0-1.76l-.78-2A2.31,2.31,0,0,0,101,82.5c.06-.07,5.82-6.18,11.27-6.36a2.24,2.24,0,0,0,1.54-.68v1.59a2.32,2.32,0,0,0,4.63,0V62.9c0-.73,1.09-.89,1.38-.89a1.29,1.29,0,0,1,.78.22.91.91,0,0,1,.2.67V79.73a2.32,2.32,0,0,0,4.63,0V62.9A5.28,5.28,0,0,0,123.58,58.72ZM70.3,87s0,0,0,0H63.58a2.26,2.26,0,0,0,.22-1V84.44h5.55A2.33,2.33,0,0,0,70.74,84l-.49,1.26A2.31,2.31,0,0,0,70.3,87Zm4.19,0s.06-.09.08-.14l3.36-8.79H92.67L96,86.89s.06.09.08.14Zm20.2,24.47H61.92a2.28,2.28,0,0,1,0-4.56H94.69a2.28,2.28,0,0,1,0,4.56Zm34.36-18.89c-1.11-6.71-7.89-8.49-11.32-8.49h-.17a2.32,2.32,0,0,0-2.28,2.34,2.35,2.35,0,0,0,.63,1.56,2.37,2.37,0,0,0-.42.61,2.31,2.31,0,0,0-.07,1.77l2.1,5.7a2.24,2.24,0,0,0-1.16-.67c-.1,0-2.59-.69-3.52-4.42a2.31,2.31,0,0,0-2.09-1.75h-.15a2.32,2.32,0,0,0-2.15,1.47c-.1.24-2.27,5.93.15,10.44a9.45,9.45,0,0,0,6.75,4.67,2,2,0,0,0,.49,0,2.31,2.31,0,0,0,.49-4.57A5,5,0,0,1,112.68,99a3.55,3.55,0,0,1-.21-.44,8.18,8.18,0,0,0,2.87,1.39,2.2,2.2,0,0,0,.5.06,2.34,2.34,0,0,0,2.26-1.81,2.6,2.6,0,0,0,.05-.39l1.86,5a2.29,2.29,0,0,0,1.25,1.32,2.23,2.23,0,0,0,.92.19,2.33,2.33,0,0,0,.9-.18A10.53,10.53,0,0,0,129.05,92.61Zm-5.77,5.74L119.84,89c1.94.44,4.19,1.56,4.65,4.33A6,6,0,0,1,123.28,98.35Z"/><path id="Контур_1439" data-name="Контур 1439" class="cls-67" d="M101.3,153.23a14.18,14.18,0,0,1-20.06,0h0l-52-52a14.18,14.18,0,0,1,0-20.06h0l52-52a14.18,14.18,0,0,1,20.06,0h0l52,52a14.17,14.17,0,0,1,0,20h0Z"/></g><path id="Контур_1441" data-name="Контур 1441" class="cls-68" d="M175.86,77.79,105.1,7A19.31,19.31,0,0,0,77.79,7h0L24.55,60.26l128.58,67.58,22.73-22.74A19.31,19.31,0,0,0,175.86,77.79Z"/></g></g></g></svg>