<?xml version="1.0" encoding="UTF-8"?><svg xmlns="http://www.w3.org/2000/svg" xmlns:xlink="http://www.w3.org/1999/xlink" viewBox="0 0 89.16 22.58"><defs><style>.e{fill:url(#d);}.f{fill:none;}.g{fill:#f9cc33;}.h{fill:#7d661a;}.i{fill:#ad8416;}.j{fill:#604c16;}.k{fill:#534213;}</style><linearGradient id="d" x1="80.38" y1="9.84" x2="86.13" y2="9.84" gradientTransform="matrix(1, 0, 0, 1, 0, 0)" gradientUnits="userSpaceOnUse"><stop offset=".12" stop-color="#fdce35"/><stop offset=".41" stop-color="#f6c239"/><stop offset=".75" stop-color="#6c5936"/></linearGradient></defs><g id="a"/><g id="b"><g id="c"><g><path class="f" d="M42.42,12.89c.17-.1,.32-.24,.42-.41,.1-.17,.15-.37,.15-.57,0-.41-.21-.79-.57-1-.3-.1-.61-.15-.93-.15h-.13v2.26h.13c.32,0,.63-.04,.93-.13Z"/><path class="f" d="M59.25,10.89c-.17-.11-.37-.16-.57-.15h-.3v2.28l.3,.04c.2,0,.4-.05,.57-.15,.18-.1,.32-.24,.41-.42,.11-.18,.16-.39,.15-.6,.01-.41-.2-.79-.56-1Z"/><path class="f" d="M42.68,13.69c-.39-.1-.79-.15-1.19-.15h-.13v2.26h.13c.4,0,.8-.04,1.19-.13h0c.17-.11,.32-.26,.42-.43,.1-.17,.15-.37,.15-.57,0-.2-.05-.39-.15-.56-.1-.17-.24-.32-.42-.42Z"/><polygon class="f" points="31.36 12.04 30.67 13.79 32.14 13.79 31.36 12.04"/><polygon class="f" points="6.04 13.79 7.51 13.79 6.72 12.04 6.04 13.79"/><path class="j" d="M4.41,16.29h.63l.77-2h1.94l.9,2h3.26l-2.67-6h-2.52l-2.31,6Zm1.63-2.5l.68-1.75,.79,1.75h-1.47Z"/><polygon class="j" points="21.4 16.29 19.49 13.29 21 10.29 18 10.29 16.59 13.29 18.4 16.29 21.4 16.29"/><polygon class="j" points="13.59 10.29 13.59 16.29 16.59 16.29 16.59 13.29 16.59 10.29 13.59 10.29"/><polygon class="j" points="27.1 14.73 25.1 10.29 22.31 10.29 24.98 16.29 27.15 16.29 29.42 10.29 28.75 10.29 27.1 14.73"/><path class="j" d="M30.48,14.29h1.9l.9,2h3.26l-2.67-6h-2.51l-2.28,6h.63l.77-2Zm.88-2.25l.78,1.75h-1.47l.69-1.75Z"/><path class="j" d="M45.48,12.68c.13-.25,.21-.52,.21-.8,0-.28-.08-.56-.22-.81-.29-.49-.82-.79-1.39-.78h-5.74v6.03h5.74c.29,0,.57-.07,.81-.22,.49-.29,.8-.81,.8-1.38,0-.28-.08-.55-.21-.8-.13-.25-.32-.47-.55-.63,.23-.15,.42-.36,.55-.61Zm-4.12-1.92h.13c.32,0,.63,.05,.93,.15,.36,.21,.57,.59,.57,1,0,.2-.05,.4-.15,.57-.1,.17-.25,.31-.42,.41-.3,.09-.61,.14-.93,.13h-.13v-2.26Zm1.74,4.48c-.1,.17-.25,.32-.42,.42h0c-.39,.1-.79,.15-1.19,.14h-.13v-2.26h.13c.4,0,.8,.05,1.19,.15,.17,.1,.32,.25,.42,.42,.1,.17,.15,.36,.15,.56,0,.2-.05,.4-.15,.57Z"/><path class="j" d="M62.81,11.89c.02-.28-.05-.57-.18-.82-.14-.23-.34-.42-.57-.56-.24-.14-.51-.22-.78-.22h-5.76v6.04h2.87v-2.76h.23c.14,0,.28,.02,.42,.05,.14,.03,.27,.07,.39,.14,.11,.06,.21,.15,.28,.26,.07,.13,.11,.28,.1,.43v1.89h2.85v-1.55c0-.3-.11-.59-.3-.82-.2-.24-.46-.41-.76-.49,.35-.09,.66-.3,.87-.59,.22-.29,.34-.64,.34-1Zm-3.15,.6c-.09,.18-.23,.32-.41,.42-.17,.1-.37,.15-.57,.15l-.3-.04v-2.28h.3c.2,0,.4,.04,.57,.15,.36,.21,.57,.59,.56,1,0,.21-.04,.42-.15,.6Z"/><polygon class="j" points="70.12 10.8 70.12 10.29 64.43 10.29 64.43 16.32 70.69 16.32 70.69 15.81 67.46 15.81 67.46 13.55 69.05 13.55 69.05 13.03 67.46 13.03 67.46 10.8 70.12 10.8"/><polygon class="j" points="53.2 10.8 53.2 10.29 47.5 10.29 47.55 16.32 53.81 16.32 53.81 15.8 50.53 15.8 50.53 13.55 52.12 13.55 52.12 13.03 50.53 13.03 50.53 10.8 53.2 10.8"/><path class="j" d="M74.78,11.23c.13-.29,.45-.45,.76-.4h2v-.59h-3c-.52-.01-1.05,.04-1.56,.16-.41,.11-.78,.33-1.07,.64-.55,.6-.82,1.4-.77,2.21-.04,.84,.26,1.66,.83,2.27,.28,.28,.62,.49,1,.61,.5,.14,1.01,.2,1.53,.19h3.68v-2.94h-2.63v2.36c-.46,0-.79-.27-1-.83-.18-.52-.27-1.08-.25-1.63,0-.37,.04-.74,.11-1.11,.05-.34,.18-.66,.37-.94Z"/></g><path class="j" d="M17.75,6.14h27.32l.12,.36H17.87l-.12-.36Zm-15.25-.15l1.07,.4,12.8,.02,.65-.65c.37-.37,.84-.85,1.32-1.32l1.32-1.35,.71-.78,4.91-.18,.09,.29,.16,.12c.05,.03,.11,.06,.17,.07,.06,.01,.13,.01,.19,0l8.11-.3h.01v-.37l-8.24,.3h-.18c-.06-.02-.12-.05-.18-.08-.05-.03-.11-.07-.15-.12-.05-.05-.09-.11-.13-.18l-2.99,.12-1.91,.02c-.25,.23-3.98,4.04-3.98,4.04m51.56-3.78l3.47,.17,4.75,.22,.27-.02,.1-.17,5.26,2.47,.27,.14,1.53,.71v-.35l-1.53-.71-.27-.14-5.26-2.47-.1,.17-.27,.02-4.75-.22-3.47-.17-.02,.04-1.14,1.79v.35l1.14-1.79,.02-.05Zm19.49,5.05v.35h0l-1.14,.06-2.04-1.32H47.21v-.12l-3.19-1.96h-1.95l-.53-.58v-.35l.53,.58h1.95l3.19,1.96v.12h36.9l2.04,1.32,1.14-.06h0Zm-.92,6.59c-.17,0-.34-.01-.52-.05-1.47-.25-5.62-1.08-5.84-1.12h-1.4c.22,.04,4.37,.87,5.84,1.12,.18,.03,.36,.05,.52,.05h1.4M2.82,19.58s-.11,.12-.2,.24c-.06,.07-.11,.13-.13,.15l73.02-.02s3.81-.02,10.62-.03v-.33H2.82Z"/><path class="i" d="M2.62,6.03v13.91c.06-.09,.13-.16,.22-.22,.08-.06,.22-.11,.32-.13,.12-.02,.41,0,.41,0V6.39l-.95-.36Z"/><g><path class="g" d="M87.26,7.3h.03s-1.81-.73-2.11-1.26c-.13-.24-.25-.48-.79-.76l-8.27-4.1-6.38-.45V.08l-12.75,2.92-.89,.17c-.29,.05-.59,.13-.9,.13l-.91,.08h-12.75l.53,.58h1.95l3.19,1.96v.12h36.9l1.83,1.19c-.82,1.08-4.03,5.24-4.22,5.49l-1.67-.11-.03,.11c.22,.04,4.37,.87,5.84,1.12,.18,.03,.36,.05,.52,.05,3.32,0,3.75-5.83,.89-6.58Zm-3.84-1.77l-.32-.04-16.35-1.68h-.11v-.08l1.14-1.79,.02-.04,3.47,.17,4.75,.22,.27-.02,.1-.17,5.26,2.47,.27,.14,1.53,.71-.03,.11Z"/><path class="g" d="M2.62,19.96s0-13.55,0-13.55v-.38h13.62l.02-.02-.02,.02h.01s.89-.9,1.84-1.84c1.05-1.05,2.16-2.16,2.16-2.16l1.89-.05,2.99-.12c.04,.07,.08,.13,.13,.18,.04,.05,.1,.09,.15,.12,.06,.03,.12,.06,.18,.08h.18l8.24-.3v.37h-.01v.32c0,.55-.45,1-1,1h-12.8l-2.45,2.51h27.32l-1.66-1.08h-2.25l-1.15-1.54V1C40.01,.45,39.56,0,39.01,0h-2.69c-.13,0-.25,.02-.37,.06-.1,.03-.19,.08-.27,.15-.07,.05-.13,.12-.18,.19-.05,.06-.09,.13-.13,.2l-9.66,.29c-.06,0-.12,0-.18,0-.06,.02-.11,.05-.16,.09-.05,.04-.1,.08-.14,.13-.05,.06-.09,.13-.13,.2l-4.7,.17c-.02-.08-.04-.16-.07-.23-.02-.06-.05-.12-.09-.18l-.1-.12-.12-.1c-.07-.05-.15-.09-.24-.12h-.66l-.12,.08-2.44,2.26c-.18,.17-.43,.27-.68,.27H1c-.55,0-1,.45-1,1V21.58c0,.55,.45,1,1,1H86.13v-2.67c-6.8,0-10.61,.02-10.62,.03l-72.89,.02Z"/></g><polygon class="h" points="80.01 12.71 78.62 12.71 78.64 12.6 80.04 12.6 80.01 12.71"/><path class="e" d="M85.55,6.97h-.81c-.06,.09-3.8,4.94-4.35,5.66l1.33,.09,.08-.1,.26-.33,.11-.14,.57-.74c.24-.31,.5-.65,.78-1.01l.13-.17c.37-.48,.74-.97,1.09-1.42l.07-.1c.35-.46,.67-.88,.91-1.18h0c.08-.11,.14-.2,.2-.27v-.02h.02c.11-.16,.18-.25,.19-.26h-.58Z"/><path class="h" d="M85.55,6.97h-.81c-.06,.09-3.8,4.94-4.35,5.66l1.33,.09,.08-.1,.26-.33,.11-.14,.57-.74c.24-.31,.5-.65,.78-1.01l.13-.17c.37-.48,.74-.97,1.09-1.42l.07-.1c.35-.46,.67-.88,.91-1.18h0c.08-.11,.14-.2,.2-.27v-.02h.02c.11-.16,.18-.25,.19-.26h-.58Zm-3.9,5.6l-.99-.06c3.29-4.26,3.99-5.18,4.15-5.39h1.04s-4.2,5.45-4.2,5.45Z"/><path class="k" d="M86.13,19.58c.41,0,.74,.67,.74,1.49s-.33,1.5-.74,1.5-.74-.67-.74-1.5,.33-1.49,.74-1.49Z"/></g></g></svg>