<?xml version="1.0" encoding="utf-8"?>
<!-- Generator: Adobe Illustrator 25.2.1, SVG Export Plug-In . SVG Version: 6.00 Build 0)  -->
<svg version="1.1" id="Layer_1" xmlns="http://www.w3.org/2000/svg" xmlns:xlink="http://www.w3.org/1999/xlink" x="0px" y="0px"
	 viewBox="0 0 180.1 50" style="enable-background:new 0 0 180.1 50;" xml:space="preserve">
<style type="text/css">
	.st0{clip-path:url(#SVGID_2_);}
	.st1{fill:#F1E7D9;}
	.st2{fill:#604C16;}
	.st3{fill:#AD8416;}
	.st4{fill:#F9CC33;}
	.st5{fill:url(#Контур_538_1_);}
	.st6{fill:url(#Контур_539_1_);}
	.st7{fill:#7B653D;}
	.st8{fill:url(#stroke_1_);}
	.st9{fill:url(#Контур_544_1_);}
	.st10{fill:none;}
</style>
<g>
	<defs>
		<rect id="SVGID_1_" x="-200" width="1920" height="50"/>
	</defs>
	<clipPath id="SVGID_2_">
		<use xlink:href="#SVGID_1_"  style="overflow:visible;"/>
	</clipPath>
	<g id="Группа_масок_2" class="st0">
		<g id="boardArtboard_1" transform="translate(197.945 0.953)">
			<g id="Text" transform="translate(11.092 22.198)">
				<g id="text_W">
					<path id="Контур_524" class="st1" d="M-195.4,0.1h5.1l5.4,10.7h-6.6l-1.8-3.5h-3.8l-1.6,3.5h-1.3L-195.4,0.1z
						 M-193.8,6.3l-1.6-3.1l-1.4,3.1H-193.8z"/>
					<path id="Контур_525" class="st1" d="M-181.5,0.1h6.1v10.7h-6.1V0.1z M-175.3,5.4l2.9-5.3h6.1l-3.1,5.3l3.9,5.4h-6.2
						L-175.3,5.4z"/>
					<path id="Контур_526" class="st1" d="M-163.8,0.1h5.7l4,7.9l3.3-7.9h1.3l-4.6,10.7h-4.3L-163.8,0.1z"/>
					<path id="Контур_527" class="st1" d="M-145.5,0.1h5.1l5.4,10.7h-6.6l-1.8-3.5h-3.8l-1.6,3.5h-1.3L-145.5,0.1z
						 M-143.9,6.3l-1.6-3.1l-1.4,3.1H-143.9z"/>
					<path id="Контур_528" class="st1" d="M-131.3,0.1h11.7c1.1,0,2.2,0.5,2.8,1.4c0.3,0.4,0.4,0.9,0.4,1.4
						c0,0.5-0.1,1-0.4,1.4c-0.3,0.4-0.7,0.8-1.1,1.1c0.5,0.3,0.8,0.7,1.1,1.1c0.3,0.4,0.4,0.9,0.4,1.4c0,0.5-0.2,1-0.4,1.4
						c-0.3,0.4-0.7,0.8-1.2,1c-0.5,0.3-1.1,0.4-1.6,0.4h-11.7V0.1z M-123,4.7c0.3-0.2,0.6-0.4,0.8-0.7c0.2-0.3,0.3-0.6,0.3-1
						c0-0.8-0.5-1.4-1.1-1.8c-0.6-0.2-1.3-0.3-1.9-0.3h-0.3v4c0.1,0,0.2,0,0.3,0C-124.3,5-123.6,4.9-123,4.7L-123,4.7z M-122.5,9.6
						c0.3-0.2,0.6-0.4,0.8-0.7c0.4-0.6,0.4-1.4,0-2c-0.2-0.3-0.5-0.6-0.8-0.7c-0.8-0.2-1.6-0.3-2.4-0.3h-0.3v4c0.1,0,0.2,0,0.3,0
						C-124.1,9.9-123.3,9.8-122.5,9.6L-122.5,9.6z"/>
					<path id="Контур_529" class="st1" d="M-96.5,0.1h11.7c0.5,0,1.1,0.1,1.6,0.4c0.5,0.2,0.9,0.6,1.2,1
						c0.3,0.4,0.4,0.9,0.4,1.4c0,0.7-0.2,1.3-0.7,1.8c-0.5,0.5-1.1,0.9-1.8,1c0.6,0.1,1.1,0.4,1.5,0.9c0.4,0.4,0.6,0.9,0.6,1.5v2.8
						h-5.9V7.5c0-0.3-0.1-0.5-0.2-0.8c-0.1-0.2-0.3-0.4-0.6-0.5C-88.8,6.1-89.1,6-89.3,6c-0.3,0-0.6-0.1-0.9-0.1l-0.5,0v4.9h-5.8
						L-96.5,0.1z M-90.1,5c0.4,0,0.8-0.1,1.2-0.3c0.3-0.2,0.6-0.4,0.8-0.7c0.2-0.3,0.3-0.6,0.3-1c0-0.8-0.5-1.4-1.1-1.8
						C-89.3,1.1-89.7,1-90.1,1h-0.6v4L-90.1,5z"/>
					<path id="Контур_530" class="st1" d="M-78.4,0.1h11.6V1h-5.4v4h3.2v0.9h-3.2v4h6.6v0.9h-12.7V0.1z"/>
					<path id="Контур_531" class="st1" d="M-112.7,0.1h11.6V1h-5.4v4h3.2v0.9h-3.2v4h6.6v0.9h-12.7V0.1z"/>
					<path id="Контур_532" class="st1" d="M-63.3,1.4c0.6-0.6,1.4-0.9,2.2-1.1C-60,0.1-59,0-57.9,0h6.1l0,1c0,0-3.3,0-4,0
						C-56.4,1-57,1.3-57.3,1.8c-0.4,0.5-0.6,1.1-0.8,1.7c-0.1,0.6-0.2,1.3-0.2,2c0,1,0.1,2,0.5,2.9c0.3,0.9,1.1,1.5,2,1.5V5.6h5.3
						v5.2c-1.7,0-3.6,0-5.7,0.1l-1.8,0c-1,0-2.1-0.1-3.1-0.3c-0.8-0.2-1.5-0.6-2.1-1.1c-1.1-1-1.8-2.5-1.7-4
						C-64.9,3.9-64.3,2.5-63.3,1.4z"/>
				</g>
			</g>
			<g id="shadow" transform="translate(7.367 7.407)">
				<path id="Контур_533" class="st2" d="M-165.4,2.2l1.4-1.2l10-0.3c0.1,0.1,0.2,0.2,0.3,0.3c0.1,0.1,0.2,0.2,0.3,0.2
					c0.1,0.1,0.2,0.1,0.4,0.1c0.1,0,0.3,0,0.4,0l16.5-0.5V0.2L-153,0.7c-0.1,0-0.3,0-0.4,0c-0.1,0-0.2-0.1-0.3-0.1
					c-0.1-0.1-0.2-0.1-0.3-0.2c-0.1-0.1-0.2-0.2-0.3-0.3l-10,0.3l-8,7.1H-200V8h27.9l1.3-1.2c0.7-0.6,1.7-1.5,2.7-2.3L-165.4,2.2z"
					/>
				<path id="Контур_534" class="st2" d="M-169.1,8.2h55.4l-0.2-0.6h-55.4L-169.1,8.2z"/>
			</g>
			<path id="Контур_535" class="st3" d="M-192.6,14.7v24.7c0.1-0.2,0.3-0.3,0.5-0.4c0.2-0.1,0.3-0.2,0.5-0.2
				c0.1,0,0.1,0,0.2,0c0.1,0,0.1,0,0.2,0h0.6V15.3L-192.6,14.7z"/>
			<path id="Контур_536" class="st4" d="M-34.1,42.2c0-0.2-0.1-0.3-0.1-0.5v0c0-0.1,0-0.2,0-0.3v-0.2c0-0.2,0-0.3,0.1-0.5
				c0-0.2,0.1-0.4,0.2-0.6c0.2-0.4,0.5-0.8,0.9-1.1c0.2-0.1,0.3-0.2,0.5-0.2c0.1,0,0.3-0.1,0.4-0.1h-159.1c-0.1,0-0.2,0-0.2,0
				c-0.1,0-0.1,0-0.2,0c-0.2,0.1-0.4,0.1-0.5,0.2c-0.2,0.1-0.3,0.2-0.5,0.4V14.8h27.6l8-7l10-0.3c0.1,0.1,0.2,0.2,0.3,0.3
				c0.1,0.1,0.2,0.2,0.3,0.2c0.1,0.1,0.2,0.1,0.3,0.1c0.1,0,0.3,0,0.4,0l16.7-0.5v1.2c-0.1,1.1-1,1.8-2,1.8h-26l-5,4.4h55.4
				l-3.4-1.9h-4.6l-2.3-2.7V5.9c-0.1-1-1-1.8-2-1.8l-5.4,0c-0.3,0-0.5,0-0.8,0.1c-0.2,0.1-0.4,0.1-0.5,0.3c-0.1,0.1-0.3,0.2-0.4,0.3
				c-0.1,0.1-0.2,0.2-0.3,0.4l-19.6,0.6c-0.1,0-0.2,0-0.4,0.1c-0.1,0-0.2,0.1-0.3,0.1c-0.1,0.1-0.2,0.1-0.3,0.2
				c-0.1,0.1-0.2,0.2-0.3,0.3l-9.5,0.3c0-0.1-0.1-0.3-0.1-0.4c0-0.1-0.1-0.2-0.2-0.3C-157,6-157,6-157.1,5.9
				c-0.1-0.1-0.2-0.1-0.2-0.2c-0.2-0.1-0.3-0.2-0.5-0.2c-0.1,0-0.2,0-0.3-0.1c-0.2,0-0.4,0-0.5,0c-0.1,0-0.2,0-0.3,0.1
				c-0.1,0-0.2,0.1-0.3,0.1c-0.1,0-0.2,0.1-0.2,0.1l-5,4c-0.4,0.3-0.9,0.5-1.4,0.5h-30.2c-1-0.1-2,0.7-2,1.8v30.3c0.1,1,1,1.8,2,1.8
				h163.8C-33.1,44-33.9,43.2-34.1,42.2z"/>
			<path id="Контур_537" class="st2" d="M-190.7,38.7h-0.5c-0.1,0-0.2,0-0.2,0c-0.1,0-0.1,0-0.2,0c-0.2,0.1-0.4,0.1-0.5,0.2
				c-0.2,0.1-0.3,0.2-0.5,0.4h159.1c0.1-0.1,0.3-0.3,0.5-0.4c0.2-0.1,0.3-0.2,0.5-0.2c0.1,0,0.3-0.1,0.4-0.1L-190.7,38.7z"/>
			<g id="Main-3" transform="translate(85.861 4.309)">
				<g id="shadow-2" transform="translate(0.004 3.546)">
					
						<linearGradient id="Контур_538_1_" gradientUnits="userSpaceOnUse" x1="-483.81" y1="-108.2492" x2="-482.81" y2="-108.2492" gradientTransform="matrix(5.282 0 0 -0.773 2431.0212 -65.9822)">
						<stop  offset="0.25" style="stop-color:#6C5936"/>
						<stop  offset="0.59" style="stop-color:#F6C239"/>
						<stop  offset="0.88" style="stop-color:#FDCE35"/>
					</linearGradient>
					<path id="Контур_538" class="st5" d="M-121.2,17.5l-3.3-0.2l1.8,0.6l3.5,0.2L-121.2,17.5z"/>
					
						<linearGradient id="Контур_539_1_" gradientUnits="userSpaceOnUse" x1="-483.81" y1="495.7337" x2="-482.81" y2="495.7337" gradientTransform="matrix(9.411 0 0 -8.432 4431.9619 4193.8877)">
						<stop  offset="0.12" style="stop-color:#FDCE35"/>
						<stop  offset="0.41" style="stop-color:#F6C239"/>
						<stop  offset="0.75" style="stop-color:#6C5936"/>
					</linearGradient>
					<path id="Контур_539" class="st6" d="M-114.2,9.6l-7,7.8l2,0.6l7.4-8.4L-114.2,9.6z"/>
					<path id="Контур_540" class="st2" d="M-111.9,9.6l-0.2-0.1l-0.1-0.1c0,0-0.1-0.1-0.1-0.1c-0.3-0.2-0.5-0.5-0.7-0.9
						c-0.1-0.2-0.1-0.3-0.2-0.5c0-0.2-0.1-0.4-0.1-0.5h-74.9l0-0.3l-6.4-3.4h-3.9l-1.4-1.3v0.9l1.4,1.3h3.9l6.4,3.3v0.3h72.7
						c0,0.1,0.1,0.2,0.1,0.2c0.1,0.2,0.2,0.3,0.3,0.4c0.1,0.1,0.2,0.3,0.4,0.4c0,0,0.1,0.1,0.1,0.1c0,0,0.1,0.1,0.1,0.1l0.1,0.1
						l0.1,0.1l1.5,0l1,0L-111.9,9.6z"/>
					<path id="Контур_541" class="st2" d="M-118.3,4.7l-10.3-4.4c-0.1,0.1-0.1,0.1-0.2,0.2c-0.1,0.1-0.2,0.1-0.3,0.1
						c-0.1,0-0.2,0.1-0.3,0.1c-0.1,0-0.2,0-0.3,0h-0.1L-146.3,0l-2.2,3.2l0,0l0.6,0.1l1.7-2.4l16.7,0.7l0.3,0l0.3-0.1l0.2-0.1
						l0.2-0.2l10.3,4.4l0.9,0.4l2.2,0.2L-118.3,4.7z"/>
					<path id="Контур_542" class="st2" d="M-107.7,7.2c-0.1-0.7-0.6-1.2-1.2-1.5c-0.3-0.1-0.7-0.2-1-0.2c-0.2,0-0.3,0-0.5,0
						c-0.2,0-0.3,0.1-0.5,0.1c-0.2,0.1-0.3,0.1-0.5,0.2c-0.2,0.1-0.3,0.2-0.5,0.3l0,0l0.4,0.6l0,0l0.5-0.2l0.5-0.1l0.5,0
						c0.4,0,0.7,0.1,1,0.2c0.3,0.1,0.6,0.3,0.8,0.6c0.2,0.3,0.4,0.6,0.4,0.9l0,0.1c0-0.1,0-0.2,0-0.3v0
						C-107.7,7.6-107.7,7.4-107.7,7.2z"/>
					<path id="Контур_543" class="st7" d="M-124.5,17.3l-0.1,0.5l1.8,0.6l0.1-0.5L-124.5,17.3z"/>
				</g>
				<path id="body" class="st4" d="M-105,14.2c-0.6-0.8-1.3-1.5-2.2-1.9l-0.1-0.1l0.1-0.1c0.1-0.1,0.1-0.2,0.1-0.2
					c0-0.1,0.1-0.2,0.1-0.2c0-0.1,0.1-0.2,0.1-0.3c0-0.1,0-0.2,0-0.3c0.1-0.6-0.1-1.2-0.5-1.6c-0.1-0.2-0.3-0.3-0.4-0.4
					c-0.2-0.1-0.3-0.2-0.5-0.3c-0.2-0.1-0.4-0.2-0.6-0.2c-0.4-0.1-0.8-0.2-1.2-0.2h-0.3c-0.4,0-0.9,0.1-1.3,0.3
					c-0.2,0.1-0.4,0.2-0.5,0.3c-0.2,0.1-0.3,0.2-0.5,0.4l-0.1,0.1l-0.1,0l-15.8-6.8l0,0l0,0c-0.1-0.1-0.1-0.1-0.2-0.2
					c-0.1-0.1-0.3-0.2-0.5-0.3c-0.1,0-0.2,0-0.3,0l-12.8-0.7h-0.1V0.1l-25.9,5.2c-0.6,0.1-1.2,0.2-1.8,0.3s-1.2,0.2-1.8,0.2
					s-1.2,0.1-1.8,0.1s-1.2,0-1.8,0h-24.1l1.2,1.1h3.9l0,0l6.4,3.4l0.1,0v0.3h74.9V11c0,0.2,0,0.3,0.1,0.5c0,0.2,0.1,0.3,0.2,0.5
					c0.1,0.2,0.2,0.3,0.3,0.4c0.1,0.1,0.3,0.3,0.4,0.4l0.1,0.1c0,0,0.1,0.1,0.1,0.1l0.1,0.1c0,0,0.1,0.1,0.2,0.1l0.1,0.1l-0.1,0.1
					l-7.4,8.4l0,0h-0.1l-3.4-0.2l-0.1,0.3l11.9,2h0l0.1,0h0.5c0.5,0,1,0,1.5-0.1c0.7-0.1,1.3-0.3,1.9-0.7c0.7-0.4,1.3-0.9,1.7-1.5
					c0.5-0.8,0.9-1.7,1-2.7l0,0c0.1-0.3,0.1-0.5,0.1-0.8c0-0.6,0-1.2-0.1-1.8C-104.2,15.6-104.5,14.9-105,14.2z M-114.7,9.8
					l-0.6-0.1l-33.2-2.9l-0.2,0l0.1-0.1l2.2-3.2l0-0.1h0.1l16.6,0.7h0.1c0.2,0,0.4,0,0.5-0.1c0.1,0,0.2-0.1,0.2-0.1
					c0.1,0,0.1-0.1,0.2-0.2l0.1-0.1l0.1,0l10.3,4.4l3,1.4L-114.7,9.8L-114.7,9.8z M-107.6,12l0,0.1l0,0l-0.1,0l-1.3-0.2
					c-0.2,0-0.4-0.1-0.6-0.1c-0.2-0.1-0.4-0.1-0.6-0.2c-0.2-0.1-0.3-0.2-0.5-0.3c-0.1-0.1-0.3-0.3-0.4-0.4l-0.9-1.1l-0.1-0.1
					l0.1-0.1c0.2-0.1,0.3-0.2,0.5-0.3c0.2-0.1,0.3-0.1,0.5-0.2c0.2-0.1,0.3-0.1,0.5-0.1c0.2,0,0.3,0,0.5,0c0.4,0,0.7,0.1,1.1,0.2
					c0.7,0.3,1.1,0.9,1.3,1.6C-107.5,11.2-107.5,11.6-107.6,12L-107.6,12z"/>
				
					<linearGradient id="stroke_1_" gradientUnits="userSpaceOnUse" x1="-483.1454" y1="539.113" x2="-483.9574" y2="537.233" gradientTransform="matrix(96.196 0 0 -23.991 46340.2266 12938.6641)">
					<stop  offset="0.25" style="stop-color:#6C5936"/>
					<stop  offset="0.59" style="stop-color:#F6C239"/>
					<stop  offset="0.88" style="stop-color:#FDCE35"/>
				</linearGradient>
				<path id="stroke" class="st8" d="M-142.4,0.1v1.2h0.1l12.8,0.7c0.1,0,0.2,0,0.3,0c0.1,0,0.2,0.1,0.3,0.1c0.1,0,0.2,0.1,0.2,0.1
					c0.1,0.1,0.1,0.1,0.2,0.2l0,0l0,0l15.8,6.9l0.1,0l0.1-0.1c0.1-0.1,0.3-0.3,0.5-0.4c0.2-0.1,0.4-0.2,0.5-0.3
					c0.4-0.2,0.8-0.3,1.3-0.3h0.3c0.4,0,0.8,0.1,1.2,0.2c0.2,0.1,0.4,0.1,0.6,0.2c0.2,0.1,0.3,0.2,0.5,0.3c0.2,0.1,0.3,0.3,0.4,0.4
					c0.4,0.5,0.5,1,0.5,1.6c0,0.1,0,0.2,0,0.3c0,0.1,0,0.2-0.1,0.3c0,0.1-0.1,0.2-0.1,0.2c0,0.1-0.1,0.2-0.1,0.2l-0.1,0.1l0.1,0.1
					c0.9,0.5,1.6,1.1,2.2,1.9c0.4,0.6,0.7,1.4,0.9,2.1c0.1,0.6,0.2,1.2,0.1,1.8c0,0.3,0,0.5-0.1,0.8l0,0c-0.1,1-0.4,1.9-1,2.7
					c-0.4,0.6-1,1.1-1.7,1.5c-0.6,0.3-1.2,0.5-1.9,0.7c-0.5,0.1-1,0.1-1.5,0.1h-0.5l-0.1,0h0l-11.9-2l0.1-0.3l3.4,0.2h0.1l0,0
					l7.4-8.4l0.1-0.1l-0.1-0.1c-0.1,0-0.1-0.1-0.2-0.1L-112,13c0,0-0.1-0.1-0.1-0.1l-0.1-0.1c-0.1-0.1-0.3-0.3-0.4-0.4
					c-0.1-0.1-0.2-0.3-0.3-0.4c-0.1-0.2-0.1-0.3-0.2-0.5c0-0.2-0.1-0.3-0.1-0.5v-0.1h-74.9v-0.3l-0.1,0l-6.4-3.4l0,0h-3.9l-1.2-1.1
					h24.1c0.6,0,1.2,0,1.8,0s1.2-0.1,1.8-0.1s1.2-0.1,1.8-0.2s1.2-0.2,1.8-0.3L-142.4,0.1 M-114.7,9.8l-0.5-0.2l-3-1.4l-10.3-4.4
					l-0.1,0l-0.1,0.1c-0.1,0.1-0.1,0.1-0.2,0.2c-0.1,0-0.1,0.1-0.2,0.1c-0.2,0.1-0.4,0.1-0.5,0.1h-0.1l-16.6-0.7h-0.1l0,0.1
					l-2.2,3.2l-0.1,0.1l0.2,0l33.2,2.9L-114.7,9.8 M-107.6,12.1l0-0.1c0.1-0.4,0.1-0.8,0-1.2c-0.1-0.7-0.6-1.3-1.3-1.6
					C-109.2,9-109.6,9-110,9c-0.2,0-0.3,0-0.5,0c-0.2,0-0.3,0.1-0.5,0.1c-0.2,0.1-0.3,0.1-0.5,0.2c-0.2,0.1-0.3,0.2-0.5,0.3
					l-0.1,0.1l0.1,0.1l0.9,1.1c0.1,0.1,0.2,0.3,0.4,0.4c0.1,0.1,0.3,0.2,0.5,0.3c0.2,0.1,0.4,0.2,0.5,0.2c0.2,0.1,0.4,0.1,0.6,0.1
					l1.3,0.2L-107.6,12.1 M-142.3,0l-26.1,5.2c-0.6,0.1-1.2,0.2-1.8,0.3c-0.6,0.1-1.2,0.2-1.8,0.2s-1.2,0.1-1.8,0.1s-1.2,0-1.8,0
					H-200l1.4,1.3h3.9l6.4,3.4l0,0.3h74.9c0,0.2,0,0.4,0.1,0.5c0,0.2,0.1,0.3,0.2,0.5c0.2,0.3,0.4,0.6,0.7,0.9c0,0,0.1,0.1,0.1,0.1
					l0.1,0.1l0.2,0.1l0.2,0.1l-7.4,8.4l-3.5-0.2l-0.1,0.5l12,2h0.1l0.1,0c0.1,0,0.1,0,0.2,0h0.3c0.5,0,1,0,1.6-0.1
					c0.7-0.1,1.3-0.3,1.9-0.7c0.7-0.4,1.3-0.9,1.7-1.5c0.6-0.8,0.9-1.8,1-2.7c0.1-0.3,0.1-0.6,0.1-0.8c0-0.6,0-1.2-0.1-1.8
					c-0.2-0.8-0.5-1.5-0.9-2.1c-0.6-0.8-1.3-1.5-2.2-2c0.1-0.1,0.1-0.2,0.1-0.2c0-0.1,0.1-0.2,0.1-0.3c0-0.1,0.1-0.2,0.1-0.3
					c0-0.1,0-0.2,0-0.3c0-0.2,0-0.4,0-0.6c0-0.2-0.1-0.4-0.2-0.6c-0.1-0.2-0.2-0.4-0.3-0.5c-0.1-0.2-0.3-0.3-0.5-0.5
					c-0.2-0.1-0.3-0.2-0.5-0.3c-0.2-0.1-0.4-0.2-0.6-0.2c-0.4-0.1-0.8-0.2-1.3-0.2h-0.3c-0.5,0-0.9,0.1-1.3,0.3
					c-0.2,0.1-0.4,0.2-0.6,0.3c-0.2,0.1-0.3,0.3-0.5,0.4l-15.8-6.8c-0.1-0.1-0.1-0.1-0.2-0.2c-0.1-0.1-0.2-0.1-0.2-0.2
					c-0.2-0.1-0.4-0.2-0.6-0.2l-12.8-0.7V0z M-115.3,9.7l-33.2-2.9l2.2-3.2l16.6,0.7h0.1c0.1,0,0.2,0,0.3,0c0.1,0,0.2,0,0.3-0.1
					c0.1,0,0.2-0.1,0.3-0.1c0.1-0.1,0.1-0.1,0.2-0.2l10.3,4.4L-115.3,9.7L-115.3,9.7z M-107.7,12l-1.3-0.2c-0.2,0-0.4-0.1-0.6-0.1
					c-0.2-0.1-0.4-0.1-0.5-0.2c-0.2-0.1-0.3-0.2-0.5-0.3c-0.1-0.1-0.3-0.2-0.4-0.4l-0.9-1.1c0.2-0.1,0.3-0.2,0.5-0.3
					c0.2-0.1,0.3-0.1,0.5-0.2c0.2,0,0.3-0.1,0.5-0.1c0.2,0,0.3,0,0.5,0l0,0c0.3,0,0.7,0.1,1,0.2c0.6,0.3,1.1,0.8,1.2,1.5
					C-107.6,11.2-107.6,11.6-107.7,12L-107.7,12z"/>
			</g>
			<g id="ковщ" transform="translate(161.278 25.127)">
				
					<linearGradient id="Контур_544_1_" gradientUnits="userSpaceOnUse" x1="-559.223" y1="72.1474" x2="-558.223" y2="72.1474" gradientTransform="matrix(1.902 0 0 -1.1 863.6381 79.9132)">
					<stop  offset="0" style="stop-color:#222021"/>
					<stop  offset="0.5" style="stop-color:#222021;stop-opacity:0"/>
					<stop  offset="1" style="stop-color:#222021"/>
				</linearGradient>
				<path id="Контур_544" class="st9" d="M-199.9,0l-0.1,0.5l1.8,0.6l0.1-0.5L-199.9,0z"/>
				<line id="Линия_1" class="st10" x1="-196.6" y1="0.2" x2="-199.9" y2="0"/>
			</g>
			<path id="Контур_545" class="st7" d="M-30,41.4c0.1,1.2-0.7,2.3-1.9,2.7c-1.3,0.1-2.4-0.9-2.5-2.1c0-0.1,0-0.1,0-0.2
				c0-0.1,0-0.3,0-0.4c-0.1-1.2,0.7-2.3,1.9-2.7c1.3-0.1,2.4,0.9,2.5,2.1c0,0,0,0.1,0,0.1C-30,41.1-30,41.2-30,41.4L-30,41.4z"/>
			<path id="Контур_546" class="st2" d="M-32.2,38.8L-32.2,38.8c1.1,0.1,2,1.1,2,2.2c0,0.1,0,0.3,0,0.4
				c0.1,1.2-0.7,2.2-1.8,2.6c-0.1,0-0.2,0-0.3,0c-1.1-0.1-2-1.1-2-2.2c0-0.1,0-0.3,0-0.4c-0.1-1.2,0.7-2.2,1.8-2.6
				C-32.4,38.8-32.3,38.8-32.2,38.8 M-32.2,38.7c-0.1,0-0.2,0-0.3,0c-1.2,0.3-2,1.4-1.9,2.7c0,0.1,0,0.3,0,0.4c0,1.2,1,2.2,2.2,2.3
				c0.1,0,0.2,0,0.3,0c1.2-0.3,2-1.4,1.9-2.7c0-0.1,0-0.3,0-0.4C-30,39.8-31,38.8-32.2,38.7L-32.2,38.7z"/>
		</g>
	</g>
</g>
</svg>
