<?xml version="1.0" encoding="utf-8"?>
<!-- Generator: Adobe Illustrator 25.2.1, SVG Export Plug-In . SVG Version: 6.00 Build 0)  -->
<svg version="1.1" id="Layer_1" xmlns="http://www.w3.org/2000/svg" xmlns:xlink="http://www.w3.org/1999/xlink" x="0px" y="0px"
	 viewBox="0 0 1321.8 1044.6" style="enable-background:new 0 0 1321.8 1044.6;" xml:space="preserve">
<style type="text/css">
	.st0{fill:#0A141F;}
	.st1{fill:none;stroke:#CED3D7;stroke-width:3.4604;stroke-miterlimit:10;}
	.st2{fill:#091A29;}
	.st3{opacity:0.45;}
	.st4{fill:#EFEFEF;}
	.st5{fill:none;stroke:#F9CC33;stroke-width:2.5953;stroke-miterlimit:10;enable-background:new    ;}
	.st6{opacity:0.35;fill:#F9CC33;enable-background:new    ;}
	.st7{display:none;fill:#F9CC33;}
	.st8{opacity:0.75;}
	.st9{fill:#FFFFFF;}
	.st10{font-family:'OpenSans-Light';}
	.st11{font-size:19.0323px;}
	.st12{font-family:'OpenSans';}
	.st13{font-size:21.6276px;}
	.st14{opacity:0.75;fill:#FFFFFF;enable-background:new    ;}
	.st15{opacity:0.75;fill:#F9CC33;enable-background:new    ;}
</style>
<g id="boardzone_mapdesktop_2" transform="translate(-8.412 -13.241)">
	<g id="Layer_4">
		<circle id="Эллипс_67" class="st0" cx="636.1" cy="567.6" r="261.7"/>
		<path id="Контур_4890" class="st1" d="M1223.7,472.2c1.4-2,1.3-5,2.7-6.9c-0.3-5.4-2.2-8.1-8.8-10.4
			c-0.9,2.1-1.7,4.2-2.6,6.2c-1.7-1.1-3.7-2.1-5.4-3.2c-4.2,10.5-9.8,13.6-15.2,14.8c1.2-2.1,1.8-4.4,2.9-6.4l-12.3-6.3
			c-3,6.3-6.8,8.4-11.7,8.2c1.1-1.7,2.2-3.3,3.3-5l-11.9-6.1c-0.9,1.7-2.2,3.8-3,5.4l-4.7-2.4c3.5-3.4,4.5-8.3,1.8-14l-1.5,0.9
			l0.3-0.2c-11.9-2-13.8-14.6-18.5-28c10.2-19.5,20.4-39,30.7-58.4c-1.1-14.4-2.1-28.7-3.1-43c-27.9,0.7-18.5-19.3-8.3-47.4
			c-6.7-3.7-13.6-7.5-20.3-11.2c2.7-5.3,5.3-8.7,7.9-13.9c-24-8.5-42.1-14.8-66.1-23.3c-6.7,6.2-18.1,10.4-29,15.6
			c-1.1-1.7-2.3-6.5-3.4-8.2c-8.7-1.5-18.6,0.6-29.8,6.7c1.1,2.5,2.3,4.9,3.5,7.4l-1.8-1.1c-0.7-2-1.5-4.1-2.2-6.1l9.3-5.7
			c-3.2-3.2-6.3-6.5-9.5-9.8c-9.9-5.2-19.7-8.6-29.5-13.8c-2.2,4.2-4,8.6-5.2,13.2l-0.4-0.2c0.2-0.9,0.4-1.8,0.6-2.7
			c-3.2-4.1-6.4-8.2-9.5-12.4h-16.4l-10.6-6.3c-2.5-3.4-5.1-6.8-7.6-10.3l-13.7-2.4l-9.5-5.6c0.4-3.4,0.7-6.7,1.1-10.1
			c-8.9-2.3-17.8-4.6-26.8-7c1-4.9,2.1-9.8,3.2-14.7c-5.9,2.4-11.2,4.9-15.8,8.9l-7.6-4.4c-3.6-9.3-10.1-14-19.4-14
			c-12,4.9-24.1,9.5-34.9,18.7l-4.6-6.9c-3.8,1.1-7.3,2.4-9.7,5.8c-0.1,2.7,1.3,5.2,4.4,7.7c-1.7,2.4-3,5.8-7.2,4.5
			c-1.6-3.5-4.4-6.3-7.4-9.2c-4.3,5.2-9.4,8.2-14.8,9.2c-1.8-2.8-3.7-5.6-5.5-8.3l-0.3-0.5v0.1c-14.4-15.1-12.3-30.5-16.4-42.4
			l18-9.6c0.6-4.9,1.1-9.9,1.7-14.8c-7.2,0.6-14.6,1.2-21.8,1.7c4.5-12-1-10.1-8.2-6.3c-0.7,4-1.5,7.9-2.3,11.9l-8.5,4.5
			c-1.6-2.5-3.3-4.9-4.9-7.4c-0.9,3.8-1.7,7.6-2.6,11.4c-5.5-3.7-11.5-6.6-17.9-8.7l8-4.3c-4.9-2.1-9.7-4.3-14.5-6.6
			c-12.6,5.8-25.3,11.4-36.3,19.4c-1.9,5-3.2,10.1-4.1,15.3c5.1,1.1,10.3,2,15.4,3c2.1,5.3,6,9.7,9.5,14.4
			c1.3,6.5,1.6,13.6,1.7,20.9l-8.5,4.5c4.1,8.8,10,16.8,16.7,24.3c1-3.9,2.1-7.8,3.1-11.7c9.6,6.5,19.9,11.8,31.8,13.8h-0.5
			c-1.4,7.8-2.6,15.6-4,23.5l-22.4,1.9c-1.8,4.3-3.7,8.7-5.6,13c-4.3-1.4-8.7-2.9-13-4.3c-6.6,11.9-17.4,13.5-10.3,37.5
			c-1.8-3.1-4.8-5.1-6.7-8.3l-55.5-6.4c-5.8,2.8-10.4,4.7-16.1,7.5c1.3-4.1,1.7-6.5,3.1-10.5c-16.4-2-21.9-13.8-19.4-31.2
			l-16.4-28.8c-5.8-3.8-11.4-7.5-17.1-11.2c-0.3,0.3-0.6,0.7-1,1c-1.4-2.8-3-5.3-4.4-8.1c-15.2,6.6-29.2,14.3-44.4,21
			c-14.7-12.8-30-33.2-46.2-20.4l-5.7-8.3c-17.9,0.8-34.1,5.5-48.4,14.2c-1.2,17.9-2.5,35.8-3.8,53.8c-8.8,4.5-18,7.7-26.8,12.2
			c1.7,2.6,3.5,5.4,5.3,8.2l4.1,6.8c-2.9-4.5-6-9.3-9.6-14.8c-0.9,7-3.7,6.9-3.5,12.3c-9.5,1.3-19.7,2.7-31.2,4
			c-1.5,5.6-2.2,10.5-3.7,16c8.1,5.6,15.3,12.1,23.2,17.8l-9.1,4.4l-2,33.3c-9.7,4.4-19.3,8.8-29,13.3c-6.4,17.5-13.3,33.1-24.4,33
			c-2.5,8.9-4.6,15.3-7.1,24.2c-6.9-1.4-14.4,0.1-21.4-1.3c-9.7,22.2-10.8,45.4-31.5,48.7l0.4,0.3l-2.3-1.3
			c-4.1,8.2-2.5,15.5,2.8,20.4l-7.2,3.5c-1.2-2.4-3.2-5.4-4.6-7.9c-6.1,2.9-12.3,5.9-18.3,8.8c1.6,2.5,3.3,4.9,5,7.4
			c-7.5,0.3-13.4-2.8-18-12l-19,9.1c1.7,2.9,2.7,6.3,4.5,9.3c-8.3-1.7-17-6.2-23.4-21.6c-2.7,1.5-5.6,3.1-8.3,4.6
			c-1.4-3-2.8-6-4.1-9c-10.2,3.3-13.1,7.3-13.5,15.2c2.2,2.8,2.1,7.2,4.2,10.1c-5.6-5.5-11.7-9.6-18.3-11.9
			c-1.7,4.7-3.6,9.5-5.4,14.2c5.3,8.4,10.5,16.9,15.8,25.4c3.2-1.2,6.5-2.4,9.8-3.5c5.7,10,11.5,20,17.3,30.1l1,0.3
			c-17.4,4.1-24.1,10.4-21.4,21.2c3.9,5.5,7.1,12.3,10.9,17.7c-12,1.8-13.1,6.2-3.4,13.2c16.7,2.4,20.9,10.1,12.5,23.2
			c-12.3-2.5-11.8,16.4-4.5,46.7c19.5,7.6,35.1,15.3,47.6,27.7l20.3-10.2c-6.4,3.6-12.9,7.3-19.3,10.9c5.7,8.2,11.5,16.4,17.2,24.5
			c8.4,2.1,16.9,4.1,25.3,6.2c0.1,6.8,0.2,13.5,0.4,20.3l-8.7,4.2c1.8,23,8.1,39.3,24.3,40.8c5.4,8.5,9.1,17.5,14.5,26
			c-0.1,7.1,1.7,13.8,1.6,21.1l7,2.3l-7,10.7c-0.4,4.4-0.8,8.7-1.2,13l0.9,0.1c-1.2,1.7-2.3,3.5-3.5,5.2c9.2,5.7,18.7,10.4,27.9,16
			c-3,12.3-10.5,27.6,2.9,31.6c-1.1,2-2.1,4-3.2,6c6.3,9,15,16.1,25.1,20.5c11.5-5.7,23-11.4,34.6-17.1c5.7,3.1,10.8,6.8,16.5,9.8
			c1-1.8,2.1-3.7,3.3-5.7l2.8-4.6c-1.8,3.1-3.8,6.5-5.9,10.4c4.6-2,5.5-0.5,8.8-2.5c4,4.6,8.3,9.4,13,15.1c3.9-1.2,7.2-2.5,11.2-3.7
			c0.8-6.3,2.3-12.4,3.2-18.6l5.8,3.3c5.9-9.6,10.9-17,16.7-26.6c1.3,6,3.3,9.9,4.6,15.8c6,3.5,11.9,7.1,18,10.6
			c13-2.9,24.9-4.7,28.6,1.2c5.6-1.6,9.8-2.7,15-4.2c0.1,0.2,0.2,0.3,0.3,0.5c1.2,1.1,2.6,2,4,2.8c1.6,2.6,3.4,5.1,4.4,7.8
			c11-1.8,21.1-5.6,29.3-5.4c4.3,6.4,8.7,12.7,13,19.1c-2.7,1.9-5.6,3.9-8.4,5.7c5.3,8.4,10.7,16.8,16,25.3
			c5.4,1.1,10.9,2.1,16.3,3.2c1.2-6.3,0.4-13.1-1.9-20.3c1.6,3.1,5.9,5.3,7.4,8.4c3.9,1.9,7.3,2.8,10.7,2.4l0.9,0.4
			c-1.4,1.8-2.8,3.6-4.2,5.4c5.5,4.2,8.9,4.3,13.9,1.7c1-2.2,3.8-3.7,4.8-5.8c-1.5,4.5-1.9,9.2-1.2,13.9c3.5-0.7,7.1-1.5,10.6-2.2
			c3.5-5.8,6.9-11.6,10.4-17.3c-1.8-1.3-3.7-2.6-5.5-3.9c4.3-6.6,8.5-13.2,12.8-19.8c-0.1-0.2-0.1-0.4-0.1-0.6
			c8.4,7.7,14.5,9,20.3,3.8c2.1-4,5.2-8.1,7.3-12l132.4-46.7c3.4,0.6,6.8,1.3,10.4,2c9.3-5.1,18.5-10.3,27.7-15.4
			c1.9-8.7,5-14.3,7-23.1c8.9,13.9,16.6,24.8,25.7,38.8c3-1.6,5.9-3.2,8.9-4.8c1.3,9.1,3.7,18,4.9,27.1c6.1,1.7,11.1,3.7,17.2,5.4
			c7.3-8.2,13.8-15.3,20-22c5,3,6.4,0.8,13.5,3.7c-3.3-5.6-6.3-10.5-9.1-15.1c1.4,2.2,2.9,4.4,4.3,6.6c1.7,2.8,3.5,5.6,5,8.3
			c8.8-4.5,16.6-9.9,25.4-14.3c17.8,8.3,35.5,16.5,53.2,24.9c15.3-6.3,28.7-16.6,38.6-29.9l-5-8.7c20.6-5.8,9.1-28.2,4.5-46.1
			c14.2-8.2,28.7-15,42.9-23.3c-1.9-2.5-3.5-5.1-5.4-7.6l1.4-0.2c-0.6-6.4-1.2-12.6-1.8-19l-18.9-27.5c-2.5-1-4.9-2.1-7.3-3.3
			l91.9-32.4c-0.1-4.9,1.1-9.5,1-14.4c3.5-5.8,5.9-12,9.5-17.8c10.5-1,14.6-12.2,15.8-28l-5.7-2.9c0.1-4.7,0.1-9.3,0.2-13.9
			c5.5-1.4,11-2.8,16.4-4.2c3.7-5.6,7.5-11.2,11.2-16.8c-4.2-2.5-8.4-5-12.6-7.4c4.4,2.3,8.8,4.7,13.3,7c8.1-8.5,18.2-13.8,30.9-19
			c4.7-20.8,5.1-33.7-2.9-32c-5.5-9-2.7-14.3,8.1-15.9c6.3-4.8,5.6-7.8-2.2-9c2.5-3.7,4.6-8.4,7.1-12.1c1.7-7.4-2.6-11.7-13.9-14.5
			l0.6-0.2c3.7-6.9,7.5-13.7,11.2-20.6c2.1,0.7,4.3,1.6,6.4,2.4c3.5-5.8,6.8-11.6,10.3-17.4c-1.1-3.2-2.4-6.5-3.5-9.7
			C1231.2,465.9,1227.1,468.6,1223.7,472.2z"/>
		<path id="Контур_4891" class="st2" d="M1017.1,236.2l9.3-5.7c-3.2-3.2-6.3-6.5-9.5-9.8c-9.9-5.2-19.7-8.6-29.5-13.8
			c-2.2,4.2-4,8.6-5.2,13.2l-0.4-0.2c0.2-0.9,0.4-1.8,0.6-2.7c-3.2-4.1-6.4-8.2-9.5-12.4h-16.4l-10.6-6.3c-2.5-3.4-5.1-6.8-7.6-10.3
			l-13.7-2.4l-9.5-5.6c0.4-3.4,0.7-6.7,1.1-10.1c-8.9-2.3-17.8-4.6-26.8-7c1-4.9,2.1-9.8,3.2-14.7c-5.9,2.4-11.2,4.9-15.8,8.9
			l-7.6-4.4c-3.6-9.3-10.1-14-19.4-14c-12,4.9-24.1,9.5-34.9,18.7l-4.6-6.9c-3.8,1.1-7.3,2.4-9.7,5.8c-0.1,2.7,1.3,5.2,4.4,7.7
			c-1.7,2.4-3,5.8-7.2,4.5c-1.6-3.5-4.4-6.3-7.4-9.2c-4.3,5.2-9.4,8.2-14.8,9.2c-1.8-2.8-3.7-5.6-5.5-8.3l-0.3-0.5v0.1
			c-14.4-15.1-12.3-30.5-16.4-42.4l18-9.6c0.6-4.9,1.1-9.9,1.7-14.8c-7.2,0.6-14.6,1.2-21.8,1.7c4.5-12-1-10.1-8.2-6.3
			c-0.7,4-1.5,7.9-2.3,11.9l-8.5,4.5c-1.6-2.5-3.3-4.9-4.9-7.4c-0.9,3.8-1.7,7.6-2.6,11.4c-5.5-3.7-11.5-6.6-17.9-8.7l8-4.3
			c-4.9-2.1-9.7-4.3-14.5-6.6c-12.6,5.8-25.3,11.4-36.3,19.4c-1.9,5-3.2,10.1-4.1,15.3c5.1,1.1,10.3,2,15.4,3
			c2.1,5.3,6,9.7,9.5,14.4c1.3,6.5,1.6,13.6,1.7,20.9l-8.5,4.5c4.1,8.8,10,16.8,16.7,24.3c1-3.9,2.1-7.8,3.1-11.7
			c9.6,6.5,19.9,11.8,31.8,13.8h-0.5c-1.4,7.8-2.6,15.6-4,23.5l-22.4,1.9c-1.8,4.3-3.7,8.7-5.6,13c-4.3-1.4-8.7-2.9-13-4.3
			c-6.6,11.9-17.4,13.5-10.3,37.5c-1.8-3.1-4.8-5.1-6.7-8.3l-55.5-6.4c-5.8,2.8-10.4,4.7-16.1,7.5c1.3-4.1,1.7-6.5,3.1-10.5
			c-16.4-2-21.9-13.8-19.4-31.2l-16.4-28.8c-5.8-3.8-11.4-7.5-17.1-11.2c-0.3,0.3-0.6,0.7-1,1c-1.4-2.8-3-5.3-4.4-8.1
			c-15.2,6.6-29.2,14.3-44.4,21c-14.7-12.8-30-33.2-46.2-20.4l-5.7-8.3c-17.9,0.8-34.1,5.5-48.4,14.2c-1.2,17.9-2.5,35.8-3.8,53.8
			c-8.8,4.5-18,7.7-26.8,12.2c1.7,2.6,3.5,5.4,5.3,8.2l4.1,6.8c-2.9-4.5-6-9.3-9.6-14.8c-0.9,7-3.7,6.9-3.5,12.3
			c-9.5,1.3-19.7,2.7-31.2,4c-1.5,5.6-2.2,10.5-3.7,16c8.1,5.6,15.3,12.1,23.2,17.8l-9.1,4.4l-2,33.3c-9.7,4.4-19.3,8.8-29,13.3
			c-6.4,17.5-13.3,33.1-24.4,33c-2.5,8.9-4.6,15.3-7.1,24.2c-6.9-1.4-14.4,0.1-21.4-1.3c-9.7,22.2-10.8,45.4-31.5,48.7l0.4,0.3
			l-2.3-1.3c-4.1,8.2-2.5,15.5,2.8,20.4l-7.2,3.5c-1.2-2.4-3.2-5.4-4.6-7.9c-6.1,2.9-12.3,5.9-18.3,8.8c1.6,2.5,3.3,4.9,5,7.4
			c-7.5,0.3-13.4-2.8-18-12l-19,9.1c1.7,2.9,2.7,6.3,4.5,9.3c-8.3-1.7-17-6.2-23.4-21.6c-2.7,1.5-5.6,3.1-8.3,4.6
			c-1.4-3-2.8-6-4.1-9c-10.2,3.3-13.1,7.3-13.5,15.2c2.2,2.8,2.1,7.2,4.2,10.1c-5.6-5.5-11.7-9.6-18.3-11.9
			c-1.7,4.7-3.6,9.5-5.4,14.2c5.3,8.4,10.5,16.9,15.8,25.4c3.2-1.2,6.5-2.4,9.8-3.5c5.7,10,11.5,20,17.3,30.1l1,0.3
			c-17.4,4.1-24.1,10.4-21.4,21.2c3.9,5.5,7.1,12.3,10.9,17.7c-12,1.8-13.1,6.2-3.4,13.2c16.7,2.4,20.9,10.1,12.5,23.2
			c-12.3-2.5-11.8,16.4-4.5,46.7c19.5,7.6,35.1,15.3,47.6,27.7l20.3-10.2c-6.4,3.6-12.9,7.3-19.3,10.9c5.7,8.2,11.5,16.4,17.2,24.5
			c8.4,2.1,16.9,4.1,25.3,6.2c0.1,6.8,0.2,13.5,0.4,20.3l-8.7,4.2c1.8,23,8.1,39.3,24.3,40.8c5.4,8.5,9.1,17.5,14.5,26
			c-0.1,7.1,1.7,13.8,1.6,21.1l7,2.3l-7,10.7c-0.4,4.4-0.8,8.7-1.2,13l0.9,0.1c-1.2,1.7-2.3,3.5-3.5,5.2c9.2,5.7,18.7,10.4,27.9,16
			c-3,12.3-10.5,27.6,2.9,31.6c-1.1,2-2.1,4-3.2,6c6.3,9,15,16.1,25.1,20.5c11.5-5.7,23-11.4,34.6-17.1c5.7,3.1,10.8,6.8,16.5,9.8
			c1-1.8,2.1-3.7,3.3-5.7l2.8-4.6c-1.8,3.1-3.8,6.5-5.9,10.4c4.6-2,5.5-0.5,8.8-2.5c4,4.6,8.3,9.4,13,15.1c3.9-1.2,7.2-2.5,11.2-3.7
			c0.8-6.3,2.3-12.4,3.2-18.6l5.8,3.3c5.9-9.6,10.9-17,16.7-26.6c1.3,6,3.3,9.9,4.6,15.8c6,3.5,11.9,7.1,18,10.6
			c13-2.9,24.9-4.7,28.6,1.2c5.6-1.6,9.8-2.7,15-4.2c0.1,0.2,0.2,0.3,0.3,0.5c1.2,1.1,2.6,2,4,2.8c1.6,2.6,3.4,5.1,4.4,7.8
			c11-1.8,21.1-5.6,29.3-5.4c4.3,6.4,8.7,12.7,13,19.1c-2.7,1.9-5.6,3.9-8.4,5.7c5.3,8.4,10.7,16.8,16,25.3
			c5.4,1.1,10.9,2.1,16.3,3.2c1.2-6.3,0.4-13.1-1.9-20.3c1.6,3.1,5.9,5.3,7.4,8.4c3.9,1.9,7.3,2.8,10.7,2.4l0.9,0.4
			c-1.4,1.8-2.8,3.6-4.2,5.4c5.5,4.2,8.9,4.3,13.9,1.7c1-2.2,3.8-3.7,4.8-5.8c-1.5,4.5-1.9,9.2-1.2,13.9c3.5-0.7,7.1-1.5,10.6-2.2
			c3.5-5.8,6.9-11.6,10.4-17.3c-1.8-1.3-3.7-2.6-5.5-3.9c4.3-6.6,8.5-13.2,12.8-19.8c-0.1-0.2-0.1-0.4-0.1-0.6
			c8.4,7.7,14.5,9,20.3,3.8c2.1-4,5.2-8.1,7.3-12l132.4-46.7c3.4,0.6,6.8,1.3,10.4,2c9.3-5.1,18.5-10.3,27.7-15.4
			c1.9-8.7,5-14.3,7-23.1c8.9,13.9,16.6,24.8,25.7,38.8c3-1.6,5.9-3.2,8.9-4.8c1.3,9.1,3.7,18,4.9,27.1c6.1,1.7,11.1,3.7,17.2,5.4
			c7.3-8.2,13.8-15.3,20-22c5,3,6.4,0.8,13.5,3.7c-3.3-5.6-6.3-10.5-9.1-15.1c1.4,2.2,2.9,4.4,4.3,6.6c1.7,2.8,3.5,5.6,5,8.3
			c8.8-4.5,16.6-9.9,25.4-14.3c17.8,8.3,35.5,16.5,53.2,24.9c15.3-6.3,28.7-16.6,38.6-29.9l-5-8.7c20.6-5.8,9.1-28.2,4.5-46.1
			c14.2-8.2,28.7-15,42.9-23.3c-1.9-2.5-3.5-5.1-5.4-7.6l1.4-0.2c-0.6-6.4-1.2-12.6-1.8-19l-18.9-27.5c-2.5-1-4.9-2.1-7.3-3.3
			l91.9-32.4c-0.1-4.9,1.1-9.5,1-14.4c3.5-5.8,5.9-12,9.5-17.8c10.5-1,14.6-12.2,15.8-28l-5.7-2.9c0.1-4.7,0.1-9.3,0.2-13.9
			c5.5-1.4,11-2.8,16.4-4.2c3.7-5.6,7.5-11.2,11.2-16.8c-4.2-2.5-8.4-5-12.6-7.4c4.4,2.3,8.8,4.7,13.3,7c8.1-8.5,18.2-13.8,30.9-19
			c4.7-20.8,5.1-33.7-2.9-32c-5.5-9-2.7-14.3,8.1-15.9c6.3-4.8,5.6-7.8-2.2-9c2.5-3.7,4.6-8.4,7.1-12.1c1.7-7.4-2.6-11.7-13.9-14.5
			l0.6-0.2c3.7-6.9,7.5-13.7,11.2-20.6c2.1,0.7,4.3,1.6,6.4,2.4c3.5-5.8,6.8-11.6,10.3-17.4c-1.1-3.2-2.4-6.5-3.5-9.7
			c-4.5,1.8-8.6,4.6-11.9,8.2c1.4-2,1.3-5,2.7-6.9c-0.3-5.4-2.2-8.1-8.8-10.4c-0.9,2.1-1.7,4.2-2.6,6.2c-1.7-1.1-3.7-2.1-5.4-3.2
			c-4.2,10.5-9.8,13.6-15.2,14.8c1.2-2.1,1.8-4.4,2.9-6.4l-12.3-6.3c-3,6.3-6.8,8.4-11.7,8.2c1.1-1.7,2.2-3.3,3.3-5l-11.9-6.1
			c-0.9,1.7-2.2,3.8-3,5.4l-4.7-2.4c3.5-3.4,4.5-8.3,1.8-14l-1.5,0.9l0.3-0.2c-11.9-2-13.8-14.6-18.5-28
			c10.2-19.5,20.4-39,30.7-58.4c-1.1-14.4-2.1-28.7-3.1-43c-27.9,0.7-18.5-19.3-8.3-47.4c-6.7-3.7-13.6-7.5-20.3-11.2
			c2.7-5.3,5.3-8.7,7.9-13.9c-24-8.5-42.1-14.8-66.1-23.3c-6.7,6.2-18.1,10.4-29,15.6c-1.1-1.7-2.3-6.5-3.4-8.2
			c-8.7-1.5-18.6,0.6-29.8,6.7 M897.6,576.1c-4.7,144.5-125.6,257.7-270,253s-257.7-125.6-253-270c4.7-144.4,125.6-257.7,270-253.1
			C789,310.7,902.3,431.6,897.6,576.1z"/>
	</g>
	<g id="Layer_3">
		<g id="Capture_Shape_2" class="st3">
			<path id="Контур_4892" class="st4" d="M727.3,228c-0.5,6.3,1.4,13.1,0.3,19.2c-3.7,6.7-2.3,12.3,3.2,17.3
				c1.9,1.7,2.1,2.9-0.9,3.9c-12.9,4.6-17.6,16.4-23.2,27.2c-0.7,1.3,0.3,3.5,0.5,5.2c6.5-6.8,10-15.9,15.9-23.2
				c4.2-5.3,21.5-5.8,11.7-15.1c-4.2-4.1-5-8.3-3.1-13.8c1.1-6.7-0.3-13.2-0.1-20.4C730.2,228.1,728.8,227.9,727.3,228L727.3,228z"
				/>
			<path id="Контур_4893" class="st4" d="M386.5,865.1c0.4-2.3,2-5-0.5-6.6c-0.3-0.2-1.5,0.4-1.8,0.9
				c-9.1,13-25.8,14.2-36.8,25.4c13.2,3.6,35.5-26.1,46.6-10.7c2.1,3.3,5.5,5.9,8.7,8.4c0.8,0.6,2.8-0.3,4.3-0.6
				c-2.9-4.2-7.5-7.3-10.1-11.7C394.7,866,391.4,864.4,386.5,865.1z"/>
			<path id="Контур_4894" class="st4" d="M876.2,228c-0.2,9.1-7.8,26.9,2.9,31.3c0.1-10.3,0.9-20.1,1.3-30.8
				C879.1,228.1,877.7,227.9,876.2,228L876.2,228z"/>
			<path id="Контур_4895" class="st4" d="M1104.3,228c-0.6,4.2-2.9,8.9-0.2,12.7c4.6-2.5,2.5-7.5,3.3-12.2
				C1106.4,228.1,1105.4,227.9,1104.3,228z"/>
			<path id="Контур_4896" class="st4" d="M985,228c-1.7,3.6-4.2,7.1-0.9,10.5c3.6-2.3,3.7-6,5-10
				C987.8,228.1,986.4,228,985,228z"/>
			<path id="Контур_4898" class="st4" d="M1157.2,309.6"/>
			<path id="Контур_4899" class="st4" d="M1067.5,292.2c5.6-6.9,13-12,16.8-19.6c-2.2,0.1-4.6,0.1-6.2,2
				c-6.3,7.7-20.9,17.2-22.8,26.2C1060.4,299.3,1063.4,295.8,1067.5,292.2z"/>
			<path id="Контур_4900" class="st4" d="M288.4,513.8c-0.4,4.3,1.4,5.8,4.4,8c0.7-4.6-1.7-23.8-6.2-25.5
				C283.5,502.1,287.6,507.6,288.4,513.8z"/>
			<path id="Контур_4901" class="st4" d="M381.7,853.1c4.7,2,3.7-1.3,3-3c-3.1-5.5-4.3-13.1-10.3-16.2
				C372.4,841,378.9,846.6,381.7,853.1z"/>
			<path id="Контур_4902" class="st4" d="M282.9,524.8c-1.1,1-2,2.1-2.9,3.3c3.3,1.4,5.1,0.9,7.3-2
				C285.9,525.7,284.4,525.2,282.9,524.8z"/>
			<path id="Контур_4903" class="st4" d="M1000.8,816.1c-1.8,1.2-5.8,0.4-8.3-0.7c-16-5.3-11.3-23.2-27.1-30.3
				c-15.5-7.3-5.6-18.9-16.9-20.1c5.2-8.8,13.7-22.4,19.2-26.4c7.9-6.1,0.6-10.3-0.1-17.3c6.4-29.4,36.7-21.8,59-21.1
				c16.5,1.1,30.5,13.3,46.4,15.5c-3.5-10.4-44.2-19.3-55.4-21.6c0.5-1.2,0.8-2.7,1.7-3.4c10.1-7.9,6.5-19.2,7.3-29.3
				c0.2-2.2-2.7-5-4.8-7c-5.3-5-6.2-13.4,2.6-15.9c9.2-2.3,8.4-21.4,2.9-27.1c-2.5-6.2-8.1-32.9-12.4-42.2
				c5.6-1.1,31.3,16.4,42.9,17.9c1.3,0.2,2.4,1.1,2.8,2.3l0,0c4.9,14.8,13.7,24.1,30.3,27c8.5,1.5,19.3,0.8,25.5,10
				c0.5,0.7,2.4,0.4,3.6,0.5c-0.2-1.4,0.1-3.5-0.7-4c-4.2-2.9-7.3-7.2-13.3-7.8c-15.1-2.1-33.3-5-38.5-22.1
				c-1.7-3.3-2.3-6.2-5.7-7.6l-43.8-18.8c-1-0.4-1.5-1.6-1.1-2.6c0.3-0.7,0.9-1.2,1.7-1.2c10.9-1,20.6,0.3,28.2-11
				c1.5-1.7,3.7-3.7,5.7-3.9c31.4-2.2,63-6.4,94.3-4.8c-5.9-15.8-81.3,13.8-68.6-17c-12.5-1.1-1-11.8-6.1-14.6
				c9,1.2,18.1-11.5,16-20.1c-2-9.1-4.5-18-6.9-27c-1.2-4.4-1.6-6.9,3.9-10c17.1-7.8,32.4,8.3,50.1-0.3c7.2-3.2,15.9-3.6,21.1,5.5
				c0.2,0.3,0.4,0.6,0.7,0.9c1.3-1.2,2.2-2.8,2.8-4.5l-0.1,0c-8-10.1-18.4-10-28.7-5.3c-8,3.6-14.9-0.9-22.3-0.8
				c-5.2-0.3-10.7-1.2-15.4-3.8c4.4-6.1,15.5-7.2,14.5-16.1c-0.3,0.2-0.6,0.4-0.9,0.5c1.5-8.7,10.9-21.9,11.8-30
				c-0.7-14,9-22.8,16.2-32.8c0.9-1.3,4.6-1.2,6.8-0.9c7.5,1.4,15,2.8,22.5,4.3c0.7-1.4,1.4-2.7,2.2-4.1c-9.5-1.7-18.9-3.3-28-6.4
				c-6.1-2.3-7.8-2-8.7,4.8c-0.5,3.8-4,7.7-6.9,10.6c-11.8,10.8-3.7,37.2-25.3,37.7c-13.3-6.8-59.3,33.5-51.9,7
				c6.8-13.2,14.3-26.1,20.9-39.5c3.4-6.5,1.4-14.8-6.3-20c-11.2-8-14-22-20.8-33.3c-3.8-7.7,1.7-7.3,7-9.9c4-8.8,12.7-4.7,19-6.9
				c16.7-3.5,21.9-1.2,35.8-14c0.5-0.4,1.7-0.7,2-0.5c14,17.8,28.5,8.5,45.6,13.2c-0.6-1.8-0.8-3.7-0.7-5.6c-6.6,0-13.2,0-19.8-0.2
				c-27.8-2.1-10.6-20-37-5.1c-13.2,6.2-27.9,7.7-42.2,9.9c-8.5,2.3-16.1,7.2-24.4,10.2c-6.1,2.1-12.2,3.5-16.6,9.2
				c-1.6,2-5.8,1.7-8.7,3c-18.9,8-17.4,18.4-42.5,13.2c-11.4-12.2,16.4-45.7,8.1-58.9c-4.3,9-7.2,19-9.5,28.7
				c-2.9,10.5-5.7,11.8-3.9,23.7c-0.7-0.2-1.8-0.1-2-0.5c-1.6-3.2-4.9-7.1-4.1-9.7c2.3-8-2.3-12.1-7-16.6c-4.3-4-7.2-9.4-12.5-12.3
				c0,0.4-0.1,0.8-0.1,1.1c-8.4-5.7-18.2-18.7-26.9-22.5c-5.8-2.5-11.1-7.5-18.5-5.9c-1.8-0.7-3.7-4.7-4.9-6.5
				c0,1.6-0.6,3.8-0.1,5.6c-9.2-0.1-12.9,13.5-22.2,16.8c-5.1,2.8-7.2,6-7.6,11.9c-1,10.7-9.2,40.3-12.8,54.4
				c-2.2-4-4.5-8.1-6.3-12.2c-0.7-1.3-1.4-3.5-0.9-4.4c5.4-8.1-1.2-14.8-2.4-22.1c-0.3-0.9-1.1-1.6-2-2c-8-2.9-12.4-8.3-12.5-17
				c0.1-6.5-11.5-10.4-16.2-13.8c-1.1-0.6-5,1.8-5.6,3.5c-10.1,20.5-17.7,16.6-36.8,16.8c-13.8-3.3-8.8,6.8-25.9,0.8
				c-20.8,2.7-43.5,5.7-64.9,7.3c-10.8-0.9-7.1-6.5-21.3-2.6c-6.5,0.7-12.8,2.8-19.3,3.8c-6.1-0.9-12-7.1-16.8,0.3
				c-5.9,8.3-16.1,4.9-24.3,9.1c-2.1,0.5-4.7,1-6.5,0.2c-10.3-4.3-21-2-31.4-1.6c-3.1,0.1-6.1,4.9-9,7.7c-0.5,0.4-0.1,1.7-0.1,2.7
				c0.9-0.1,2.1,0.2,2.6-0.3c7.8-7.9,17.8-5.9,27.3-5.8c3.6,0,7.1,1.9,10.8,2.2c5.8,0.3,11.6-2.3,17.4-3c16.2,1,15.4-14.7,24.7-8
				c9.4,3.8,21.3-2.9,31.2-3.6c21.5,7.3,24.7-0.6,42.7,1.2c-14.7,12.4-25,27.6-32.6,45.1c-5.5,8.9-10.7,4.7-10.3,20.1
				c0.4,10.5-2.8,21.3,1.3,31.5c1.9,5.5-1.9,9-3.7,13.4c-1,4-6.2,14.3-2.9,17.1c20.7-25.5-4-34.4,42.4-29.8
				c9.6-0.1,12.5-3.9,17.4,6.3c1.7,2.9,5.5,5.9,8.6,6.2c15.3,3.1,27.5,15.3,38.9,25c0.7,3.6-5.1,4.8-7.1,7.1c1,3.7,5.4,0.7,7.7-0.2
				c2.6-1.5,3.8-5.7,8.3-3.3c4.9,2.6,7,6.5,7.3,11.8c0.4,6.4-10.6,8.7-13.9,17.2c-1.5,2.6-1.9,3.8-3.9,0.5c-5.4-5.7-8.5-12-9.3-20
				c-1.2,0.8-3.5,1.4-3.6,2.3c-0.9,6-5.8,7.5-9.9,10.5c-11.4,8.1-17.6-12.4-27,5.3c-1.5,2-13.2,18-14.7,14
				c-0.1-29.5-34.5-26.6-44.9-45.2c-0.3-0.9-1.6-1.7-2.6-1.9c-34.9-5.3-29.4-14.4-58.6-27.5c-19.4-9.9-21.2-33.9-31.2-51.1
				c-3.4-6.5-8.9-11.9-13.1-18c-3.5-5.2-6.6-17.1-14.8-11.8c7.8,10,32.2,37.8,30.5,49.5c-5.5-1.9-6.5-8.4-10.5-12
				c-4.2-3.6-10.2-5.5-14.7-9c-2.8-2.1-5.3-5-8.4-6.3c-15.3-6-8.1-17.3-15.8-21.8c-0.5,0.9-1.7,2-1.5,2.7c2,9.1,3,18.8,14,22.6
				c7.1,2.8,10.3,12.1,18.9,11.9c12.5,7.5,19.5,23.2,29.9,33.4c-1.6,2.6-2.9,9.3-2.7,11.6c-2.8,0.7-6.9,1.7-7.4,2.1
				c-8.1,7.1-18.8,3.6-28,6.5c-9.1,1-24-5.9-32-8c-7.6-2-24.8-3.6-30.9-5.7c-9.3-0.6-19.7-7.3-28-0.7c-4.1,3.3-7,4.1-9.9-1.7
				c-4.7-8.1-19.2-7.6-26-1.9c-0.5-3-2-5.6-3.6-8.1c-0.8-2.7-1.8-5.4-3-8c0,0-3.1-3.3-6.1-6.3c0-0.2,0.1-0.5,0.1-0.7
				c-0.5-11.5,5.8-19.7,12-27.5c1.5-1.9,3-3.8,4.3-5.7c0.7-1,2.2-1.5,4.6-1.5c1,0,2,0.1,3.1,0.3c8.4,1.5,16.5,3.1,25.2,4.8
				c5.6,1.1,11.2,2.2,17,3.3c0.2-0.9,0.3-1.7,0.2-2.6c-6.1-1.5-12.3-2.6-18.3-3.7c-9.2-1.6-18.8-3.3-27.8-6.4
				c-1.5-0.7-3-1.1-4.6-1.2c-1.2,0-2.2,0.4-2.9,5.4c-0.5,4.1-4.1,8.1-7.2,11.2c-4.5,4.1-6.1,10.8-7.5,17.3c-0.3,1.4-0.7,2.8-1,4.2
				c-0.6-0.6-1.1-1.1-1.5-1.5c-6.9-5.6-15.5-9.1-22.9-13.9c-4.3-2.6-4-5.4-0.8-9.1c2.8-3.2,4.6-7.3,6.9-11.5
				c-0.7-8.4-0.1-15.5,5.7-21.8c-0.3-0.2-0.7-0.4-1-0.5c-1.4-7.3,8-20.6,10.6-26.6c1.2-2.7,2.1-5.4,2.8-8.3c4.9,2.2,10,2.5,15.5,2.5
				h4.4c5.3,0,11.4,0.2,17.8,2.6l0.3,0.1l0.1,0.1c2.8-0.3,5.7-0.5,8.5-0.7c4.9-0.4,9.9-0.7,14.8-1.3c-1.5-2.4-5-2.7-8.8-2.7h-2.1
				c-1.4,0-2.9-0.1-4.3-0.3c-5.4-0.2-10.9-0.2-16.2-0.2c-5.3,0-10.8-0.1-16.2-0.2c-6.2-0.5-10.2-1.7-13-3.2c0.1-0.4,0.1-0.8,0.2-1.2
				c4.4-22.1,28.8-13.4,41.5-3.9c15.6,9.9,20.6-2.8,37.8,15c6.1,5,11.6,10.6,17.9,15.2c8.4,5.9,20.1,6.2,25.3,16
				c4.9-5.5,8.7,2.1,14.4,0.3c-4.7-8-14.4-12.2-21.7-17.8c-5.6-3.5-7.8-8.7-8.8-14.5c-2.9-12.8-16.8-18.1-23.7-28.6
				c-7-10.2,11.9-9,10.8-23.5c0.8-5.8,4.8-10.6,3.3-17c-1-0.5-2.2-0.5-3.1,0c-2.4,7.9-3.7,15.7-6.8,22.7
				c-6.4,10.7-16.8,2.8-21.8-4.5c-3.5-5.5-5-12.4-7.4-18.7h-4.3c-0.2,16.2,8.7,24,20.3,32.9c-5.1,1.4-2.6,10.6-11,9.6
				c-0.7-0.1-6.2,3.8-9.2,6.1c-0.1-0.4-0.3-0.9-0.5-1.3c-4.5,2-5.2,6.9-10.6,3.6c-7.4-3.9-15.4-7.1-22.5-11.3
				c-9.5-9-19-18-28.3-27.1c-0.2-0.5-0.3-1.1-0.3-1.7c-1.5,0.7-3.1,1.4-4.6,2.2c0.9,1.4,1.9,2.9,2.8,4.3
				c7.8,6.8,15.6,13.5,23.4,20.3c0.4,0.3-0.1,2.5-0.5,2.6c-10.1,2.6-14.4,9.3-16.6,17.9c-0.8-0.8-1.5-1.6-2.2-2.4
				c-1.3-1.6-2.1-2.6-3.9-2.6c-2.4,0-6.5,1.7-13.7,5.8c-2.3,1.1-4.7,2-7.1,2.8c0.7,0.5,1.5,1.1,2.2,1.6l-7.9,3.8
				c7.4-1.3,12.6-3.1,21.7-11.5l0.1-0.1c0.7-0.4,1.4-0.7,2.2-0.8c0.4,0,0.7,0.1,0.9,0.4c1.9,2.5,4.2,4.8,6.8,6.6l-0.3,1.6
				c-2.2,7.3-17.7,27.1-12.5,35.1c-13.8,5,1.6,25.9-12.6,32c-5.7,7.1-2,15.5-15.8,17.2c-10.9,0.1-5.4,12.8-14.4,15.1
				c-0.6,0.2-1.2,0.4-1.7,0.6l0.9-1.7c3.8-7,7.8-14.3,11.4-21.6c3.3-6.5,0.9-14.2-6-18.9c-3.3-2.4-6.2-5.5-8.5-8.9l-2.8,1.3l0.1,0.1
				c1.1,1.8,2.2,3.6,3.2,5.4c1.3,1.5,2.7,2.9,4.2,4.1c4.6,4.2,9.8,8.9,6,16.2c-1.7,3.3-3.6,6.6-5.4,9.9c-3,5.4-6.1,10.9-8.7,16.5
				c-9.7,5.9-7.7,14.4-15.6,16.1c-1.5,0.4-3.1,0.5-4.6,0.3c-3.5-2.3-6.3-5.5-9.4-9c-0.9-1-1.7-2-2.7-3c-0.1,0.4-0.2,0.8-0.3,1.2
				c-0.6-0.1-1.1-0.2-1.7-0.3l0.3,0.2c3.7,3.3,7.8,7,10.5,10.7c-2.3-0.1-4.6,0.2-6.4,1.9c1.3,1.7,4.7,2.1,8.5,2c0.4,1,0.5,2,0.4,3
				c-0.3,1.9-1.5,3.6-3.3,4.5c-3.3,3-5.6,5.4-7.5,7.3c-4.1,4.2-5.8,5.9-10.1,5.9c-2.5,0-5.9-0.6-11.5-1.6l-2.8-0.5
				c-2.2,0.6-4.5,0.9-6.8,0.9c-1.5,0-3-0.1-4.5-0.4c-0.5,1-1.1,1.9-1.7,2.8c1.8,0.4,3.6,0.6,5.4,0.6c1.8,0,3.6-0.2,5.3-0.5
				c0.8-0.1,1.6-0.2,2.4-0.2c2.5,0.1,5.1,0.5,7.5,1.1c2.4,0.6,4.8,1,7.2,1.1c3,0.1,5.9-1.2,7.6-3.7l0.1-0.1l0.1-0.1
				c2-1.8,3.8-3.7,5.5-5.8c4.6-5.2,9.7-11.1,15.7-11.1c1.8,0,3.5,0.5,5,1.4l0.3,0.2l0.1,0.4c2.4,12.4-7.8,29.9-20.5,35.2
				c-2.7,1.2-4.8,4.2-6.9,7c-0.7,1-1.5,2.1-2.3,3.1c0.1,0.4,0.2,0.9,0.3,1.3l0.1,0.2l0.9-0.4l-0.5,1.7c-1.5,5-3.6,10.1-5.9,15.4
				c-5.5,13.2-11.1,26.9-8.9,40.8c0.1,2.6-0.2,5.2-0.8,7.7c-0.4,1.6-0.6,3.2-0.8,4.9v0.5l-0.5,0.2c-0.5,0.3-1,0.6-1.5,1l-0.8,0.7
				l-0.5-0.9c-10-15.6-28.1-35.1-43.1-46.4h-0.3c-9.8,0-12.6-7.2-14.4-13.6c-0.8-0.1-1.7-0.2-2.5-0.5l0.2,0.5
				c2.5,6.8,5,13.9,10.6,15.5c7.6,0.2,11.8,5.2,15.8,10.1c0.9,1.1,1.8,2.2,2.7,3.2c6.5,2.2,12,10.6,17.4,18.7
				c4.1,6.2,8,12.1,12,14.9l0.6,0.4l-0.3,0.6c-2.3,5.1-4.9,7.4-8.3,7.4c-3.7,0-7.7-3-12.2-6.4c-5.7-4.3-12.2-9.1-19.9-9.7h-0.2
				c-8.5-1.5-18.2-3.3-25.7-11c-1.8-1.7-3.7-3.3-5.7-4.8c-2.7-1.9-5.3-4.2-7.5-6.7c-4.5-1.8-14.2-2.7-25.4-3.7
				c-13.4-1.2-29-2.6-40.5-6.2l1.6,2.6c6.1,1.5,13.6,3.1,18.7,3.1c0.5,0,1,0,1.4-0.1h0.3c3.8,0.7,7.7,1.2,11.7,1.5
				c14.5,1.3,34.4,3.2,45.1,16.8c6.2,6.7,12.6,8.2,19.9,9.9c8.8,2,18.8,4.3,31.9,15.5l0.3,0.2l0,0.3c0.2,1.8-1.4,3.2-3,4.6
				c-1.2,1-2.5,2.1-3,3.3l-0.2,0.4l-0.5,0.1c-6.6,1-18.1,3.8-29.2,6.5c-10.5,2.6-20.5,5-26.7,6.1c-3.3,0.9-6.6,1.5-10,1.9
				c-6.6,1-14,2-17.6,5l-0.5,0.4l-0.5-0.4c-2.5-1.5-5.1-2.7-7.8-3.7c-5.1-2.1-9.9-4.2-10.4-7c-1.5-8.7-4.5-13-7.9-16.6
				c-0.5,1.3-0.8,2.8-0.8,4.2c2.2,3.1,3.8,6.6,4.9,10.2c0.4,1.1,0.7,2.1,1.1,3.1l1.2,2.1c2.4,3.2,7.3,5.8,21.3,9.6l0.7,0.2
				c0-0.2-0.1-1.2-0.1-1.2l0.8-0.2c7.5-1.7,15.5-3,24-4.5c21.9-3.7,44.6-7.5,61.8-17.7c4.3-3.1,9.4-4.9,14.7-5
				c4.4,0.1,8.7,1.2,12.7,3.2c0.6,0.2,1.3,0.3,1.9,0.3c1,0,2-0.2,2.9-0.5c0.7-0.2,1.5-0.4,2.2-0.4c2.6,0,3.5,2.7,4.2,6.8
				c0.1,0.9,0.4,2.8,1,3.1l0.5,0.2v0.5c0.3,6.1,3.8,15,6.8,22.8c2.4,6.2,4.7,12,5.1,15.6c1.2,5.3,0.4,11.2-0.5,16.3
				c-0.2,1.4-2.1,2.1-4.3,2.9c-0.9,0.3-1.9,0.7-2.8,1.1c-7.6,7.7-4.6,12.9-0.8,19.4c2.6,4.4,5.5,9.5,5,15.9
				c0.2,6.6-2.2,12.9-6.7,17.7c-4.1,4.4-9.8,6.9-15.8,6.9c-2,0-4-0.3-6-0.8c-1.8-0.6-3.7-0.9-5.7-1c-1.3,0-2.6,0.2-3.9,0.5l-0.5,0.1
				l-0.4-0.4c-5.5-6.8-21.3-13.7-27.1-13.7h-0.1c-8.9-1.4-17.5-3.3-25.7-5.1c-6.8-1.5-13.8-3-21-4.3c-6.5-1.3-9.8-5-13.4-8.9
				c-4.3-4.8-8.8-9.7-19.7-11.5l-0.9-0.2l0.2-0.9c0.9-3.6,2.1-7.9,3.3-12.5c4.1-14.7,9.1-32.9,8.2-44.4l-0.2,0.6
				c-1.8,6.6-3.2,13.4-4.3,20.1c0.1,2.1-0.2,4.3-1,6.3c-1.4,9.8-3.5,19.5-6.3,29l-0.3,1l-0.9-0.5c-1.3-0.7-2.8-1.6-4.4-2.5
				c-0.1-0.1-0.3-0.1-0.4-0.2c0.1,0.8,0.2,1.6,0.3,2.5c1.3,0.6,2.7,1.2,4.2,1.7l1.6,0.6l0.1-0.6l1.1,1.4c2.6,3.4,8.1,6.9,12.8,10
				c4,2.6,7.8,5.1,9.8,7.2c7,5.1,16.2,6.7,25,8.3c3.5,0.6,6.9,1.2,10.2,2.1c5.9,1.1,13.1,4.1,20.8,7.3c8.1,3.4,16.4,6.8,23.6,8.2
				l2.1,0.4l-1.7,1.2c-6.8,4.7-11.6,14.1-15.4,21.7l-0.2,0.4c-1.3,3-0.2,5.3,0.9,7.7c1,2.2,2.1,4.5,0.9,7.1c0,1.5,0.1,3.1,0.1,4.6
				c0.3-0.3,0.7-0.6,1.1-0.9c4.7-3.6,3.5-6.3,1.7-10c-1.1-2-1.8-4.2-2.1-6.4v-0.3c2.4-10.8,8.4-23.2,34.2-23.2c5,0,10.1,0.4,15,0.7
				c3.7,0.3,7.2,0.5,10.7,0.6c8.9,0.6,17.1,4.4,25,8c6.4,2.9,13,6,19.8,7.2c-6.2-9.2-42.6-17.3-54-19.6l-1.1-0.2l0.5-1
				c0.2-0.3,0.3-0.7,0.4-1.1c0.2-1,0.8-1.9,1.5-2.6c7.3-5.7,7.1-13.2,6.9-21.1c-0.1-2.5-0.1-5.1,0.1-7.6c0.1-1.8-2.8-4.6-4.5-6.3
				c-3.3-3.2-4.9-7.5-4-11c0.5-2.1,2.2-5,7-6.4c3.2-0.8,4.8-3.9,5.5-6.4c1.8-6.3,0.3-15.7-3.1-19.2l-0.1-0.1l-0.1-0.2
				c-1.1-2.6-2.6-8.5-4.3-15.4c-2.4-9.5-5.5-21.4-8-26.8l-0.5-1l1.1-0.2c0.2,0,0.5-0.1,0.7-0.1c3.3,0,10.2,3.6,18.2,7.7
				c8.7,4.5,18.5,9.5,24.3,10.2c1.6,0.3,3,1.4,3.6,2.9c5.2,15.6,14.3,23.7,29.6,26.4c1.6,0.3,3.3,0.5,5.1,0.7
				c7.4,0.9,15.8,1.9,20.9,9.6c0.2,0.1,0.4,0.1,0.7,0.1c-6.4,8.1-13.3,15.6-23.5,19c-4.1,1.6-7.5,2.9-8.9,7.3
				c-2.1,6.5-6.1,12.9-6.1,19.3c-1.5,12.4,11.1,26.7,5.2,37.3c-3.6,6.1-5.9,13-8.4,19.7c-4.1,9.9-28.8,28.5-35.8,12.6
				c-1.8-4-5.5-7.1-8.5-10.4c-5.4-5.7-9.2-12.8-10.8-20.4c-0.2-1.1-1.4-2-2.2-3.1c-6.5,17,14.2,27.5,20,41.1
				c-7.4,1.9-14.4,6-21.2,9.6c2.5,6.9,12.3,4.2,18.3,6.1c6.4,0.8,12.4,4.8,18.5,6.1c6.4,0.5,10.8,2.6,13.7,9
				c4.8,10.7,10.5,21,16.1,31.4c3.9,7.6-4.6,18-14.1,26.9c-1.3-0.6-2.6-1.3-3.9-1.9c-2.2-1.2-4.2-2.7-6-4.4
				c-2.5-2.2-4.9-4.3-7.7-4.9H315c-5.6,0-9.3-2.9-12.4-6c-4.7-4.1-15-7.1-24.5-7.1c-6.1,0-11.1,1.2-14.3,3.5c-0.9,0.6-2,0.8-3,0.8
				c-2-0.1-4-0.5-5.8-1.3c0.6,1.1,1.3,2.3,1.9,3.4c1.1,0.2,2.2,0.3,3.3,0.3c3.2,0,6.3-0.7,9.2-2c4.1-1.5,8.4-2.3,12.7-2.4
				c8.7,0,14.1,4.2,18.9,7.9c4.1,3.1,7.9,6.1,13.1,6.1h0.8l0.3,0.2c4.6,4.1,9.7,7.5,15.2,10.1c-5.9,5.4-11.9,10.1-15.1,13.1
				c-20.6,21.4-21.1,5.6-35,4c0.3,6.2,7.2,7.1,11.2,10.4c13.2,8.7,5.8,18.5,2.6,30.4c1.4,0.4,2.8,0.6,4.2,0.5
				c3.2-9.7,8.8-15.6,3.6-26c0-7.1,22.7-19.5,33.9-29.7c2.1,0.9,4.3,1.8,6.4,2.7c5.8,2.3,11.4,4.9,16.9,7.9c1.1,0.7,2.4,1.1,3.7,1.2
				c2.5,0,4.7-1.7,6.2-4.8l1.2-2.5c5.4-10.8,10.9-22,16.2-33.1c0.9-2.5,2-5.6,0.9-7.4c-0.7-1-1.8-1.6-3-1.7
				c-0.5,0.6-0.9,1.3-1.2,2.1c-0.2,8.3-2.9,16.2-8.4,25.1c-1.2,2.2-2.2,4.6-2.9,7.1c-1.8,5.4-3.8,11.5-9.4,11.5
				c-1.8-0.1-3.5-0.6-5-1.4c-3.3-1.5-6.7-3.1-9.9-4.6c-3.1-1.4-6.3-2.8-9.4-4.3c1.3-1.3,2.4-2.8,3.3-4.5c3.2-4.6,6.2-9.2,9.4-13.7
				c4.8,1,4.8,13.7,18.6,14c-0.1-4.2-3.8-5.5-6.8-7.7c-7.6-5.4-7.2-12.2,0.8-16.4c14.7-7.5,28.3-18,45.4-18.9
				c9.1-2.8-4.5,30.8-1,36.4c5.6,15-16.3,22.8-14.6,37.1c33.1-36.2,14.6-20.6,20.9-55.7c3.2-21.7,1.4-45.7,13-65.1
				c2.6-3.1,2.5-7.3,0.2-9.6c0-5.2,1.1-18.3-0.4-25.2c13.3-2.4,31.4-6.1,37.2-6.5c17.8-1.2,22.9,3,40.2-5.7
				c-2.5,10.5,9.1,21.1,9.6,30.8c0.4,5,2.2,8.4,6.2,11.2c25.5,24.6,23.1-2.9,51.2,28c-16.3,7.7-33.9,14.7-49.2,23.9
				c-1.9,4.9-6.3,6.6-10.3,9c-15,9.2-29.6,19-44.8,27.7c-11.5,6.6-23.8,11.7-35.6,17.6c-9.9,6-22.6,8.7-29.9,17.9
				c2.2-0.1,4.7,0.4,6.5-0.5c21.2-10.6,42.2-21.4,63.3-32c12.3-5.4,23.7-12.8,33.7-21.8c1.5,8,5.6,35.2,1.1,41.2
				c-3,3.5-2.5,6.5-1,10.3c2.3,5.6,1.9,12.1,6.9,16.3c2.7-5.7-1.5-11.2-1.5-16.8c1.2-11.2,2.2-22.5,1.1-33.8
				c0.7-6.7-3.5-16.2,1.5-21.4c16.7-15.4,38.9-22.2,58.5-33c22.4-12.5,3.7,29,63.8,26c-1.5,3-4,5.3-6.2,7.8
				c-28.7,14.7-63,62.8-80.8,90.1c1.4,0.4,2.8,0.5,4.2,0.4c15.1-24.8,35.2-45.5,52.4-68.7c4.5-5.5,19.7-14.6,26.6-19.7
				c5.8-4.2,9.7-10.6,14.9-15.4c1.2,8,14.9,13.6,12.3,21.6c-1.5,6.4-2.5,12.5-7.3,17.9c-4.8,5.4-0.3,16.1,6.7,18.2
				c1.7,0.5,4.4,2.1,4.5,3.3c0.1,3.1,0.1,8-1.7,9.1c-8.1,4.1-6.1,24.4-7.4,33.2c1.4,0.4,2.8,0.6,4.2,0.5c1.3-8,1.9-16,2.9-24
				c0.4-2.1,1.4-4,2.9-5.4c6.9-6.7,4.9-18.3-3.9-21.9c-5.4-2.2-7.2-7.9-2.9-12.4c14.9-16.3-8.9-35.8,37.1-16.9
				c10.6,4.7,22.3,6.9,33.2,11.1c9.3,3.5,20.1,3.6,27.6,11.5c4.2,4.5,9.4,8.3,10,15.3c1.4,7.7,10.1-1.8,14.1-3.9
				c2,2.4,4.7,4.4,8.1,7.6c2.9,6.3,8.7,7.9,14.5,9.8c7,2.8,4.4,12.6,9.7,16.9c4.2-5.5-6.6-18.5,1.4-15.6c2.8,1.1,5.6,2.4,8.4,3.6
				c0.7-1.9,1.4-3.9,2-6c-8.5-4.3-21.5-1.9-29.6-9c-9.7-7.1-11-9.4-13.8-20.6c-0.1-1.3-0.4-2.6-0.9-3.8c11.7,0.7,28.2-10.3,39.4-8.1
				c-0.1,11-9.7,20.7-8.2,31.5c7-3.6,9.3-26.4,14.9-32.5c10.5,1.1,12.6,13.7,18.8,20.5c4.1,7.5,12.4,5,8.9,10.6
				c-2.4,4.5-1.5,12.5-7.2,14.6c-5.4,1.1-10.6,2.1-15.9,0.3c1.2,1.9,2.5,3.7,3.7,5.6h0.6c6.4-1.5,19,2.2,19.6-7.1
				c2.4-30.7,22.4-5.7,36.3-33.6c0.7,0.9,1.9,1.6,2.1,2.6c2.8,10.9,11.7,17.8,17.7,26.5c5.8,7.4,16.1,18.4,26.2,16.9
				c-1.1-1.4-2-3.3-3.5-4c-11-5.4-18.2-14.6-25.4-24c-4.1-5.4-9-10.4-11-17.1c-0.5-1.4,0.4-3.6-0.9-4.6c8.3-4.7,20.9-15.8,25.5-20.4
				c7.4-6.9,13.6-28.8,25.9-22.5c15.6,18.7,19.1,46.2,27.4,68.9c1.9,8.8,0,18.1,4,26.6c5.6-26.2-7.2-50.8-14.6-75.4
				c-1.8-4.5-7.2-7.2-7.5-12.4c10.3,3.7,17,12.4,20.8,22.7c5.3,10.8,18.4,16.9,30.6,11.3c14.3-5,21.9-1.3,28.1,3.3
				c1.6-0.9,3.3-1.8,4.9-2.7C1032,812.7,1010,809.4,1000.8,816.1z M432.2,279.9c8,4,17.4-9,22.1-16c6.3,22.7,24,20.8,31.8,50.1
				c-18.6-4.9-30.2-34-52.1-30.1C431.1,284.3,432,282.5,432.2,279.9z M1025.5,616c1.2,5.1,0.4,10.7-0.5,16c-0.2,1.4-4.2,2.2-6.8,3.5
				c-13.7,13.9,5.2,20.7,3.9,36c0.6,14.1-12.1,27.1-27.4,23c-3.2-1.1-6.7-1.3-10.1-0.5c-5.6-6.9-21.6-14.1-27.7-14
				c-16.1-2.6-30.9-6.6-46.7-9.4c-13.8-2.8-12.9-17-33.1-20.5c3.7-15.1,13.1-42.7,11.5-57.9c27-6.1,62-8,86.1-22.3
				c8.6-6,17.4-6.2,26.6-1.6c5.9,2.1,8.9-5.3,10.7,5.5c0.3,2,0.6,3.4,1.5,3.8C1014.2,588.7,1024.7,607.9,1025.5,616z M773.9,671
				c14.2-1.5,19.8,17,25.4,29.7c-0.8,2-1.7,3.8-2.9,4.8c-6,1.6-12.1,2.8-18.3,3.8c-2.6,0.5-3.7-0.3-3.2-3.6
				C773.3,694.3,769.2,682.7,773.9,671z M668.2,752.5c2.4-19,22.2-35.2,34.6-49c8.8-8.7,43.7,20,55.1,16c0.2,3.5,0.2,7.5-6.5,11
				c-16.8,12.1-5.9,19.4-29.3,35.2c-7.5,14.9-25.4,13-39.1,16.6c-3.4,1.2-6.3,2.7-9.5,0C674.4,773.8,668.4,758.9,668.2,752.5z
				 M787.3,630.3c2.4-2.9,4.6-3.1,7.3-0.2c7.5,8.8,23.9,20.5,25.9,33.4c-13.2-2.6-32.6,7.9-34.1,1.1
				C791.5,649.1,768.1,643.8,787.3,630.3z M754.3,617.3c-2.1-2.3-9.2-2.7-7.8,0c1.1,2.1-18.2,21.9-28.9,10.6
				c-5.3-3.9-6.5-11.2-3.1-18.3c2.4-6.1,3.8-6.6,9.3-3.2c7.6,4.6,19.7,4.1,24.7-3.4l-0.1-0.1c21.4-18.5,9-20.5,30.4-6.8
				c-1.6,2.2-2.4,6.2-2.8,8.7c0.8-2.6,4.1,3.5,4.5,4.3c0.5,1-2.8,2.1-1.4,2.3c4.2,0.2,7-2.5,8.2,4.6c1.8,9.8-12.1,21.7-24.8,20.1
				c-3-0.4-14.5,14-14.7,16.2c-1.2,5-9.2-2.6-17.1-9.8C740.3,637.7,765.1,632.2,754.3,617.3L754.3,617.3z M727.5,639.9
				c-1.4-1.3-2.8-2.4-4.1-3.5c1-2.2,3-3.5,6.6-4.5c7.7-2.7,15.4-7.8,21.9-13c2.1,3.6,2.4,7.7-1.6,9.8
				C742.8,632.6,735.2,636.3,727.5,639.9z M746.4,663.2l6.9,0.8c-2.8,4.2-7.1,5.6-11.6,7.1C743.1,668.3,744.6,665.7,746.4,663.2
				L746.4,663.2z M751.6,654.5c0.6-0.8,7.1-10,9.9-14.5c1.8-3.6,8.6-1,11.5-0.9c1,2.2,2.4,4.7,3.8,7.3c-3.4,4.6-3.4,17-11.7,11.7
				C761.4,656.8,744.4,665.3,751.6,654.5L751.6,654.5z M777.2,653.6c0.3-1.8,0.5-3.6,0.5-5.5c4.5,8.5,13.5,16.5-3.8,22.1
				C775.9,664.5,776.2,659.5,777.2,653.6L777.2,653.6z M797.8,626.8c9.1-1.2,18.3,2.3,27.3,3.4c4.1,0.7,7.8,9,5.8,14.5
				c-0.7,3.1-4.6,8.2-7.4,13.1C820.2,647,801.6,633.4,797.8,626.8L797.8,626.8z M827.2,624.4c-9.6,1.8-18.3-1.3-28.5-2.6
				c-5.2-0.6-7.3-3.4-7.1-8.7c0.2-5.7,4.1-5.1,7.8-5.6c4.9-1.6,31.7-8.1,34.2-4C838.2,610.2,834.8,622.1,827.2,624.4L827.2,624.4z
				 M834,598.2c-48.8-0.7-51.4,20.8-50.6-2.1c2-10.4,8.5-20.9,11.1-31c0.9-3.9,4.7-5.1,8.3-4c22.2,8,25.4,22.1,40.1,37
				C840.1,597.1,834.9,596.8,834,598.2L834,598.2z M774,588.3c-12-2.9-5.4-18.7-10.2-25c0.9-3.7-0.9-9,0.7-11.5
				c9.8-1.9,19.7,5.4,29.4,7C788.6,567.2,786.2,592.4,774,588.3L774,588.3z M748.4,554.4c1-1.3,10-9.4,12.5-12.2
				c1.1,1.5,2.6,2.8,4.3,3.5C766.8,548.8,751.1,555.5,748.4,554.4L748.4,554.4z M752.7,557.1c6.4-3.2,7.3,2.8,9.4,7.4
				c-1.5,4.1,0.4,12.9,1.6,19.2c-3.6,3.1-5.5,6.1-5.9,3.7c-0.7-4-7-10.1-12.2-10.4c-3.9-2.3-5.3-8.8-9.5-11.4
				C741.4,564.3,747.3,558.9,752.7,557.1L752.7,557.1z M753.7,588.1c-0.6,2.8-5.7,10.1-7.5,13.8c-1.4-0.3-2.8-0.1-4,0.5
				c-9.7,7.7-18.7-6.8-28.3,0.3c-0.8-7.7,3.6,0.3,5.2-14.1c0.9-5.3,9.9-12.5,10.5-18.4C738.4,576.2,754.5,583.6,753.7,588.1
				L753.7,588.1z M729.4,568.7l-1.1,0.7c0,0-13.9,16.3-13.8,22.1c0.2,4.9-3,5.9-7.6,4.2c-36.8-14.9-26.2-28.4-10-56.1
				c21.2,24.6,14.2,6.1,29.1,21.1C729.4,563.7,732.1,565.1,729.4,568.7L729.4,568.7z M687.4,513.4c11.4,11.8,21.3,26.1,31,39.5
				C709.4,550.2,685.3,521.9,687.4,513.4L687.4,513.4z M689.8,531.5c0.8,2.2,2.8,4.8,2.2,6.4c-2.1,6.2-4.1,12.8-8.1,17.8
				c-8.8,8.5-4.2,21.6-12.5,19.9c-20.5-0.9-39.9-8.3-60.4-7c-4.6,0.1-10.2,0.9-11.1-5.2c-2.2-8.7,5.3-11.8,8.7-17.3
				c3.8,2.2,4.7,7.3,8,9.7c6.5,4.5,15.4,3.7,22.8,2.3c10.8-4.8,22.4-5.1,31.1-14.4C677,539.6,683,535,689.8,531.5z M676.8,579.3
				c-7.2,10.9-16.7,25.3-21.9,36.5c-2,7.7,22.6,22.2,8.1,26.4c-3.9,0.7-7.6,2.1-10.9,4.1c-8,5.1-17,4.2-25.6,4.9
				c-10.9,1-14.6-3.4-17.5-13C588.1,545.5,608.5,578.1,676.8,579.3z M661.6,620.9c-8.2-7.9,18.5-26.9,17.4-39
				c10.1,17.2,35.8,16.2,31,27.3c-6.2,21.3,3.6,10.8,1,22.8c-12,2-23.9,4.1-36,5.9C670,636.3,670.3,625.2,661.6,620.9z M711,632.2
				c0,0.1,0,0.2-0.1,0.2C710.8,632.3,710.8,632.2,711,632.2z M679.8,641.8c12.2-2.2,25.8-2.7,37.1-7.1c0.6,1,1.3,1.9,2,2.8
				c-5.8,23-23.4,19.6-27.9,50.4c-7.9-8.4-11-20-17.7-29.6C670.9,649.5,669,642.2,679.8,641.8z M706.4,663.7
				c1.6-1.5,2.8-3.3,3.5-5.4c5.5-0.6,10.9-11.7,12.9-16.8l0.4,0.4l-0.1,0.1h0.2c7.8,8.1,18.6,18,15.9,23.7
				c-3.7,7.8-7.7,14.9-16.4,18.9c-7.1,2.4-12.9,9.5-19.7,12.4C687.1,688.2,699.4,670.6,706.4,663.7L706.4,663.7z M757.9,717.7
				c-11.4-8.8-33.9-11.7-45.1-20.2c7.2-5.7,15.3-10.2,22.8-15.4c6.1-4,12-8,18.1-12c4.8-3.1,13,1,13.3,6.6c-0.2,8,0.3,16.1,2.7,23.7
				c1.7,5.8,0.6,9.4-5.1,10.8C758.8,712.6,757.9,714.8,757.9,717.7z M769.6,673.2c-1.2,1.1-5.4-7.2-7.8-7.6c-9.3-1.7,0-3.8-0.1-4.9
				c3.9-0.9,7.4,0.9,11.2,1.3c0,0-0.1,1.3-0.1,2.2C771.3,665.9,770.9,672,769.6,673.2z M788,671.6c6.6-0.4,36-6.4,42.1-4.3l10.5,2.4
				c4.7,8.5-0.9,13.1-5.6,18.3c-9.7,13.6-17.9,8.9-31.2,15.6c0-1.8-0.5-3.5-1.3-5C801.3,694.2,790.2,675.9,788,671.6z M841.5,667.4
				c0,0.1-0.1,0.2-0.1,0.3c-2.4-3.1-11.2-8-11.1-8.5c9.6-34.2,5.8-22.8,43.9-7.3c-2.3,1.4-3.9,3.9-5.4,6.2
				c-4.4,8-12.4,11.5-19.5,16.2C844.2,678,847.8,669.1,841.5,667.4z M833.5,630.2c2.9-8.2,6.8-16,11.6-23.3
				c9.1-21.4-0.5-5.7-20.5-34.9c-6.4-5.3-12.6-13.5-21.4-14.8c3.3-8.9,11.4-15.3,17.9-22.2c2.9-3.2,5.8-3.5,8.5-0.6
				c8.3,8.7,15.3,18.5,23.1,27.5c18.4,19.2,0,22.4,34.2,31.7c-5.8,21-4.8,32.5-11.7,55.4C866.5,643.9,846.8,631.5,833.5,630.2
				L833.5,630.2z M934.4,424.1c8.5,13.1,23.2,15,35.1,21.8c6.1,3.5,12.6,5.2,20.2,3.7c8.1-1.5,18.7,6.6,25.3-2
				c6.9-5.8,15.1-21.2,25.3-15.4c2.3,12-7.8,29.1-20,34.2c-4,1.8-6.6,6.7-9.6,10.4c-0.4,0.5,0.4,2,0.6,3.1l0.1-0.1
				c-5.3,17.3-18,36.9-14.8,56.5c0.3,4.2-1.3,8.3-1.6,12.4c-0.6,0.3-1.2,0.7-1.7,1.1c-10.7-16.6-29.3-36.1-43.5-46.8
				c-12.4,0.4-13.3-10.7-15.6-17.9c-5.6-17.1-8.7-13.3-22.7-15.9c-10.3-1.9-20.8-3.2-31.1-5.2c-1.5-0.3-3.7-3.4-3.4-4.6
				c0.9-3.2,3.1-8.7,4.4-8.7c10.7,0.6,13.7-8.1,18.5-14.4c5.6-7.2,10-15,11.6-24.5c1.5-5.1,5.2-11.6,9.8-15c0.4,0.8,1.2,1.6,1.2,2.4
				C923.7,409.3,929.4,416.3,934.4,424.1L934.4,424.1z M935.2,372.5c1.2-2.3,1.4-2.4,3.7-0.4c7.4,6.4,14.7,13.5,23.4,17.6
				c14.1,7.5,31.4,9,45.1,17.2c4.2,5.7,26.7,20.4,15.9,26.6c-16,14.5-9.4,14.8-31.4,11c-12,3-20.2-2.3-30.9-8.1
				c-5.6-2.7-12.5-4.1-16.6-8.3C927.4,410.1,918.6,394.5,935.2,372.5z M895.4,472.5c7.6,1.6,15.4,2.5,23.2,2.7
				c14.3,0.1,11.6,28.4,24.5,31.8c9,0.2,13,7.6,18.2,13.2c11.1,3.5,19.8,26.8,29.3,33.6c-8.7,19.2-20.3-7.7-39.6-9.2
				c-8.7-1.5-18.1-3.2-25.4-10.8c-3.9-4-9.4-6.9-13.3-11.5c-12.2-5.2-61.8-2.7-77.4-15.4c26-5.4,12.8-27.9,38.6-32.7
				C880.4,467.5,887.7,470.7,895.4,472.5L895.4,472.5z M1025.1,558c-5.7,1.7-15.6-3-18.3,4.7c-0.3,1-4.9,1.1-7.5,0.9
				c-1.1-0.1-3.2-2.5-3-2.7l3.1-12.7l0,0c0.4-1.9,0.7-3.9,0.8-5.8c9.9,3.8,33.4,2.9,42.1,6.3C1041.2,554.4,1030,555.9,1025.1,558
				L1025.1,558z M1078.9,421.5c6.3-4.9,13.6-2.6,20.5-2.5c5.3-1.7,4.7,8.2,5.7,12.5c-5.3,3.5-10,7.9-15,11.9
				c-4.4,5-10.3,12.8-15.4,3.7c-3.3-6.4-11.6-11.4-18.1-14.7C1064.7,430.4,1072.4,426.7,1078.9,421.5L1078.9,421.5z M1050.2,433.6
				c0.6-0.1,1.2-0.1,1.8-0.2c1.3,3.1,7.1,8.1,8.5,8.7c16.5,6.9,13.8,21.2,19.8,35.5c2.6,11.1,8.8,24-6.3,29.4c-2,0.6-3.8,1.8-5,3.5
				c-8.4,15.2,10.9,30.7,0.8,31.4c-13.2,1.3-26.2,3.3-39.4,0.4c-5.2,0.1-23.6-4.3-30.1-1.5c-2.5-33.7,19.3-41.9,15.2-60.6
				c5.7-3,7.4-10.1,13.2-12.9C1046.2,458.1,1040.3,433.7,1050.2,433.6L1050.2,433.6z M976,349.4c11.2-0.9,16.6-13.6,27.6-14.8
				c2.8-0.8,6.2-1.3,7.9-3.3c5.7-6.3,13.9-6.8,20.9-10c0.4-0.2,1.7,0.5,1.7,0.9c1.9,14.2,10.3,26.3,17.1,38.1
				c4.9,5.9,14.7,10.5,10.1,19.5c-7.6,14.7-17.5,29.2-20.2,45.9c0,0,0-0.1-1,0c-22.8,0.2-18.8-27.4-58.5-33.7
				c-7.6-1.8-48.4-19.5-38-29.1C960.4,343.2,935.7,348.5,976,349.4L976,349.4z M855.5,292.2c6.4-2.7,11.6-6.2,14.7-12.7
				c17.4-12.5,39.8,20.8,56.5,23.9c3.3,9.7,18.9,14.5,15.5,26.8c8.1,21,3.1,22.9-10,39.7c-4.5,6.5-8.1,13.8-11.6,21
				c-2.8,5.9-5.1,7.6-10.8,4.9c-4.2-2-7.6-5.6-11.7-7.6c-4.6-2.2-10-2.9-14.5-5.3c-13.2-8.5-39.2,6.3-43.5-13.8
				c-0.9-3.4-2.2-6.8-3.8-9.9C842.6,343.1,848.4,295.2,855.5,292.2z M863.8,384.6c16.5-1.7,30.3,8.5,44.2,15.6c0.9,0.5,1,3,0.9,4.5
				c-1.9,14.8-10.3,26.4-19.2,37.6c-1.4,1.7-4.2,2.9-6.4,3.2c-8.9,1-14.2,11.5-8.9,18.7c2.2,3,2.2,4.7-1.2,4.8
				c-15.4,0.3-19.4,15-26.3,25.7c-1.5,2.1-3.6,4.3-5.9,5.1c-8,2.5-16.3,11.3-13.6,19.7c1-0.9,2.8-1.5,3-2.5c1.2-5.7,4-3.9,7.9-2.7
				c4.7,0.9,21.2,5.8,29.3,5.2c12.1,2.9,42.3,0.3,56.3,18c13.7,14.8,27.6,4.7,51.9,25.4c0.3,2.5-4.7,4.3-5.9,7.4
				c-12.9,1.9-43.1,10.5-55.9,12.5c-7.3,2.3-22.2,2.2-28,7.1c-5.2-3.5-17.1-6.3-17.8-10.2c-3.3-18.6-13-18.1-20-30.7
				c-4.5-10-12.3-16.6-21.1-22.3c-8-5.3-5.3,2.5-13.2,8.2c-0.4-2.9-0.6-7.2-1-9.8l-0.7-0.1c1.8-3,0.1-10.9,0.4-12.5
				c0.9-5.3,0.3-11.1,2.4-15.8c9.4-19.8-9.8-29.4-3.7-52.3c4.2-21-12.1-16.4-13.5-32.9c-9.2-30.1,22.8-11.8,26.8-35.8
				c1.3-5.1,4-9.7,7.6-13.5C840.6,378.7,841.4,389.5,863.8,384.6L863.8,384.6z M695.7,401.3c-1.2,6.7-34.5,2.2-41.7,3.6
				c-5.7,1.4-5.4-1.5-5.4-5.2c1-12.5-3.4-27.3,8.3-36.4c13.7-18.7,19.9-46.7,46.7-52.1c23-12.2,25.5,6.9,35.5-1.4
				c7.4-5.9,28.9,0.4,37.4-3.7c4.7-5.9,13.7-8.5,14.1-17.8c0-0.3,1.8-0.4,2.7-0.6c0.9,4.8,5.1,4.5,8.5,5.9c8.3,5-2.5,11.4,15.3,22.6
				c12.5,13.7-2.1,21,8.4,34.2c7.7,8.2-3.5,15.3-5.3,23.1c-2.2,13.5-16.6,13.8-26.5,18.5c-31.7,2-13.7-25.8-54.8-5.6
				C718.6,394.2,706.2,364.7,695.7,401.3L695.7,401.3z M755.9,446.5c-16.2-6.8-26.4-23.4-44.4-27.3c-21.4-5.7-9.9-41.7,10.6-28.8
				c6.7,4.4,12.3,3.5,18.7,0.4c22.8-9.6,15.8-11,35.5,1.8c16,5.3,15.8,9.7,17.9,25.4c3.6,13.6,16.5,8.7,12.3,26.6
				c-6.3,25.2,12.4,31.8,4.5,49.4c-3.5,7.3-3.7,21.6-1.7,30.1c-18.3-25-30.4-1.9-34.3-17.4c-1.8-12.1-4.8-24-7.2-35.9
				C767.9,461,767.5,450.1,755.9,446.5L755.9,446.5z M758.6,475.2c8.5-5.7,6.4,3.5,7.4,9c0.5,6.9,10.8,30,2.2,32.8
				c-12.1-3.3-11.2-17-16.4-26.7C751.1,484,753.8,478,758.6,475.2L758.6,475.2z M687.7,493.3c4.6-4.6,8.5-10,13.2-14.4
				c8.7-6,12.2,7.9,25.4-1.9c4.7-3.2,8.6-2,11.7,2.1c6.7,8.8,14.9,16.7,14.8,29.1c0.6,3.9,12.4,14.7,17.2,12.9
				c4.6-5.5,11.6-3.5,17.2-5.9c6.8-3.2,13.9,9.2,21.1,10.1c-4.8,3.2,7.2,10.8-6,22.2c-5.2,8.4-3.2,9.9-13.6,5
				c-42.6-10.2-12.8-29-37.7-33.9c-8.3-1.1-13.6-12.2-22.5-7.5c-8.5,2.2-11.1-1.5-19.2,6.1c2.4-0.1,4.9-0.5,7.2-0.2
				c8.2,0.9,17-5.2,24.9,2.6c4.9,4.2,17.4,0.6,17.1,10.6c0.1,3.7,0,7.6,1.5,10.8c-7-1.1-19.4,15.3-25.4,18
				c-14.2-7-21.3-25.5-33.7-35c-7.9-6.1-9.1-15.1-14.5-22C684,498.8,684.9,496.2,687.7,493.3L687.7,493.3z M654.8,467.2
				c22.2,21.5,21.9,22.7,29.2,52.5c1,3.6,4.6,5.9-1.4,10.6c-23.2,18.1-73.4,47.5-70.6-5c-0.4-7.6-2.1-15.8,5.7-21.4
				c3.1-4.5,2.2-11.5,5.4-15.8c7.2-8.3,3.1-22.2,9.5-24.1C639.9,463.4,647.5,461.5,654.8,467.2L654.8,467.2z M631,448.9l0.7-0.2
				c-0.1,0.7-0.8,0.1-0.8,1.3c2.4,2.6,5.6,4.6,6.4,8.3c-6.8,1.1-9.2,0.9-12.1-5.8C627,451.4,628.8,450.3,631,448.9z M613.2,502.1
				c-11.6,7.3-5.7,18.7-5.4,28c2.8,19.9-18.2,17.3-11.2,37.3c-6.5-1.2-48.8-14.3-55.5-15.7c-17.3-1.7-20.9-7-30.9-8.8l0,0
				c-1.6-1.5-3.4-2.9-5.3-4.1c3.8-2.3,12.7-9.6,13.8-9.9c16.8-4.2,28.2-15.6,39.6-27.8c12.3-6.9,24.4-14.1,37-20.3
				c9.4-4.6,16.1-11.9,22.9-19.4c1.5-2.3,4.1-3.6,6.9-3.4C626.5,473.7,619,488,613.2,502.1z M573,422.1c3.9,3.3,10.1,4,12.6,8.7
				c-5.7,1.7-16.2-5.4-21.9-7.7c-2-1.5-2.2-8.2-3.5-12.3C564,415,568.3,418.8,573,422.1z M420.8,425.1c2.2-2.9,8-4.3,11.1-6.6
				c6.9-5,14.9,1.5,22.8,0.7c8.1-0.4,51.2,10.4,55.4,12.4c9.6,4.7,18.7-0.5,28-0.8c4.5-0.1,14.4-2.9,18.4-7.4
				c3.8,7.7,32,9.5,40.3,15c7.9,9.7,29.6,6.4,24,11.6c-15.6,24.9-45.2,35.5-69,49.5c-10.1,22-32.9,21.4-49.1,37.6
				c-38.2-20.7-3.7-24-24.9-43.3c-7.6-8.3-15.7-16.7-19.9-28c-1.3-3.1-3.3-5.9-5.9-8.1v-0.1c-0.1,0-0.2-0.1-0.2-0.1
				c-1.3-1.1-2.8-2-4.3-2.6c-10.4-3.8-18.6-10.3-26.4-17.7C416.8,433.4,419.9,429.1,420.8,425.1z M419.7,446.5
				c0.7,1,1.7,1.7,2.8,2.1c3.3,1.3,6.6,2.7,10.1,4.1c3.7,2,7.5,3.7,11,5.2c8.8,2.9,10.1,11.4,13.2,18.6c7.3,8.5,15,16.7,21.9,25.4
				c4,11.9-7.6,22.1,9.7,28.7c2.5,0.4,9.5,7.5,14.8,11.7c-44.1,3.1-83.8-11.7-129.7-9.5c-2.1-0.9-4.6-1.7-7.1-2.5
				c9.5-0.6,19-1,28.5-1c4.4,0,8.7,0.1,12.9,0.3c-1.8-2.1-6-3.2-12.7-3.2c-5.5,0-12,0.7-18.9,1.3c-4.9,0.5-9.9,1-14.6,1.2
				c-5.2-1.3-10.1-1.7-12.4-0.4h-1c-4.2-0.8-7-2.2-8.5-4.4c-1.7-2.5-1.7-5.7-0.2-9.9c-2.4-0.4-4-1.2-4.9-2.5c-1.4-2-0.7-4.6-0.1-7
				c0.8-2.9,1-4.4-0.3-5.1l0.5-1.6c0.4,0,0.7,0.1,1.1,0.1c3.5,0,7.1-2.1,10.1-5.9c3.3-4.2,4.8-9.4,3.9-13.3
				c-1.9-8.5-4.2-17-6.5-25.2L343,452c-1.2-4.6-1.7-7.6,4.3-11c3.4-1.5,7.1-2.3,10.8-2.3c4.8,0,9.6,1.2,14.2,2.3
				c4.6,1.1,9.3,2.2,14,2.2c3.9,0,7.7-0.8,11.2-2.5c2.9-1.3,6-2,9.2-2.1C412.2,438.5,416.7,441.2,419.7,446.5L419.7,446.5z
				 M378.3,395.1c3.7,2.2,6.7,5.3,8.8,9.1c3,8.3,1.4,15.5,12.1,8c6.9-4.6,18.6,0.7,16.8,9.3c-2.5,7.2-1.6,13,1.2,17.9
				c-3.2-2.4-7.1-3.7-11.1-3.7c-4.2,0.1-8.3,1.1-12.1,3c-2.2,1-4.6,1.5-7,1.5c-2.7-0.1-5.3-0.5-7.9-1.1c-2.4-0.6-5-1-7.5-1.1h-0.2
				c-6.5-0.3-11.6-1.6-15.7-3.9l-0.9-0.5l0.6-0.8c1.7-2.4,4.4-4,7-5.6c3.8-2.4,7.2-4.4,7.4-8.5l-1,0.6l0,0l-0.5,0.3
				c-3.6,2.5-7,5.1-10.2,8c-1.5,1.3-3.1,2.6-4.7,3.9l-0.8,0.9c-2.9,3.4-6.2,7.2-9.9,7.2c-2.3,0-4.3-1.6-6.1-4.7
				c-2.4-4.8-8.4-9.6-17.7-14.3l-2.1-1.1l2.3-0.5c8-2,15.5-5.6,22-10.8c3-2.3,6.3-3.3,10.8-3.3c1.8,0,3.6,0.1,5.3,0.3
				c1.6,0.1,3.2,0.3,4.7,0.3c0.4-0.1,0.8-0.2,1.2-0.2c3.8,0,4.4,5.4,4.9,9.8c0.1,1.2,0.3,2.4,0.5,3.5v0.1l0.2-1.2
				c0.8-4.3,3.4-9.8,6-15C375.9,400.1,377.2,397.5,378.3,395.1L378.3,395.1z M307.4,407.9L307.4,407.9l0-0.2c1.5-3,3.1-6,4.7-9
				c2.7-2.1,5.9-3.4,9.2-4c10-1.6,3.3-12.9,11.7-14.2c5.8-1,11.1-7.9,17.2-6.4c7.2,4.1,15.1,7.7,21.7,12.6c0.7,2.1,1.8,4.1,3.2,5.8
				c-2.5,5.3-6.6,9.3-14.9,9.5H360l-0.2-0.1c-1.1-0.5-2.2-0.7-3.4-0.7c-6.2,0-15.6,4.7-24.6,9.2c-8.1,4-15.7,7.8-20.3,7.8
				c-1.5,0.1-3-0.5-3.9-1.6C306.4,414.9,306.3,412.1,307.4,407.9z M303.1,414h-0.8c-1.3,0-2.7-0.1-4-0.3c1.2-0.1,2.5-0.1,3.7,0
				c0.2,0,0.4-0.1,0.6-0.3c0.1,0.3,0.3,0.5,0.6,0.6L303.1,414z M302.9,413.2c0.8-0.9,1.4-1.9,1.8-3c0.2-0.7,0.5-1.4,0.8-2.1
				c-0.4,1.7-0.8,3.5-1.1,5.2L302.9,413.2z M277.3,546.5c-4.1,0-6.1,1.2-7.1,4c-0.1,0.5-0.4,1.6-6.2,1.6c-0.7,0-1.5,0-2.1-0.1
				c-1.4-0.1-3.3-2.2-3.7-3c-0.2-0.3-0.2-0.6-0.1-0.9l3-12.1l0.1-0.5c0.4-1.9,0.7-3.8,0.8-5.7l0.1-1.2h0v-0.4
				c-1.4-18.7,4.7-29.9,9.6-38.8c4.1-7.5,7.4-13.5,5.6-21.6l-0.1-0.6l0.6-0.3c2.6-1.4,4.4-3.7,6.2-6.2c1.8-2.5,3.9-5.2,6.9-6.8
				c9.4-4.9,11.9-14.3,13.8-21.9c1.6-6.3,3-11.7,8-11.8c0.6-0.1,1.2-0.2,1.8-0.2l0.7-0.1l0.3,0.6c1.2,2.9,6.8,7.7,8,8.2
				c12.1,5,14.3,14.1,16.6,23.6c0.9,4.2,2.2,8.3,3.7,12.2v0.1c0.4,1.5,0.8,3.1,1.2,4.7c2.7,9.7,5.7,20.8-8.1,25.7
				c-1.8,0.5-3.4,1.6-4.5,3.1c-4.3,7.9-0.8,16,1.8,21.9c1.2,2.8,2.2,5,2.2,6.7c-12.6-2-27.8-4.7-34.2,0c6.6,1.9,13.4,3.3,20.2,4.2
				c-4.8,0.5-9.7,0.9-14.6,0.9c-5,0-10-0.4-14.9-1.5h-0.1c-2.7-0.2-5.5-0.5-8.2-0.9c-5-0.8-10.1-1.3-15.2-1.5
				c-2.1-0.1-4.2,0.2-6.2,0.9L263,529h0.1c4.9,1.9,13.5,2.6,21.8,3.3c8.2,0.7,15.9,1.3,20.2,3l0.7,0.3l-0.1,0.7
				c-0.9,4.8-7.7,6.8-13.2,8.4c-1.7,0.5-3.3,1-4.6,1.5c-1.2,0.3-2.5,0.5-3.7,0.5c-1.1,0-2.3-0.1-3.5-0.2
				C279.6,546.5,278.4,546.5,277.3,546.5z M378.1,608.3c-2.8-2.3-5.4-4.6-9.5-4.9c-14.2-2-33.7-4.8-39.2-22.6
				c-0.3-0.6-0.6-1.3-0.9-1.9c-1.1-2.5-1.9-4.2-4.4-5.3l-43.8-18.9c-1.5-0.6-2.1-2.3-1.5-3.8c0.4-1,1.3-1.6,2.4-1.7
				c1.6-0.1,3.3-0.2,4.8-0.3c8.9-0.5,16.5-1,22.8-10.2l0,0v0c2.3-2.6,4.4-4,6.3-4.2c6.6-0.4,13.2-1,19.8-1.6c15,1.7,30.9,3,41.9,4.4
				c0.3,1.1,0.6,2.4,1.3,3.1c11.5,9.2-4.9,16.8,6.5,26c3.3,2.8,4.1,6.1,4.4,10.3c-0.2,8.3,8.7,17.3,1.3,24.6
				c-3,3.4-5.8,7.1-8.7,10.7c0-0.3-0.1-0.5-0.2-0.8C380.3,610.2,379.1,609.3,378.1,608.3L378.1,608.3z M316.5,753.2l-6-2.5
				c4.6-1.7,9.7-5.2,14-1.2C322.4,753,321.1,753.8,316.5,753.2z M330.5,758.3c-5.5-4.1,1.9-14.7-6.2-14.5
				c-8.6,0.1-27.7,6.1-34.1,1.2c6.7-6.6,25.5-5.1,36.2-8.2c2-1.7,4.1-6.1,7.1-5C339.5,745.1,338.4,746.6,330.5,758.3z M421.8,733
				c-3.4,9-5.7,18.5-8.1,27.9c-0.5,6.6,0.9,16.4-8.9,15.9c-10-0.2-18.5,3.5-26.4,9.4c-6.3,5.1-16,6.7-21.5,12.8
				c-2.7,4.5-3.2,3.1-4.9-0.6c-4.9-10.5-10.2-20.8-15.7-30.9c-7.1-13.5,14.2-15.3,3.6-32.9c-4.2-8.3-0.9-16.7,8.6-19.1
				c25.5-6.6,47.7-9,75.1-16.3c-1,6.2-1.1,17.2,0.3,22.9c-0.3,0-0.6-0.1-0.9-0.1C423.4,727.8,424.9,726.9,421.8,733z M498,684
				c-7.6,3.8-15.5,3.5-23.8,3.3c-12.6-0.2-37,6.2-50,7.4c0.2,0.3-0.2,0.7-0.8,1.1c-24.4,1.6-56.8,10-79.4,16
				c24.4-35.8-10.1-34.6,8.5-70.4c7.1-6.6,17.5-10.1,24.5-16.9c5.8-5.4,9.9-12.5,15.4-18.4c6.8-7.2,7.1-12,3-22.4
				c-2.1-5.6-0.5-13.8-5.2-18.2c-10.8-6.9,2.9-23-9.7-28.4c0.6-0.5-1.5-1.9-4.8-3.5c9,1.6,30.7,5.1,32.4,4.9
				c32.1-0.9,63,14.8,95.3,7.6c7.3-1.9,12.8,3.1,18.2,6.6c2.5,35.2-39.2,49-22.8,100.6c1.4,6.5,1,20.2,4.2,28.9
				C500.8,682.9,498.9,683.6,498,684L498,684z M504.2,607.5c9.7-15.4,19.6-29.8,22.2-48c0.7-3.7,1.9-4.6,5.1-4.3
				c101.4,15.9,48.1,26.1,77.5,94.5c-20.6,2.2-43.1-13.8-61.6,1.5c-13.6,11-26.8,17.3-40.4,29.2
				C505.9,657.5,494.7,628.8,504.2,607.5L504.2,607.5z M563.8,743.1c-12.3-14.3-23.8-1.7-31.7-12.5c-5.7-4.3-13.6-6.6-13.7-15.8
				c-0.3-4.1-4.3-7.8-6.2-11.9c-1.2-3.4-2.4-13.3-4-19c13.1-5.8,38-27.4,46.2-31.8c13.5-6.9,29.3,0.8,43.6,1.5
				c15,1.7,44.7,3.9,57.8-3.3c18-13,13.6,37.1,44.3,47.7c-0.6,0.1-1.2,0.2-1.8,0.3c-0.8,0.2-1.6,0.6-2.1,1.3
				c-5.5,8-11.4,14.9-22.2,15.9c-15.5,2-31.5,3.1-46.7,6.8c-12.8,7.9-25.7,15.8-38.5,23.7C579.1,755.6,571.9,752.6,563.8,743.1z
				 M640.6,781.4c-18.9,3.3-42.6,1.4-51-19.3c-0.9-2.1-2.3-3.9-4.2-5.2c-2.8-1.8-2.3-2.2,0.3-3.7c47.5-24.2,47.8-50.3,58.6,14.5
				C646.9,772.4,647.7,780.5,640.6,781.4z M638.8,728.3c-0.9-3.2-0.7-4.5,3.1-4.8c12.5-0.8,25-2.7,37.6-3.1
				c-5.8,9.7-11.6,18.1-18.2,28c-7.3,5.9-5.3,15.7-10.7,22.6C645.8,757.1,642.9,742.5,638.8,728.3z M662.2,792.8
				c-4.6-5.2-10.4-9.3-12.4-13.7l0.2-0.1c9.5-7.2,6.7-18.7,13.6-24.9c4.5,5,3.7,20.3,6.9,28.3C667.4,783.8,668.8,789.3,662.2,792.8
				L662.2,792.8z M738.7,815c-18.2-5.4-35.5-13-53.4-19.2c-5-1.6-10.9-0.1-15.5-3.6c1.4-1.2,2.9-3.3,4.3-3.3
				c8.5,0.1,16-4.3,24.8-4.5c10.6-0.3,20.4-5.7,26.2-14.5c2.2-3.2,6.1-5.2,9-7.9c8.7-7,11.4-18.5,17.7-26.8
				c12.3-3.2,5-19.5,16.2-21.1l1.2,4.2c-5.5,9.9-7.1,27.9-5.4,35.7c0.6,7.4,0,15.2,0.2,22.7c0.7,14.8,1.2,30.6-13.1,39.2
				C748.5,817.9,742.7,816.2,738.7,815L738.7,815z M762.6,829.2c-1.7-1.3-3-3.6-4.5-5c-6.9-2.6-1.9-5.5-0.2-8.1
				c2.4-3.7,5.2-7.1,8.3-10.2c1.3,1.4,2.5,4.4,3.9,7.6C767.9,817.4,763.2,826.8,762.6,829.2L762.6,829.2z M771.1,838.7
				c-5.4,7-0.4-13.1,0.2-22.3c1.4,3.3,3,6.5,4.8,8.5c-2.4,4.1,0.5,10.7,2,12.8C775.6,838,771.3,838.3,771.1,838.7L771.1,838.7z
				 M818.4,788.5c-0.1,6.1-0.3,12.1-0.9,18.1c-8.2,6.2-31.4,4.9-39.4,13.4c-1.9-4.3-4.2-8.5-6.7-12.5c-5.1-6.2-2.4-13.2-3-19.8
				c-1.1-15.3,2.3-30.6-1.8-45.9c-1.2-4.2,7.3-19.5,6.9-26.2c4.4-2.4,10.7-2.2,15.3-3.8c10.5-5.5,10.5,1.2,13.7,8
				c2.6,12.9,15.8,30.7,15.5,40.1C816.5,767.6,819,784.4,818.4,788.5L818.4,788.5z M858.4,807.5c-2.7,8.9-0.4,19-4.7,27.5
				c-12.4-5.9-13.4-25.3-28.5-27.3c-3.6-0.6-3.6-1.6-3.4-4.8c0.6-8.2,0-30.3-0.1-41.2c1.3-2.4-3.8-12.9-3.2-15.6
				c11.2,13,23.1,37.5,34.8,50.2C856.1,799.6,859.8,801.7,858.4,807.5L858.4,807.5z M884.6,822.9c-2.4,6.7-8.6,8.9-14.2,11.3
				s-10.6-2-9.9-7.6c1.3-7.4,1.1-15.1,3.2-22.3c0.9,0.9,2.2,1.6,2.7,2.7c1.4,3.8,11.2,11.2,18.9,14.5
				C885,821.9,884.8,822.4,884.6,822.9L884.6,822.9z M934.6,773.9c-5.2,3.6-7.3,8.7-10.3,13.8c-5.3,9-25.5,21.8-31.9,31.7
				c-0.6,0-1.3,0-1.9,0c-2-1.3-4.6-1.9-7-3.2c-5.1-4.3-20-16.7-25-20.5c-8.6-6.4-11.3-16.7-17.1-25c-4.1-5.9-8.1-12-12.6-17.6
				c-5.3-6.5-21.7-25.2-22.2-35.4c-0.1-0.7-0.4-1.4-0.9-1.9c0-6.3-1.5-10.9,9.4-11.1c23.4-1.2,24.4-29.9,34.8-19.9
				c4.2-0.3,8.2,7.3,12.2,9c0.1-0.2,6.9,6.2,7,6c3.9,5.5,5-1.9,11.7,15.9c14.2,16.2,31.5,30,46.9,45.2
				C932.2,763.7,942.1,768.4,934.6,773.9z M929.7,755.7c-8.5-7.8-18.2-14.5-25.8-23.1c-7.3-8.4-19.2-13.8-21.3-25.7l-33.3-27.2
				c10.5-6.5,24.1-13.8,27.3-26.7c4.9,6.3,18.4,12.6,22.7,17.4c9.9,7.3,23.9,7.7,35.7,10.6c12,2.2,30.3,12.8,44.4,15.4
				c-7.2,4.9-12,14.7-15.9,22.5c-3.3,7.8,7.5,11.5-1.1,18c-4.3,4.2-14.7,18.2-17.1,27.3C939.2,763.2,933.7,760.2,929.7,755.7
				L929.7,755.7z M944,768c0.4,1.3,7.5-2.8,8,7C951.2,773.4,941.5,769.5,944,768L944,768z"/>
		</g>
	</g>
	<g id="Layer_2_1_">
		<circle id="Эллипс_68_1_" class="st5" cx="636.1" cy="567.6" r="261.7"/>
		<circle id="Эллипс_68" class="st6" cx="636.1" cy="567.6" r="261.7"/>
		<path id="Контур_4904" class="st7" d="M636.1,305.9c144.5,0,261.7,117.2,261.7,261.7S780.6,829.3,636.1,829.3
			S374.4,712.1,374.4,567.6S491.6,305.9,636.1,305.9 M636.1,303.4c-135.2,0.2-248.3,102.7-261.7,237.3s77.4,257.4,209.9,284.1
			S848.1,773.6,888,644.5c39.9-129.2-24.5-267.6-149.1-320.2C706.4,310.4,671.4,303.4,636.1,303.4z"/>
		<g id="Сгруппировать_2454" class="st8">
			<text transform="matrix(1 0 0 1 485.244 528.7286)" class="st9 st10 st11">Ржев</text>
			<circle id="Эллипс_69" class="st9" cx="505.2" cy="535.7" r="2.4"/>
		</g>
		<g id="Сгруппировать_2455" class="st8">
			<text transform="matrix(1 0 0 1 613.037 439.7101)" class="st9 st10 st11">Тверь</text>
			<circle id="Эллипс_70" class="st9" cx="634.2" cy="446.9" r="2.4"/>
		</g>
		<g id="Сгруппировать_2456" class="st8">
			<text transform="matrix(1 0 0 1 717.2484 457.7218)" class="st9 st10 st11">Дубна</text>
			<circle id="Эллипс_71" class="st9" cx="738.3" cy="463.7" r="2.4"/>
		</g>
		<g id="Сгруппировать_2457" class="st8">
			<text transform="matrix(1 0 0 1 682.5389 519.1085)" class="st9 st10 st11">Клин</text>
			<circle id="Эллипс_72" class="st9" cx="701.4" cy="525.4" r="2.4"/>
		</g>
		<g id="Сгруппировать_2458" class="st8">
			<text transform="matrix(1 0 0 1 822.9896 533.1065)" class="st9 st10 st11">Сергиев Посад</text>
			<circle id="Эллипс_73" class="st9" cx="815.9" cy="527.8" r="2.4"/>
		</g>
		<g id="Сгруппировать_2459" class="st8">
			<text transform="matrix(1 0 0 1 712.3431 570.1241)" class="st9 st10 st11">Зеленоград</text>
			<circle id="Эллипс_74" class="st9" cx="740.7" cy="575" r="2.4"/>
		</g>
		<g id="Сгруппировать_2460" class="st8">
			<text transform="matrix(1 0 0 1 760.6068 492.5587)" class="st9 st10 st11">Александров</text>
			<circle id="Эллипс_75" class="st9" cx="815.9" cy="498.4" r="2.4"/>
		</g>
		<text transform="matrix(1 0 0 1 729.8002 602.9893)" class="st9 st12 st13">Москва</text>
		<circle id="Эллипс_76" class="st14" cx="773.8" cy="609.3" r="2.4"/>
		<g id="Сгруппировать_2461" class="st8">
			<text transform="matrix(1 0 0 1 645.6083 693.21)" class="st9 st10 st11">Обнинск</text>
			<circle id="Эллипс_77" class="st9" cx="690.8" cy="700.7" r="2.4"/>
		</g>
		<g id="Сгруппировать_2462" class="st8">
			<text transform="matrix(1 0 0 1 595.3641 847.1124)" class="st9 st10 st11">Козельск</text>
			<circle id="Эллипс_78" class="st9" cx="623.7" cy="853.4" r="2.4"/>
		</g>
		<g id="Сгруппировать_2463" class="st8">
			<text transform="matrix(1 0 0 1 533.4735 630.6817)" class="st9 st10 st11">Гагарин</text>
			<circle id="Эллипс_79" class="st9" cx="559.4" cy="638.4" r="2.4"/>
		</g>
		<g id="Сгруппировать_2464" class="st8">
			<text transform="matrix(1 0 0 1 478.411 682.1026)" class="st9 st10 st11">Вязьма</text>
			<circle id="Эллипс_80" class="st9" cx="502.8" cy="688.9" r="2.4"/>
		</g>
		<g id="Сгруппировать_2465" class="st8">
			<text transform="matrix(1 0 0 1 424.9295 707.4239)" class="st9 st10 st11">Сафоново</text>
			<circle id="Эллипс_81" class="st9" cx="419.2" cy="702.5" r="2.4"/>
		</g>
		<g id="Сгруппировать_2466" class="st8">
			<text transform="matrix(1 0 0 1 616.87 655.587)" class="st9 st10 st11">Наро-фоминск</text>
			<circle id="Эллипс_82" class="st9" cx="701.4" cy="663.6" r="2.4"/>
		</g>
		<g id="Сгруппировать_2467" class="st8">
			<text transform="matrix(1 0 0 1 693.2157 723.627)" class="st9 st10 st11">Серпухов</text>
			<circle id="Эллипс_83" class="st9" cx="757.3" cy="730.7" r="2.4"/>
		</g>
		<g id="Сгруппировать_2468" class="st8">
			<text transform="matrix(1 0 0 1 620.2792 778.6133)" class="st9 st10 st11">Калуга</text>
			<circle id="Эллипс_84" class="st9" cx="662.6" cy="786.7" r="2.4"/>
		</g>
		<g id="Сгруппировать_2469" class="st8">
			<text transform="matrix(1 0 0 1 791.0931 655.587)" class="st9 st10 st11">Подольск</text>
			<circle id="Эллипс_85" class="st9" cx="786.2" cy="654.1" r="2.4"/>
		</g>
		<g id="Сгруппировать_2470" class="st8">
			<text transform="matrix(1 0 0 1 821.5189 593.5333)" class="st9 st10 st11">Орехово-Зуево</text>
			<circle id="Эллипс_86" class="st9" cx="820.5" cy="595.9" r="2.4"/>
		</g>
		<g id="Сгруппировать_2471" class="st8">
			<text transform="matrix(1 0 0 1 797.8412 687.7862)" class="st9 st10 st11">Воскресенск</text>
			<circle id="Эллипс_87" class="st9" cx="793.8" cy="684.8" r="2.4"/>
		</g>
		<g id="Сгруппировать_2472" class="st8">
			<text transform="matrix(1 0 0 1 875.1381 712.6924)" class="st9 st10 st11">Коломна</text>
			<circle id="Эллипс_88" class="st9" cx="870.2" cy="710.3" r="2.4"/>
		</g>
		<g id="Сгруппировать_2473" class="st8">
			<text transform="matrix(1 0 0 1 818.9847 737.0977)" class="st9 st10 st11">Ступино</text>
			<circle id="Эллипс_89" class="st9" cx="810.8" cy="734.4" r="2.4"/>
		</g>
		<g id="Сгруппировать_2474" class="st8">
			<text transform="matrix(1 0 0 1 755.9271 823.5645)" class="st9 st10 st11">Тула</text>
			<circle id="Эллипс_90" class="st9" cx="773.7" cy="831.7" r="2.4"/>
		</g>
		<g id="Сгруппировать_2475" class="st8">
			<text transform="matrix(1 0 0 1 702.1 780.9063)" class="st9 st10 st11">Алекскин</text>
			<circle id="Эллипс_91" class="st9" cx="727.9" cy="789.1" r="2.4"/>
		</g>
		<g id="Сгруппировать_2476" class="st8">
			<text transform="matrix(1 0 0 1 847.931 618.9327)" class="st9 st10 st11">Электросталь</text>
			<circle id="Эллипс_92" class="st9" cx="840.9" cy="613.6" r="2.4"/>
		</g>
		<text transform="matrix(1 0 0 1 563.1034 562.796)" class="st9 st12 st13">Волоколамск</text>
		<circle id="Эллипс_93" class="st15" cx="638.2" cy="570.1" r="4"/>
		<g id="Сгруппировать_2477" class="st8">
			<text transform="matrix(1 0 0 1 455.7616 416.4122)" class="st9 st10 st11">Кувшиново</text>
			<circle id="Эллипс_94" class="st9" cx="491.5" cy="421.7" r="2.4"/>
		</g>
		<g id="Сгруппировать_2478" class="st8">
			<circle id="Эллипс_95" class="st9" cx="382.8" cy="540.5" r="2.4"/>
			<text transform="matrix(1 0 0 1 388.0155 542.8809)" class="st9 st10 st11">Нелидово</text>
		</g>
		<g id="Сгруппировать_2479" class="st8">
			<circle id="Эллипс_96" class="st9" cx="406" cy="404.7" r="2.4"/>
			<text transform="matrix(1 0 0 1 355.6004 398.1847)" class="st9 st10 st11">Осташков</text>
		</g>
		<g id="Сгруппировать_2480" class="st8">
			<circle id="Эллипс_97" class="st9" cx="352.9" cy="329.7" r="2.4"/>
			<text transform="matrix(1 0 0 1 351.3006 322.2462)" class="st9 st10 st11">Демянск</text>
		</g>
		<g id="Сгруппировать_2481" class="st8">
			<circle id="Эллипс_98" class="st9" cx="417.1" cy="277.7" r="2.4"/>
			<text transform="matrix(1 0 0 1 392.0555 271.2315)" class="st9 st10 st11">Валдай</text>
		</g>
		<g id="Сгруппировать_2482" class="st8">
			<circle id="Эллипс_99" class="st9" cx="524.4" cy="349.5" r="2.4"/>
			<text transform="matrix(1 0 0 1 529.5292 351.1231)" class="st9 st10 st11">Вышний Волочёк</text>
		</g>
		<g id="Сгруппировать_2483" class="st8">
			<circle id="Эллипс_100" class="st9" cx="639.4" cy="294.9" r="2.4"/>
			<text transform="matrix(1 0 0 1 569.41 289.3116)" class="st9 st10 st11">Максатиха</text>
		</g>
		<g id="Сгруппировать_2484" class="st8">
			<circle id="Эллипс_101" class="st9" cx="698.3" cy="300.1" r="2.4"/>
			<text transform="matrix(1 0 0 1 681.9169 294.9435)" class="st9 st10 st11">Бежецк</text>
		</g>
		<g id="Сгруппировать_2485" class="st8">
			<circle id="Эллипс_102" class="st9" cx="832.2" cy="346.3" r="2.4"/>
			<text transform="matrix(1 0 0 1 811.1293 340.7511)" class="st9 st10 st11">Углич</text>
		</g>
		<g id="Сгруппировать_2486" class="st8">
			<circle id="Эллипс_103" class="st9" cx="920.1" cy="398.4" r="2.4"/>
			<text transform="matrix(1 0 0 1 897.3285 391.9474)" class="st9 st10 st11">Ростов</text>
		</g>
		<g id="Сгруппировать_2487" class="st8">
			<circle id="Эллипс_104" class="st9" cx="960.2" cy="331.2" r="2.4"/>
			<text transform="matrix(1 0 0 1 913.2719 324.547)" class="st9 st10 st11">Ярославль</text>
		</g>
		<g id="Сгруппировать_2488" class="st8">
			<circle id="Эллипс_105" class="st9" cx="1043.1" cy="309.5" r="2.4"/>
			<text transform="matrix(1 0 0 1 1013.9789 302.253)" class="st9 st10 st11">Кострома</text>
		</g>
		<g id="Сгруппировать_2489" class="st8">
			<circle id="Эллипс_106" class="st9" cx="1047.8" cy="426.3" r="2.4"/>
			<text transform="matrix(1 0 0 1 1020.4496 419.1544)" class="st9 st10 st11">Иваново</text>
		</g>
		<g id="Сгруппировать_2490" transform="translate(160)" class="st8">
			<circle id="Эллипс_107" class="st9" cx="980.5" cy="554.6" r="2.4"/>
			<text transform="matrix(1 0 0 1 948.6293 548.418)" class="st9 st10 st11">Владимир</text>
		</g>
		<g id="Сгруппировать_2491" class="st8">
			<circle id="Эллипс_108" class="st9" cx="319.3" cy="749.7" r="2.4"/>
			<text transform="matrix(1 0 0 1 308.1493 740.8428)" class="st9 st10 st11">Смоленск</text>
		</g>
		<g id="Сгруппировать_2492" class="st8">
			<circle id="Эллипс_109" class="st9" cx="385" cy="866.5" r="2.4"/>
			<text transform="matrix(1 0 0 1 355.6004 859.3965)" class="st9 st10 st11">Рославль</text>
		</g>
	</g>
</g>
</svg>
