<svg xmlns="http://www.w3.org/2000/svg" viewBox="0 0 1333.84 1080"><defs><style>.cls-1{isolation:isolate;}.cls-2{fill:#0a141f;}.cls-3{fill:none;stroke:#ced3d7;stroke-miterlimit:10;stroke-width:4px;}.cls-4{fill:#091a29;}.cls-5{opacity:0.45;}.cls-5,.cls-7{mix-blend-mode:overlay;}.cls-6{fill:#efefef;}.cls-14,.cls-7,.cls-8{fill:#f9cc33;}.cls-7{opacity:0.35;}.cls-13,.cls-14,.cls-9{opacity:0.75;}.cls-10{font-size:22px;font-family:OpenSans-Light, Open Sans;font-weight:300;}.cls-10,.cls-11,.cls-12,.cls-13{fill:#fff;}.cls-12{font-size:25px;font-family:OpenSans, Open Sans;}</style></defs><g class="cls-1"><g id="Layer_4" data-name="Layer 4"><circle class="cls-2" cx="630.94" cy="572.36" r="302.48"/><path class="cls-3" d="M1310.2,462.12c1.58-2.26,1.49-5.75,3.14-8-.29-6.26-2.53-9.41-10.17-12-1,2.38-2,4.8-3.06,7.15-2-1.23-4.22-2.43-6.27-3.66-4.83,12.19-11.36,15.77-17.6,17.1,1.34-2.38,2.08-5.07,3.38-7.37l-14.26-7.23c-3.41,7.26-7.83,9.71-13.51,9.51,1.29-1.93,2.57-3.86,3.78-5.83l-13.79-7c-1,2-2.56,4.35-3.46,6.28l-5.41-2.74c4-3.92,5.15-9.64,2.07-16.17l-1.72,1,.29-.25c-13.73-2.32-16-16.88-21.33-32.35q17.7-33.81,35.48-67.53c-1.23-16.65-2.41-33.2-3.58-49.74-32.23.78-21.37-22.35-9.56-54.84-7.77-4.29-15.72-8.63-23.49-12.91,3.09-6.09,6.09-10,9.18-16.08-27.76-9.77-48.63-17.07-76.46-26.94-7.78,7.16-20.93,12.05-33.51,18.06-1.32-2-2.61-7.48-3.93-9.49-10.11-1.75-21.45.74-34.4,7.8,1.28,2.89,2.69,5.72,4,8.61l-2.06-1.22c-.83-2.36-1.68-4.71-2.6-7l10.78-6.62c-3.7-3.74-7.29-7.55-11-11.29-11.41-6.06-22.72-9.89-34.13-16a70.62,70.62,0,0,0-6,15.3l-.45-.27c.22-1,.46-2.07.73-3.09-3.73-4.73-7.35-9.52-11-14.31-6.34,0-12.63,0-18.94,0l-12.2-7.26c-2.93-3.94-5.87-7.89-8.81-11.9l-15.87-2.79-10.93-6.51c.42-3.89.79-7.79,1.25-11.66-10.25-2.67-20.62-5.29-31-8.06q1.82-8.49,3.65-17c-6.8,2.76-12.94,5.61-18.32,10.28L900.35,93c-4.17-10.79-11.63-16.24-22.42-16.2-13.85,5.69-27.81,11-40.32,21.56l-5.29-8c-4.44,1.23-8.49,2.83-11.19,6.7-.14,3.08,1.52,6.06,5.08,8.88-2,2.79-3.46,6.71-8.34,5.17-1.87-4-5.11-7.29-8.53-10.61-5,6-10.87,9.53-17.13,10.59q-3.16-4.82-6.34-9.63l-.35-.53,0,.1c-16.59-17.51-14.26-35.23-19-49l20.79-11.12c.73-5.68,1.28-11.42,2-17.1-8.32.73-16.83,1.41-25.22,2,5.25-13.83-1.2-11.67-9.43-7.27-.83,4.59-1.73,9.08-2.68,13.74l-9.82,5.25q-2.83-4.27-5.65-8.57Q735,35.54,733.52,42.1a82.94,82.94,0,0,0-20.64-10l9.25-4.94c-5.62-2.43-11.2-5-16.77-7.63-14.61,6.66-29.28,13.22-42,22.47a91.58,91.58,0,0,0-4.71,17.69c5.93,1.27,11.9,2.36,17.77,3.52,2.48,6.12,6.9,11.19,10.94,16.61,1.53,7.49,1.87,15.74,2,24.13l-9.82,5.25c4.72,10.21,11.56,19.43,19.26,28.05,1.19-4.5,2.4-9,3.6-13.52,11.12,7.57,23,13.67,36.71,16h-.53c-1.62,9-3.06,18.09-4.68,27.12L708,169.09c-2.12,5-4.23,10-6.46,15-4.95-1.65-10-3.4-15-5-7.6,13.8-20.14,15.63-11.94,43.3-2.08-3.61-5.58-5.88-7.72-9.6l-64.14-7.35c-6.68,3.21-12,5.47-18.65,8.68,1.53-4.78,2-7.52,3.6-12.19-19-2.3-25.35-16-22.41-36.09L546.31,132.6c-6.66-4.34-13.13-8.62-19.78-12.95-.37.38-.74.77-1.1,1.16-1.63-3.19-3.51-6.13-5.12-9.33-17.62,7.63-33.74,16.5-51.29,24.24-17-14.85-34.66-38.43-53.39-23.57L409,102.51c-20.72.9-39.45,6.41-55.94,16.43-1.37,20.74-2.91,41.42-4.39,62.22-10.19,5.17-20.79,8.87-31,14.05,2,3,4,6.2,6.09,9.43l4.69,7.85c-3.32-5.21-6.92-10.76-11.13-17.12-1.08,8.06-4.32,7.94-4,14.22-11,1.52-22.72,3.11-36.12,4.67-1.75,6.42-2.58,12.11-4.33,18.54,9.32,6.53,17.66,14,26.87,20.55l-10.55,5.07-2.26,38.46C275.74,302,264.6,307,253.4,312.28,246,332.56,238,350.49,225.16,350.4c-2.91,10.32-5.34,17.63-8.23,27.94-8-1.58-16.69.08-24.72-1.51-11.26,25.64-12.48,52.44-36.43,56.28l.45.35-2.65-1.52c-4.73,9.52-2.93,17.86,3.19,23.57l-8.32,4c-1.39-2.83-3.75-6.29-5.31-9.16-7,3.37-14.18,6.81-21.21,10.19,1.85,2.87,3.83,5.69,5.81,8.5-8.72.29-15.52-3.28-20.77-13.86L85.05,465.71c2,3.36,3.14,7.28,5.2,10.75-9.6-1.94-19.64-7.16-27.06-24.92-3.15,1.79-6.49,3.53-9.64,5.32-1.59-3.42-3.24-6.95-4.71-10.42C37.1,450.26,33.66,454.85,33.22,464c2.54,3.25,2.4,8.34,4.82,11.63-6.5-6.35-13.53-11.06-21.19-13.8-2,5.44-4.19,10.94-6.22,16.38,6.11,9.75,12.1,19.56,18.22,29.32,3.71-1.37,7.53-2.79,11.31-4,6.61,11.6,13.34,23.15,20,34.75l1.16.38c-20.09,4.74-27.82,12-24.78,24.5,4.53,6.34,8.16,14.21,12.63,20.43-13.86,2.06-15.19,7.16-3.88,15.25,19.26,2.74,24.15,11.69,14.46,26.8-14.25-2.91-13.59,18.95-5.23,54,22.58,8.81,40.57,17.73,55,32L133,699.82q-11.14,6.3-22.32,12.56c6.58,9.53,13.28,19,19.91,28.36,9.74,2.44,19.54,4.7,29.28,7.13.16,7.87.26,15.63.43,23.5l-10.08,4.84c2.13,26.6,9.41,45.41,28.1,47.17,6.29,9.8,10.52,20.18,16.81,30-.06,8.25,2,16,1.85,24.35l8.07,2.7L197,892.77c-.44,5.05-.91,10-1.35,15l1.09.17c-1.43,2-2.61,4-4.05,6,10.65,6.6,21.56,12,32.26,18.49-3.47,14.24-12.12,31.94,3.38,36.55-1.26,2.34-2.47,4.6-3.73,6.93a68.89,68.89,0,0,0,29,23.71c13.29-6.64,26.61-13.16,40-19.76,6.62,3.54,12.49,7.83,19.12,11.37,1.2-2.13,2.48-4.33,3.79-6.56l3.28-5.27c-2.12,3.61-4.34,7.48-6.85,12,5.35-2.29,6.36-.54,10.16-2.91,4.64,5.27,9.57,10.89,15,17.41,4.56-1.35,8.37-2.94,12.93-4.29.91-7.24,2.7-14.28,3.68-21.49l6.68,3.78c6.82-11.08,12.61-19.7,19.31-30.74,1.49,6.93,3.83,11.39,5.26,18.28,6.89,4.08,13.78,8.17,20.8,12.22,15-3.31,28.82-5.44,33.09,1.38,6.43-1.86,11.32-3.09,17.36-4.8.11.19.23.38.33.57a24.9,24.9,0,0,0,4.65,3.19c1.81,3,3.95,5.84,5.11,9.06,12.74-2.05,24.37-6.49,33.82-6.29q7.51,11.06,15,22.08c-3.15,2.25-6.48,4.46-9.7,6.61,6.12,9.75,12.35,19.45,18.47,29.2,6.23,1.24,12.57,2.43,18.8,3.68,1.36-7.31.52-15.16-2.17-23.45,1.89,3.57,6.8,6.09,8.57,9.73,4.56,2.24,8.4,3.25,12.36,2.77l1,.48c-1.59,2.06-3.22,4.18-4.87,6.19,6.32,4.84,10.32,5,16.12,2,1.15-2.49,4.34-4.22,5.57-6.67a34.37,34.37,0,0,0-1.41,16.09c4.05-.86,8.18-1.68,12.23-2.53,4-6.69,8-13.34,12-20-2.09-1.47-4.26-3-6.31-4.53,5-7.61,9.84-15.27,14.8-22.88-.06-.25-.11-.5-.16-.75,9.69,8.93,16.8,10.43,23.5,4.39,2.4-4.63,6-9.35,8.4-13.91l153-54c3.89.68,7.91,1.48,12,2.33,10.78-5.91,21.38-11.86,32-17.81,2.18-10.05,5.78-16.55,8.08-26.65,10.3,16.1,19.19,28.66,29.68,44.81q5.13-2.76,10.28-5.5c1.51,10.49,4.26,20.76,5.65,31.32,7,2,12.86,4.28,19.88,6.25,8.41-9.5,16-17.7,23.13-25.38,5.83,3.46,7.39.91,15.61,4.24-3.86-6.53-7.28-12.17-10.52-17.43,1.67,2.56,3.36,5.12,5,7.68,2,3.25,4,6.46,5.82,9.57,10.2-5.17,19.21-11.41,29.4-16.58,20.54,9.62,41,19.13,61.46,28.81a105,105,0,0,0,44.57-34.56l-5.73-10.1c23.83-6.73,10.54-32.54,5.2-53.3,16.44-9.5,33.23-17.33,49.6-26.94-2.22-2.89-4-5.86-6.23-8.77l1.67-.24c-.68-7.37-1.4-14.56-2.08-21.93L1109,779.32a80.29,80.29,0,0,1-8.45-3.87L1206.83,738c-.12-5.7,1.24-11,1.2-16.7,4.09-6.73,6.84-13.85,10.94-20.58,12.15-1.2,16.89-14.11,18.27-32.35l-6.55-3.32c.1-5.4.17-10.72.28-16.12,6.33-1.67,12.7-3.22,19-4.89,4.31-6.43,8.67-12.92,13-19.46q-7.26-4.29-14.52-8.61c5.12,2.68,10.23,5.38,15.32,8.06,9.36-9.8,21.06-15.92,35.75-22,5.44-24,5.87-39-3.4-37-6.3-10.37-3.12-16.51,9.41-18.39q11-8.33-2.53-10.46c2.91-4.27,5.27-9.67,8.22-14,2-8.57-3-13.56-16.12-16.81l.75-.26c4.3-8,8.68-15.88,13-23.84,2.46.86,5,1.83,7.36,2.77,4-6.69,7.88-13.42,11.85-20.11-1.32-3.73-2.72-7.5-4-11.24A38.17,38.17,0,0,0,1310.2,462.12Z"/><path class="cls-4" d="M1071.32,189.31l10.78-6.62c-3.7-3.74-7.29-7.55-11-11.29-11.41-6.06-22.72-9.89-34.13-16a70.62,70.62,0,0,0-6,15.3l-.45-.27c.22-1,.46-2.07.73-3.09-3.73-4.73-7.35-9.52-11-14.31-6.34,0-12.63,0-18.94,0l-12.2-7.26c-2.93-3.94-5.87-7.89-8.81-11.9l-15.87-2.79-10.93-6.51c.42-3.89.79-7.79,1.25-11.66-10.25-2.67-20.62-5.29-31-8.06q1.82-8.49,3.65-17c-6.8,2.76-12.94,5.61-18.32,10.28L900.35,93c-4.17-10.79-11.63-16.24-22.42-16.2-13.85,5.69-27.81,11-40.32,21.56l-5.29-8c-4.44,1.23-8.49,2.83-11.19,6.7-.14,3.08,1.52,6.06,5.08,8.88-2,2.79-3.46,6.71-8.34,5.17-1.87-4-5.11-7.29-8.53-10.61-5,6-10.87,9.53-17.13,10.59q-3.16-4.82-6.34-9.63l-.35-.53,0,.1c-16.59-17.51-14.26-35.23-19-49l20.79-11.12c.73-5.68,1.28-11.42,2-17.1-8.32.73-16.83,1.41-25.22,2,5.25-13.83-1.2-11.67-9.43-7.27-.83,4.59-1.73,9.08-2.68,13.74l-9.82,5.25q-2.83-4.27-5.65-8.57Q735,35.54,733.52,42.1a82.94,82.94,0,0,0-20.64-10l9.25-4.94c-5.62-2.43-11.2-5-16.77-7.63-14.61,6.66-29.28,13.22-42,22.47a91.58,91.58,0,0,0-4.71,17.69c5.93,1.27,11.9,2.36,17.77,3.52,2.48,6.12,6.9,11.19,10.94,16.61,1.53,7.49,1.87,15.74,2,24.13l-9.82,5.25c4.72,10.21,11.56,19.43,19.26,28.05,1.19-4.5,2.4-9,3.6-13.52,11.12,7.57,23,13.67,36.71,16h-.53c-1.62,9-3.06,18.09-4.68,27.12L708,169.09c-2.12,5-4.23,10-6.46,15-4.95-1.65-10-3.4-15-5-7.6,13.8-20.14,15.63-11.94,43.3-2.08-3.61-5.58-5.88-7.72-9.6l-64.14-7.35c-6.68,3.21-12,5.47-18.65,8.68,1.53-4.78,2-7.52,3.6-12.19-19-2.3-25.35-16-22.41-36.09L546.31,132.6c-6.66-4.34-13.13-8.62-19.78-12.95-.37.38-.74.77-1.1,1.16-1.63-3.19-3.51-6.13-5.12-9.33-17.62,7.63-33.74,16.5-51.29,24.24-17-14.85-34.66-38.43-53.39-23.57L409,102.51c-20.72.9-39.45,6.41-55.94,16.43-1.37,20.74-2.91,41.42-4.39,62.22-10.19,5.17-20.79,8.87-31,14.05,2,3,4,6.2,6.09,9.43l4.69,7.85c-3.32-5.21-6.92-10.76-11.13-17.12-1.08,8.06-4.32,7.94-4,14.22-11,1.52-22.72,3.11-36.12,4.67-1.75,6.42-2.58,12.11-4.33,18.54,9.32,6.53,17.66,14,26.87,20.55l-10.55,5.07-2.26,38.46C275.74,302,264.6,307,253.4,312.28,246,332.56,238,350.49,225.16,350.4c-2.91,10.32-5.34,17.63-8.23,27.94-8-1.58-16.69.08-24.72-1.51-11.26,25.64-12.48,52.44-36.43,56.28l.45.35-2.65-1.52c-4.73,9.52-2.93,17.86,3.19,23.57l-8.32,4c-1.39-2.83-3.75-6.29-5.31-9.16-7,3.37-14.18,6.81-21.21,10.19,1.85,2.87,3.83,5.69,5.81,8.5-8.72.29-15.52-3.28-20.77-13.86L85.05,465.71c2,3.36,3.14,7.28,5.2,10.75-9.6-1.94-19.64-7.16-27.06-24.92-3.15,1.79-6.49,3.53-9.64,5.32-1.59-3.42-3.24-6.95-4.71-10.42C37.1,450.26,33.66,454.85,33.22,464c2.54,3.25,2.4,8.34,4.82,11.63-6.5-6.35-13.53-11.06-21.19-13.8-2,5.44-4.19,10.94-6.22,16.38,6.11,9.75,12.1,19.56,18.22,29.32,3.71-1.37,7.53-2.79,11.31-4,6.61,11.6,13.34,23.15,20,34.75l1.16.38c-20.09,4.74-27.82,12-24.78,24.5,4.53,6.34,8.16,14.21,12.63,20.43-13.86,2.06-15.19,7.16-3.88,15.25,19.26,2.74,24.15,11.69,14.46,26.8-14.25-2.91-13.59,18.95-5.23,54,22.58,8.81,40.57,17.73,55,32L133,699.82q-11.14,6.3-22.32,12.56c6.58,9.53,13.28,19,19.91,28.36,9.74,2.44,19.54,4.7,29.28,7.13.16,7.87.26,15.63.43,23.5l-10.08,4.84c2.13,26.6,9.41,45.41,28.1,47.17,6.29,9.8,10.52,20.18,16.81,30-.06,8.25,2,16,1.85,24.35l8.07,2.7L197,892.77c-.44,5.05-.91,10-1.35,15l1.09.17c-1.43,2-2.61,4-4.05,6,10.65,6.6,21.56,12,32.26,18.49-3.47,14.24-12.12,31.94,3.38,36.55-1.26,2.34-2.47,4.6-3.73,6.93a68.89,68.89,0,0,0,29,23.71c13.29-6.64,26.61-13.16,40-19.76,6.62,3.54,12.49,7.83,19.12,11.37,1.2-2.13,2.48-4.33,3.79-6.56l3.28-5.27c-2.12,3.61-4.34,7.48-6.85,12,5.35-2.29,6.36-.54,10.16-2.91,4.64,5.27,9.57,10.89,15,17.41,4.56-1.35,8.37-2.94,12.93-4.29.91-7.24,2.7-14.28,3.68-21.49l6.68,3.78c6.82-11.08,12.61-19.7,19.31-30.74,1.49,6.93,3.83,11.39,5.26,18.28,6.89,4.08,13.78,8.17,20.8,12.22,15-3.31,28.82-5.44,33.09,1.38,6.43-1.86,11.32-3.09,17.36-4.8.11.19.23.38.33.57a24.9,24.9,0,0,0,4.65,3.19c1.81,3,3.95,5.84,5.11,9.06,12.74-2.05,24.37-6.49,33.82-6.29q7.51,11.06,15,22.08c-3.15,2.25-6.48,4.46-9.7,6.61,6.12,9.75,12.35,19.45,18.47,29.2,6.23,1.24,12.57,2.43,18.8,3.68,1.36-7.31.52-15.16-2.17-23.45,1.89,3.57,6.8,6.09,8.57,9.73,4.56,2.24,8.4,3.25,12.36,2.77l1,.48c-1.59,2.06-3.22,4.18-4.87,6.19,6.32,4.84,10.32,5,16.12,2,1.15-2.49,4.34-4.22,5.57-6.67a34.37,34.37,0,0,0-1.41,16.09c4.05-.86,8.18-1.68,12.23-2.53,4-6.69,8-13.34,12-20-2.09-1.47-4.26-3-6.31-4.53,5-7.61,9.84-15.27,14.8-22.88-.06-.25-.11-.5-.16-.75,9.69,8.93,16.8,10.43,23.5,4.39,2.4-4.63,6-9.35,8.4-13.91l153-54c3.89.68,7.91,1.48,12,2.33,10.78-5.91,21.38-11.86,32-17.81,2.18-10.05,5.78-16.55,8.08-26.65,10.3,16.1,19.19,28.66,29.68,44.81q5.13-2.76,10.28-5.5c1.51,10.49,4.26,20.76,5.65,31.32,7,2,12.86,4.28,19.88,6.25,8.41-9.5,16-17.7,23.13-25.38,5.83,3.46,7.39.91,15.61,4.24-3.86-6.53-7.28-12.17-10.52-17.43,1.67,2.56,3.36,5.12,5,7.68,2,3.25,4,6.46,5.82,9.57,10.2-5.17,19.21-11.41,29.4-16.58,20.54,9.62,41,19.13,61.46,28.81a105,105,0,0,0,44.57-34.56l-5.73-10.1c23.83-6.73,10.54-32.54,5.2-53.3,16.44-9.5,33.23-17.33,49.6-26.94-2.22-2.89-4-5.86-6.23-8.77l1.67-.24c-.68-7.37-1.4-14.56-2.08-21.93L1109,779.32a80.29,80.29,0,0,1-8.45-3.87L1206.83,738c-.12-5.7,1.24-11,1.2-16.7,4.09-6.73,6.84-13.85,10.94-20.58,12.15-1.2,16.89-14.11,18.27-32.35l-6.55-3.32c.1-5.4.17-10.72.28-16.12,6.33-1.67,12.7-3.22,19-4.89,4.31-6.43,8.67-12.92,13-19.46q-7.26-4.29-14.52-8.61c5.12,2.68,10.23,5.38,15.32,8.06,9.36-9.8,21.06-15.92,35.75-22,5.44-24,5.87-39-3.4-37-6.3-10.37-3.12-16.51,9.41-18.39q11-8.33-2.53-10.46c2.91-4.27,5.27-9.67,8.22-14,2-8.57-3-13.56-16.12-16.81l.75-.26c4.3-8,8.68-15.88,13-23.84,2.46.86,5,1.83,7.36,2.77,4-6.69,7.88-13.42,11.85-20.11-1.32-3.73-2.72-7.5-4-11.24a38.17,38.17,0,0,0-13.78,9.47c1.58-2.26,1.49-5.75,3.14-8-.29-6.26-2.53-9.41-10.17-12-1,2.38-2,4.8-3.06,7.15-2-1.23-4.22-2.43-6.27-3.66-4.83,12.19-11.36,15.77-17.6,17.1,1.34-2.38,2.08-5.07,3.38-7.37l-14.26-7.23c-3.41,7.26-7.83,9.71-13.51,9.51,1.29-1.93,2.57-3.86,3.78-5.83l-13.79-7c-1,2-2.56,4.35-3.46,6.28l-5.41-2.74c4-3.92,5.15-9.64,2.07-16.17l-1.72,1,.29-.25c-13.73-2.32-16-16.88-21.33-32.35q17.7-33.81,35.48-67.53c-1.23-16.65-2.41-33.2-3.58-49.74-32.23.78-21.37-22.35-9.56-54.84-7.77-4.29-15.72-8.63-23.49-12.91,3.09-6.09,6.09-10,9.18-16.08-27.76-9.77-48.63-17.07-76.46-26.94-7.78,7.16-20.93,12.05-33.51,18.06-1.32-2-2.61-7.48-3.93-9.49-10.11-1.75-21.45.74-34.4,7.8M933.26,582.19c-5.42,167-145.17,297.92-312.14,292.5S323.19,729.51,328.62,562.54,473.8,264.61,640.76,270,938.69,415.22,933.26,582.19Z"/></g><g id="Layer_3" data-name="Layer 3"><g id="Capture_Shape_2" data-name="Capture Shape 2" class="cls-5"><path class="cls-6" d="M736.37,179.88c-.63,7.25,1.58,15.17.29,22.21-4.29,7.8-2.68,14.26,3.72,20,2.21,2,2.46,3.31-1,4.56-14.88,5.3-20.32,18.92-26.8,31.47-.79,1.51.32,4,.56,6.05,7.53-7.82,11.54-18.42,18.37-26.82,4.85-6.14,24.84-6.69,13.51-17.4-4.91-4.78-5.73-9.61-3.58-15.92,1.24-7.71-.35-15.26-.11-23.53A12.08,12.08,0,0,0,736.37,179.88Z"/><path class="cls-6" d="M342.46,916.27c.49-2.61,2.28-5.77-.53-7.68-.29-.22-1.75.43-2.11,1-10.57,15-29.77,16.41-42.49,29.38,15.31,4.21,41-30.13,53.89-12.38,2.4,3.82,6.34,6.79,10,9.66.91.71,3.24-.39,4.92-.66-3.35-4.88-8.69-8.46-11.63-13.48C351.87,917.3,348.05,915.48,342.46,916.27Z"/><path class="cls-6" d="M908.51,179.88c-.26,10.53-9,31.15,3.36,36.23.09-11.89,1-23.27,1.48-35.65A12.23,12.23,0,0,0,908.51,179.88Z"/><path class="cls-6" d="M1172.15,179.88c-.72,4.91-3.33,10.34-.19,14.72,5.37-2.86,2.91-8.65,3.77-14.12A6.56,6.56,0,0,0,1172.15,179.88Z"/><path class="cls-6" d="M1034.2,179.88c-1.91,4.18-4.82,8.23-1,12.08,4.2-2.62,4.26-6.94,5.83-11.58A14.34,14.34,0,0,0,1034.2,179.88Z"/><path class="cls-6" d="M1271.37,737.83c-2.72.8-5.77,2.09-.4,4.77A16.65,16.65,0,0,0,1271.37,737.83Z"/><path class="cls-6" d="M1233.26,274.19h0Z"/><path class="cls-6" d="M1129.58,254c6.49-8,15-13.86,19.4-22.68-2.6.09-5.29.14-7.12,2.3-7.26,8.86-24.15,19.86-26.4,30.33C1121.42,262.26,1124.88,258.23,1129.58,254Z"/><path class="cls-6" d="M229,510.25c-.52,5,1.59,6.75,5.12,9.3.86-5.35-2-27.49-7.15-29.44C223.31,496.67,228.08,503,229,510.25Z"/><path class="cls-6" d="M336.88,902.4c5.48,2.26,4.29-1.51,3.43-3.5-3.57-6.37-5-15.17-11.93-18.67C326.15,888.46,333.68,894.89,336.88,902.4Z"/><path class="cls-6" d="M222.66,522.93a27.73,27.73,0,0,0-3.36,3.87c3.85,1.64,5.95,1.06,8.47-2.27A49.84,49.84,0,0,0,222.66,522.93Z"/><path class="cls-6" d="M1052.5,859.62c-2.13,1.43-6.75.42-9.65-.81-18.46-6.12-13.06-26.77-31.29-35.07-17.93-8.42-6.43-21.81-19.52-23.2,6-10.15,15.86-25.92,22.19-30.57,9.08-7,.69-11.91-.08-20,7.44-34,42.47-25.19,68.18-24.42,19.11,1.3,35.2,15.39,53.64,17.91-4-12.06-51.09-22.31-64-24.94.63-1.33.91-3.12,2-3.93,11.69-9.08,7.51-22.24,8.43-33.9.2-2.56-3.17-5.81-5.53-8.08-6.07-5.82-7.15-15.5,3-18.41,10.61-2.61,9.66-24.72,3.31-31.3-2.93-7.19-9.32-38.07-14.34-48.76,6.51-1.24,36.23,19,49.63,20.65a4.27,4.27,0,0,1,3.27,2.66v0c5.67,17.06,15.89,27.82,35,31.19,9.83,1.74,22.31.92,29.44,11.53.53.78,2.75.43,4.19.61-.24-1.61.1-4.06-.81-4.68-4.89-3.31-8.4-8.38-15.39-9-17.43-2.48-38.53-5.81-44.5-25.52-1.94-3.84-2.63-7.14-6.63-8.8L1072.44,571a2.33,2.33,0,0,1,.69-4.47c12.63-1.15,23.84.34,32.63-12.66,1.72-2,4.23-4.31,6.56-4.52,36.34-2.53,72.88-7.36,109-5.52-6.81-18.21-94,16-79.31-19.69-14.49-1.3-1.11-13.62-7-16.82,10.41,1.36,20.9-13.26,18.55-23.23-2.36-10.48-5.21-20.86-8-31.24-1.39-5.11-1.89-7.93,4.47-11.6,19.82-9,37.45,9.57,57.92-.34,8.38-3.66,18.42-4.14,24.42,6.37a5,5,0,0,0,.77,1,12.77,12.77,0,0,0,3.2-5.18l-.08-.05c-9.28-11.65-21.27-11.59-33.15-6.18-9.22,4.2-17.17-1-25.73-.89-6-.29-12.39-1.39-17.75-4.38,5.14-7,17.91-8.35,16.75-18.63-.35.2-.68.42-1,.62,1.76-10.06,12.56-25.31,13.61-34.69-.76-16.18,10.44-26.34,18.68-37.89,1.06-1.48,5.33-1.43,7.91-1,8.66,1.59,17.3,3.26,26,5q1.26-2.37,2.5-4.74c-10.94-1.94-21.86-3.86-32.31-7.39-7-2.68-9-2.33-10,5.6-.54,4.4-4.57,8.87-8,12.3-13.68,12.53-4.33,43-29.22,43.62-15.41-7.83-68.59,38.77-60,8.13,7.81-15.31,16.57-30.19,24.2-45.62,3.88-7.49,1.62-17.1-7.24-23.1-13-9.21-16.16-25.44-24-38.45-4.35-8.93,2-8.47,8.09-11.48,4.63-10.16,14.63-5.49,22-8,19.25-4,25.26-1.41,41.36-16.21.61-.45,2-.85,2.27-.58,16.21,20.59,33,9.83,52.67,15.22a18.5,18.5,0,0,1-.77-6.46c-7.63,0-15.27,0-22.9-.27-32.08-2.43-12.28-23.13-42.73-5.84-15.31,7.16-32.29,8.91-48.8,11.4-9.87,2.71-18.66,8.37-28.23,11.77-7,2.48-14.09,4.09-19.17,10.59-1.8,2.31-6.71,2-10,3.41-21.83,9.29-20.11,21.32-49.11,15.25-13.18-14.06,18.93-52.86,9.4-68.08-5,10.43-8.28,22-11,33.2-3.37,12.19-6.63,13.69-4.56,27.44-.79-.19-2.07-.13-2.3-.59-1.84-3.71-5.67-8.16-4.78-11.18,2.71-9.27-2.63-13.93-8.08-19.23-4.93-4.65-8.34-10.89-14.48-14.18q-.06.66-.06,1.29c-9.68-6.61-21-21.67-31.06-26-6.7-2.9-12.87-8.7-21.34-6.77-2.08-.82-4.24-5.41-5.68-7.53,0,1.84-.68,4.41-.09,6.45-10.64-.11-14.93,15.56-25.69,19.42-5.92,3.26-8.38,6.93-8.75,13.74-1.19,12.41-10.67,46.54-14.75,62.84-2.55-4.68-5.19-9.32-7.31-14.12-.76-1.55-1.65-4.08-1-5.14,6.2-9.35-1.36-17.08-2.73-25.49a3.89,3.89,0,0,0-2.3-2.26c-9.19-3.39-14.34-9.59-14.43-19.67.14-7.52-13.28-12.06-18.75-15.92-1.25-.64-5.8,2.09-6.49,4.08-11.67,23.66-20.45,19.21-42.55,19.45-16-3.87-10.15,7.83-29.93.92-24,3.13-50.3,6.57-75,8.46-12.54-1-8.22-7.57-24.57-2.95-7.5.78-14.83,3.18-22.32,4.37-7-1.08-13.89-8.18-19.47.38-6.86,9.63-18.56,5.69-28.12,10.51-2.42.55-5.38,1.15-7.49.27-11.92-5-24.28-2.26-36.34-1.83-3.59.13-7,5.66-10.38,8.9-.53.52-.1,2-.11,3.09,1-.11,2.45.18,3-.39,9.07-9.14,20.61-6.8,31.53-6.65,4.16,0,8.25,2.22,12.45,2.56,6.74.37,13.46-2.65,20.07-3.51,18.77,1.21,17.85-17,28.6-9.3,10.88,4.36,24.62-3.34,36.1-4.12,24.89,8.47,28.56-.7,49.35,1.44-17,14.29-28.9,31.88-37.66,52.15-6.41,10.29-12.41,5.41-11.88,23.19.45,12.13-3.28,24.66,1.53,36.37,2.17,6.35-2.17,10.44-4.27,15.48-1.19,4.6-7.22,16.51-3.4,19.71,23.9-29.45-4.68-39.79,49-34.41,11.1-.1,14.44-4.5,20.11,7.33,2,3.3,6.3,6.82,9.89,7.22,17.69,3.62,31.77,17.68,45,28.92.81,4.18-5.87,5.52-8.26,8.26,1.13,4.31,6.23.83,8.94-.22,3-1.76,4.45-6.56,9.64-3.86,5.72,3,8.14,7.57,8.48,13.6.51,7.39-12.3,10.05-16.11,19.86-1.78,3-2.15,4.35-4.55.59-6.25-6.62-9.88-13.9-10.76-23.07-1.44.88-4,1.6-4.16,2.68-1,6.94-6.73,8.69-11.45,12.14-13.16,9.33-20.3-14.31-31.25,6.1-1.71,2.26-15.27,20.81-17,16.15-.08-34.08-39.87-30.71-51.89-52.24-.29-1-1.83-2-3-2.25-40.37-6.13-34-16.68-67.73-31.82-22.45-11.5-24.47-39.2-36.07-59.09-3.88-7.52-10.25-13.72-15.16-20.76-4-6-7.67-19.71-17.08-13.61,9,11.52,37.18,43.64,35.29,57.21-6.3-2.2-7.53-9.73-12.1-13.88-4.88-4.18-11.81-6.33-16.94-10.46-3.29-2.38-6.08-5.82-9.69-7.32-17.73-6.91-9.41-20-18.3-25.16-.62,1-1.94,2.26-1.75,3.14,2.3,10.55,3.49,21.76,16.14,26.11,8.22,3.21,11.85,14,21.85,13.79,14.49,8.62,22.56,26.77,34.61,38.64-1.81,3-3.4,10.73-3.1,13.41-3.29.76-8,2-8.55,2.45-9.42,8.26-21.76,4.13-32.4,7.52-10.51,1.16-27.76-6.82-37-9.27-8.79-2.34-28.62-4.18-35.77-6.6-10.74-.73-22.82-8.41-32.39-.76-4.74,3.86-8.08,4.7-11.5-2-5.39-9.4-22.18-8.78-30-2.18-.55-3.51-2.26-6.47-4.19-9.39a56.73,56.73,0,0,0-3.48-9.19s-3.64-3.76-7.07-7.26c.05-.28.09-.56.13-.83-.6-13.35,6.74-22.73,13.84-31.81,1.69-2.16,3.43-4.39,5-6.62.79-1.11,2.6-1.68,5.37-1.68a20.24,20.24,0,0,1,3.53.31c9.67,1.77,19.1,3.62,29.08,5.56,6.47,1.27,13,2.54,19.63,3.8a12.06,12.06,0,0,0,.28-3c-7-1.71-14.18-3-21.16-4.22-10.66-1.9-21.69-3.86-32.15-7.39a17.54,17.54,0,0,0-5.32-1.44c-1.39,0-2.6.47-3.31,6.23-.59,4.69-4.75,9.35-8.35,12.92-5.21,4.77-7,12.49-8.69,19.95-.38,1.64-.76,3.28-1.18,4.9-.68-.69-1.28-1.29-1.73-1.72-8-6.42-17.86-10.56-26.48-16.12-4.92-3-4.62-6.24-.92-10.52,3.22-3.73,5.36-8.4,8-13.26-.81-9.71-.08-17.95,6.56-25.21a7.63,7.63,0,0,0-1.21-.61c-1.57-8.47,9.24-23.8,12.25-30.76a60.63,60.63,0,0,0,3.2-9.56c5.7,2.59,11.61,2.92,17.89,2.92h5.11c6.08,0,13.18.23,20.54,3l.34.12.07.13c3.29-.29,6.62-.54,9.85-.78,5.62-.41,11.43-.84,17.12-1.55-1.75-2.82-5.79-3.07-10.14-3.07h-2.44a28.15,28.15,0,0,1-5-.31c-6.25-.19-12.62-.22-18.78-.25s-12.48-.07-18.77-.26c-7.13-.54-11.8-2-15-3.74.08-.46.16-.91.23-1.37,5.1-25.58,33.24-15.51,48-4.53,18,11.49,23.81-3.25,43.74,17.3,7,5.78,13.38,12.26,20.67,17.55,9.67,6.77,23.23,7.14,29.27,18.55,5.66-6.41,10.1,2.42,16.7.29-5.49-9.29-16.63-14.16-25.05-20.63-6.44-4.06-9-10-10.15-16.8-3.39-14.84-19.46-20.94-27.38-33.1-8.08-11.79,13.72-10.38,12.52-27.11.91-6.74,5.59-12.2,3.85-19.7a4.31,4.31,0,0,0-3.64,0c-2.82,9.17-4.32,18.13-7.83,26.21-7.41,12.35-19.47,3.26-25.16-5.17-4.07-6.41-5.78-14.32-8.5-21.59h-4.92c-.21,18.73,10,27.78,23.45,38.08-5.92,1.6-3,12.23-12.74,11.08-.78-.06-7.11,4.43-10.6,7a8.38,8.38,0,0,0-.6-1.5c-5.24,2.32-6,7.93-12.22,4.11-8.57-4.51-17.77-8.15-26-13.09-11-10.37-22-20.78-32.76-31.34a6.06,6.06,0,0,1-.37-1.94c-1.76.82-3.53,1.65-5.27,2.54,1.07,1.62,2.16,3.3,3.25,5,9,7.86,18.07,15.55,27,23.44.42.37-.09,2.87-.53,3-11.71,3-16.61,10.7-19.15,20.69a28.92,28.92,0,0,1-2.54-2.83c-1.52-1.88-2.44-3-4.53-3-2.81,0-7.53,2-15.87,6.73a83.13,83.13,0,0,1-8.18,3.29c.85.63,1.7,1.26,2.56,1.88l-9.11,4.38c8.54-1.5,14.58-3.6,25.09-13.25l.08-.07a5.23,5.23,0,0,1,2.56-.87,1.31,1.31,0,0,1,1.08.47,37,37,0,0,0,7.91,7.64l-.33,1.84c-2.52,8.48-20.47,31.34-14.48,40.57-16,5.78,1.84,29.92-14.58,36.94-6.61,8.16-2.29,17.92-18.21,19.88-12.57.11-6.26,14.84-16.66,17.4-.69.21-1.34.42-2,.64l1.07-2c4.43-8.12,9-16.51,13.18-24.95,3.86-7.46,1-16.43-6.93-21.82a38.59,38.59,0,0,1-9.77-10.33l-3.29,1.53.09.16c1.25,2.11,2.49,4.2,3.68,6.29a49.63,49.63,0,0,0,4.82,4.79c5.29,4.83,11.29,10.3,6.89,18.73-2,3.81-4.12,7.68-6.19,11.42-3.46,6.23-7,12.57-10,19.1-11.16,6.79-8.88,16.65-18,18.61a16.72,16.72,0,0,1-5.36.37c-4-2.66-7.33-6.4-10.84-10.44-1-1.13-2-2.31-3.09-3.49-.13.47-.27.94-.4,1.42-.64-.12-1.28-.22-1.92-.31l.3.28c4.22,3.78,9,8.13,12.08,12.34-2.71-.07-5.29.23-7.39,2.14,1.49,1.95,5.43,2.38,9.86,2.31a8,8,0,0,1,.52,3.51,6.88,6.88,0,0,1-3.76,5.2c-3.86,3.5-6.53,6.24-8.69,8.45-4.72,4.84-6.68,6.84-11.7,6.85-2.93,0-6.82-.69-13.27-1.82l-3.21-.56a32.39,32.39,0,0,1-7.87,1,30.25,30.25,0,0,1-5.18-.45c-.62,1.13-1.26,2.22-1.94,3.25a29.2,29.2,0,0,0,6.23.67,32.57,32.57,0,0,0,6.13-.61,14.76,14.76,0,0,1,2.73-.24,41.56,41.56,0,0,1,8.7,1.31,40.43,40.43,0,0,0,8.36,1.26,10.32,10.32,0,0,0,8.83-4.25l.06-.09.09-.07a65.15,65.15,0,0,0,6.37-6.67c5.26-6,11.22-12.81,18.19-12.81a11.62,11.62,0,0,1,5.8,1.63l.4.23.09.45c2.75,14.37-9,34.51-23.67,40.65-3.12,1.43-5.57,4.83-7.94,8.12-.86,1.2-1.75,2.43-2.67,3.57a7.13,7.13,0,0,0,.39,1.46l.09.26L214,455l-.6,1.95c-1.78,5.77-4.21,11.64-6.77,17.84-6.32,15.29-12.85,31.1-10.26,47.12a31.1,31.1,0,0,1-.95,8.89,45.29,45.29,0,0,0-.92,5.64l0,.58-.53.25a7.05,7.05,0,0,0-1.7,1.12l-.88.78-.63-1c-11.56-18-32.46-40.54-49.8-53.62h-.4c-11.37,0-14.53-8.27-16.64-15.67a19.26,19.26,0,0,1-2.86-.54l.21.58c2.85,7.9,5.78,16.06,12.31,17.88,8.79.24,13.61,6,18.28,11.65,1,1.23,2.08,2.51,3.16,3.69,7.5,2.52,13.91,12.25,20.11,21.67,4.73,7.18,9.19,14,13.83,17.27l.67.48-.34.75c-2.66,5.84-5.71,8.56-9.61,8.56-4.29,0-8.86-3.42-14.15-7.38-6.59-4.93-14.07-10.51-23-11.19h0l-.28,0c-9.88-1.76-21.07-3.76-29.69-12.71a55.37,55.37,0,0,0-6.57-5.53,51.55,51.55,0,0,1-8.68-7.69c-5.25-2.13-16.41-3.12-29.32-4.25-15.44-1.36-33.56-3-46.87-7.15l1.84,3c7.09,1.7,15.72,3.56,21.6,3.56.59,0,1.14,0,1.66-.06h.16l.15,0A107.89,107.89,0,0,0,60,503.16c16.76,1.56,39.72,3.7,52.09,19.38,7.19,7.76,14.53,9.45,23,11.4,10.17,2.34,21.71,5,36.87,17.9l.29.25.05.39c.28,2.13-1.63,3.74-3.48,5.29-1.41,1.19-2.87,2.42-3.46,3.84l-.22.52-.56.08c-7.68,1.12-20.91,4.37-33.71,7.51-12.18,3-23.68,5.82-30.86,7a81.77,81.77,0,0,1-11.6,2.19c-7.61,1.1-16.23,2.34-20.29,5.8l-.58.5-.63-.44a55.27,55.27,0,0,0-9-4.33C52,578,46.46,575.63,45.85,572.3c-1.76-10-5.17-15.08-9.09-19.21a13.79,13.79,0,0,0-.9,4.85,41,41,0,0,1,5.62,11.77c.43,1.29.81,2.47,1.3,3.57l1.41,2.43c2.74,3.7,8.49,6.75,24.58,11.12l.86.24c0-.19-.15-1.44-.15-1.44l.88-.2c8.69-1.95,17.94-3.51,27.73-5.15,25.34-4.26,51.55-8.67,71.43-20.49a29.62,29.62,0,0,1,17-5.73,33.07,33.07,0,0,1,14.64,3.73,6.7,6.7,0,0,0,2.21.37,11.78,11.78,0,0,0,3.33-.61,9.55,9.55,0,0,1,2.58-.5c2.95,0,4.09,3.11,4.9,7.82.14,1,.47,3.28,1.15,3.6l.55.25,0,.61c.35,7.1,4.36,17.3,7.89,26.3,2.79,7.11,5.42,13.82,5.87,18.06,1.42,6.17.47,12.94-.53,18.8-.28,1.62-2.37,2.4-5,3.39a33.83,33.83,0,0,0-3.2,1.31c-8.74,8.93-5.27,14.88-.89,22.39,3,5.14,6.39,11,5.8,18.43a28,28,0,0,1-7.76,20.43,25.18,25.18,0,0,1-18.3,8,26.55,26.55,0,0,1-6.92-.94,21.05,21.05,0,0,0-6.56-1.11,17.63,17.63,0,0,0-4.52.59l-.62.17-.41-.51c-6.34-7.85-24.63-15.84-31.28-15.84h-.16c-10.26-1.65-20.18-3.81-29.76-5.91-7.87-1.71-16-3.49-24.26-5-7.47-1.53-11.35-5.8-15.46-10.32-5-5.5-10.18-11.2-22.73-13.32l-1-.18.25-1c1-4.13,2.38-9.12,3.85-14.41,4.72-17,10.57-38,9.49-51.27l-.19.68a226.85,226.85,0,0,0-5,23.29,16.14,16.14,0,0,1-1.18,7.27A241,241,0,0,1,56,652.11l-.36,1.2-1.09-.61c-1.47-.81-3.2-1.81-5.13-2.93-.14-.07-.29-.16-.42-.24.09.94.2,1.9.32,2.88,1.54.67,3.13,1.34,4.8,2l1.84.75.16-.64,1.26,1.62c3,3.89,9.32,8,14.85,11.58,4.62,3,9,5.84,11.28,8.38,8.08,5.91,18.67,7.8,28.91,9.63,4,.71,8,1.44,11.79,2.37,6.8,1.23,15.17,4.71,24,8.4,9.33,3.88,19,7.89,27.27,9.43l2.38.44-2,1.37c-7.9,5.39-13.4,16.33-17.83,25.13l-.23.46c-1.48,3.49-.24,6.13,1.07,8.92,1.21,2.58,2.44,5.23,1,8.17,0,1.77.07,3.54.1,5.31.43-.38.85-.72,1.25-1,5.45-4.2,4-7.31,2-11.61a22.53,22.53,0,0,1-2.44-7.45l0-.16,0-.15c2.73-12.48,9.69-26.81,39.57-26.81,5.74,0,11.64.44,17.34.86,4.3.32,8.37.62,12.32.74,10.28.7,19.75,5.06,28.9,9.27,7.4,3.41,15,6.92,22.91,8.34-7.18-10.64-49.2-20-62.43-22.66l-1.25-.26.55-1.15c.18-.38.33-.81.49-1.26a6.24,6.24,0,0,1,1.75-3c8.46-6.56,8.23-15.22,8-24.39a86.06,86.06,0,0,1,.08-8.8c.16-2.1-3.22-5.34-5.24-7.28-3.81-3.66-5.63-8.66-4.62-12.73.62-2.48,2.52-5.77,8.12-7.37,3.75-.92,5.53-4.55,6.36-7.43,2.12-7.34.4-18.13-3.53-22.21l-.13-.13-.07-.18c-1.23-3-3-9.86-5-17.79-2.83-11-6.35-24.69-9.29-30.93L215,559l1.27-.24a4.25,4.25,0,0,1,.83-.08c3.8,0,11.78,4.12,21,8.89,10,5.16,21.34,11,28.09,11.82a5.33,5.33,0,0,1,4.11,3.36c6,18,16.54,27.41,34.26,30.53,1.86.33,3.8.56,5.85.8,8.55,1,18.24,2.2,24.19,11.08a2.27,2.27,0,0,0,.79.15c-7.42,9.32-15.35,18.08-27.14,22-4.72,1.86-8.65,3.36-10.32,8.47-2.44,7.46-7,14.89-7,22.32-1.69,14.31,12.83,30.82,6,43.16-4.18,7-6.79,15-9.66,22.78-4.77,11.49-33.27,32.9-41.43,14.6-2.07-4.57-6.31-8.21-9.81-12a49.4,49.4,0,0,1-12.49-23.63c-.27-1.3-1.66-2.36-2.53-3.54-7.53,19.67,16.43,31.84,23.17,47.55-8.59,2.16-16.64,6.95-24.47,11.1,2.89,8,14.23,4.87,21.16,7.05,7.44.93,14.29,5.57,21.38,7.06,7.41.63,12.47,3,15.79,10.36,5.58,12.37,12.17,24.3,18.59,36.29,4.46,8.78-5.35,20.79-16.28,31.14q-2.24-1.08-4.46-2.19a29.63,29.63,0,0,1-6.91-5.11c-2.89-2.59-5.62-5-8.91-5.66h-.31c-6.53,0-10.76-3.35-14.3-6.92-5.39-4.74-17.3-8.17-28.33-8.17-7,0-12.88,1.44-16.49,4.08a6.23,6.23,0,0,1-3.52.88,19.35,19.35,0,0,1-6.71-1.45c.71,1.32,1.45,2.62,2.21,3.92a24.42,24.42,0,0,0,3.83.3,25.53,25.53,0,0,0,10.65-2.35,44.45,44.45,0,0,1,14.67-2.82c10.05,0,16.34,4.85,21.88,9.12,4.69,3.62,9.11,7,15.17,7h.89l.3.27a73.44,73.44,0,0,0,17.61,11.62c-6.86,6.25-13.73,11.7-17.45,15.16-23.79,24.72-24.36,6.44-40.42,4.61.29,7.19,8.29,8.16,13,12,15.28,10,6.71,21.44,3.06,35.09a13.82,13.82,0,0,0,4.9.53c3.72-11.17,10.22-18.06,4.19-30.11,0-8.15,26.26-22.56,39.19-34.31,2.46,1.08,4.92,2.12,7.37,3.15a180.85,180.85,0,0,1,19.48,9.12,8.22,8.22,0,0,0,4.26,1.33c2.86,0,5.41-2,7.19-5.56l1.4-2.84c6.21-12.5,12.64-25.43,18.67-38.27,1-2.89,2.26-6.45,1-8.57a4.85,4.85,0,0,0-3.42-2,6.15,6.15,0,0,0-1.33,2.44c-.22,9.56-3.32,18.76-9.75,29a37.61,37.61,0,0,0-3.36,8.17c-2.05,6.26-4.38,13.35-10.81,13.35A13.29,13.29,0,0,1,309,883.2c-3.8-1.78-7.69-3.55-11.45-5.26-3.58-1.63-7.23-3.29-10.87-5a19.92,19.92,0,0,0,3.77-5.15c3.65-5.27,7.15-10.65,10.86-15.88,5.58,1.12,5.55,15.87,21.52,16.23-.07-4.91-4.43-6.38-7.83-8.86-8.77-6.2-8.34-14.06.93-19,17-8.7,32.67-20.76,52.43-21.8,10.52-3.19-5.22,35.59-1.18,42.11,6.52,17.38-18.88,26.33-16.9,42.92,38.21-41.87,16.82-23.81,24.13-64.34,3.67-25.09,1.6-52.78,15-75.21,3-3.53,2.89-8.4.21-11.14,0-6,1.32-21.17-.45-29.1,15.33-2.74,36.25-7.08,43-7.46,20.58-1.35,26.49,3.42,46.48-6.55-2.93,12.18,10.54,24.37,11.09,35.56.44,5.78,2.5,9.74,7.18,13,29.43,28.43,26.75-3.41,59.13,32.35-18.87,8.91-39.2,17-56.87,27.67-2.2,5.7-7.32,7.58-11.93,10.41-17.31,10.61-34.16,22-51.78,32.07-13.27,7.59-27.47,13.55-41.2,20.36-11.42,6.92-26.16,10-34.6,20.74,2.52-.14,5.42.48,7.5-.56,24.45-12.2,48.73-24.76,73.17-37a143.07,143.07,0,0,0,38.91-25.24c1.76,9.24,6.49,40.64,1.27,47.59-3.42,4-2.9,7.48-1.1,11.86,2.63,6.43,2.24,14,8,18.88,3.07-6.57-1.69-12.89-1.69-19.45,1.4-13,2.54-26,1.27-39.07.81-7.69-4-18.76,1.78-24.71,19.29-17.84,45-25.7,67.65-38.09,25.93-14.46,4.26,33.55,73.76,30-1.77,3.49-4.63,6.08-7.14,9-33.23,17-72.8,72.65-93.4,104.16a14.55,14.55,0,0,0,4.87.49c17.48-28.61,40.7-52.57,60.58-79.41,5.19-6.34,22.79-16.9,30.78-22.77,6.67-4.9,11.24-12.28,17.21-17.84,1.33,9.29,17.2,15.67,14.18,25-1.69,7.45-2.93,14.49-8.49,20.74s-.29,18.64,7.78,21c2,.6,5.08,2.41,5.15,3.79.17,3.58.17,9.23-1.93,10.52-9.4,4.71-7,28.24-8.57,38.38a13.55,13.55,0,0,0,4.9.54c1.45-9.26,2.18-18.55,3.39-27.78a11.8,11.8,0,0,1,3.39-6.27c7.93-7.78,5.63-21.16-4.54-25.27-6.25-2.53-8.35-9.16-3.4-14.33,17.25-18.8-10.24-41.33,42.89-19.56,12.3,5.41,25.79,8,38.41,12.81,10.74,4.06,23.23,4.11,31.85,13.25,4.89,5.19,10.86,9.62,11.56,17.64,1.66,8.9,11.73-2.12,16.28-4.56,2.29,2.76,5.47,5.06,9.38,8.75,3.39,7.24,10,9.13,16.76,11.32,8.09,3.25,5.1,14.53,11.27,19.5,4.87-6.37-7.64-21.33,1.66-18,3.22,1.3,6.45,2.83,9.73,4.19.78-2.23,1.57-4.49,2.29-6.9-9.88-4.92-24.87-2.25-34.19-10.37-11.23-8.24-12.7-10.81-15.93-23.84a15.37,15.37,0,0,0-1-4.4c13.54.77,32.54-11.9,45.58-9.39-.17,12.74-11.23,23.9-9.47,36.44,8.08-4.12,10.7-30.51,17.18-37.53,12.17,1.22,14.52,15.79,21.78,23.65,4.7,8.69,14.33,5.83,10.33,12.22-2.74,5.25-1.72,14.48-8.28,16.88-6.29,1.29-12.21,2.37-18.33.35q2.16,3.27,4.27,6.43l.67,0c7.36-1.73,22,2.57,22.62-8.21,2.81-35.48,25.95-6.64,42-38.79.83,1,2.14,1.85,2.43,3,3.25,12.64,13.49,20.59,20.49,30.69,6.71,8.57,18.56,21.23,30.23,19.53-1.31-1.57-2.31-3.77-4-4.59-12.69-6.19-21-16.87-29.31-27.69-4.77-6.27-10.45-12-12.75-19.77-.61-1.67.42-4.2-1.06-5.32,9.6-5.45,24.2-18.27,29.42-23.62,8.51-8,15.76-33.3,29.95-26,18,21.61,22.08,53.36,31.7,79.65,2.2,10.14,0,20.91,4.57,30.77,6.46-30.33-8.34-58.74-16.85-87.12-2.06-5.16-8.3-8.3-8.63-14.35,11.93,4.31,19.64,14.34,24,26.23,6.16,12.54,21.28,19.48,35.39,13.11,16.55-5.81,25.3-1.45,32.5,3.8,1.89-1.06,3.79-2.1,5.68-3.13C1088.55,855.68,1063.1,851.85,1052.5,859.62ZM395.22,239.81c9.3,4.62,20.13-10.36,25.58-18.51,7.32,26.29,27.69,24,36.79,57.86-21.46-5.67-34.9-39.35-60.17-34.8C393.91,244.89,395,242.84,395.22,239.81Zm685.87,388.5c1.36,5.84.51,12.42-.53,18.46-.27,1.62-4.83,2.51-7.83,4.06-15.85,16.06,6,23.9,4.5,41.61.74,16.25-14,31.33-31.66,26.56a20.17,20.17,0,0,0-11.65-.53c-6.48-8-25-16.25-32.06-16.22-18.66-3-35.69-7.6-54-10.86-16-3.27-14.88-19.7-38.21-23.64,4.22-17.5,15.17-49.41,13.28-66.89,31.24-7,71.69-9.25,99.52-25.8,9.93-6.91,20.08-7.17,30.71-1.89,6.77,2.38,10.28-6.15,12.42,6.3.33,2.29.71,3.89,1.72,4.36C1068,596.77,1080.14,619,1081.09,628.31ZM790.26,691.9c16.4-1.73,22.94,19.64,29.34,34.33-.91,2.26-1.93,4.41-3.33,5.54-6.95,1.82-14,3.18-21.13,4.42-3,.53-4.24-.35-3.69-4.19C789.56,718.83,784.8,705.4,790.26,691.9ZM668.09,786.11c2.76-22,25.62-40.74,40-56.65,10.13-10,50.54,23.15,63.67,18.44.19,4,.27,8.64-7.56,12.75-19.42,14-6.87,22.46-33.82,40.68-8.71,17.19-29.34,15.06-45.17,19.14-3.9,1.4-7.23,3.09-11,0C675.23,810.74,668.28,793.49,668.09,786.11ZM805.68,644.88c2.73-3.32,5.33-3.54,8.46-.23,8.68,10.23,27.58,23.7,29.92,38.64-15.27-3-37.74,9.11-39.37,1.32C810.58,666.58,783.5,660.43,805.68,644.88Zm-38.16-15c-2.4-2.62-10.67-3.12-9,0,1.25,2.45-21,25.36-33.38,12.29-6.14-4.54-7.47-12.93-3.61-21.13,2.82-7.06,4.4-7.6,10.77-3.68,8.79,5.34,22.77,4.71,28.51-3.93l-.11-.08c24.72-21.43,10.45-23.72,35.12-7.91-1.87,2.55-2.82,7.16-3.23,10,.87-3,4.7,4.07,5.18,5,.56,1.15-3.27,2.43-1.61,2.63,4.86.19,8.1-2.9,9.46,5.35,2.12,11.3-14,25.07-28.69,23.28-3.42-.42-16.71,16.14-17,18.74-1.36,5.79-10.65-3-19.78-11.32C751.34,653.39,780.08,647.08,767.52,629.84ZM736.6,656c-1.63-1.45-3.21-2.82-4.71-4,1.13-2.59,3.49-4.05,7.6-5.21,8.93-3.08,17.78-9,25.31-15,2.42,4.13,2.75,8.89-1.82,11.38C754.27,647.57,745.43,651.77,736.6,656Zm21.82,26.87,8,.88c-3.2,4.8-8.19,6.49-13.39,8.25A65.17,65.17,0,0,1,758.42,682.88Zm6-10.09c.67-.95,8.22-11.61,11.44-16.8,2.07-4.19,9.93-1.1,13.29-1.07,1.12,2.59,2.74,5.47,4.37,8.49C789.6,668.7,789.6,683,780,676.92,775.78,675.46,756.08,685.28,764.42,672.79Zm29.58-1a48.2,48.2,0,0,0,.59-6.33c5.19,9.85,15.65,19.13-4.38,25.51C792.49,684.45,792.87,678.56,794,671.74Zm23.89-31c10.51-1.36,21.12,2.63,31.57,3.92,4.77.76,9,10.36,6.67,16.72-.85,3.64-5.27,9.51-8.51,15.11C843.69,664.14,822.29,648.43,817.89,640.76Zm33.88-2.69c-11.11,2.13-21.16-1.53-32.95-3-6-.69-8.45-3.9-8.24-10,.22-6.62,4.77-5.84,9-6.48,5.69-1.83,36.61-9.4,39.57-4.59C864.51,621.59,860.64,635.36,851.77,638.07Zm7.92-30.33c-56.46-.79-59.45,24.1-58.46-2.44,2.32-12,9.78-24.15,12.86-35.88,1-4.51,5.46-5.86,9.56-4.64C849.35,574,853,590.36,870,607.57,866.69,606.47,860.77,606.08,859.69,607.74Zm-69.32-11.42c-13.9-3.31-6.21-21.57-11.84-28.94,1.09-4.33-1-10.45.76-13.24,11.38-2.25,22.8,6.22,34,8.13C807.19,571.87,804.41,601.05,790.37,596.32Zm-29.65-39.19c1.19-1.49,11.56-10.83,14.44-14.09a11.94,11.94,0,0,0,5,4.06C782,550.61,763.85,558.45,760.72,557.13Zm5,3.09c7.39-3.71,8.46,3.27,10.83,8.61-1.78,4.77.49,14.9,1.82,22.2-4.14,3.62-6.31,7-6.81,4.23-.84-4.67-8.09-11.72-14.15-12-4.47-2.67-6.18-10.14-11-13.19C752.64,568.58,759.43,562.35,765.68,560.22Zm1.11,35.87c-.66,3.28-6.55,11.71-8.7,16a6.47,6.47,0,0,0-4.63.62c-11.27,8.93-21.57-7.81-32.7.36-.89-8.9,4.16.36,6-16.25,1.09-6.07,11.41-14.49,12.19-21.26C749.23,582.32,767.84,590.89,766.79,596.09Zm-28.08-22.41-1.28.84s-16.06,18.83-15.93,25.57c.27,5.7-3.43,6.81-8.76,4.89-42.56-17.22-30.25-32.83-11.51-64.9,24.47,28.41,16.38,7,33.65,24.42C738.81,567.89,741.86,569.52,738.71,573.68Zm-48.53-64c13.2,13.67,24.57,30.18,35.87,45.62C715.66,552.28,687.79,519.5,690.18,509.7ZM693,530.65c.93,2.51,3.23,5.5,2.55,7.45-2.46,7.13-4.76,14.85-9.34,20.57-10.13,9.85-4.8,24.92-14.49,23.06-23.64-1.05-46.13-9.62-69.78-8.12-5.31.06-11.79,1.07-12.79-6-2.54-10,6.13-13.64,10.06-20,4.35,2.5,5.4,8.46,9.19,11.22,7.49,5.21,17.81,4.3,26.37,2.7,12.43-5.57,25.9-5.92,36-16.7C678.16,540.05,685.19,534.68,693,530.65ZM678,585.88c-8.33,12.55-19.25,29.21-25.3,42.2-2.26,8.9,26.17,25.67,9.36,30.54a37.18,37.18,0,0,0-12.65,4.76c-9.21,5.91-19.65,4.81-29.61,5.68-12.58,1.1-16.9-3.91-20.24-15C575.41,546.82,599,584.57,678,585.88ZM660.42,634c-9.47-9.08,21.43-31.09,20.16-45.13,11.71,19.83,41.41,18.74,35.84,31.61-7.21,24.67,4.14,12.45,1.11,26.35-13.85,2.31-27.68,4.74-41.58,6.78C670.17,651.81,670.42,639,660.42,634Zm57.06,13.06a2.44,2.44,0,0,1-.06.26C717.22,647.19,717.27,647.11,717.48,647.06Zm-36.07,11.08c14.09-2.49,29.84-3.1,42.93-8.25a29.34,29.34,0,0,0,2.36,3.18c-6.65,26.57-27.05,22.62-32.27,58.24-9.16-9.76-12.76-23.07-20.51-34.18C671.17,667.1,668.91,658.61,681.41,658.14Zm30.78,25.33a14.31,14.31,0,0,0,4-6.2c6.34-.71,12.62-13.57,14.92-19.38l.51.52-.11.06.22,0c9,9.31,21.47,20.75,18.42,27.35-4.28,9-8.94,17.19-19,21.8-8.16,2.82-14.9,11-22.77,14.37C689.93,711.79,704.08,691.4,712.19,683.47Zm59.5,62.37c-13.23-10.15-39.23-13.53-52.17-23.37,8.33-6.55,17.65-11.77,26.37-17.8,7-4.6,13.89-9.29,20.89-13.86,5.5-3.59,15,1.1,15.43,7.64-.23,9.24.4,18.56,3.09,27.43,2,6.68.67,10.85-5.95,12.46S771.7,742.58,771.69,745.84ZM785.3,694.4c-1.4,1.28-6.26-8.3-9-8.79-10.72-1.94,0-4.44-.16-5.68,4.49-1.06,8.51,1,13,1.56,0,0-.1,1.55-.08,2.59C787.2,686,786.76,693.07,785.3,694.4Zm21.25-1.82c7.67-.51,41.63-7.43,48.64-5l12.11,2.8c5.47,9.81-1,15.2-6.49,21.15-11.19,15.75-20.68,10.34-36.09,18a13.11,13.11,0,0,0-1.53-5.82C821.86,718.75,809,697.58,806.55,692.58Zm61.81-4.86c0,.12-.09.25-.14.38-2.75-3.58-13-9.27-12.81-9.8,11.14-39.59,6.73-26.38,50.69-8.49-2.69,1.61-4.53,4.5-6.23,7.15-5.12,9.2-14.28,13.32-22.5,18.72C871.52,700,875.67,689.74,868.36,687.72Zm-9.26-43a121.42,121.42,0,0,1,13.4-26.94c10.55-24.78-.53-6.6-23.64-40.37-7.35-6.17-14.62-15.62-24.74-17.16,3.84-10.34,13.23-17.7,20.66-25.65,3.32-3.67,6.73-4.08,9.88-.75,9.61,10,17.64,21.41,26.71,31.81,21.28,22.15,0,25.85,39.52,36.59-6.68,24.3-5.6,37.54-13.5,64C897.21,660.63,874.43,646.28,859.1,644.72Zm116.66-238.2c9.8,15.17,26.8,17.34,40.58,25.24,7,4.05,14.59,6,23.33,4.25,9.41-1.72,21.64,7.65,29.24-2.29,8-6.69,17.42-24.5,29.23-17.75,2.66,13.89-9.06,33.68-23.1,39.55-4.59,2.11-7.58,7.8-11.06,12.06-.49.61.42,2.36.68,3.59l.17-.07c-6.17,20-20.75,42.6-17.06,65.34.4,4.82-1.54,9.63-1.87,14.37a7.93,7.93,0,0,0-2,1.28c-12.33-19.24-33.88-41.76-50.32-54.1-14.32.45-15.33-12.42-18.07-20.72-6.51-19.73-10-15.36-26.27-18.33-11.94-2.18-24-3.67-35.9-6-1.69-.33-4.3-3.89-3.93-5.27,1-3.68,3.53-10.06,5.14-10,12.38.71,15.81-9.41,21.35-16.6,6.46-8.38,11.59-17.37,13.45-28.35,1.69-5.87,6-13.45,11.35-17.29.5.94,1.34,1.84,1.44,2.82C963.36,389.38,970,397.53,975.76,406.52Zm.86-59.66c1.41-2.63,1.57-2.8,4.3-.42,8.52,7.43,17,15.64,27.06,20.37,16.32,8.66,36.28,10.38,52.1,19.89,4.9,6.61,30.86,23.53,18.33,30.75-18.53,16.78-10.86,17.12-36.32,12.71-13.92,3.5-23.34-2.71-35.71-9.4-6.5-3.1-14.44-4.77-19.22-9.58C967.6,390.28,957.47,372.29,976.62,346.86Zm-46,115.55a137.9,137.9,0,0,0,26.83,3.07c16.57.1,13.37,32.79,28.35,36.76,10.44.23,15.07,8.78,21,15.22,12.81,4,22.83,31,33.92,38.89-10.11,22.23-23.51-8.91-45.8-10.6-10-1.79-20.91-3.68-29.37-12.47-4.46-4.63-10.92-7.95-15.36-13.35-14.08-6-71.42-3.16-89.45-17.83,30-6.28,14.85-32.24,44.65-37.81C913.34,456.66,921.77,460.38,930.61,462.41Zm149.95,98.87c-6.61,2-18-3.51-21.16,5.43-.3,1.11-5.66,1.24-8.64,1.06-1.28-.08-3.65-2.85-3.46-3.15l3.62-14.65h0a40,40,0,0,0,.9-6.71c11.4,4.38,38.65,3.35,48.63,7.3C1099.14,557.17,1086.26,558.9,1080.56,561.28Zm62.26-157.78c7.33-5.68,15.69-3,23.66-2.93,6.08-1.93,5.45,9.5,6.54,14.41-6.15,4.07-11.58,9.18-17.33,13.78-5.07,5.79-11.85,14.81-17.79,4.31-3.77-7.35-13.45-13.17-20.93-16.94A67.65,67.65,0,0,0,1142.82,403.5Zm-33.26,13.94c.71-.08,1.42-.17,2.13-.28,1.52,3.63,8.23,9.38,9.81,10.06,19.11,7.93,16,24.5,22.94,41,3,12.83,10.22,27.77-7.28,33.94a10.51,10.51,0,0,0-5.75,4.05c-9.75,17.55,12.63,35.53.89,36.24-15.3,1.5-30.3,3.81-45.59.5-6,.11-27.28-5-34.83-1.69-2.94-39,22.29-48.4,17.6-70,6.56-3.45,8.56-11.62,15.21-14.95C1105,445.81,1098.18,417.66,1109.56,417.44Zm-85.74-97.23c12.91-1,19.23-15.77,31.88-17.14,3.18-.89,7.13-1.54,9.11-3.76,6.55-7.33,16.06-7.83,24.13-11.55.44-.21,2,.6,2,1,2.23,16.36,11.9,30.42,19.72,44.07,5.61,6.83,17,12.14,11.65,22.49-8.82,17-20.24,33.73-23.39,53,0,0,0-.1-1.13,0-26.38.22-21.74-31.63-67.58-39-8.82-2.05-56-22.56-43.88-33.6C1005.78,313,977.21,319.11,1023.82,320.21ZM884.56,254c7.38-3.08,13.45-7.17,17-14.68,20.13-14.49,46,24.05,65.27,27.66,3.79,11.23,21.9,16.77,17.86,31,9.36,24.29,3.58,26.5-11.6,45.88-5.23,7.57-9.41,15.95-13.42,24.27-3.26,6.78-5.93,8.78-12.51,5.68-4.81-2.27-8.73-6.42-13.53-8.73-5.34-2.57-11.59-3.32-16.8-6.08-15.28-9.78-45.33,7.32-50.23-16a60.47,60.47,0,0,0-4.38-11.48C869.61,312.89,876.32,257.54,884.56,254Zm9.61,106.9c19.09-1.94,35,9.83,51.1,18.09,1,.56,1.21,3.5,1,5.23-2.16,17.11-11.87,30.49-22.14,43.47-1.57,2-4.81,3.36-7.44,3.67-10.27,1.21-16.45,13.24-10.25,21.57,2.57,3.47,2.6,5.39-1.34,5.56-17.85.37-22.45,17.34-30.43,29.69-1.7,2.4-4.16,5-6.81,5.86-9.26,2.86-18.88,13.09-15.72,22.75,1.21-1,3.26-1.72,3.49-2.87,1.38-6.63,4.66-4.55,9.14-3.11,5.43,1.07,24.55,6.68,33.82,6,14,3.36,48.95.38,65.11,20.85,15.83,17.08,31.86,5.43,60,29.38.38,2.93-5.38,5-6.87,8.61-14.88,2.18-49.82,12.12-64.66,14.5-8.41,2.68-25.65,2.54-32.31,8.21-6-4.1-19.78-7.27-20.61-11.81-3.82-21.51-15-20.92-23.1-35.47-5.15-11.51-14.18-19.18-24.41-25.77-9.21-6.07-6.17,2.86-15.31,9.46-.41-3.35-.67-8.31-1.16-11.34l-.84-.14c2.08-3.43.11-12.62.43-14.46,1-6.08.36-12.84,2.81-18.22,10.91-22.85-11.29-34-4.32-60.44,4.83-24.32-14-18.91-15.59-38-10.63-34.77,26.36-13.64,30.93-41.42a34.82,34.82,0,0,1,8.81-15.57C867.34,354,868.25,366.55,894.17,360.94Zm-194.3,19.21c-1.4,7.69-39.84,2.54-48.26,4.2-6.57,1.58-6.28-1.68-6.2-6,1.17-14.45-3.93-31.58,9.6-42.12,15.89-21.67,23-54,54-60.23,26.56-14.13,29.43,8,41-1.57,8.56-6.86,33.43.45,43.27-4.23,5.45-6.82,15.83-9.82,16.3-20.61,0-.29,2.07-.49,3.17-.73,1,5.55,5.92,5.21,9.8,6.77,9.59,5.83-2.9,13.21,17.69,26.11,14.47,15.81-2.43,24.27,9.75,39.55,8.91,9.47-4.1,17.73-6.07,26.68-2.6,15.64-19.2,16-30.68,21.38-36.6,2.28-15.8-29.85-63.32-6.42C726.3,372,712,337.9,699.87,380.15Zm69.49,52.27c-18.73-7.82-30.51-27-51.29-31.57-24.73-6.55-11.41-48.23,12.29-33.26,7.71,5.08,14.23,4,21.6.46,26.38-11.13,18.29-12.7,41,2.1,18.55,6.11,18.26,11.18,20.66,29.38,4.13,15.69,19.13,10.06,14.27,30.75-7.3,29.14,14.32,36.71,5.21,57.16-4.05,8.42-4.24,24.95-2,34.83-21.2-28.92-35.09-2.18-39.7-20.13-2.09-13.95-5.56-27.69-8.35-41.54C783.29,449.17,782.8,436.59,769.36,432.42Zm3.2,33.25c9.85-6.64,7.36,4.09,8.6,10.42.58,8,12.47,34.73,2.6,37.86-14-3.76-13-19.63-19-30.9C763.89,475.7,767,468.83,772.56,465.67Zm-82,20.92c5.32-5.35,9.83-11.53,15.31-16.69,10-6.9,14.1,9.14,29.36-2.2,5.47-3.72,9.89-2.34,13.56,2.45,7.74,10.13,17.26,19.28,17.13,33.6.64,4.54,14.36,17,19.89,14.94,5.27-6.36,13.46-4,19.85-6.83,7.9-3.66,16.11,10.61,24.43,11.69-5.59,3.65,8.3,12.51-6.94,25.61-6,9.67-3.74,11.41-15.71,5.77-49.3-11.78-14.78-33.53-43.55-39.17-9.58-1.3-15.76-14.14-26-8.67-9.81,2.59-12.81-1.71-22.19,7.1,2.79-.11,5.61-.55,8.35-.25,9.51,1,19.62-6,28.75,3,5.64,4.87,20.09.73,19.74,12.27.14,4.25,0,8.78,1.79,12.47-8.06-1.27-22.37,17.65-29.32,20.79C728.56,554.3,720.37,533,706,522c-9.17-7-10.56-17.46-16.78-25.42C686.26,492.81,687.29,489.87,690.55,486.59Zm-38-30.28c25.69,24.9,25.26,26.28,33.79,60.65,1.11,4.14,5.33,6.87-1.62,12.2C657.91,550,599.86,584,603.13,523.3c-.45-8.81-2.41-18.31,6.59-24.79,3.55-5.18,2.58-13.31,6.29-18.25,8.35-9.59,3.56-25.69,11-27.86C635.33,451.93,644.16,449.71,652.55,456.31ZM625,435.19l.82-.24c-.14.82-.88.07-.95,1.47,2.83,3,6.48,5.32,7.38,9.59-7.81,1.29-10.66,1.08-14-6.67C620.39,438.09,622.54,436.83,625,435.19ZM604.5,496.65c-13.44,8.45-6.61,21.64-6.22,32.37,3.18,23-21.08,19.94-13,43.14-7.52-1.44-56.37-16.55-64.12-18.11-19.95-2-24.2-8.07-35.7-10.18h0a36.58,36.58,0,0,0-6.16-4.72c4.42-2.64,14.68-11.11,15.91-11.5,19.44-4.9,32.57-18.06,45.82-32.14,14.17-8,28.18-16.3,42.74-23.48,10.87-5.36,18.64-13.77,26.49-22.39a8.47,8.47,0,0,1,7.92-3.88C619.87,463.79,611.12,480.41,604.5,496.65ZM558,404.15c4.54,3.77,11.67,4.58,14.52,10.09-6.56,1.95-18.74-6.29-25.31-8.94-2.34-1.78-2.54-9.45-4.07-14.2A93.58,93.58,0,0,0,558,404.15Zm-176,3.54c2.5-3.3,9.24-5,12.81-7.67,8-5.8,17.2,1.71,26.4.83,9.35-.41,59.22,12,64,14.35,11.07,5.44,21.57-.56,32.32-.91,5.17-.14,16.65-3.38,21.22-8.58,4.38,8.94,37,11,46.61,17.32,9.12,11.21,34.22,7.36,27.74,13.42-18,28.83-52.2,41-79.72,57.22-11.71,25.47-38,24.68-56.73,43.5-44.2-23.89-4.26-27.74-28.84-50-8.73-9.63-18.19-19.36-23-32.42a24.26,24.26,0,0,0-6.81-9.4v-.1a2.1,2.1,0,0,1-.26-.13,17.7,17.7,0,0,0-5-3c-12-4.45-21.49-11.94-30.51-20.43C377.49,417.25,381,412.25,382,407.69Zm-1.22,24.66a6.87,6.87,0,0,0,3.2,2.43c3.79,1.55,7.68,3.12,11.7,4.72,4.24,2.3,8.65,4.26,12.77,6,10.21,3.36,11.65,13.15,15.22,21.52,8.39,9.85,17.31,19.27,25.37,29.37,4.68,13.74-8.73,25.6,11.21,33.18,2.94.44,10.94,8.71,17.14,13.58-51,3.62-96.82-13.55-149.91-11-2.45-1-5.26-2-8.16-2.93,11-.72,22-1.21,33-1.21,5.11,0,10.11.1,14.88.32-2.07-2.46-6.91-3.66-14.71-3.66-6.4,0-13.9.76-21.83,1.55-5.67.57-11.48,1.16-16.9,1.44-6-1.46-11.67-2-14.3-.47l-1.2,0c-4.87-.87-8.05-2.55-9.78-5.13-1.91-2.85-2-6.6-.2-11.46-2.8-.42-4.67-1.36-5.7-2.84-1.62-2.32-.79-5.37-.06-8.06.91-3.37,1.17-5.05-.36-5.87l.6-1.87a10.32,10.32,0,0,0,1.24.08c4,0,8.26-2.47,11.67-6.78,3.82-4.81,5.6-10.82,4.54-15.32-2.2-9.78-4.88-19.63-7.48-29.16l-.55-2c-1.44-5.3-2-8.75,5-12.77a29.5,29.5,0,0,1,12.49-2.65c5.55,0,11.05,1.33,16.37,2.62s10.73,2.6,16.18,2.6a28.85,28.85,0,0,0,12.89-2.92,26.84,26.84,0,0,1,10.61-2.45C372.08,423.11,377.29,426.31,380.74,432.35Zm-47.9-59.42a28.22,28.22,0,0,1,10.21,10.5c3.51,9.63,1.57,17.9,14,9.28,7.93-5.26,21.5.85,19.37,10.79-2.9,8.3-1.88,15.08,1.41,20.7A21.07,21.07,0,0,0,365,419.9a34.2,34.2,0,0,0-14,3.43,19.15,19.15,0,0,1-8.13,1.73,43.79,43.79,0,0,1-9.16-1.29,40.86,40.86,0,0,0-8.64-1.25h-.25c-7.46-.35-13.41-1.83-18.2-4.5l-1-.56.68-.91c2-2.75,5.08-4.63,8.05-6.45,4.44-2.73,8.32-5.12,8.56-9.84l-1.18.7v0l-.58.38a128.73,128.73,0,0,0-11.8,9.21c-1.76,1.48-3.57,3-5.39,4.47l-.91,1c-3.38,3.92-7.22,8.36-11.43,8.36q-4,0-7-5.38c-2.83-5.52-9.73-11.07-20.49-16.49l-2.44-1.24,2.66-.63a66.75,66.75,0,0,0,25.47-12.45c3.42-2.65,7.27-3.83,12.48-3.83,2.05,0,4.13.17,6.15.35,1.81.15,3.69.31,5.49.33a5.32,5.32,0,0,1,1.43-.21c4.44,0,5.12,6.29,5.67,11.35.17,1.54.33,3,.57,4.06v.06l.24-1.4c.89-5,3.95-11.29,6.9-17.34C330.2,378.71,331.65,375.74,332.84,372.93ZM251,387.82l0-.09.05-.09c1.76-3.46,3.59-6.93,5.44-10.37a24.42,24.42,0,0,1,10.67-4.62c11.59-1.9,3.78-14.89,13.5-16.44,6.66-1.14,12.82-9.1,19.9-7.45,8.3,4.71,17.48,8.91,25.06,14.52a20.41,20.41,0,0,0,3.68,6.69c-2.86,6.17-7.63,10.75-17.28,11h-.26l-.22-.11a8.56,8.56,0,0,0-3.89-.79c-7.13,0-18,5.38-28.46,10.58-9.33,4.63-18.15,9-23.5,9a5.36,5.36,0,0,1-4.54-1.9C249.76,395.84,249.7,392.59,251,387.82Zm-5,7c-.14,0-.33,0-.62,0h-.28a28.77,28.77,0,0,1-4.59-.36,33.46,33.46,0,0,1,4.31-.05,1.37,1.37,0,0,0,.72-.33,1,1,0,0,0,.7.73Zm-.2-.93a9.66,9.66,0,0,0,2.08-3.49c.27-.82.57-1.61.88-2.38q-.76,3-1.28,6ZM216.2,548c-4.7,0-7.09,1.35-8.22,4.57-.16.61-.5,1.87-7.21,1.87-.86,0-1.7,0-2.45-.07-1.65-.11-3.78-2.59-4.22-3.43a1.28,1.28,0,0,1-.14-1l3.46-14,.14-.59a38.84,38.84,0,0,0,.87-6.54l.07-1.37h.05l0-.47c-1.64-21.66,5.42-34.54,11.1-44.89,4.78-8.72,8.55-15.6,6.51-25l-.16-.74.67-.35c3.05-1.61,5.05-4.3,7.18-7.15s4.48-6,8-7.81c10.9-5.62,13.73-16.56,16-25.36,1.87-7.24,3.49-13.5,9.22-13.6.7-.08,1.4-.18,2.09-.28l.77-.11.3.71c1.42,3.38,7.88,8.92,9.27,9.53,14,5.79,16.5,16.25,19.18,27.33A88.76,88.76,0,0,0,293,453.4l0,.08,0,.09c.41,1.78.93,3.64,1.42,5.45,3.08,11.27,6.57,24-9.42,29.68a9.53,9.53,0,0,0-5.17,3.64c-5,9.13-.93,18.47,2.06,25.3,1.42,3.24,2.55,5.81,2.5,7.78-14.58-2.3-32.17-5.46-39.52,0a160.78,160.78,0,0,0,23.36,4.81c-5.57.55-11.23,1-16.83,1a81.14,81.14,0,0,1-17.21-1.69h-.1a85.16,85.16,0,0,1-9.48-1.07,136.17,136.17,0,0,0-17.54-1.74,18.9,18.9,0,0,0-7.2,1l-.2.08.08,0c5.7,2.2,15.64,3,25.25,3.81,9.45.78,18.38,1.51,23.39,3.5l.77.3-.16.82c-1.09,5.54-8.93,7.87-15.23,9.73-2,.59-3.87,1.15-5.34,1.76a14.64,14.64,0,0,1-4.31.53c-1.3,0-2.67-.09-4-.18S217.48,548,216.2,548Zm116.46,71.44c-3.19-2.71-6.2-5.26-11-5.69-16.46-2.34-39-5.54-45.29-26.14-.37-.75-.71-1.48-1-2.18-1.29-2.84-2.22-4.89-5.08-6.07l-50.66-21.83a3.33,3.33,0,0,1,1-6.38c1.9-.17,3.76-.28,5.57-.39,10.26-.63,19.12-1.17,26.32-11.83l0,0,0-.05c2.66-3,5.09-4.66,7.24-4.86,7.59-.52,15.29-1.16,22.85-1.81,17.36,2,35.74,3.51,48.4,5.07.4,1.32.65,2.79,1.53,3.61,13.27,10.64-5.72,19.45,7.55,30,3.76,3.26,4.77,7,5.13,11.9-.21,9.63,10,20,1.55,28.44-3.48,3.91-6.71,8.15-10,12.34a2.27,2.27,0,0,0-.2-.92A49.13,49.13,0,0,1,332.66,619.39ZM261.44,786.88,254.56,784c5.27-2,11.17-6.06,16.16-1.42C268.3,786.69,266.82,787.6,261.44,786.88Zm16.22,5.93c-6.36-4.73,2.2-17-7.17-16.74-9.94.11-32.05,7.07-39.38,1.41,7.74-7.61,29.51-5.86,41.86-9.47,2.32-2,4.77-7,8.21-5.81C288.12,777.51,286.78,779.33,277.66,792.81Zm105.61-29.19c-3.91,10.46-6.59,21.4-9.37,32.25-.53,7.58,1,19-10.26,18.37-11.53-.24-21.37,4-30.54,10.91-7.27,5.88-18.55,7.8-24.88,14.75-3.16,5.15-3.65,3.61-5.7-.75-5.67-12.1-11.8-24-18.14-35.77-8.17-15.66,16.47-17.7,4.18-38-4.85-9.65-1-19.3,9.91-22.1,29.43-7.6,55.17-10.44,86.78-18.81-1.16,7.12-1.22,19.84.29,26.42a9.39,9.39,0,0,0-1.09-.1C385.06,757.6,386.82,756.58,383.27,763.62Zm88-56.71c-8.84,4.35-17.91,4-27.53,3.84-14.56-.26-42.82,7.14-57.78,8.61.19.33-.19.77-.91,1.27-28.18,1.9-65.61,11.58-91.79,18.46,28.24-41.36-11.73-40,9.79-81.35,8.2-7.63,20.26-11.71,28.36-19.53,6.67-6.27,11.47-14.5,17.77-21.24,7.81-8.36,8.23-13.91,3.46-25.87-2.39-6.44-.57-16-6-21.09-12.54-7.94,3.32-26.62-11.25-32.88.7-.63-1.69-2.2-5.57-4,10.4,1.84,35.5,5.86,37.49,5.71,37.16-1,72.81,17.14,110.11,8.75,8.45-2.16,14.83,3.57,21,7.68,2.87,40.67-45.28,56.65-26.4,116.26,1.6,7.51,1.11,23.3,4.84,33.44C474.55,705.71,472.38,706.51,471.28,706.91Zm7.2-88.37c11.25-17.8,22.63-34.41,25.61-55.46.85-4.26,2.15-5.34,5.94-5,117.26,18.4,55.64,30.2,89.54,109.24-23.8,2.5-49.87-16-71.15,1.72-15.75,12.7-30.95,20-46.68,33.75C480.42,676.31,467.51,643.18,478.48,618.54ZM547.33,775.3c-14.18-16.52-27.49-1.93-36.63-14.41-6.59-5-15.71-7.66-15.86-18.29-.34-4.71-5-9-7.14-13.74-1.4-3.91-2.75-15.42-4.67-22,15.17-6.65,43.87-31.63,53.41-36.78,15.55-7.94,33.89.91,50.36,1.74,17.35,2,51.72,4.48,66.86-3.8,20.85-15.08,15.7,42.88,51.15,55.11a14.69,14.69,0,0,1-2.11.3,4.19,4.19,0,0,0-2.4,1.5c-6.31,9.3-13.16,17.2-25.69,18.41-17.91,2.33-36.45,3.6-53.94,7.84q-22.26,13.65-44.46,27.4C565.07,789.68,556.71,786.24,547.33,775.3Zm88.8,44.18c-21.89,3.82-49.24,1.64-58.91-22.32a13.32,13.32,0,0,0-4.86-6c-3.18-2.09-2.65-2.57.29-4.33,54.93-28,55.3-58.14,67.78,16.76C643.41,809.13,644.32,818.53,636.13,819.48ZM634,758.16c-1-3.7-.81-5.23,3.62-5.52,14.5-.87,28.91-3.12,43.45-3.57C674.36,760.25,667.66,770,660,781.45c-8.4,6.85-6.09,18.12-12.32,26.08C642.14,791.38,638.83,774.53,634,758.16Zm27.08,74.56c-5.34-6-12-10.76-14.37-15.85l.24-.17c11-8.36,7.76-21.61,15.71-28.82,5.23,5.81,4.24,23.41,7.93,32.69C667.09,822.27,668.68,828.69,661.06,832.72Zm88.44,25.66c-21-6.2-41.07-15-61.68-22.2-5.82-1.88-12.65-.12-17.89-4.16,1.67-1.34,3.35-3.84,5-3.82,9.86.11,18.51-4.93,28.67-5.23a37.72,37.72,0,0,0,30.33-16.81c2.49-3.69,7-6,10.43-9.08,10.06-8.05,13.19-21.34,20.5-30.93,14.22-3.67,5.76-22.49,18.67-24.36l1.35,4.9c-6.37,11.39-8.2,32.22-6.26,41.28.74,8.58,0,17.57.21,26.25.76,17.1,1.42,35.33-15.09,45.37C760.81,861.74,754.13,859.73,749.5,858.38Zm27.65,16.36c-2-1.54-3.48-4.18-5.16-5.73-8-3-2.22-6.3-.25-9.33a72,72,0,0,1,9.54-11.76c1.49,1.64,2.94,5.06,4.51,8.83C783.25,861.15,777.82,872,777.15,874.74Zm9.84,11c-6.22,8.07-.52-15.17.18-25.74,1.64,3.79,3.45,7.54,5.59,9.88-2.74,4.75.61,12.41,2.28,14.85C792.23,885,787.24,885.34,787,885.75Zm54.61-58c-.11,7-.34,13.94-1,20.87-9.48,7.11-36.24,5.63-45.5,15.47a117.69,117.69,0,0,0-7.76-14.48c-5.86-7.13-2.75-15.27-3.5-22.92-1.24-17.73,2.67-35.38-2.11-53-1.4-4.87,8.4-22.56,8-30.31,5.1-2.82,12.35-2.55,17.69-4.36,12.13-6.41,12.18,1.36,15.88,9.23,3,14.88,18.24,35.53,17.9,46.38C839.46,803.54,842.33,823,841.6,827.73Zm46.22,22c-3.11,10.26-.52,22-5.43,31.76-14.38-6.79-15.45-29.29-32.95-31.5-4.11-.72-4.15-1.81-3.88-5.6.67-9.47,0-35.07-.1-47.64,1.45-2.82-4.42-14.92-3.74-18.08,13,15.08,26.66,43.35,40.2,58.05C885.27,840.51,889.47,842.93,887.82,849.72Zm30.38,17.77c-2.75,7.69-9.9,10.31-16.43,13.06s-12.29-2.26-11.4-8.75c1.46-8.54,1.3-17.41,3.75-25.74,1.06,1,2.58,1.83,3.09,3.07,1.62,4.38,13,13,21.79,16.71A7.69,7.69,0,0,0,918.2,867.49ZM976,810.81c-6,4.11-8.46,10.11-11.91,16-6.07,10.39-29.44,25.15-36.89,36.66-.74,0-1.48-.05-2.22-.05-2.35-1.48-5.31-2.16-8.11-3.75-5.93-4.95-23.1-19.36-28.89-23.68-9.92-7.42-13.05-19.32-19.72-28.87-4.77-6.84-9.32-13.87-14.59-20.32-6.12-7.55-25.06-29.16-25.65-40.93a4.14,4.14,0,0,0-1-2.25c0-7.31-1.73-12.56,10.88-12.87,27.1-1.44,28.21-34.57,40.17-23,4.89-.33,9.45,8.45,14.08,10.39.09-.25,8,7.18,8.11,6.94,4.54,6.34,5.81-2.22,13.54,18.36,16.47,18.71,36.43,34.71,54.26,52.24C973.2,799.07,984.67,804.53,976,810.81Zm-5.74-21c-9.85-9-21.08-16.73-29.77-26.7-8.47-9.72-22.17-15.94-24.64-29.71L877.35,702c12.09-7.52,27.91-16,31.59-30.82,5.69,7.28,21.32,14.58,26.24,20.1,11.47,8.45,27.63,8.86,41.21,12.24,13.85,2.5,35.05,14.82,51.28,17.82-8.27,5.65-13.86,17-18.41,26-3.79,9,8.62,13.34-1.31,20.82-4.92,4.82-17,21-19.74,31.61A31.94,31.94,0,0,1,970.22,789.82Zm16.6,14.25c.51,1.52,8.62-3.29,9.25,8.07C995.15,810.28,984,805.75,986.82,804.07Z"/></g></g><g id="Layer_2" data-name="Layer 2"><circle class="cls-7" cx="630.94" cy="572.36" r="302.48"/><path class="cls-8" d="M630.94,269.88c167.06,0,302.48,135.43,302.48,302.48S798,874.85,630.94,874.85,328.46,739.42,328.46,572.36,463.88,269.88,630.94,269.88m0-2.84a304.37,304.37,0,1,0,118.85,24,303.4,303.4,0,0,0-118.85-24Z"/><g class="cls-9"><text class="cls-10" transform="translate(456.55 527.45)"></text><circle class="cls-11" cx="479.63" cy="535.52" r="2.77"/></g><g class="cls-9"><text class="cls-10" transform="translate(604.27 424.55)"></text><circle class="cls-11" cx="628.7" cy="432.87" r="2.77"/></g><g class="cls-9"><text class="cls-10" transform="translate(724.73 445.37)"></text><circle class="cls-11" cx="749.11" cy="452.23" r="2.77"/></g><g class="cls-9"><text class="cls-10" transform="translate(684.61 516.33)"></text><circle class="cls-11" cx="706.46" cy="523.57" r="2.77"/></g><g class="cls-9"><text class="cls-10" transform="translate(846.96 532.51)"> </text><circle class="cls-11" cx="838.78" cy="526.33" r="2.77"/></g><g class="cls-9"><text class="cls-10" transform="translate(719.06 575.3)"></text><circle class="cls-11" cx="751.88" cy="580.99" r="2.77"/></g><g class="cls-9"><text class="cls-10" transform="translate(774.85 485.64)"></text><circle class="cls-11" cx="838.78" cy="492.41" r="2.77"/></g><text class="cls-12" transform="translate(739.24 613.29)"></text><circle class="cls-13" cx="790.09" cy="620.64" r="2.77"/><g class="cls-9"><text class="cls-10" transform="translate(641.92 717.58)"></text><circle class="cls-11" cx="694.19" cy="726.18" r="2.77"/></g><g class="cls-9"><text class="cls-10" transform="translate(583.84 895.48)"></text><circle class="cls-11" cx="616.61" cy="902.72" r="2.77"/></g><g class="cls-9"><text class="cls-10" transform="translate(512.3 645.3)"></text><circle class="cls-11" cx="542.25" cy="654.25" r="2.77"/></g><g class="cls-9"><text class="cls-10" transform="translate(448.65 704.74)"></text><circle class="cls-11" cx="476.86" cy="712.65" r="2.77"/></g><g class="cls-9"><text class="cls-10" transform="translate(386.83 734.01)"></text><circle class="cls-11" cx="380.25" cy="728.32" r="2.77"/></g><g class="cls-9"><text class="cls-10" transform="translate(608.7 674.09)">-</text><circle class="cls-11" cx="706.46" cy="683.32" r="2.77"/></g><g class="cls-9"><text class="cls-10" transform="translate(696.95 752.74)"></text><circle class="cls-11" cx="771.04" cy="760.96" r="2.77"/></g><g class="cls-9"><text class="cls-10" transform="translate(612.64 816.3)"></text><circle class="cls-11" cx="661.59" cy="825.67" r="2.77"/></g><g class="cls-9"><text class="cls-10" transform="translate(810.09 674.09)"></text><circle class="cls-11" cx="804.39" cy="672.4" r="2.77"/></g><g class="cls-9"><text class="cls-10" transform="translate(845.26 602.36)">-</text><circle class="cls-11" cx="844.06" cy="605.08" r="2.77"/></g><g class="cls-9"><text class="cls-10" transform="translate(817.89 711.31)"></text><circle class="cls-11" cx="813.26" cy="707.9" r="2.77"/></g><g class="cls-9"><text class="cls-10" transform="translate(907.24 740.1)"></text><circle class="cls-11" cx="901.55" cy="737.33" r="2.77"/></g><g class="cls-9"><text class="cls-10" transform="translate(842.33 768.31)"></text><circle class="cls-11" cx="832.86" cy="765.16" r="2.77"/></g><g class="cls-9"><text class="cls-10" transform="translate(769.44 868.26)"></text><circle class="cls-11" cx="789.94" cy="877.61" r="2.77"/></g><g class="cls-9"><text class="cls-10" transform="translate(707.22 818.95)"></text><circle class="cls-11" cx="737.07" cy="828.44" r="2.77"/></g><g class="cls-9"><text class="cls-10" transform="translate(875.79 631.72)"></text><circle class="cls-11" cx="867.71" cy="625.53" r="2.77"/></g><text class="cls-12" transform="translate(546.55 566.83)"></text><circle class="cls-14" cx="633.37" cy="575.33" r="4.67"/><g class="cls-9"><text class="cls-10" transform="translate(422.47 397.62)"></text><circle class="cls-11" cx="463.81" cy="403.75" r="2.77"/></g><g class="cls-9"><circle class="cls-11" cx="338.16" cy="541.05" r="2.77"/><text class="cls-10" transform="translate(344.16 543.81)"></text></g><g class="cls-9"><circle class="cls-11" cx="364.93" cy="384.07" r="2.77"/><text class="cls-10" transform="translate(306.69 376.55)"></text></g><g class="cls-9"><circle class="cls-11" cx="303.57" cy="297.44" r="2.77"/><text class="cls-10" transform="translate(301.72 288.77)"></text></g><g class="cls-9"><circle class="cls-11" cx="377.82" cy="237.25" r="2.77"/><text class="cls-10" transform="translate(348.83 229.8)"></text></g><g class="cls-9"><circle class="cls-11" cx="501.85" cy="320.24" r="2.77"/><text class="cls-10" transform="translate(507.74 322.15)"> </text></g><g class="cls-9"><circle class="cls-11" cx="634.73" cy="257.21" r="2.77"/><text class="cls-10" transform="translate(553.84 250.7)"></text></g><g class="cls-9"><circle class="cls-11" cx="702.8" cy="263.12" r="2.77"/><text class="cls-10" transform="translate(683.89 257.21)"></text></g><g class="cls-9"><circle class="cls-11" cx="857.65" cy="316.57" r="2.77"/><text class="cls-10" transform="translate(833.25 310.16)"></text></g><g class="cls-9"><circle class="cls-11" cx="959.26" cy="376.8" r="2.77"/><text class="cls-10" transform="translate(932.89 369.34)"></text></g><g class="cls-9"><circle class="cls-11" cx="1005.56" cy="299.13" r="2.77"/><text class="cls-10" transform="translate(951.32 291.43)"></text></g><g class="cls-9"><circle class="cls-11" cx="1101.35" cy="274.05" r="2.77"/><text class="cls-10" transform="translate(1067.73 265.66)"></text></g><g class="cls-9"><circle class="cls-11" cx="1106.88" cy="409.01" r="2.77"/><text class="cls-10" transform="translate(1075.21 400.79)"></text></g><g class="cls-9"><circle class="cls-11" cx="1053.94" cy="557.32" r="2.77"/><text class="cls-10" transform="translate(1017.14 550.21)"></text></g><g class="cls-9"><circle class="cls-11" cx="264.75" cy="782.88" r="2.77"/><text class="cls-10" transform="translate(251.84 772.64)"></text></g><g class="cls-9"><circle class="cls-11" cx="340.69" cy="917.88" r="2.77"/><text class="cls-10" transform="translate(306.69 909.68)"></text></g></g></g></svg>