<svg xmlns="http://www.w3.org/2000/svg" width="510.52" height="510.49" viewBox="0 0 510.52 510.49">
  <g id="bg_pattern_white_3" opacity="0.25">
    <g id="Background">
      <rect id="color_fill" data-name="color fill" width="510.45" height="510.45" fill="#fff"/>
    </g>
    <g id="Objects">
      <g id="geometric_shape" data-name="geometric shape">
        <path id="Контур_7" data-name="Контур 7" d="M31.9,0,63.81,31.9h0V0Z" fill="#fff"/>
        <path id="Контур_8" data-name="Контур 8" d="M63.81,0V31.9L95.71,0Z" fill="#f8f7f7"/>
        <path id="Контур_9" data-name="Контур 9" d="M95.71,0l31.9,31.9h0V0Z" fill="#fff"/>
        <path id="Контур_10" data-name="Контур 10" d="M127.61,0V31.9L159.51,0Z" fill="#f8f7f7"/>
        <path id="Контур_11" data-name="Контур 11" d="M0,0V31.9L31.9,0Z" fill="#f8f7f7"/>
        <path id="Контур_12" data-name="Контур 12" d="M159.51,0l31.91,31.9h0V0Z" fill="#fff"/>
        <path id="Контур_13" data-name="Контур 13" d="M191.42,0V31.9L223.32,0Z" fill="#f8f7f7"/>
        <path id="Контур_14" data-name="Контур 14" d="M223.32,0l31.9,31.9h0V0Z" fill="#fff"/>
        <path id="Контур_15" data-name="Контур 15" d="M255.22,0V31.9L287.13,0Z" fill="#f8f7f7"/>
        <path id="Контур_16" data-name="Контур 16" d="M287.13,0l31.9,31.9h0V0Z" fill="#fff"/>
        <path id="Контур_17" data-name="Контур 17" d="M319.03,0V31.9L350.93,0Z" fill="#f8f7f7"/>
        <path id="Контур_18" data-name="Контур 18" d="M350.93,0l31.91,31.9h0V0Z" fill="#fff"/>
        <path id="Контур_19" data-name="Контур 19" d="M382.84,0V31.9L414.74,0Z" fill="#f8f7f7"/>
        <path id="Контур_20" data-name="Контур 20" d="M414.74,0l31.9,31.9h0V0Z" fill="#fff"/>
        <path id="Контур_21" data-name="Контур 21" d="M446.64,0V31.9L478.55,0Z" fill="#f8f7f7"/>
        <path id="Контур_22" data-name="Контур 22" d="M478.55,0l31.9,31.9h0V0Z" fill="#fff"/>
        <path id="Контур_23" data-name="Контур 23" d="M95.71,0V31.9h31.9Z" fill="#f0f0f0"/>
        <path id="Контур_24" data-name="Контур 24" d="M95.71,0h0L63.81,31.9h31.9Z" fill="#e7e6e6"/>
        <path id="Контур_25" data-name="Контур 25" d="M63.81,31.9l31.9,31.91h0V31.9Z" fill="#fff"/>
        <path id="Контур_26" data-name="Контур 26" d="M95.71,31.9V63.81l31.9-31.91Z" fill="#f8f7f7"/>
        <path id="Контур_27" data-name="Контур 27" d="M159.51,0V31.9h31.91Z" fill="#f0f0f0"/>
        <path id="Контур_28" data-name="Контур 28" d="M159.51,0h0l-31.9,31.9h31.9Z" fill="#e7e6e6"/>
        <path id="Контур_29" data-name="Контур 29" d="M127.61,31.9l31.9,31.91h0V31.9Z" fill="#fff"/>
        <path id="Контур_30" data-name="Контур 30" d="M159.51,31.9V63.81L191.42,31.9Z" fill="#f8f7f7"/>
        <path id="Контур_31" data-name="Контур 31" d="M31.9,0V31.9H63.81Z" fill="#f0f0f0"/>
        <path id="Контур_32" data-name="Контур 32" d="M31.9,0h0L0,31.9H31.9Z" fill="#e7e6e6"/>
        <path id="Контур_33" data-name="Контур 33" d="M0,31.9,31.9,63.81h0V31.9Z" fill="#fff"/>
        <path id="Контур_34" data-name="Контур 34" d="M31.9,31.9V63.81L63.81,31.9Z" fill="#f8f7f7"/>
        <path id="Контур_35" data-name="Контур 35" d="M223.32,0V31.9h31.9Z" fill="#f0f0f0"/>
        <path id="Контур_36" data-name="Контур 36" d="M223.32,0h0l-31.9,31.9h31.9Z" fill="#e7e6e6"/>
        <path id="Контур_37" data-name="Контур 37" d="M191.42,31.9l31.9,31.91h0V31.9Z" fill="#fff"/>
        <path id="Контур_38" data-name="Контур 38" d="M223.32,31.9V63.81l31.9-31.91Z" fill="#f8f7f7"/>
        <path id="Контур_39" data-name="Контур 39" d="M287.13,0V31.9h31.9Z" fill="#f0f0f0"/>
        <path id="Контур_40" data-name="Контур 40" d="M287.13,0h0L255.22,31.9h31.91Z" fill="#e7e6e6"/>
        <path id="Контур_41" data-name="Контур 41" d="M255.22,31.9l31.91,31.91h0V31.9Z" fill="#fff"/>
        <path id="Контур_42" data-name="Контур 42" d="M287.13,31.9V63.81l31.9-31.91Z" fill="#f8f7f7"/>
        <path id="Контур_43" data-name="Контур 43" d="M350.93,0V31.9h31.91Z" fill="#f0f0f0"/>
        <path id="Контур_44" data-name="Контур 44" d="M350.93,0h0l-31.9,31.9h31.9Z" fill="#e7e6e6"/>
        <path id="Контур_45" data-name="Контур 45" d="M319.03,31.9l31.9,31.91h0V31.9Z" fill="#fff"/>
        <path id="Контур_46" data-name="Контур 46" d="M350.93,31.9V63.81L382.84,31.9Z" fill="#f8f7f7"/>
        <path id="Контур_47" data-name="Контур 47" d="M414.74,0V31.9h31.9Z" fill="#f0f0f0"/>
        <path id="Контур_48" data-name="Контур 48" d="M414.74,0h0l-31.9,31.9h31.9Z" fill="#e7e6e6"/>
        <path id="Контур_49" data-name="Контур 49" d="M382.84,31.9l31.9,31.91h0V31.9Z" fill="#fff"/>
        <path id="Контур_50" data-name="Контур 50" d="M414.74,31.9V63.81l31.9-31.91Z" fill="#f8f7f7"/>
        <path id="Контур_51" data-name="Контур 51" d="M478.55,0V31.9h31.9Z" fill="#f0f0f0"/>
        <path id="Контур_52" data-name="Контур 52" d="M478.55,0h0L446.64,31.9h31.91Z" fill="#e7e6e6"/>
        <path id="Контур_53" data-name="Контур 53" d="M446.64,31.9l31.91,31.91h0V31.9Z" fill="#fff"/>
        <path id="Контур_54" data-name="Контур 54" d="M478.55,31.9V63.81l31.9-31.91Z" fill="#f8f7f7"/>
        <path id="Контур_55" data-name="Контур 55" d="M63.81,31.9V63.81h31.9Z" fill="#f0f0f0"/>
        <path id="Контур_56" data-name="Контур 56" d="M63.81,31.9h0L31.9,63.81H63.81Z" fill="#e7e6e6"/>
        <path id="Контур_57" data-name="Контур 57" d="M31.9,63.81l31.91,31.9h0V63.81Z" fill="#fff"/>
        <path id="Контур_58" data-name="Контур 58" d="M63.81,63.81v31.9l31.9-31.9Z" fill="#f8f7f7"/>
        <path id="Контур_59" data-name="Контур 59" d="M127.61,31.9V63.81h31.9Z" fill="#f0f0f0"/>
        <path id="Контур_60" data-name="Контур 60" d="M127.61,31.9h0L95.71,63.81h31.9Z" fill="#e7e6e6"/>
        <path id="Контур_61" data-name="Контур 61" d="M95.71,63.81l31.9,31.9h0V63.81Z" fill="#fff"/>
        <path id="Контур_62" data-name="Контур 62" d="M127.61,63.81v31.9l31.9-31.9Z" fill="#f8f7f7"/>
        <path id="Контур_63" data-name="Контур 63" d="M0,31.9V63.81H31.9Z" fill="#f0f0f0"/>
        <path id="Контур_64" data-name="Контур 64" d="M0,63.81v31.9l31.9-31.9Z" fill="#f8f7f7"/>
        <path id="Контур_65" data-name="Контур 65" d="M191.42,31.9V63.81h31.9Z" fill="#f0f0f0"/>
        <path id="Контур_66" data-name="Контур 66" d="M191.42,31.9h0L159.51,63.81h31.91Z" fill="#e7e6e6"/>
        <path id="Контур_67" data-name="Контур 67" d="M159.51,63.81l31.91,31.9h0V63.81Z" fill="#fff"/>
        <path id="Контур_68" data-name="Контур 68" d="M191.42,63.81v31.9l31.9-31.9Z" fill="#f8f7f7"/>
        <path id="Контур_69" data-name="Контур 69" d="M255.22,31.9V63.81h31.91Z" fill="#f0f0f0"/>
        <path id="Контур_70" data-name="Контур 70" d="M255.22,31.9h0l-31.9,31.91h31.9Z" fill="#e7e6e6"/>
        <path id="Контур_71" data-name="Контур 71" d="M223.32,63.81l31.9,31.9h0V63.81Z" fill="#fff"/>
        <path id="Контур_72" data-name="Контур 72" d="M255.22,63.81v31.9l31.91-31.9Z" fill="#f8f7f7"/>
        <path id="Контур_73" data-name="Контур 73" d="M319.03,31.9V63.81h31.9Z" fill="#f0f0f0"/>
        <path id="Контур_74" data-name="Контур 74" d="M319.03,31.9h0l-31.9,31.91h31.9Z" fill="#e7e6e6"/>
        <path id="Контур_75" data-name="Контур 75" d="M287.13,63.81l31.9,31.9h0V63.81Z" fill="#fff"/>
        <path id="Контур_76" data-name="Контур 76" d="M319.03,63.81v31.9l31.9-31.9Z" fill="#f8f7f7"/>
        <path id="Контур_77" data-name="Контур 77" d="M382.84,31.9V63.81h31.9Z" fill="#f0f0f0"/>
        <path id="Контур_78" data-name="Контур 78" d="M382.84,31.9h0L350.93,63.81h31.91Z" fill="#e7e6e6"/>
        <path id="Контур_79" data-name="Контур 79" d="M350.93,63.81l31.91,31.9h0V63.81Z" fill="#fff"/>
        <path id="Контур_80" data-name="Контур 80" d="M382.84,63.81v31.9l31.9-31.9Z" fill="#f8f7f7"/>
        <path id="Контур_81" data-name="Контур 81" d="M446.64,31.9V63.81h31.91Z" fill="#f0f0f0"/>
        <path id="Контур_82" data-name="Контур 82" d="M446.64,31.9h0l-31.9,31.91h31.9Z" fill="#e7e6e6"/>
        <path id="Контур_83" data-name="Контур 83" d="M414.74,63.81l31.9,31.9h0V63.81Z" fill="#fff"/>
        <path id="Контур_84" data-name="Контур 84" d="M446.64,63.81v31.9l31.91-31.9Z" fill="#f8f7f7"/>
        <path id="Контур_85" data-name="Контур 85" d="M510.45,31.9h0l-31.9,31.91h31.9Z" fill="#e7e6e6"/>
        <path id="Контур_86" data-name="Контур 86" d="M478.55,63.81l31.9,31.9h0V63.81Z" fill="#fff"/>
        <path id="Контур_87" data-name="Контур 87" d="M95.71,63.81v31.9h31.9Z" fill="#f0f0f0"/>
        <path id="Контур_88" data-name="Контур 88" d="M95.71,63.81h0l-31.9,31.9h31.9Z" fill="#e7e6e6"/>
        <path id="Контур_89" data-name="Контур 89" d="M63.81,95.71l31.9,31.9h0V95.71Z" fill="#fff"/>
        <path id="Контур_90" data-name="Контур 90" d="M95.71,95.71v31.9l31.9-31.9Z" fill="#f8f7f7"/>
        <path id="Контур_91" data-name="Контур 91" d="M159.51,63.81v31.9h31.91Z" fill="#f0f0f0"/>
        <path id="Контур_92" data-name="Контур 92" d="M159.51,63.81h0l-31.9,31.9h31.9Z" fill="#e7e6e6"/>
        <path id="Контур_93" data-name="Контур 93" d="M127.61,95.71l31.9,31.9h0V95.71Z" fill="#fff"/>
        <path id="Контур_94" data-name="Контур 94" d="M159.51,95.71v31.9l31.91-31.9Z" fill="#f8f7f7"/>
        <path id="Контур_95" data-name="Контур 95" d="M31.9,63.81v31.9H63.81Z" fill="#f0f0f0"/>
        <path id="Контур_96" data-name="Контур 96" d="M31.9,63.81h0L0,95.71H31.9Z" fill="#e7e6e6"/>
        <path id="Контур_97" data-name="Контур 97" d="M0,95.71l31.9,31.9h0V95.71Z" fill="#fff"/>
        <path id="Контур_98" data-name="Контур 98" d="M31.9,95.71v31.9l31.91-31.9Z" fill="#f8f7f7"/>
        <path id="Контур_99" data-name="Контур 99" d="M223.32,63.81v31.9h31.9Z" fill="#f0f0f0"/>
        <path id="Контур_100" data-name="Контур 100" d="M223.32,63.81h0l-31.9,31.9h31.9Z" fill="#e7e6e6"/>
        <path id="Контур_101" data-name="Контур 101" d="M191.42,95.71l31.9,31.9h0V95.71Z" fill="#fff"/>
        <path id="Контур_102" data-name="Контур 102" d="M223.32,95.71v31.9l31.9-31.9Z" fill="#f8f7f7"/>
        <path id="Контур_103" data-name="Контур 103" d="M287.13,63.81v31.9h31.9Z" fill="#f0f0f0"/>
        <path id="Контур_104" data-name="Контур 104" d="M287.13,63.81h0l-31.91,31.9h31.91Z" fill="#e7e6e6"/>
        <path id="Контур_105" data-name="Контур 105" d="M255.22,95.71l31.91,31.9h0V95.71Z" fill="#fff"/>
        <path id="Контур_106" data-name="Контур 106" d="M287.13,95.71v31.9l31.9-31.9Z" fill="#f8f7f7"/>
        <path id="Контур_107" data-name="Контур 107" d="M350.93,63.81v31.9h31.91Z" fill="#f0f0f0"/>
        <path id="Контур_108" data-name="Контур 108" d="M350.93,63.81h0l-31.9,31.9h31.9Z" fill="#e7e6e6"/>
        <path id="Контур_109" data-name="Контур 109" d="M319.03,95.71l31.9,31.9h0V95.71Z" fill="#fff"/>
        <path id="Контур_110" data-name="Контур 110" d="M350.93,95.71v31.9l31.91-31.9Z" fill="#f8f7f7"/>
        <path id="Контур_111" data-name="Контур 111" d="M414.74,63.81v31.9h31.9Z" fill="#f0f0f0"/>
        <path id="Контур_112" data-name="Контур 112" d="M414.74,63.81h0l-31.9,31.9h31.9Z" fill="#e7e6e6"/>
        <path id="Контур_113" data-name="Контур 113" d="M382.84,95.71l31.9,31.9h0V95.71Z" fill="#fff"/>
        <path id="Контур_114" data-name="Контур 114" d="M414.74,95.71v31.9l31.9-31.9Z" fill="#f8f7f7"/>
        <path id="Контур_115" data-name="Контур 115" d="M478.55,63.81v31.9h31.9Z" fill="#f0f0f0"/>
        <path id="Контур_116" data-name="Контур 116" d="M478.55,63.81h0l-31.91,31.9h31.91Z" fill="#e7e6e6"/>
        <path id="Контур_117" data-name="Контур 117" d="M446.64,95.71l31.91,31.9h0V95.71Z" fill="#fff"/>
        <path id="Контур_118" data-name="Контур 118" d="M478.55,95.71v31.9l31.9-31.9Z" fill="#f8f7f7"/>
        <path id="Контур_119" data-name="Контур 119" d="M63.81,95.71v31.9h31.9Z" fill="#f0f0f0"/>
        <path id="Контур_120" data-name="Контур 120" d="M63.81,95.71h0L31.9,127.61H63.81Z" fill="#e7e6e6"/>
        <path id="Контур_121" data-name="Контур 121" d="M31.9,127.61l31.91,31.9h0v-31.9Z" fill="#fff"/>
        <path id="Контур_122" data-name="Контур 122" d="M63.81,127.61v31.9l31.9-31.9Z" fill="#f8f7f7"/>
        <path id="Контур_123" data-name="Контур 123" d="M127.61,95.71v31.9h31.9Z" fill="#f0f0f0"/>
        <path id="Контур_124" data-name="Контур 124" d="M127.61,95.71h0l-31.9,31.9h31.9Z" fill="#e7e6e6"/>
        <path id="Контур_125" data-name="Контур 125" d="M95.71,127.61l31.9,31.9h0v-31.9Z" fill="#fff"/>
        <path id="Контур_126" data-name="Контур 126" d="M127.61,127.61v31.9l31.9-31.9Z" fill="#f8f7f7"/>
        <path id="Контур_127" data-name="Контур 127" d="M0,95.71v31.9H31.9Z" fill="#f0f0f0"/>
        <path id="Контур_128" data-name="Контур 128" d="M0,127.61v31.9l31.9-31.9Z" fill="#f8f7f7"/>
        <path id="Контур_129" data-name="Контур 129" d="M191.42,95.71v31.9h31.9Z" fill="#f0f0f0"/>
        <path id="Контур_130" data-name="Контур 130" d="M191.42,95.71h0l-31.91,31.9h31.91Z" fill="#e7e6e6"/>
        <path id="Контур_131" data-name="Контур 131" d="M159.51,127.61l31.91,31.9h0v-31.9Z" fill="#fff"/>
        <path id="Контур_132" data-name="Контур 132" d="M191.42,127.61v31.9l31.9-31.9Z" fill="#f8f7f7"/>
        <path id="Контур_133" data-name="Контур 133" d="M255.22,95.71v31.9h31.91Z" fill="#f0f0f0"/>
        <path id="Контур_134" data-name="Контур 134" d="M255.22,95.71h0l-31.9,31.9h31.9Z" fill="#e7e6e6"/>
        <path id="Контур_135" data-name="Контур 135" d="M223.32,127.61l31.9,31.9h0v-31.9Z" fill="#fff"/>
        <path id="Контур_136" data-name="Контур 136" d="M255.22,127.61v31.9l31.91-31.9Z" fill="#f8f7f7"/>
        <path id="Контур_137" data-name="Контур 137" d="M319.03,95.71v31.9h31.9Z" fill="#f0f0f0"/>
        <path id="Контур_138" data-name="Контур 138" d="M319.03,95.71h0l-31.9,31.9h31.9Z" fill="#e7e6e6"/>
        <path id="Контур_139" data-name="Контур 139" d="M287.13,127.61l31.9,31.9h0v-31.9Z" fill="#fff"/>
        <path id="Контур_140" data-name="Контур 140" d="M319.03,127.61v31.9l31.9-31.9Z" fill="#f8f7f7"/>
        <path id="Контур_141" data-name="Контур 141" d="M382.84,95.71v31.9h31.9Z" fill="#f0f0f0"/>
        <path id="Контур_142" data-name="Контур 142" d="M382.84,95.71h0l-31.91,31.9h31.91Z" fill="#e7e6e6"/>
        <path id="Контур_143" data-name="Контур 143" d="M350.93,127.61l31.91,31.9h0v-31.9Z" fill="#fff"/>
        <path id="Контур_144" data-name="Контур 144" d="M382.84,127.61v31.9l31.9-31.9Z" fill="#f8f7f7"/>
        <path id="Контур_145" data-name="Контур 145" d="M446.64,95.71v31.9h31.91Z" fill="#f0f0f0"/>
        <path id="Контур_146" data-name="Контур 146" d="M446.64,95.71h0l-31.9,31.9h31.9Z" fill="#e7e6e6"/>
        <path id="Контур_147" data-name="Контур 147" d="M414.74,127.61l31.9,31.9h0v-31.9Z" fill="#fff"/>
        <path id="Контур_148" data-name="Контур 148" d="M446.64,127.61v31.9l31.91-31.9Z" fill="#f8f7f7"/>
        <path id="Контур_149" data-name="Контур 149" d="M510.45,95.71h0l-31.9,31.9h31.9Z" fill="#e7e6e6"/>
        <path id="Контур_150" data-name="Контур 150" d="M478.55,127.61l31.9,31.9h0v-31.9Z" fill="#fff"/>
        <path id="Контур_151" data-name="Контур 151" d="M95.71,127.61v31.9h31.9Z" fill="#f0f0f0"/>
        <path id="Контур_152" data-name="Контур 152" d="M95.71,127.61h0l-31.9,31.9h31.9Z" fill="#e7e6e6"/>
        <path id="Контур_153" data-name="Контур 153" d="M63.81,159.51l31.9,31.91h0V159.51Z" fill="#fff"/>
        <path id="Контур_154" data-name="Контур 154" d="M95.71,159.51v31.91l31.9-31.91Z" fill="#f8f7f7"/>
        <path id="Контур_155" data-name="Контур 155" d="M159.51,127.61v31.9h31.91Z" fill="#f0f0f0"/>
        <path id="Контур_156" data-name="Контур 156" d="M159.51,127.61h0l-31.9,31.9h31.9Z" fill="#e7e6e6"/>
        <path id="Контур_157" data-name="Контур 157" d="M127.61,159.51l31.9,31.91h0V159.51Z" fill="#fff"/>
        <path id="Контур_158" data-name="Контур 158" d="M159.51,159.51v31.91l31.91-31.91Z" fill="#f8f7f7"/>
        <path id="Контур_159" data-name="Контур 159" d="M31.9,127.61v31.9H63.81Z" fill="#f0f0f0"/>
        <path id="Контур_160" data-name="Контур 160" d="M31.9,127.61h0L0,159.51H31.9Z" fill="#e7e6e6"/>
        <path id="Контур_161" data-name="Контур 161" d="M0,159.51l31.9,31.91h0V159.51Z" fill="#fff"/>
        <path id="Контур_162" data-name="Контур 162" d="M31.9,159.51v31.91l31.91-31.91Z" fill="#f8f7f7"/>
        <path id="Контур_163" data-name="Контур 163" d="M223.32,127.61v31.9h31.9Z" fill="#f0f0f0"/>
        <path id="Контур_164" data-name="Контур 164" d="M223.32,127.61h0l-31.9,31.9h31.9Z" fill="#e7e6e6"/>
        <path id="Контур_165" data-name="Контур 165" d="M191.42,159.51l31.9,31.91h0V159.51Z" fill="#fff"/>
        <path id="Контур_166" data-name="Контур 166" d="M223.32,159.51v31.91l31.9-31.91Z" fill="#f8f7f7"/>
        <path id="Контур_167" data-name="Контур 167" d="M287.13,127.61v31.9h31.9Z" fill="#f0f0f0"/>
        <path id="Контур_168" data-name="Контур 168" d="M287.13,127.61h0l-31.91,31.9h31.91Z" fill="#e7e6e6"/>
        <path id="Контур_169" data-name="Контур 169" d="M255.22,159.51l31.91,31.91h0V159.51Z" fill="#fff"/>
        <path id="Контур_170" data-name="Контур 170" d="M287.13,159.51v31.91l31.9-31.91Z" fill="#f8f7f7"/>
        <path id="Контур_171" data-name="Контур 171" d="M350.93,127.61v31.9h31.91Z" fill="#f0f0f0"/>
        <path id="Контур_172" data-name="Контур 172" d="M350.93,127.61h0l-31.9,31.9h31.9Z" fill="#e7e6e6"/>
        <path id="Контур_173" data-name="Контур 173" d="M319.03,159.51l31.9,31.91h0V159.51Z" fill="#fff"/>
        <path id="Контур_174" data-name="Контур 174" d="M350.93,159.51v31.91l31.91-31.91Z" fill="#f8f7f7"/>
        <path id="Контур_175" data-name="Контур 175" d="M414.74,127.61v31.9h31.9Z" fill="#f0f0f0"/>
        <path id="Контур_176" data-name="Контур 176" d="M414.74,127.61h0l-31.9,31.9h31.9Z" fill="#e7e6e6"/>
        <path id="Контур_177" data-name="Контур 177" d="M382.84,159.51l31.9,31.91h0V159.51Z" fill="#fff"/>
        <path id="Контур_178" data-name="Контур 178" d="M414.74,159.51v31.91l31.9-31.91Z" fill="#f8f7f7"/>
        <path id="Контур_179" data-name="Контур 179" d="M478.55,127.61v31.9h31.9Z" fill="#f0f0f0"/>
        <path id="Контур_180" data-name="Контур 180" d="M478.55,127.61h0l-31.91,31.9h31.91Z" fill="#e7e6e6"/>
        <path id="Контур_181" data-name="Контур 181" d="M446.64,159.51l31.91,31.91h0V159.51Z" fill="#fff"/>
        <path id="Контур_182" data-name="Контур 182" d="M478.55,159.51v31.91l31.9-31.91Z" fill="#f8f7f7"/>
        <path id="Контур_183" data-name="Контур 183" d="M63.81,159.51v31.91h31.9Z" fill="#f0f0f0"/>
        <path id="Контур_184" data-name="Контур 184" d="M63.81,159.51h0L31.9,191.42H63.81Z" fill="#e7e6e6"/>
        <path id="Контур_185" data-name="Контур 185" d="M31.9,191.42l31.91,31.9h0v-31.9Z" fill="#fff"/>
        <path id="Контур_186" data-name="Контур 186" d="M63.81,191.42v31.9l31.9-31.9Z" fill="#f8f7f7"/>
        <path id="Контур_187" data-name="Контур 187" d="M127.61,159.51v31.91h31.9Z" fill="#f0f0f0"/>
        <path id="Контур_188" data-name="Контур 188" d="M127.61,159.51h0l-31.9,31.91h31.9Z" fill="#e7e6e6"/>
        <path id="Контур_189" data-name="Контур 189" d="M95.71,191.42l31.9,31.9h0v-31.9Z" fill="#fff"/>
        <path id="Контур_190" data-name="Контур 190" d="M127.61,191.42v31.9l31.9-31.9Z" fill="#f8f7f7"/>
        <path id="Контур_191" data-name="Контур 191" d="M0,159.51v31.91H31.9Z" fill="#f0f0f0"/>
        <path id="Контур_192" data-name="Контур 192" d="M0,191.42v31.9l31.9-31.9Z" fill="#f8f7f7"/>
        <path id="Контур_193" data-name="Контур 193" d="M191.42,159.51v31.91h31.9Z" fill="#f0f0f0"/>
        <path id="Контур_194" data-name="Контур 194" d="M191.42,159.51h0l-31.91,31.91h31.91Z" fill="#e7e6e6"/>
        <path id="Контур_195" data-name="Контур 195" d="M159.51,191.42l31.91,31.9h0v-31.9Z" fill="#fff"/>
        <path id="Контур_196" data-name="Контур 196" d="M191.42,191.42v31.9l31.9-31.9Z" fill="#f8f7f7"/>
        <path id="Контур_197" data-name="Контур 197" d="M255.22,159.51v31.91h31.91Z" fill="#f0f0f0"/>
        <path id="Контур_198" data-name="Контур 198" d="M255.22,159.51h0l-31.9,31.91h31.9Z" fill="#e7e6e6"/>
        <path id="Контур_199" data-name="Контур 199" d="M223.32,191.42l31.9,31.9h0v-31.9Z" fill="#fff"/>
        <path id="Контур_200" data-name="Контур 200" d="M255.22,191.42v31.9l31.91-31.9Z" fill="#f8f7f7"/>
        <path id="Контур_201" data-name="Контур 201" d="M319.03,159.51v31.91h31.9Z" fill="#f0f0f0"/>
        <path id="Контур_202" data-name="Контур 202" d="M319.03,159.51h0l-31.9,31.91h31.9Z" fill="#e7e6e6"/>
        <path id="Контур_203" data-name="Контур 203" d="M287.13,191.42l31.9,31.9h0v-31.9Z" fill="#fff"/>
        <path id="Контур_204" data-name="Контур 204" d="M319.03,191.42v31.9l31.9-31.9Z" fill="#f8f7f7"/>
        <path id="Контур_205" data-name="Контур 205" d="M382.84,159.51v31.91h31.9Z" fill="#f0f0f0"/>
        <path id="Контур_206" data-name="Контур 206" d="M382.84,159.51h0l-31.91,31.91h31.91Z" fill="#e7e6e6"/>
        <path id="Контур_207" data-name="Контур 207" d="M350.93,191.42l31.91,31.9h0v-31.9Z" fill="#fff"/>
        <path id="Контур_208" data-name="Контур 208" d="M382.84,191.42v31.9l31.9-31.9Z" fill="#f8f7f7"/>
        <path id="Контур_209" data-name="Контур 209" d="M446.64,159.51v31.91h31.91Z" fill="#f0f0f0"/>
        <path id="Контур_210" data-name="Контур 210" d="M446.64,159.51h0l-31.9,31.91h31.9Z" fill="#e7e6e6"/>
        <path id="Контур_211" data-name="Контур 211" d="M414.74,191.42l31.9,31.9h0v-31.9Z" fill="#fff"/>
        <path id="Контур_212" data-name="Контур 212" d="M446.64,191.42v31.9l31.91-31.9Z" fill="#f8f7f7"/>
        <path id="Контур_213" data-name="Контур 213" d="M510.45,159.51h0l-31.9,31.91h31.9Z" fill="#e7e6e6"/>
        <path id="Контур_214" data-name="Контур 214" d="M478.55,191.42l31.9,31.9h0v-31.9Z" fill="#fff"/>
        <path id="Контур_215" data-name="Контур 215" d="M95.71,191.42v31.9h31.9Z" fill="#f0f0f0"/>
        <path id="Контур_216" data-name="Контур 216" d="M95.71,191.42h0l-31.9,31.9h31.9Z" fill="#e7e6e6"/>
        <path id="Контур_217" data-name="Контур 217" d="M63.81,223.32l31.9,31.9h0v-31.9Z" fill="#fff"/>
        <path id="Контур_218" data-name="Контур 218" d="M95.71,223.32v31.9l31.9-31.9Z" fill="#f8f7f7"/>
        <path id="Контур_219" data-name="Контур 219" d="M159.51,191.42v31.9h31.91Z" fill="#f0f0f0"/>
        <path id="Контур_220" data-name="Контур 220" d="M159.51,191.42h0l-31.9,31.9h31.9Z" fill="#e7e6e6"/>
        <path id="Контур_221" data-name="Контур 221" d="M127.61,223.32l31.9,31.9h0v-31.9Z" fill="#fff"/>
        <path id="Контур_222" data-name="Контур 222" d="M159.51,223.32v31.9l31.91-31.9Z" fill="#f8f7f7"/>
        <path id="Контур_223" data-name="Контур 223" d="M31.9,191.42v31.9H63.81Z" fill="#f0f0f0"/>
        <path id="Контур_224" data-name="Контур 224" d="M31.9,191.42h0L0,223.32H31.9Z" fill="#e7e6e6"/>
        <path id="Контур_225" data-name="Контур 225" d="M0,223.32l31.9,31.9h0v-31.9Z" fill="#fff"/>
        <path id="Контур_226" data-name="Контур 226" d="M31.9,223.32v31.9l31.91-31.9Z" fill="#f8f7f7"/>
        <path id="Контур_227" data-name="Контур 227" d="M223.32,191.42v31.9h31.9Z" fill="#f0f0f0"/>
        <path id="Контур_228" data-name="Контур 228" d="M223.32,191.42h0l-31.9,31.9h31.9Z" fill="#e7e6e6"/>
        <path id="Контур_229" data-name="Контур 229" d="M191.42,223.32l31.9,31.9h0v-31.9Z" fill="#fff"/>
        <path id="Контур_230" data-name="Контур 230" d="M223.32,223.32v31.9l31.9-31.9Z" fill="#f8f7f7"/>
        <path id="Контур_231" data-name="Контур 231" d="M287.13,191.42v31.9h31.9Z" fill="#f0f0f0"/>
        <path id="Контур_232" data-name="Контур 232" d="M287.13,191.42h0l-31.91,31.9h31.91Z" fill="#e7e6e6"/>
        <path id="Контур_233" data-name="Контур 233" d="M255.22,223.32l31.91,31.9h0v-31.9Z" fill="#fff"/>
        <path id="Контур_234" data-name="Контур 234" d="M287.13,223.32v31.9l31.9-31.9Z" fill="#f8f7f7"/>
        <path id="Контур_235" data-name="Контур 235" d="M350.93,191.42v31.9h31.91Z" fill="#f0f0f0"/>
        <path id="Контур_236" data-name="Контур 236" d="M350.93,191.42h0l-31.9,31.9h31.9Z" fill="#e7e6e6"/>
        <path id="Контур_237" data-name="Контур 237" d="M319.03,223.32l31.9,31.9h0v-31.9Z" fill="#fff"/>
        <path id="Контур_238" data-name="Контур 238" d="M350.93,223.32v31.9l31.91-31.9Z" fill="#f8f7f7"/>
        <path id="Контур_239" data-name="Контур 239" d="M414.74,191.42v31.9h31.9Z" fill="#f0f0f0"/>
        <path id="Контур_240" data-name="Контур 240" d="M414.74,191.42h0l-31.9,31.9h31.9Z" fill="#e7e6e6"/>
        <path id="Контур_241" data-name="Контур 241" d="M382.84,223.32l31.9,31.9h0v-31.9Z" fill="#fff"/>
        <path id="Контур_242" data-name="Контур 242" d="M414.74,223.32v31.9l31.9-31.9Z" fill="#f8f7f7"/>
        <path id="Контур_243" data-name="Контур 243" d="M478.55,191.42v31.9h31.9Z" fill="#f0f0f0"/>
        <path id="Контур_244" data-name="Контур 244" d="M478.55,191.42h0l-31.91,31.9h31.91Z" fill="#e7e6e6"/>
        <path id="Контур_245" data-name="Контур 245" d="M446.64,223.32l31.91,31.9h0v-31.9Z" fill="#fff"/>
        <path id="Контур_246" data-name="Контур 246" d="M478.55,223.32v31.9l31.9-31.9Z" fill="#f8f7f7"/>
        <path id="Контур_247" data-name="Контур 247" d="M63.81,223.32v31.9h31.9Z" fill="#f0f0f0"/>
        <path id="Контур_248" data-name="Контур 248" d="M63.81,223.32h0L31.9,255.22H63.81Z" fill="#e7e6e6"/>
        <path id="Контур_249" data-name="Контур 249" d="M31.9,255.22l31.91,31.91h0V255.22Z" fill="#fff"/>
        <path id="Контур_250" data-name="Контур 250" d="M63.81,255.22v31.91l31.9-31.91Z" fill="#f8f7f7"/>
        <path id="Контур_251" data-name="Контур 251" d="M127.61,223.32v31.9h31.9Z" fill="#f0f0f0"/>
        <path id="Контур_252" data-name="Контур 252" d="M127.61,223.32h0l-31.9,31.9h31.9Z" fill="#e7e6e6"/>
        <path id="Контур_253" data-name="Контур 253" d="M95.71,255.22l31.9,31.91h0V255.22Z" fill="#fff"/>
        <path id="Контур_254" data-name="Контур 254" d="M127.61,255.22v31.91l31.9-31.91Z" fill="#f8f7f7"/>
        <path id="Контур_255" data-name="Контур 255" d="M0,223.32v31.9H31.9Z" fill="#f0f0f0"/>
        <path id="Контур_256" data-name="Контур 256" d="M0,255.22v31.91l31.9-31.91Z" fill="#f8f7f7"/>
        <path id="Контур_257" data-name="Контур 257" d="M191.42,223.32v31.9h31.9Z" fill="#f0f0f0"/>
        <path id="Контур_258" data-name="Контур 258" d="M191.42,223.32h0l-31.91,31.9h31.91Z" fill="#e7e6e6"/>
        <path id="Контур_259" data-name="Контур 259" d="M159.51,255.22l31.91,31.91h0V255.22Z" fill="#fff"/>
        <path id="Контур_260" data-name="Контур 260" d="M191.42,255.22v31.91l31.9-31.91Z" fill="#f8f7f7"/>
        <path id="Контур_261" data-name="Контур 261" d="M255.22,223.32v31.9h31.91Z" fill="#f0f0f0"/>
        <path id="Контур_262" data-name="Контур 262" d="M255.22,223.32h0l-31.9,31.9h31.9Z" fill="#e7e6e6"/>
        <path id="Контур_263" data-name="Контур 263" d="M223.32,255.22l31.9,31.91h0V255.22Z" fill="#fff"/>
        <path id="Контур_264" data-name="Контур 264" d="M255.22,255.22v31.91l31.91-31.91Z" fill="#f8f7f7"/>
        <path id="Контур_265" data-name="Контур 265" d="M319.03,223.32v31.9h31.9Z" fill="#f0f0f0"/>
        <path id="Контур_266" data-name="Контур 266" d="M319.03,223.32h0l-31.9,31.9h31.9Z" fill="#e7e6e6"/>
        <path id="Контур_267" data-name="Контур 267" d="M287.13,255.22l31.9,31.91h0V255.22Z" fill="#fff"/>
        <path id="Контур_268" data-name="Контур 268" d="M319.03,255.22v31.91l31.9-31.91Z" fill="#f8f7f7"/>
        <path id="Контур_269" data-name="Контур 269" d="M382.84,223.32v31.9h31.9Z" fill="#f0f0f0"/>
        <path id="Контур_270" data-name="Контур 270" d="M382.84,223.32h0l-31.91,31.9h31.91Z" fill="#e7e6e6"/>
        <path id="Контур_271" data-name="Контур 271" d="M350.93,255.22l31.91,31.91h0V255.22Z" fill="#fff"/>
        <path id="Контур_272" data-name="Контур 272" d="M382.84,255.22v31.91l31.9-31.91Z" fill="#f8f7f7"/>
        <path id="Контур_273" data-name="Контур 273" d="M446.64,223.32v31.9h31.91Z" fill="#f0f0f0"/>
        <path id="Контур_274" data-name="Контур 274" d="M446.64,223.32h0l-31.9,31.9h31.9Z" fill="#e7e6e6"/>
        <path id="Контур_275" data-name="Контур 275" d="M414.74,255.22l31.9,31.91h0V255.22Z" fill="#fff"/>
        <path id="Контур_276" data-name="Контур 276" d="M446.64,255.22v31.91l31.91-31.91Z" fill="#f8f7f7"/>
        <path id="Контур_277" data-name="Контур 277" d="M510.45,223.32h0l-31.9,31.9h31.9Z" fill="#e7e6e6"/>
        <path id="Контур_278" data-name="Контур 278" d="M478.55,255.22l31.9,31.91h0V255.22Z" fill="#fff"/>
        <path id="Контур_279" data-name="Контур 279" d="M95.71,255.22v31.91h31.9Z" fill="#f0f0f0"/>
        <path id="Контур_280" data-name="Контур 280" d="M95.71,255.22h0l-31.9,31.91h31.9Z" fill="#e7e6e6"/>
        <path id="Контур_281" data-name="Контур 281" d="M63.81,287.13l31.9,31.9h0v-31.9Z" fill="#fff"/>
        <path id="Контур_282" data-name="Контур 282" d="M95.71,287.13v31.9l31.9-31.9Z" fill="#f8f7f7"/>
        <path id="Контур_283" data-name="Контур 283" d="M159.51,255.22v31.91h31.91Z" fill="#f0f0f0"/>
        <path id="Контур_284" data-name="Контур 284" d="M159.51,255.22h0l-31.9,31.91h31.9Z" fill="#e7e6e6"/>
        <path id="Контур_285" data-name="Контур 285" d="M127.61,287.13l31.9,31.9h0v-31.9Z" fill="#fff"/>
        <path id="Контур_286" data-name="Контур 286" d="M159.51,287.13v31.9l31.91-31.9Z" fill="#f8f7f7"/>
        <path id="Контур_287" data-name="Контур 287" d="M31.9,255.22v31.91H63.81Z" fill="#f0f0f0"/>
        <path id="Контур_288" data-name="Контур 288" d="M31.9,255.22h0L0,287.13H31.9Z" fill="#e7e6e6"/>
        <path id="Контур_289" data-name="Контур 289" d="M0,287.13l31.9,31.9h0v-31.9Z" fill="#fff"/>
        <path id="Контур_290" data-name="Контур 290" d="M31.9,287.13v31.9l31.91-31.9Z" fill="#f8f7f7"/>
        <path id="Контур_291" data-name="Контур 291" d="M223.32,255.22v31.91h31.9Z" fill="#f0f0f0"/>
        <path id="Контур_292" data-name="Контур 292" d="M223.32,255.22h0l-31.9,31.91h31.9Z" fill="#e7e6e6"/>
        <path id="Контур_293" data-name="Контур 293" d="M191.42,287.13l31.9,31.9h0v-31.9Z" fill="#fff"/>
        <path id="Контур_294" data-name="Контур 294" d="M223.32,287.13v31.9l31.9-31.9Z" fill="#f8f7f7"/>
        <path id="Контур_295" data-name="Контур 295" d="M287.13,255.22v31.91h31.9Z" fill="#f0f0f0"/>
        <path id="Контур_296" data-name="Контур 296" d="M287.13,255.22h0l-31.91,31.91h31.91Z" fill="#e7e6e6"/>
        <path id="Контур_297" data-name="Контур 297" d="M255.22,287.13l31.91,31.9h0v-31.9Z" fill="#fff"/>
        <path id="Контур_298" data-name="Контур 298" d="M287.13,287.13v31.9l31.9-31.9Z" fill="#f8f7f7"/>
        <path id="Контур_299" data-name="Контур 299" d="M350.93,255.22v31.91h31.91Z" fill="#f0f0f0"/>
        <path id="Контур_300" data-name="Контур 300" d="M350.93,255.22h0l-31.9,31.91h31.9Z" fill="#e7e6e6"/>
        <path id="Контур_301" data-name="Контур 301" d="M319.03,287.13l31.9,31.9h0v-31.9Z" fill="#fff"/>
        <path id="Контур_302" data-name="Контур 302" d="M350.93,287.13v31.9l31.91-31.9Z" fill="#f8f7f7"/>
        <path id="Контур_303" data-name="Контур 303" d="M414.74,255.22v31.91h31.9Z" fill="#f0f0f0"/>
        <path id="Контур_304" data-name="Контур 304" d="M414.74,255.22h0l-31.9,31.91h31.9Z" fill="#e7e6e6"/>
        <path id="Контур_305" data-name="Контур 305" d="M382.84,287.13l31.9,31.9h0v-31.9Z" fill="#fff"/>
        <path id="Контур_306" data-name="Контур 306" d="M414.74,287.13v31.9l31.9-31.9Z" fill="#f8f7f7"/>
        <path id="Контур_307" data-name="Контур 307" d="M478.55,255.22v31.91h31.9Z" fill="#f0f0f0"/>
        <path id="Контур_308" data-name="Контур 308" d="M478.55,255.22h0l-31.91,31.91h31.91Z" fill="#e7e6e6"/>
        <path id="Контур_309" data-name="Контур 309" d="M446.64,287.13l31.91,31.9h0v-31.9Z" fill="#fff"/>
        <path id="Контур_310" data-name="Контур 310" d="M478.55,287.13v31.9l31.9-31.9Z" fill="#f8f7f7"/>
        <path id="Контур_311" data-name="Контур 311" d="M63.81,287.13v31.9h31.9Z" fill="#f0f0f0"/>
        <path id="Контур_312" data-name="Контур 312" d="M63.81,287.13h0L31.9,319.03H63.81Z" fill="#e7e6e6"/>
        <path id="Контур_313" data-name="Контур 313" d="M31.9,319.03l31.91,31.9h0v-31.9Z" fill="#fff"/>
        <path id="Контур_314" data-name="Контур 314" d="M63.81,319.03v31.9l31.9-31.9Z" fill="#f8f7f7"/>
        <path id="Контур_315" data-name="Контур 315" d="M127.61,287.13v31.9h31.9Z" fill="#f0f0f0"/>
        <path id="Контур_316" data-name="Контур 316" d="M127.61,287.13h0l-31.9,31.9h31.9Z" fill="#e7e6e6"/>
        <path id="Контур_317" data-name="Контур 317" d="M95.71,319.03l31.9,31.9h0v-31.9Z" fill="#fff"/>
        <path id="Контур_318" data-name="Контур 318" d="M127.61,319.03v31.9l31.9-31.9Z" fill="#f8f7f7"/>
        <path id="Контур_319" data-name="Контур 319" d="M0,287.13v31.9H31.9Z" fill="#f0f0f0"/>
        <path id="Контур_320" data-name="Контур 320" d="M0,319.03v31.9l31.9-31.9Z" fill="#f8f7f7"/>
        <path id="Контур_321" data-name="Контур 321" d="M191.42,287.13v31.9h31.9Z" fill="#f0f0f0"/>
        <path id="Контур_322" data-name="Контур 322" d="M191.42,287.13h0l-31.91,31.9h31.91Z" fill="#e7e6e6"/>
        <path id="Контур_323" data-name="Контур 323" d="M159.51,319.03l31.91,31.9h0v-31.9Z" fill="#fff"/>
        <path id="Контур_324" data-name="Контур 324" d="M191.42,319.03v31.9l31.9-31.9Z" fill="#f8f7f7"/>
        <path id="Контур_325" data-name="Контур 325" d="M255.22,287.13v31.9h31.91Z" fill="#f0f0f0"/>
        <path id="Контур_326" data-name="Контур 326" d="M255.22,287.13h0l-31.9,31.9h31.9Z" fill="#e7e6e6"/>
        <path id="Контур_327" data-name="Контур 327" d="M223.32,319.03l31.9,31.9h0v-31.9Z" fill="#fff"/>
        <path id="Контур_328" data-name="Контур 328" d="M255.22,319.03v31.9l31.91-31.9Z" fill="#f8f7f7"/>
        <path id="Контур_329" data-name="Контур 329" d="M319.03,287.13v31.9h31.9Z" fill="#f0f0f0"/>
        <path id="Контур_330" data-name="Контур 330" d="M319.03,287.13h0l-31.9,31.9h31.9Z" fill="#e7e6e6"/>
        <path id="Контур_331" data-name="Контур 331" d="M287.13,319.03l31.9,31.9h0v-31.9Z" fill="#fff"/>
        <path id="Контур_332" data-name="Контур 332" d="M319.03,319.03v31.9l31.9-31.9Z" fill="#f8f7f7"/>
        <path id="Контур_333" data-name="Контур 333" d="M382.84,287.13v31.9h31.9Z" fill="#f0f0f0"/>
        <path id="Контур_334" data-name="Контур 334" d="M382.84,287.13h0l-31.91,31.9h31.91Z" fill="#e7e6e6"/>
        <path id="Контур_335" data-name="Контур 335" d="M350.93,319.03l31.91,31.9h0v-31.9Z" fill="#fff"/>
        <path id="Контур_336" data-name="Контур 336" d="M382.84,319.03v31.9l31.9-31.9Z" fill="#f8f7f7"/>
        <path id="Контур_337" data-name="Контур 337" d="M446.64,287.13v31.9h31.91Z" fill="#f0f0f0"/>
        <path id="Контур_338" data-name="Контур 338" d="M446.64,287.13h0l-31.9,31.9h31.9Z" fill="#e7e6e6"/>
        <path id="Контур_339" data-name="Контур 339" d="M414.74,319.03l31.9,31.9h0v-31.9Z" fill="#fff"/>
        <path id="Контур_340" data-name="Контур 340" d="M446.64,319.03v31.9l31.91-31.9Z" fill="#f8f7f7"/>
        <path id="Контур_341" data-name="Контур 341" d="M510.45,287.13h0l-31.9,31.9h31.9Z" fill="#e7e6e6"/>
        <path id="Контур_342" data-name="Контур 342" d="M478.55,319.03l31.9,31.9h0v-31.9Z" fill="#fff"/>
        <path id="Контур_343" data-name="Контур 343" d="M95.71,319.03v31.9h31.9Z" fill="#f0f0f0"/>
        <path id="Контур_344" data-name="Контур 344" d="M95.71,319.03h0l-31.9,31.9h31.9Z" fill="#e7e6e6"/>
        <path id="Контур_345" data-name="Контур 345" d="M63.81,350.93l31.9,31.91h0V350.93Z" fill="#fff"/>
        <path id="Контур_346" data-name="Контур 346" d="M95.71,350.93v31.91l31.9-31.91Z" fill="#f8f7f7"/>
        <path id="Контур_347" data-name="Контур 347" d="M159.51,319.03v31.9h31.91Z" fill="#f0f0f0"/>
        <path id="Контур_348" data-name="Контур 348" d="M159.51,319.03h0l-31.9,31.9h31.9Z" fill="#e7e6e6"/>
        <path id="Контур_349" data-name="Контур 349" d="M127.61,350.93l31.9,31.91h0V350.93Z" fill="#fff"/>
        <path id="Контур_350" data-name="Контур 350" d="M159.51,350.93v31.91l31.91-31.91Z" fill="#f8f7f7"/>
        <path id="Контур_351" data-name="Контур 351" d="M31.9,319.03v31.9H63.81Z" fill="#f0f0f0"/>
        <path id="Контур_352" data-name="Контур 352" d="M31.9,319.03h0L0,350.93H31.9Z" fill="#e7e6e6"/>
        <path id="Контур_353" data-name="Контур 353" d="M0,350.93l31.9,31.91h0V350.93Z" fill="#fff"/>
        <path id="Контур_354" data-name="Контур 354" d="M31.9,350.93v31.91l31.91-31.91Z" fill="#f8f7f7"/>
        <path id="Контур_355" data-name="Контур 355" d="M223.32,319.03v31.9h31.9Z" fill="#f0f0f0"/>
        <path id="Контур_356" data-name="Контур 356" d="M223.32,319.03h0l-31.9,31.9h31.9Z" fill="#e7e6e6"/>
        <path id="Контур_357" data-name="Контур 357" d="M191.42,350.93l31.9,31.91h0V350.93Z" fill="#fff"/>
        <path id="Контур_358" data-name="Контур 358" d="M223.32,350.93v31.91l31.9-31.91Z" fill="#f8f7f7"/>
        <path id="Контур_359" data-name="Контур 359" d="M287.13,319.03v31.9h31.9Z" fill="#f0f0f0"/>
        <path id="Контур_360" data-name="Контур 360" d="M287.13,319.03h0l-31.91,31.9h31.91Z" fill="#e7e6e6"/>
        <path id="Контур_361" data-name="Контур 361" d="M255.22,350.93l31.91,31.91h0V350.93Z" fill="#fff"/>
        <path id="Контур_362" data-name="Контур 362" d="M287.13,350.93v31.91l31.9-31.91Z" fill="#f8f7f7"/>
        <path id="Контур_363" data-name="Контур 363" d="M350.93,319.03v31.9h31.91Z" fill="#f0f0f0"/>
        <path id="Контур_364" data-name="Контур 364" d="M350.93,319.03h0l-31.9,31.9h31.9Z" fill="#e7e6e6"/>
        <path id="Контур_365" data-name="Контур 365" d="M319.03,350.93l31.9,31.91h0V350.93Z" fill="#fff"/>
        <path id="Контур_366" data-name="Контур 366" d="M350.93,350.93v31.91l31.91-31.91Z" fill="#f8f7f7"/>
        <path id="Контур_367" data-name="Контур 367" d="M414.74,319.03v31.9h31.9Z" fill="#f0f0f0"/>
        <path id="Контур_368" data-name="Контур 368" d="M414.74,319.03h0l-31.9,31.9h31.9Z" fill="#e7e6e6"/>
        <path id="Контур_369" data-name="Контур 369" d="M382.84,350.93l31.9,31.91h0V350.93Z" fill="#fff"/>
        <path id="Контур_370" data-name="Контур 370" d="M414.74,350.93v31.91l31.9-31.91Z" fill="#f8f7f7"/>
        <path id="Контур_371" data-name="Контур 371" d="M478.55,319.03v31.9h31.9Z" fill="#f0f0f0"/>
        <path id="Контур_372" data-name="Контур 372" d="M478.55,319.03h0l-31.91,31.9h31.91Z" fill="#e7e6e6"/>
        <path id="Контур_373" data-name="Контур 373" d="M446.64,350.93l31.91,31.91h0V350.93Z" fill="#fff"/>
        <path id="Контур_374" data-name="Контур 374" d="M478.55,350.93v31.91l31.9-31.91Z" fill="#f8f7f7"/>
        <path id="Контур_375" data-name="Контур 375" d="M63.81,350.93v31.91h31.9Z" fill="#f0f0f0"/>
        <path id="Контур_376" data-name="Контур 376" d="M63.81,350.93h0L31.9,382.84H63.81Z" fill="#e7e6e6"/>
        <path id="Контур_377" data-name="Контур 377" d="M31.9,382.84l31.91,31.9h0v-31.9Z" fill="#fff"/>
        <path id="Контур_378" data-name="Контур 378" d="M63.81,382.84v31.9l31.9-31.9Z" fill="#f8f7f7"/>
        <path id="Контур_379" data-name="Контур 379" d="M127.61,350.93v31.91h31.9Z" fill="#f0f0f0"/>
        <path id="Контур_380" data-name="Контур 380" d="M127.61,350.93h0l-31.9,31.91h31.9Z" fill="#e7e6e6"/>
        <path id="Контур_381" data-name="Контур 381" d="M95.71,382.84l31.9,31.9h0v-31.9Z" fill="#fff"/>
        <path id="Контур_382" data-name="Контур 382" d="M127.61,382.84v31.9l31.9-31.9Z" fill="#f8f7f7"/>
        <path id="Контур_383" data-name="Контур 383" d="M0,350.93v31.91H31.9Z" fill="#f0f0f0"/>
        <path id="Контур_384" data-name="Контур 384" d="M0,382.84v31.9l31.9-31.9Z" fill="#f8f7f7"/>
        <path id="Контур_385" data-name="Контур 385" d="M191.42,350.93v31.91h31.9Z" fill="#f0f0f0"/>
        <path id="Контур_386" data-name="Контур 386" d="M191.42,350.93h0l-31.91,31.91h31.91Z" fill="#e7e6e6"/>
        <path id="Контур_387" data-name="Контур 387" d="M159.51,382.84l31.91,31.9h0v-31.9Z" fill="#fff"/>
        <path id="Контур_388" data-name="Контур 388" d="M191.42,382.84v31.9l31.9-31.9Z" fill="#f8f7f7"/>
        <path id="Контур_389" data-name="Контур 389" d="M255.22,350.93v31.91h31.91Z" fill="#f0f0f0"/>
        <path id="Контур_390" data-name="Контур 390" d="M255.22,350.93h0l-31.9,31.91h31.9Z" fill="#e7e6e6"/>
        <path id="Контур_391" data-name="Контур 391" d="M223.32,382.84l31.9,31.9h0v-31.9Z" fill="#fff"/>
        <path id="Контур_392" data-name="Контур 392" d="M255.22,382.84v31.9l31.91-31.9Z" fill="#f8f7f7"/>
        <path id="Контур_393" data-name="Контур 393" d="M319.03,350.93v31.91h31.9Z" fill="#f0f0f0"/>
        <path id="Контур_394" data-name="Контур 394" d="M319.03,350.93h0l-31.9,31.91h31.9Z" fill="#e7e6e6"/>
        <path id="Контур_395" data-name="Контур 395" d="M287.13,382.84l31.9,31.9h0v-31.9Z" fill="#fff"/>
        <path id="Контур_396" data-name="Контур 396" d="M319.03,382.84v31.9l31.9-31.9Z" fill="#f8f7f7"/>
        <path id="Контур_397" data-name="Контур 397" d="M382.84,350.93v31.91h31.9Z" fill="#f0f0f0"/>
        <path id="Контур_398" data-name="Контур 398" d="M382.84,350.93h0l-31.91,31.91h31.91Z" fill="#e7e6e6"/>
        <path id="Контур_399" data-name="Контур 399" d="M350.93,382.84l31.91,31.9h0v-31.9Z" fill="#fff"/>
        <path id="Контур_400" data-name="Контур 400" d="M382.84,382.84v31.9l31.9-31.9Z" fill="#f8f7f7"/>
        <path id="Контур_401" data-name="Контур 401" d="M446.64,350.93v31.91h31.91Z" fill="#f0f0f0"/>
        <path id="Контур_402" data-name="Контур 402" d="M446.64,350.93h0l-31.9,31.91h31.9Z" fill="#e7e6e6"/>
        <path id="Контур_403" data-name="Контур 403" d="M414.74,382.84l31.9,31.9h0v-31.9Z" fill="#fff"/>
        <path id="Контур_404" data-name="Контур 404" d="M446.64,382.84v31.9l31.91-31.9Z" fill="#f8f7f7"/>
        <path id="Контур_405" data-name="Контур 405" d="M510.45,350.93h0l-31.9,31.91h31.9Z" fill="#e7e6e6"/>
        <path id="Контур_406" data-name="Контур 406" d="M478.55,382.84l31.9,31.9h0v-31.9Z" fill="#fff"/>
        <path id="Контур_407" data-name="Контур 407" d="M95.71,382.84v31.9h31.9Z" fill="#f0f0f0"/>
        <path id="Контур_408" data-name="Контур 408" d="M95.71,382.84h0l-31.9,31.9h31.9Z" fill="#e7e6e6"/>
        <path id="Контур_409" data-name="Контур 409" d="M63.81,414.74l31.9,31.9h0v-31.9Z" fill="#fff"/>
        <path id="Контур_410" data-name="Контур 410" d="M95.71,414.74v31.9l31.9-31.9Z" fill="#f8f7f7"/>
        <path id="Контур_411" data-name="Контур 411" d="M159.51,382.84v31.9h31.91Z" fill="#f0f0f0"/>
        <path id="Контур_412" data-name="Контур 412" d="M159.51,382.84h0l-31.9,31.9h31.9Z" fill="#e7e6e6"/>
        <path id="Контур_413" data-name="Контур 413" d="M127.61,414.74l31.9,31.9h0v-31.9Z" fill="#fff"/>
        <path id="Контур_414" data-name="Контур 414" d="M159.51,414.74v31.9l31.91-31.9Z" fill="#f8f7f7"/>
        <path id="Контур_415" data-name="Контур 415" d="M31.9,382.84v31.9H63.81Z" fill="#f0f0f0"/>
        <path id="Контур_416" data-name="Контур 416" d="M31.9,382.84h0L0,414.74H31.9Z" fill="#e7e6e6"/>
        <path id="Контур_417" data-name="Контур 417" d="M0,414.74l31.9,31.9h0v-31.9Z" fill="#fff"/>
        <path id="Контур_418" data-name="Контур 418" d="M31.9,414.74v31.9l31.91-31.9Z" fill="#f8f7f7"/>
        <path id="Контур_419" data-name="Контур 419" d="M223.32,382.84v31.9h31.9Z" fill="#f0f0f0"/>
        <path id="Контур_420" data-name="Контур 420" d="M223.32,382.84h0l-31.9,31.9h31.9Z" fill="#e7e6e6"/>
        <path id="Контур_421" data-name="Контур 421" d="M191.42,414.74l31.9,31.9h0v-31.9Z" fill="#fff"/>
        <path id="Контур_422" data-name="Контур 422" d="M223.32,414.74v31.9l31.9-31.9Z" fill="#f8f7f7"/>
        <path id="Контур_423" data-name="Контур 423" d="M287.13,382.84v31.9h31.9Z" fill="#f0f0f0"/>
        <path id="Контур_424" data-name="Контур 424" d="M287.13,382.84h0l-31.91,31.9h31.91Z" fill="#e7e6e6"/>
        <path id="Контур_425" data-name="Контур 425" d="M255.22,414.74l31.91,31.9h0v-31.9Z" fill="#fff"/>
        <path id="Контур_426" data-name="Контур 426" d="M287.13,414.74v31.9l31.9-31.9Z" fill="#f8f7f7"/>
        <path id="Контур_427" data-name="Контур 427" d="M350.93,382.84v31.9h31.91Z" fill="#f0f0f0"/>
        <path id="Контур_428" data-name="Контур 428" d="M350.93,382.84h0l-31.9,31.9h31.9Z" fill="#e7e6e6"/>
        <path id="Контур_429" data-name="Контур 429" d="M319.03,414.74l31.9,31.9h0v-31.9Z" fill="#fff"/>
        <path id="Контур_430" data-name="Контур 430" d="M350.93,414.74v31.9l31.91-31.9Z" fill="#f8f7f7"/>
        <path id="Контур_431" data-name="Контур 431" d="M414.74,382.84v31.9h31.9Z" fill="#f0f0f0"/>
        <path id="Контур_432" data-name="Контур 432" d="M414.74,382.84h0l-31.9,31.9h31.9Z" fill="#e7e6e6"/>
        <path id="Контур_433" data-name="Контур 433" d="M382.84,414.74l31.9,31.9h0v-31.9Z" fill="#fff"/>
        <path id="Контур_434" data-name="Контур 434" d="M414.74,414.74v31.9l31.9-31.9Z" fill="#f8f7f7"/>
        <path id="Контур_435" data-name="Контур 435" d="M478.55,382.84v31.9h31.9Z" fill="#f0f0f0"/>
        <path id="Контур_436" data-name="Контур 436" d="M478.55,382.84h0l-31.91,31.9h31.91Z" fill="#e7e6e6"/>
        <path id="Контур_437" data-name="Контур 437" d="M446.64,414.74l31.91,31.9h0v-31.9Z" fill="#fff"/>
        <path id="Контур_438" data-name="Контур 438" d="M478.55,414.74v31.9l31.9-31.9Z" fill="#f8f7f7"/>
        <path id="Контур_439" data-name="Контур 439" d="M63.81,414.74v31.9h31.9Z" fill="#f0f0f0"/>
        <path id="Контур_440" data-name="Контур 440" d="M63.81,414.74h0L31.9,446.64H63.81Z" fill="#e7e6e6"/>
        <path id="Контур_441" data-name="Контур 441" d="M31.9,446.64l31.91,31.91h0V446.64Z" fill="#fff"/>
        <path id="Контур_442" data-name="Контур 442" d="M63.81,446.64v31.91l31.9-31.91Z" fill="#f8f7f7"/>
        <path id="Контур_443" data-name="Контур 443" d="M127.61,414.74v31.9h31.9Z" fill="#f0f0f0"/>
        <path id="Контур_444" data-name="Контур 444" d="M127.61,414.74h0l-31.9,31.9h31.9Z" fill="#e7e6e6"/>
        <path id="Контур_445" data-name="Контур 445" d="M95.71,446.64l31.9,31.91h0V446.64Z" fill="#fff"/>
        <path id="Контур_446" data-name="Контур 446" d="M127.61,446.64v31.91l31.9-31.91Z" fill="#f8f7f7"/>
        <path id="Контур_447" data-name="Контур 447" d="M0,414.74v31.9H31.9Z" fill="#f0f0f0"/>
        <path id="Контур_448" data-name="Контур 448" d="M0,446.64v31.91l31.9-31.91Z" fill="#f8f7f7"/>
        <path id="Контур_449" data-name="Контур 449" d="M191.42,414.74v31.9h31.9Z" fill="#f0f0f0"/>
        <path id="Контур_450" data-name="Контур 450" d="M191.42,414.74h0l-31.91,31.9h31.91Z" fill="#e7e6e6"/>
        <path id="Контур_451" data-name="Контур 451" d="M159.51,446.64l31.91,31.91h0V446.64Z" fill="#fff"/>
        <path id="Контур_452" data-name="Контур 452" d="M191.42,446.64v31.91l31.9-31.91Z" fill="#f8f7f7"/>
        <path id="Контур_453" data-name="Контур 453" d="M255.22,414.74v31.9h31.91Z" fill="#f0f0f0"/>
        <path id="Контур_454" data-name="Контур 454" d="M255.22,414.74h0l-31.9,31.9h31.9Z" fill="#e7e6e6"/>
        <path id="Контур_455" data-name="Контур 455" d="M223.32,446.64l31.9,31.91h0V446.64Z" fill="#fff"/>
        <path id="Контур_456" data-name="Контур 456" d="M255.22,446.64v31.91l31.91-31.91Z" fill="#f8f7f7"/>
        <path id="Контур_457" data-name="Контур 457" d="M319.03,414.74v31.9h31.9Z" fill="#f0f0f0"/>
        <path id="Контур_458" data-name="Контур 458" d="M319.03,414.74h0l-31.9,31.9h31.9Z" fill="#e7e6e6"/>
        <path id="Контур_459" data-name="Контур 459" d="M287.13,446.64l31.9,31.91h0V446.64Z" fill="#fff"/>
        <path id="Контур_460" data-name="Контур 460" d="M319.03,446.64v31.91l31.9-31.91Z" fill="#f8f7f7"/>
        <path id="Контур_461" data-name="Контур 461" d="M382.84,414.74v31.9h31.9Z" fill="#f0f0f0"/>
        <path id="Контур_462" data-name="Контур 462" d="M382.84,414.74h0l-31.91,31.9h31.91Z" fill="#e7e6e6"/>
        <path id="Контур_463" data-name="Контур 463" d="M350.93,446.64l31.91,31.91h0V446.64Z" fill="#fff"/>
        <path id="Контур_464" data-name="Контур 464" d="M382.84,446.64v31.91l31.9-31.91Z" fill="#f8f7f7"/>
        <path id="Контур_465" data-name="Контур 465" d="M446.64,414.74v31.9h31.91Z" fill="#f0f0f0"/>
        <path id="Контур_466" data-name="Контур 466" d="M446.64,414.74h0l-31.9,31.9h31.9Z" fill="#e7e6e6"/>
        <path id="Контур_467" data-name="Контур 467" d="M414.74,446.64l31.9,31.91h0V446.64Z" fill="#fff"/>
        <path id="Контур_468" data-name="Контур 468" d="M446.64,446.64v31.91l31.91-31.91Z" fill="#f8f7f7"/>
        <path id="Контур_469" data-name="Контур 469" d="M510.45,414.74h0l-31.9,31.9h31.9Z" fill="#e7e6e6"/>
        <path id="Контур_470" data-name="Контур 470" d="M478.55,446.64l31.9,31.91h0V446.64Z" fill="#fff"/>
        <path id="Контур_471" data-name="Контур 471" d="M95.71,446.64v31.91h31.9Z" fill="#f0f0f0"/>
        <path id="Контур_472" data-name="Контур 472" d="M95.71,446.64h0l-31.9,31.91h31.9Z" fill="#e7e6e6"/>
        <path id="Контур_473" data-name="Контур 473" d="M63.81,478.55l31.9,31.9h0v-31.9Z" fill="#fff"/>
        <path id="Контур_474" data-name="Контур 474" d="M95.71,478.55v31.9l31.9-31.9Z" fill="#f8f7f7"/>
        <path id="Контур_475" data-name="Контур 475" d="M159.51,446.64v31.91h31.91Z" fill="#f0f0f0"/>
        <path id="Контур_476" data-name="Контур 476" d="M159.51,446.64h0l-31.9,31.91h31.9Z" fill="#e7e6e6"/>
        <path id="Контур_477" data-name="Контур 477" d="M127.61,478.55l31.9,31.9h0v-31.9Z" fill="#fff"/>
        <path id="Контур_478" data-name="Контур 478" d="M159.51,478.55v31.9l31.91-31.9Z" fill="#f8f7f7"/>
        <path id="Контур_479" data-name="Контур 479" d="M31.9,446.64v31.91H63.81Z" fill="#f0f0f0"/>
        <path id="Контур_480" data-name="Контур 480" d="M31.9,446.64h0L0,478.55H31.9Z" fill="#e7e6e6"/>
        <path id="Контур_481" data-name="Контур 481" d="M0,478.55l31.9,31.9h0v-31.9Z" fill="#fff"/>
        <path id="Контур_482" data-name="Контур 482" d="M31.9,478.55v31.9l31.91-31.9Z" fill="#f8f7f7"/>
        <path id="Контур_483" data-name="Контур 483" d="M223.32,446.64v31.91h31.9Z" fill="#f0f0f0"/>
        <path id="Контур_484" data-name="Контур 484" d="M223.32,446.64h0l-31.9,31.91h31.9Z" fill="#e7e6e6"/>
        <path id="Контур_485" data-name="Контур 485" d="M191.42,478.55l31.9,31.9h0v-31.9Z" fill="#fff"/>
        <path id="Контур_486" data-name="Контур 486" d="M223.32,478.55v31.9l31.9-31.9Z" fill="#f8f7f7"/>
        <path id="Контур_487" data-name="Контур 487" d="M287.13,446.64v31.91h31.9Z" fill="#f0f0f0"/>
        <path id="Контур_488" data-name="Контур 488" d="M287.13,446.64h0l-31.91,31.91h31.91Z" fill="#e7e6e6"/>
        <path id="Контур_489" data-name="Контур 489" d="M255.22,478.55l31.91,31.9h0v-31.9Z" fill="#fff"/>
        <path id="Контур_490" data-name="Контур 490" d="M287.13,478.55v31.9l31.9-31.9Z" fill="#f8f7f7"/>
        <path id="Контур_491" data-name="Контур 491" d="M350.93,446.64v31.91h31.91Z" fill="#f0f0f0"/>
        <path id="Контур_492" data-name="Контур 492" d="M350.93,446.64h0l-31.9,31.91h31.9Z" fill="#e7e6e6"/>
        <path id="Контур_493" data-name="Контур 493" d="M319.03,478.55l31.9,31.9h0v-31.9Z" fill="#fff"/>
        <path id="Контур_494" data-name="Контур 494" d="M350.93,478.55v31.9l31.91-31.9Z" fill="#f8f7f7"/>
        <path id="Контур_495" data-name="Контур 495" d="M414.74,446.64v31.91h31.9Z" fill="#f0f0f0"/>
        <path id="Контур_496" data-name="Контур 496" d="M414.74,446.64h0l-31.9,31.91h31.9Z" fill="#e7e6e6"/>
        <path id="Контур_497" data-name="Контур 497" d="M382.84,478.55l31.9,31.9h0v-31.9Z" fill="#fff"/>
        <path id="Контур_498" data-name="Контур 498" d="M414.74,478.55v31.9l31.9-31.9Z" fill="#f8f7f7"/>
        <path id="Контур_499" data-name="Контур 499" d="M478.55,446.64v31.91h31.9Z" fill="#f0f0f0"/>
        <path id="Контур_500" data-name="Контур 500" d="M478.55,446.64h0l-31.91,31.91h31.91Z" fill="#e7e6e6"/>
        <path id="Контур_501" data-name="Контур 501" d="M446.64,478.55l31.91,31.9h0v-31.9Z" fill="#fff"/>
        <path id="Контур_502" data-name="Контур 502" d="M478.55,478.55v31.9l31.9-31.9Z" fill="#f8f7f7"/>
        <path id="Контур_503" data-name="Контур 503" d="M63.81,478.55v31.9h31.9Z" fill="#f0f0f0"/>
        <path id="Контур_504" data-name="Контур 504" d="M63.81,478.55h0L31.9,510.45H63.81Z" fill="#e7e6e6"/>
        <path id="Контур_505" data-name="Контур 505" d="M127.61,478.55v31.9h31.9Z" fill="#f0f0f0"/>
        <path id="Контур_506" data-name="Контур 506" d="M127.61,478.55h0l-31.9,31.9h31.9Z" fill="#e7e6e6"/>
        <path id="Контур_507" data-name="Контур 507" d="M0,478.55v31.9H31.9Z" fill="#f0f0f0"/>
        <path id="Контур_508" data-name="Контур 508" d="M191.42,478.55v31.9h31.9Z" fill="#f0f0f0"/>
        <path id="Контур_509" data-name="Контур 509" d="M191.42,478.55h0l-31.91,31.9h31.91Z" fill="#e7e6e6"/>
        <path id="Контур_510" data-name="Контур 510" d="M255.22,478.55v31.9h31.91Z" fill="#f0f0f0"/>
        <path id="Контур_511" data-name="Контур 511" d="M255.22,478.55h0l-31.9,31.9h31.9Z" fill="#e7e6e6"/>
        <path id="Контур_512" data-name="Контур 512" d="M319.03,478.55v31.9h31.9Z" fill="#f0f0f0"/>
        <path id="Контур_513" data-name="Контур 513" d="M319.03,478.55h0l-31.9,31.9h31.9Z" fill="#e7e6e6"/>
        <path id="Контур_514" data-name="Контур 514" d="M382.84,478.55v31.9h31.9Z" fill="#f0f0f0"/>
        <path id="Контур_515" data-name="Контур 515" d="M382.84,478.55h0l-31.91,31.9h31.91Z" fill="#e7e6e6"/>
        <path id="Контур_516" data-name="Контур 516" d="M446.64,478.55v31.9h31.91Z" fill="#f0f0f0"/>
        <path id="Контур_517" data-name="Контур 517" d="M446.64,478.55h0l-31.9,31.9h31.9Z" fill="#e7e6e6"/>
        <path id="Контур_518" data-name="Контур 518" d="M510.45,478.55h0l-31.9,31.9h31.9Z" fill="#e7e6e6"/>
      </g>
      <g id="white_line" data-name="white line">
        <path id="Контур_519" data-name="Контур 519" d="M493.86,493.86c-2.66,2.66-5.29,5.36-7.84,8.13s-5.07,5.54-7.47,8.46c2.91-2.41,5.72-4.92,8.45-7.48s5.47-5.17,8.14-7.83,5.28-5.36,7.83-8.14,5.07-5.54,7.48-8.49c-2.92,2.41-5.73,4.92-8.5,7.47S496.52,491.2,493.86,493.86Z" fill="#fff"/>
        <path id="Контур_520" data-name="Контур 520" d="M16.59,16.59c2.66-2.66,5.29-5.36,7.84-8.09S29.5,2.92,31.9,0C29,2.41,26.18,4.92,23.41,7.47s-5.47,5.18-8.13,7.84S10,20.67,7.44,23.44,2.41,29,0,31.9c2.92-2.4,5.72-4.9,8.46-7.47S13.93,19.25,16.59,16.59Z" fill="#fff"/>
        <path id="Контур_521" data-name="Контур 521" d="M510.45,31.9,480.37,61.65,479,63.08c-1.28-1.28-2.52-2.56-3.8-3.83l-11.92-12-12-11.92c-1.28-1.28-2.56-2.52-3.83-3.79l1.42-1.42L478.55,0,448.47,29.75,447,31.17c-2.62-2.58-5.25-5.17-7.87-7.73C431.11,15.57,423,7.73,414.74,0c7.69,8.24,15.53,16.37,23.41,24.43,2.55,2.62,5.14,5.25,7.73,7.87L418.42,59.5,415,62.89l-3.68-3.64C404.68,52.65,398,46,391.3,39.41c-2.63-2.58-5.22-5.14-7.84-7.69l5.5-5.58L414.74,0,388.63,25.74l-5.57,5.51c-4-3.9-7.92-7.77-11.89-11.63l-10.1-9.81L356,4.89,350.93,0l4.89,5.07,4.92,5.07,9.81,10.1c3.86,4,7.77,7.91,11.63,11.88l-19.62,19.4L351.12,62.89l-.66-.65-7-6.93L319.58,31.76l9.55-9.7L340,11,350.9,0l-11,10.87-11.05,10.9-9.7,9.55-3.79-3.72L301.24,13.78l-7-6.89L287.13,0,294,7.07l6.89,7,13.82,14.11L318.45,32,306.74,43.53l-19.58,19.4L259.49,35.55l-3.72-3.68,13.56-13.79,8.9-9,8.9-9-9.08,8.86-9,8.9-13.79,13.6L241.44,17.79l-9-8.89L223.32,0l8.86,9.08,8.9,9L254.64,31.9l-3.72,3.69L223.25,63,203.67,43.6,192,32l3.71-3.75,13.79-14.1,6.89-7L223.32,0l-7.07,6.89-7,6.89L195.1,27.6l-3.79,3.72-9.7-9.55-11.05-10.9L159.52,0l10.86,11.05,10.9,11.05,9.55,9.69L167,55.35l-7,6.92-.65.66-11.5-11.37-19.62-19.4q5.85-5.91,11.63-11.89l9.81-10.1,4.92-5.07L159.52,0l-5.07,4.89-5.07,4.92-10.1,9.81c-4,3.86-7.91,7.76-11.89,11.63l-5.58-5.51L95.71,0l25.74,26.11L127,31.68c-2.63,2.56-5.22,5.15-7.84,7.7q-10.07,9.9-20.06,19.83l-3.68,3.65L92,59.5,64.54,32.3c2.58-2.62,5.14-5.21,7.72-7.87C80.14,16.37,88,8.24,95.67,0,87.43,7.69,79.3,15.53,71.24,23.41,68.62,26,66,28.55,63.37,31.14L62,29.72,31.9,0,61.65,30.08l1.43,1.42c-1.28,1.28-2.56,2.52-3.83,3.79l-12,11.93-11.92,12c-1.28,1.28-2.52,2.55-3.79,3.83l-1.42-1.42L0,31.9,29.75,62l1.42,1.43C28.59,66,26,68.66,23.44,71.28,15.57,79.34,7.73,87.47,0,95.71Q12.36,84.18,24.43,72.26c2.62-2.55,5.25-5.14,7.87-7.72L59.5,92l3.36,3.39-3.65,3.68q-9.9,10-19.83,20.06c-2.59,2.62-5.14,5.21-7.7,7.84l-5.57-5.51L0,95.71l25.74,26.1,5.51,5.58c-3.9,4-7.77,7.92-11.63,11.89l-9.81,10.1-4.92,5.07L0,159.52l5.07-4.89,5.07-4.92,10.1-9.81c4-3.87,7.91-7.77,11.88-11.63l19.4,19.61,11.37,11.45c-2.51,2.56-5.06,5.11-7.58,7.66L31.76,190.83l-9.7-9.55-11-10.9L0,159.52l10.87,11,10.9,11.05,9.55,9.7L27.6,195.1,13.78,209.21l-6.89,7L0,223.32l7.07-6.89,7-6.89,14.11-13.82L32,192l11.55,11.71,19.4,19.57L35.55,251l-3.68,3.72L18.08,241.11l-9-8.89-9-8.9,8.86,9.08,8.9,9,13.6,13.78L17.79,269,8.9,278,0,287.13l9.08-8.86,9-8.9L31.9,255.81l3.69,3.75L63,287.24,43.6,306.82,32,318.52l-3.79-3.72L14.11,301l-7-6.89-7.07-7,6.89,7.07,6.89,7L27.6,315.35l3.72,3.79-9.55,9.7L0,350.93l22.1-21.76,9.69-9.56,23.56,23.85,6.92,7,.66.65L51.56,362.6l-19.4,19.62q-5.91-5.85-11.89-11.63l-10.1-9.81L5.1,355.86,0,350.93,4.89,356l4.92,5.07,9.81,10.1c3.86,4,7.76,7.91,11.63,11.89l-5.51,5.57L0,414.74,26.11,389l5.57-5.51c2.56,2.63,5.15,5.22,7.73,7.84C46,398,52.65,404.71,59.25,411.39l3.64,3.68-3.35,3.39-27.2,27.45c-2.62-2.59-5.25-5.14-7.87-7.73C16.41,430.31,8.28,422.47,0,414.78c7.69,8.24,15.53,16.37,23.4,24.42,2.56,2.63,5.15,5.26,7.73,7.88l-1.42,1.42L0,478.55l30.08-29.76,1.42-1.42c1.28,1.28,2.52,2.55,3.79,3.83l11.93,12,12,11.92c1.28,1.27,2.55,2.51,3.83,3.79l-1.42,1.42L31.9,510.45,62,480.7l1.43-1.43c2.62,2.59,5.25,5.18,7.87,7.73q12.09,11.82,24.43,23.45Q84.18,498.09,72.26,486c-2.55-2.63-5.14-5.25-7.72-7.88L92,451l3.39-3.36,3.68,3.65q10,9.9,20.06,19.83L127,478.8l-5.51,5.58L95.71,510.49l26.1-25.75,5.58-5.5c4,3.9,7.92,7.76,11.89,11.63l10.1,9.81,5.07,4.92,5.07,4.89h0l22.09-21.77,9.7-9.55,3.79,3.71,14.11,13.82,7,6.89,7.07,6.9-6.89-7.08-6.89-7-13.82-14.12L192,478.47l11.71-11.56,19.57-19.39L251,474.9l3.75,3.68-13.56,13.78-8.9,9.05-8.86,9.08,9.08-8.86,9.05-8.9,13.7-13.64L269,492.66l9,8.89,9.08,8.86-8.86-9.08-8.9-9-13.56-13.78,3.75-3.68,27.68-27.39,19.58,19.4,11.7,11.56-3.72,3.79L301,496.3l-6.89,7-6.89,7.07,7.07-6.89,7-6.89,14.11-13.82,3.79-3.72,9.7,9.56L351,510.41l-21.77-22.09-9.55-9.7,23.84-23.56q3.83-3.76,7.66-7.58l11.45,11.38,19.61,19.39c-3.9,3.94-7.76,7.92-11.63,11.89l-9.81,10.1-4.92,5.07L351,510.38l5.06-4.89,5.07-4.92,10.1-9.81c4-3.86,7.91-7.77,11.89-11.63l5.58,5.5,26.1,25.75-25.74-26.11-5.5-5.58c2.62-2.55,5.21-5.14,7.83-7.73q10.07-9.9,20.06-19.83l3.68-3.65,3.39,3.36L446,478c-2.59,2.62-5.14,5.25-7.73,7.87Q426.44,498,414.81,510.34q12.36-11.54,24.43-23.45c2.63-2.55,5.25-5.14,7.88-7.72l1.42,1.42,30.08,29.75-29.75-30.08-1.43-1.42c1.28-1.28,2.56-2.52,3.83-3.79l12-11.93,11.92-12c1.28-1.28,2.52-2.56,3.79-3.83l1.43,1.42,30.08,29.75-29.76-30.08L479.31,447c2.59-2.62,5.18-5.25,7.73-7.87,7.88-8.06,15.72-16.19,23.41-24.43-8.24,7.69-16.37,15.53-24.43,23.4-2.63,2.56-5.25,5.15-7.88,7.73L451,418.35,447.59,415l3.65-3.68q9.9-10,19.83-20.06l7.73-7.84,5.58,5.51,26.11,25.74-25.75-26.11-5.5-5.57c3.9-4,7.76-7.92,11.63-11.89l9.81-10.1,4.92-5.07,4.89-5.07h0l-21.77-22.09-9.55-9.7,3.71-3.79,13.82-14.11,6.89-7,6.9-7.07-7.08,6.89-7,6.89L482.29,314.7l-3.79,3.72-11.56-11.71-19.39-19.58,27.38-27.67,3.68-3.75,13.78,13.56,9.05,8.89,9.08,8.86-8.86-9.07-8.9-9.05-13.64-13.6,13.57-13.78,8.89-9,8.86-9.08-9.08,8.86-9,8.9-13.78,13.56-3.68-3.72-27.39-27.67,19.4-19.58L478.4,192l3.76,3.71,14.11,13.82,7,6.89,7.08,6.89-6.9-7.07-6.89-7-13.81-14.11-3.72-3.79,9.55-9.7,10.9-11,10.87-11.05L499.3,170.45l-11.05,10.91-9.7,9.55L455,167c-2.52-2.55-5-5.1-7.59-7.65l11.38-11.45,19.4-19.62q5.91,5.85,11.88,11.63l10.1,9.81,5.07,4.92,5.07,4.89-4.89-5.07-4.92-5.07-9.81-10.1c-3.86-4-7.76-7.91-11.63-11.88l5.51-5.58,25.74-26.11L484.2,121.46l-5.58,5.51c-2.55-2.63-5.14-5.21-7.69-7.84q-9.9-10.06-19.83-20l-3.65-3.69L450.84,92,478,64.5c2.62,2.59,5.25,5.14,7.87,7.73C494,80.1,502.1,87.94,510.34,95.67Q498.8,83.31,486.89,71.24c-2.55-2.62-5.14-5.25-7.72-7.87L480.59,62ZM363.22,52.18l19.4-19.62c2.55,2.62,5.14,5.21,7.69,7.84,6.6,6.71,13.24,13.38,19.84,20.05l3.64,3.65L383.06,94.65,371.5,83.13l-14-13.93-5.65-5.58Zm34.93,346-15.5,15.53-23.22-23.37L352.1,383l15.46-15.43L383,352.06l7.37,7.33,23.37,23.23ZM415,383.89l30.73,30.56-15.64,15.6-15.6,15.64L383.89,415l15.57-15.5ZM112.3,398.15l-15.53-15.5,23.37-23.22,7.36-7.33,15.43,15.42L158.38,383l-7.32,7.36-23.23,23.37ZM126.55,415,96,445.69,80.4,430.05l-15.65-15.6,30.74-30.56L111,399.46ZM112.3,112.3l15.49-15.53L151,120.14l7.33,7.36-15.42,15.43L127.5,158.38l-7.36-7.32L96.77,127.83ZM95.49,126.55,64.72,96,80.36,80.4,96,64.75l30.56,30.74L111,111Zm234.88-18.26,19.4,19.43-30.7,30.59L291.68,131l-3.46-3.42,23.26-23.38,7.37-7.43ZM320.09,95.6l30.66-30.88,5.62,5.65,13.92,14,11.53,11.56-23.41,23.22L351,126.48l-19.43-19.4Zm14.25,238.74L319,349.73l-19.28-19.36L288.37,319l15.35-15.31L319,288.37l11.34,11.34L349.73,319ZM351,320.23l30.7,30.59-15.46,15.43-15.43,15.46L320.23,351l15.39-15.39ZM176.1,334.34,160.72,319l19.36-19.29,11.34-11.34,15.31,15.35L222.08,319l-11.34,11.38-19.29,19.36ZM190.22,351l-30.6,30.7L144.2,366.25l-15.46-15.43,30.7-30.59,15.39,15.39ZM176.1,176.1l15.35-15.38,19.29,19.36,11.34,11.34-15.35,15.31-15.31,15.35-11.34-11.34-19.36-19.29Zm-16.66,14.12-30.7-30.6L144.2,144.2l15.42-15.46,30.6,30.7-15.39,15.39Zm126.45,1.2-30.67,30.63-30.66-30.63,30.66-30.7Zm-29.43-31.9,3.36-3.4,27.23-27.38,3.43,3.43,27.31,27.35L298.43,178.8l-11.34,11.34Zm14.08,111-15.32,15.31-15.31-15.31-15.31-15.3,15.31-15.31,15.31-15.31,15.32,15.31,15.31,15.31Zm16.59-14,30.66,30.63-15.35,15.31-15.31,15.35L256.5,287.13l15.31-15.32ZM254,287.13l-30.63,30.66L208,302.44l-15.35-15.31,30.66-30.63,15.31,15.31ZM223.32,254l-30.66-30.63L208,208l15.31-15.35L254,223.32l-15.32,15.31Zm48.49-15.32L256.5,223.32l30.63-30.66L302.44,208l15.35,15.31L287.13,254Zm-48.49-48.45L212,178.84l-19.36-19.29,27.31-27.34,3.43-3.43,27.23,27.38,3.36,3.39ZM178.84,212l11.34,11.34L159.52,254l-3.4-3.39-27.38-27.24c1.17-1.13,2.3-2.29,3.43-3.42l27.38-27.31Zm12.58,12.58,30.63,30.66-30.63,30.67-30.67-30.67Zm-1.24,62.57-11.34,11.34-19.29,19.36-27.38-27.31-3.46-3.43,27.38-27.24,3.39-3.35ZM212,331.61l11.34-11.34L254,350.93l-3.39,3.39-27.24,27.39c-1.13-1.17-2.29-2.3-3.42-3.47l-27.31-27.38ZM224.56,319l30.66-30.63L285.89,319l-30.67,30.66Zm62.57,1.24,11.34,11.34,19.36,19.29-27.31,27.38c-1.13,1.17-2.3,2.3-3.43,3.46l-27.24-27.38L256.46,351Zm44.48-21.8L320.27,287.1l30.66-30.7,3.39,3.35L381.71,287l-3.47,3.43-27.38,27.3ZM319,285.89l-30.6-30.67L319,224.56l30.7,30.66Zm1.24-62.57L331.61,212l19.29-19.36,27.38,27.31c1.17,1.13,2.3,2.3,3.43,3.43l-27.39,27.23L350.93,254Zm10.1-12.58L319,222.08l-15.31-15.35-15.35-15.31,11.34-11.34L319,160.72l15.35,15.38,15.39,15.35Zm5.25-35.91L320.2,159.44l30.59-30.7,15.43,15.46,15.46,15.42L351,190.22Zm-25.05-71.65L287.2,126.45l-17.43-17.36L256.28,95.71l7.44-7.48,23.37-23.55,7.55,7.62,17.86,18,5.5,5.55Zm-42,7L286,127.65l-27.38,27.23-3.39,3.4-3.39-3.4-27.38-27.23,17.35-17.43,13.38-13.49Zm-27.9-1.13-17.43,17.36-23.4-23.27-7.44-7.36,5.5-5.54,17.87-18,7.55-7.62L246.73,88.2l7.44,7.47Zm-41.82-4.92,23.26,23.37-3.39,3.5-27.38,27.31-30.7-30.59L180,108.25l11.44-11.52Zm-20,2.88-19.43,19.4-7.37-7.3L128.67,95.89l11.52-11.56,13.93-14,5.61-5.65L190.4,95.56Zm-59.69,45,7.33,7.37-19.4,19.43c-3.82,3.83-7.65,7.69-11.48,11.52L64.72,159.7q9.84-9.735,19.65-19.51l11.56-11.52Zm-10.86,28,19.43-19.4,30.59,30.7L131,218.76c-1.13,1.17-2.29,2.3-3.42,3.47L104.2,199l-7.43-7.37q5.73-5.88,11.52-11.55Zm-5.11,19.8,23.27,23.37q-15.37,15.48-30.78,30.92l-7.44-7.4L64.68,223.39l7.62-7.54q11.82-11.65,23.55-23.37Zm24.47,24.61L154.9,251.8l3.39,3.39-3.39,3.39L127.69,286l-17.43-17.35L96.77,255.3q15.47-15.48,30.88-30.81Zm-18.56,45.25,17.36,17.42L103.16,310.5,95.82,318l-5.54-5.54-18-17.87-7.62-7.55L88.2,263.68c2.48-2.48,5-5,7.47-7.43Zm-4.92,41.82,23.37-23.27,3.43,3.47,27.31,27.38-30.59,30.7-19.4-19.47-11.5-11.38Zm2.88,20.05L126.45,351l-7.3,7.37L95.93,381.78,84.37,370.26l-14-13.89-5.65-5.62L95.6,320.09Zm45,59.69,7.37-7.33,19.43,19.39,11.52,11.49L159.7,445.73q-9.735-9.84-19.51-19.65l-11.52-11.56Zm28,10.86-19.4-19.43,30.7-30.59,27.38,27.31c1.17,1.13,2.3,2.29,3.47,3.42L199,406.24l-7.37,7.44c-3.93-3.83-7.76-7.68-11.55-11.52Zm19.8,5.11L223.25,384q15.48,15.38,30.92,30.78c-2.48,2.48-5,5-7.4,7.47L223.39,445.8l-7.54-7.62q-11.65-11.81-23.37-23.55Zm24.57-24.47,27.38-27.27,3.39-3.39,3.4,3.39L286,382.8l-30.78,30.88q-15.36-15.48-30.77-30.88ZM287.16,384l23.38,23.26,7.43,7.36q-11.7,11.76-23.37,23.56l-7.55,7.62-23.37-23.56c-2.48-2.48-5-5-7.4-7.47Q271.76,399.37,287.16,384Zm24.4,22.31-23.27-23.37c1.17-1.13,2.3-2.3,3.47-3.43l27.38-27.31,30.7,30.59-19.4,19.44c-3.83,3.83-7.65,7.69-11.45,11.52Zm20.05-2.88L351,384l7.37,7.33,23.37,23.23-11.52,11.56c-6.49,6.56-13,13.08-19.51,19.65l-30.66-30.88c3.87-3.89,7.69-7.7,11.56-11.49Zm59.69-45L384,351l19.39-19.43,11.49-11.52,30.88,30.66-5.65,5.62-14,13.92-11.56,11.53Zm10.86-28-19.43,19.4-30.59-30.7,27.31-27.39,3.42-3.46,23.37,23.26,7.44,7.37Zm5.11-19.8L384,287.2l17.36-17.43,13.38-13.49,7.47,7.44,23.56,23.37-7.62,7.55-18,17.86-5.56,5.5Zm-7-42L382.8,286l-27.24-27.38-3.39-3.39,3.39-3.39,27.28-27.38q15.42,15.36,30.92,30.77ZM384,223.28l23.26-23.37,7.36-7.43q11.76,11.7,23.56,23.37l7.62,7.54-23.56,23.38-7.47,7.43Q399.37,238.68,384,223.28Zm22.31-24.39-23.37,23.26c-1.13-1.16-2.3-2.29-3.43-3.46L352.2,191.31l30.59-30.7L402.2,180c3.83,3.82,7.69,7.65,11.52,11.44Zm-2.88-20L384,159.41l7.33-7.37,23.23-23.37,11.56,11.52c6.56,6.49,13.08,13,19.65,19.51l-30.88,30.66q-5.8-5.74-11.49-11.52Zm-13.09-27.78L383,158.38l-15.43-15.45L352.06,127.5l7.33-7.36,23.23-23.37,15.53,15.53,15.53,15.49Zm9.12-40L383.89,95.53l30.56-30.74,15.6,15.64L445.69,96l-30.77,30.55Zm-92-66.83L319,32.49l23.55,23.84,6.93,7,.62.65L319.18,94.69l-5.55-5.51-18-17.86L288,63.77Zm-55.86-8,3.68-3.72,3.69,3.72,27.38,27.63-23.61,23.3-7.52,7.48-7.47-7.44L224.2,63.88ZM161.05,63.33l6.92-7,23.56-23.85,11.56,11.7,19.39,19.58-7.62,7.55-18,17.87-5.54,5.5L160.43,64ZM100.3,60.42c6.6-6.68,13.24-13.35,19.84-20.06,2.59-2.59,5.14-5.21,7.69-7.84l19.4,19.62L158.6,63.59,153,69.2,139,83.13,127.39,94.65,96.66,64.1Zm-40.18,31L32.67,64.21c1.27-1.28,2.55-2.52,3.83-3.79l12-11.93,11.93-12c1.23-1.28,2.51-2.56,3.79-3.83l27.2,27.45,3.35,3.39L79.12,79.12,63.51,94.76Zm-7.94,55.82-19.62-19.4c2.62-2.55,5.21-5.14,7.84-7.69,6.71-6.6,13.38-13.24,20.05-19.84l3.68-3.64,30.59,30.77L83.13,139q-9.735,9.84-19.51,19.65Zm-8,55.82L32.48,191.5l23.84-23.55c2.55-2.52,5.11-5,7.66-7.59l30.66,30.89Q82.95,203,71.28,214.79l-7.55,7.62Zm-8,55.86-3.72-3.69,3.72-3.68,27.63-27.38,23.37,23.59,7.44,7.47c-2.48,2.48-5,5-7.44,7.48L63.84,286.25ZM63.33,349.4l-7-6.93L32.45,318.92l11.7-11.56L63.73,288l7.55,7.62,17.87,18,5.5,5.54L64,350Zm-2.91,60.75c-6.68-6.6-13.35-13.24-20.06-19.84-2.62-2.59-5.21-5.14-7.84-7.69l19.62-19.4,11.45-11.37,5.61,5.65,13.93,14,11.52,11.56L64.1,413.79Zm31,40.18-27.2,27.45c-1.28-1.28-2.52-2.55-3.79-3.83L48.49,462,36.5,450c-1.28-1.24-2.56-2.51-3.83-3.79L60.12,419l3.39-3.35,15.61,15.64,15.64,15.6Zm28.73,19.76c-6.6-6.71-13.24-13.38-19.84-20.06l-3.64-3.68,30.77-30.59L139,427.28q9.84,9.735,19.65,19.51l-11.38,11.45-19.39,19.61c-2.6-2.55-5.15-5.17-7.74-7.76Zm61.14,18.26-21.76,22.1-4.89-5.07-4.92-5.07-9.81-10.1c-3.87-4-7.77-7.91-11.63-11.88l19.61-19.4,11.45-11.38c2.56,2.52,5.11,5.07,7.66,7.59l23.84,23.55Zm21.81-22.09L191.53,478,168,454.12q-3.76-3.84-7.58-7.66L191.3,415.8q11.76,11.7,23.56,23.37l7.62,7.55Zm55.82,8-3.7,3.74-3.68-3.72-27.38-27.63,23.55-23.38c2.48-2.47,5-5,7.48-7.43,2.48,2.48,5,5,7.47,7.43l23.56,23.38Zm83.56-20.12L318.92,478l-11.56-11.7L288,446.68l7.62-7.55q11.81-11.64,23.55-23.37L350,446.42q-3.735,3.87-7.53,7.7ZM410.15,450c-6.6,6.68-13.24,13.35-19.84,20.06-2.59,2.62-5.14,5.21-7.69,7.84l-19.4-19.62-11.37-11.45c6.56-6.49,13.08-13,19.65-19.51l11.56-11.52,30.77,30.59Zm40.18-31,27.45,27.2c-1.28,1.28-2.55,2.52-3.83,3.79L462,462l-12,12c-1.24,1.28-2.51,2.55-3.79,3.83L419,450.33l-3.35-3.4,15.64-15.6,15.6-15.64Zm19.72-28.73c-6.71,6.6-13.38,13.24-20.05,19.84l-3.69,3.64-30.55-30.73,11.52-11.56,13.93-14,5.61-5.66,11.45,11.38,19.62,19.4c-2.59,2.59-5.21,5.14-7.84,7.73Zm18.3-61.14,22.1,21.76-5.07,4.89-5.07,4.92-10.1,9.81c-4,3.86-7.91,7.77-11.88,11.63l-19.4-19.62-11.38-11.44.66-.66,6.93-7,23.55-23.84Zm-22.09-21.81L478,318.92l-23.84,23.55-7,6.93-.66.62-30.66-30.88,5.51-5.54,17.86-18,7.55-7.62Zm8-55.82,3.72,3.68-3.72,3.69-27.67,27.38L423.2,262.74c-2.48-2.52-5-5-7.44-7.48l7.44-7.47,23.37-23.59ZM454.12,168,478,191.53l-11.7,11.56-19.58,19.39-7.55-7.62q-11.64-11.81-23.37-23.55l30.66-30.88Q450.27,164.2,454.12,168ZM450,100.3c6.68,6.6,13.35,13.24,20.06,19.84,2.59,2.59,5.21,5.14,7.84,7.69l-19.62,19.4L446.86,158.6q-9.735-9.84-19.51-19.65l-11.52-11.56,30.59-30.77Zm.3-8.89-3.4,3.35L431.3,79.12,415.69,63.51,419,60.12l27.2-27.45c1.28,1.27,2.52,2.55,3.79,3.83l11.93,12,12,11.93c1.28,1.23,2.55,2.51,3.83,3.79Z" fill="#fff"/>
        <path id="Контур_522" data-name="Контур 522" d="M493.86,16.59c2.66,2.66,5.36,5.29,8.13,7.84s5.54,5.07,8.46,7.47C508,29,505.53,26.18,503,23.44s-5.17-5.46-7.83-8.13S489.78,10,487,7.47,481.46,2.41,478.51,0c2.41,2.92,4.92,5.72,7.47,8.5S491.2,13.93,493.86,16.59Z" fill="#fff"/>
        <path id="Контур_523" data-name="Контур 523" d="M16.59,493.86c-2.66-2.66-5.36-5.29-8.13-7.84S2.92,481,0,478.55c2.41,2.91,4.93,5.72,7.48,8.49s5.18,5.47,7.84,8.13,5.36,5.29,8.13,7.84,5.54,5.07,8.46,7.48c-2.41-2.92-4.93-5.73-7.48-8.46S19.25,496.52,16.59,493.86Z" fill="#fff"/>
      </g>
    </g>
  </g>
</svg>
