<?xml version="1.0" encoding="utf-8"?>
<!-- Generator: Adobe Illustrator 25.2.1, SVG Export Plug-In . SVG Version: 6.00 Build 0)  -->
<svg version="1.1" id="Layer_1" xmlns="http://www.w3.org/2000/svg" xmlns:xlink="http://www.w3.org/1999/xlink" x="0px" y="0px"
	 viewBox="0 0 585.3 600.9" style="enable-background:new 0 0 585.3 600.9;" xml:space="preserve">
<style type="text/css">
	.st0{opacity:0.45;}
	.st1{fill:#0A141F;}
	.st2{opacity:0.449;}
	.st3{fill:#0E1C2B;}
</style>
<g id="Сгруппировать_2518" transform="translate(-1320.367 -6072.673)">
	<g id="Сгруппировать_2428" transform="translate(576.165 6162.032)" class="st0">
		<path id="Контур_4856" class="st1" d="M899.6,203.9c0,0,2-4.8,4.6-7.3s15-6,21.1,0.1s11.3,7,6.9,22.5c-0.6,1.2-1.7,2-3,2.1
			h-0.3c-0.6,0.5-1,1.2-1.2,1.9c0.1,0.9,0.2,1.9,0.4,2.8l-3.7,5v0.8c0,0,2-0.7,2.3,1c0.4,1.4,1,2.8,1.9,4.1l-0.6,1.5
			c1,0.6,2,1.1,3,1.5c0.3,0,4.8,0.7,5.3,0.7s5.3,4.6,6.4,5s1.9,5.7,1.9,5.7l0.8,8.6v14c0,0.7,1.8,17.3,1.8,17.3s0.7,5.5,0,6.2
			s-0.2,5.9-0.7,6.4s-0.5,8.7-0.5,8.7l1.9,2.9v6.6h-4.8c0,0-1.4,7.6-1.4,8.6s-3.6,12-3.6,12.6s0.9,10.2,0.9,10.2v7.7
			c0,2.3-2.3,15.5-2.3,16.8s-1,17.6-1,19.3s-0.8,15.4-0.8,19.1c0,4.1-1.8,5.8-1.8,11.6c0,2.9,0.3,7.3,0.3,8.7s0.3,9.4,0.3,15
			s1.4,8.6,1.4,10.5s1.5,0.6,1.5,2.7s-0.2,8.3-0.2,8.3s-22.4,1.2-28.6,1.2s-14.7-2.5-14.7-2.5s-2.9-7.9,2.7-9.7s7.7-1.9,7.7-1.9
			l2.5-8.3c0,0,0.5-52.1,0-52.6s-3.7-14.9-3.7-14.9s-0.2,7.3-1.4,11.4s-1.2,8.3-1.2,12.4v35.9c0,5.4-0.7,20.6,0,21.3
			s-2.7,4.1-2.7,4.1s-18-1.1-19.7-1.1h-15.8c-3.5,0-6,0.9-6-2s2.3-8.3,5.4-8.3s8.1-2.9,10.2-2.9s1.9-2.3,4.1-4.6s1-2.5,1-9.1
			s-1-22,0-24.9s-3.9,0.4-3.9-7.9V391c0-5,3.3-45.8,3.3-47.3s-2.1,0.6-2.1-1.5s-2.7-1.5-2.7,0.6s-2.3-0.2-2.3-0.2
			c1.2-2.6,1.8-5.4,1.9-8.3c0-4.4-2.6-10.5,0-13.1s5.6-7,5.6-10.6s-1-12,0-13.1s4.8-33.2,4.8-33.2l-9.6-8.7c0,0-9.6-5-13.8-6.6
			s-9.1-7.7-11.6-7.7s-2.7-1.9-4.4-1.9s-4-0.8-4-2.4c0-0.9-0.3-1.8-0.9-2.4c0,0-14.6-10.3-17.9-11.6s-4.8-0.2-7-0.2
			s-8.3-1.9-8.3-1.9s-0.6,2.3,0,2.9c0.6,0.6-3.1,0.4-4.4-0.8s-3.4-1.2-3.4-3.4c0-2.2,0.2-3.3,2.4-5.5c0,0-4.8-2.1-8.5-2.1
			s-5.8-2.7,2.6-2.7s12.4,2.8,13.6,2.8s6.3,2.3,8.7,3.1c2.4,0.8,9,2.5,12.1,3.1c3.1,0.6,10.5,2.3,10.5,2.3s-0.7-1.3,1.3-1.3
			s2.9,0.6,4.8,0.6s5,0.2,5.3,0.5s0.3,1.6,0.3,1.6s11.4,7,14.7,7s6.8,2.3,9.4,3s6.1,2.3,8,2.3c2.3,0,4.6,0.3,6.8,0.8
			c2.3,0.6,5.6-0.2,6.4,0.6c0.8,0.8,4.7,1.9,5.3,1.9s4.1-0.8,4.1-1.9s-1.7-4.5-3.4-4.5s-4.4-0.1-4.4-1.3v-3.8c0-1.2-0.5-3.1,0-3.6
			s0.5-2,0.5-2.6c0.1-0.5,0.3-1,0.7-1.3c0,0-2.7-0.8-2.2-2.2c0.5-1.2,1.3-2.2,2.2-3.2c0,0,0.1-1.8-1.1-2.1s-3.4-0.8-3.4-2.4
			S899.1,204.3,899.6,203.9z"/>
		<path id="Контур_4857" class="st1" d="M966.2,233.3c-0.7-2.2-1.2-4.5-1.5-6.8c0-1.6-4.8,0.7-4.8-4.7s-1.1-8.3-1.1-9.9
			s0.7-2,0-3.8s-0.2-7.1,0.3-9.4s1.4-6.5,5.6-9.8s13.4-4,15.5-3.3s6.7,2.5,8.5,4.3s5.6,8,5.6,10.3c-0.1,3.1-0.4,6.2-1.1,9.3
			c-0.5,2,0,3.1-0.5,4.6s-2.1,6.5-2.7,7.2s-2.2,2.5-2.2,3.3v1.9c0,1.6-0.5,1.1,0,1.6l1.5,1.5c0.8,0.8,4.8,6.1,5.4,6.6
			s-0.8,1,0.6,2.3s1.8,1.4,4.9,3.1s4.2,1.8,6.6,4.3s4,4.5,4.5,7.2s0.1,10,0.1,11.7s0.5,8.4,0,8.9s0,1.9-0.5,4s-2.7,1.3-2.7,4.3
			s-4.3,8.8-4.3,10.1s-2.4,11.1-2.9,13.7s-1.8,3.4-1.2,6.9s0.4,4.6,1.3,7.1s1.2,6.5,2,11.1s0.8,17.8,0.8,20s1.7,6.8,1.7,8
			s0,3.2-0.8,3.2s-4.8,1.4-5.5,1.4s-0.6,0.9-0.6,2.4s0.9,1.8-1.5,7.1s0.2,11.9,0.2,14.1s2,8.2,2,9.7c-0.1,2.1,0.1,4.2,0.5,6.2
			c0.6,3.3,0.5,7.9,1.3,11.9s1.5,4.8,0.7,7.5s-1.7,4-0.7,6.8s-0.7,4.7,0.4,9.6s0.5,6.9,1.2,10.8s1.8,12.7,2.5,16.1
			c0.6,3.5,0.8,7,0.7,10.5c0,1.7-2.4,3.6-1.5,4.5s5.8,2.7,5.3,5.5s-0.6,2.8-1.7,3.9s-2.2,1.9-2.2,3.3v7.9c-0.2,2.1-1.4,4-3.3,4.9
			c-2.1,1.2-6,3.6-8.4,1.2c-1.8-1.6-3.2-3.5-4.2-5.7c-0.6-1.6-1.3-3.8-3.6-4.5s-5.2-1.3-5.2-3.6s2.4-8.2,3.4-9.2s1.2-2.8,0.5-4.9
			s-1.8-1.7-2.3-4.7s-0.2-7.9-0.2-10.2s0.8-7.4,0-10.1s-5.8-18.2-5.8-22.8c0.2-3.9-0.3-7.8-1.5-11.6c-0.9-3.3-2-6.5-3.4-9.7
			c-2.1-5.1-2.6-5.1-3.4-10s-3.2-11.3-4.6-11.3s-1.5-2-1.5,2.2s0.4,8.6-0.2,12.3s-4.1,10.7-4.8,17.1s0.8,7.8-0.7,12.6
			s-3.3,8.7-4,12.8s-3.1,10.7-3.1,14.1s0.8,11.9,0,17.7s-1.2,9.5-2.6,12.3s1.3,7.9,1.8,9.7s2.2,7.1-1.8,12s-3.7,5.7-4.8,5.7
			s-4.5-0.5-7.7-0.5c-4.2-0.2-8.3-0.7-12.4-1.6c-3.6-0.7-10.7-1.8-14.4-3.2c-3.7-1.4-7.6-4.8-7.6-6.5s-0.4-5.6,1.4-6.3
			s4.3-0.7,8-0.7s7.6-0.4,8.2-2.3s-0.3-2.2-0.3-4.2c-0.1-2.5,0.5-5,1.9-7.2c1.8-2.9,3.9-3.5,3.9-5.1s4.1-20.5,4.9-25.9
			s2.1-12.7,2.1-15.6s-1.6-6.5-1.6-8.8s-2.6-18.5-1.3-23.6c1.3-5.3,2-10.8,2-16.3c0-4.5,0.8-6.1,0.8-9.5s0.6-11.4,0.6-12.8v-6.7
			c0,0-10.2-3.3-10.2-10.2s5.5-21.2,6.3-22s5.1-11.4,5.7-13.4c0.6-1.9,4.7-13.6,4.3-16.1c0-0.1-0.1-0.3-0.2-0.4
			c-1.2-1.2-3.1,2.5-8.9,0.8s-7.8-3.6-7.2-6.5s0.3-10,1.8-12.5s5.7-7.5,5.7-9.3s0.2-2,1.4-3.2s-0.2-1.7,1.2-3.1s2.5-2.5,2.9-2.9
			s0.3-0.8,1-2.9c0.4-1.3,1-2.4,2-3.4c0.6-0.6,2.1-1.3,2.1-2.1s-1-1.9,0-2.9s0.8-3.4,3.2-4.4s5.6-1.2,8.2-3.8s4.2-1.1,8.2-2.6
			S966.2,233.3,966.2,233.3z"/>
	</g>
	<g id="Сгруппировать_2434" transform="translate(1556 6072.673)" class="st2">
		<rect id="Прямоугольник_1227" x="254" y="316" class="st3" width="137.4" height="124.6"/>
		<rect id="Прямоугольник_1228" x="41.8" y="364.7" class="st3" width="225.5" height="76.1"/>
		<rect id="Прямоугольник_1229" x="254" y="201.7" class="st3" width="137.4" height="75.3"/>
		<rect id="Прямоугольник_1230" x="254" y="122.8" class="st3" width="137.4" height="37.7"/>
		<path id="Контур_4862" class="st3" d="M131.8,423.5c0,7.6,9.9,13.8,22,13.8h12.2c12.2,0,22-6.2,22-13.8V111.4
			c0-7.6-9.8-13.8-22-13.8h-12.2c-12.2,0-22,6.2-22,13.8L131.8,423.5z"/>
		<rect id="Прямоугольник_1231" x="328.3" y="270.4" class="st3" width="11" height="60.5"/>
		<rect id="Прямоугольник_1232" x="347.6" y="146.2" class="st3" width="11" height="60.5"/>
		<rect id="Прямоугольник_1233" x="364.6" y="270.4" class="st3" width="11" height="60.5"/>
		<rect id="Прямоугольник_1234" x="293.6" y="270.4" class="st3" width="11" height="60.5"/>
		<rect id="Прямоугольник_1235" x="306" y="149.6" class="st3" width="11" height="60.5"/>
		<path id="Контур_4863" class="st3" d="M217.8,417.6c0,10.9,8.9,19.8,19.8,19.8c0,0,0,0,0,0h11c10.9,0,19.8-8.9,19.8-21.6V24
			c0-6.2-2.6-18-19.8-18h-11c-10.9,0-19.8,8.9-19.8,19.8L217.8,417.6z"/>
		<g id="Сгруппировать_2430" transform="translate(223.743 287.506)">
			<rect id="Прямоугольник_1236" x="41.8" y="6" class="st3" width="125.4" height="2.2"/>
			<rect id="Прямоугольник_1237" x="165.3" y="6" class="st3" width="1.9" height="24.3"/>
			<rect id="Прямоугольник_1238" x="159.7" y="6" class="st3" width="0.9" height="24.3"/>
			<rect id="Прямоугольник_1239" x="153.8" y="6" class="st3" width="0.9" height="24.3"/>
			<rect id="Прямоугольник_1240" x="147.4" y="6" class="st3" width="0.9" height="24.3"/>
			<rect id="Прямоугольник_1241" x="140.4" y="6" class="st3" width="0.9" height="24.3"/>
			<rect id="Прямоугольник_1242" x="134.5" y="6" class="st3" width="0.9" height="24.3"/>
			<rect id="Прямоугольник_1243" x="128.1" y="6" class="st3" width="0.9" height="24.3"/>
			<rect id="Прямоугольник_1244" x="122.2" y="6" class="st3" width="0.9" height="24.3"/>
			<rect id="Прямоугольник_1245" x="116.2" y="6" class="st3" width="0.9" height="24.3"/>
			<rect id="Прямоугольник_1246" x="109.9" y="6" class="st3" width="0.9" height="24.3"/>
			<rect id="Прямоугольник_1247" x="102.8" y="6" class="st3" width="0.9" height="24.3"/>
			<rect id="Прямоугольник_1248" x="96.9" y="6" class="st3" width="0.9" height="24.3"/>
			<rect id="Прямоугольник_1249" x="90.5" y="6" class="st3" width="0.9" height="24.3"/>
			<rect id="Прямоугольник_1250" x="84.3" y="6" class="st3" width="0.9" height="24.3"/>
			<rect id="Прямоугольник_1251" x="78.4" y="6" class="st3" width="0.9" height="24.3"/>
			<rect id="Прямоугольник_1252" x="72" y="6" class="st3" width="0.9" height="24.3"/>
			<rect id="Прямоугольник_1253" x="65" y="6" class="st3" width="0.9" height="24.3"/>
			<rect id="Прямоугольник_1254" x="59" y="6" class="st3" width="0.9" height="24.3"/>
			<rect id="Прямоугольник_1255" x="52.7" y="6" class="st3" width="0.9" height="24.3"/>
			<rect id="Прямоугольник_1256" x="46.7" y="6" class="st3" width="0.9" height="24.3"/>
		</g>
		<g id="Сгруппировать_2431" transform="translate(223.743 173.149)">
			<rect id="Прямоугольник_1257" x="41.8" y="6" class="st3" width="125.4" height="2.2"/>
			<rect id="Прямоугольник_1258" x="165.3" y="6" class="st3" width="1.9" height="24.3"/>
			<rect id="Прямоугольник_1259" x="159.7" y="6" class="st3" width="0.9" height="24.3"/>
			<rect id="Прямоугольник_1260" x="153.8" y="6" class="st3" width="0.9" height="24.3"/>
			<rect id="Прямоугольник_1261" x="147.4" y="6" class="st3" width="0.9" height="24.3"/>
			<rect id="Прямоугольник_1262" x="140.4" y="6" class="st3" width="0.9" height="24.3"/>
			<rect id="Прямоугольник_1263" x="134.5" y="6" class="st3" width="0.9" height="24.3"/>
			<rect id="Прямоугольник_1264" x="128.1" y="6" class="st3" width="0.9" height="24.3"/>
			<rect id="Прямоугольник_1265" x="122.2" y="6" class="st3" width="0.9" height="24.3"/>
			<rect id="Прямоугольник_1266" x="116.2" y="6" class="st3" width="0.9" height="24.3"/>
			<rect id="Прямоугольник_1267" x="109.9" y="6" class="st3" width="0.9" height="24.3"/>
			<rect id="Прямоугольник_1268" x="102.8" y="6" class="st3" width="0.9" height="24.3"/>
			<rect id="Прямоугольник_1269" x="96.9" y="6" class="st3" width="0.9" height="24.3"/>
			<rect id="Прямоугольник_1270" x="90.5" y="6" class="st3" width="0.9" height="24.3"/>
			<rect id="Прямоугольник_1271" x="84.3" y="6" class="st3" width="0.9" height="24.3"/>
			<rect id="Прямоугольник_1272" x="78.4" y="6" class="st3" width="0.9" height="24.3"/>
			<rect id="Прямоугольник_1273" x="72" y="6" class="st3" width="0.9" height="24.3"/>
			<rect id="Прямоугольник_1274" x="65" y="6" class="st3" width="0.9" height="24.3"/>
			<rect id="Прямоугольник_1275" x="59" y="6" class="st3" width="0.9" height="24.3"/>
			<rect id="Прямоугольник_1276" x="52.7" y="6" class="st3" width="0.9" height="24.3"/>
			<rect id="Прямоугольник_1277" x="46.7" y="6" class="st3" width="0.9" height="24.3"/>
		</g>
		<g id="Сгруппировать_2432" transform="translate(28.622 134.99)">
			<path id="Контур_4864" class="st3" d="M64.2,120.3h47.7v-4.1H64.2c-7.6,0-13.2-2-16.1-5.9c-1.3-1.7-2.1-3.7-2.2-5.9V27.9
				c0-6.3,1.7-11,5-14c4.7-4.3,11.3-3.7,11.3-3.7l0.2,0h49.6V6H62.5c-1.1-0.1-8.6-0.4-14.4,4.8c-4.2,3.8-6.3,9.6-6.3,17.1v76.6
				c0.2,3.7,1.7,7.2,4.3,9.9C50.1,118.3,56.2,120.3,64.2,120.3z"/>
		</g>
		<g id="Сгруппировать_2433" transform="translate(100.871 29.489)">
			<path id="Контур_4865" class="st3" d="M54.3,110.6H134c6.9,0,12.5-5.6,12.5-12.5V18.5c0-6.9-5.6-12.5-12.5-12.5H54.3
				c-6.9,0-12.5,5.6-12.5,12.5v79.6C41.9,105,47.4,110.6,54.3,110.6z M134,10.1c4.6,0,8.4,3.8,8.4,8.4v79.6c0,4.6-3.8,8.4-8.4,8.4
				H54.3c-4.6,0-8.4-3.8-8.4-8.4V18.5c0-4.6,3.8-8.4,8.4-8.4L134,10.1z"/>
		</g>
	</g>
</g>
</svg>
