<?xml version="1.0" encoding="utf-8"?>
<!-- Generator: Adobe Illustrator 25.2.3, SVG Export Plug-In . SVG Version: 6.00 Build 0)  -->
<svg version="1.1" id="Layer_1" xmlns="http://www.w3.org/2000/svg" xmlns:xlink="http://www.w3.org/1999/xlink" x="0px" y="0px"
	 viewBox="0 0 32 32" style="enable-background:new 0 0 32 32;" xml:space="preserve">
<style type="text/css">
	.st0{opacity:0.75;}
	.st1{fill:#F1E7D9;}
</style>
<g id="viber" transform="translate(286.381 61.239)">
	<g id="Сгруппировать_2496" transform="translate(-286.381 -61.24)" class="st0">
		<path id="Контур_4908" class="st1" d="M31.7,18.5c1.1-8-0.5-13.1-3.3-15.4l0,0C24-0.8,8.8-1.4,3.4,3.3C1,5.6,0.1,8.9,0,13.1
			s-0.2,11.9,7.7,14l0,0v3.3c0,0-0.1,1.3,0.9,1.5c1.1,0.3,1.5-0.3,4.7-3.8c3.4,0.3,6.8,0,10-0.7C24.5,27,30.7,26.3,31.7,18.5
			L31.7,18.5z M13.9,25.8c0,0-3.5,3.9-4.4,4.9C9.1,31,8.7,31,8.7,30.4V25C2,23.2,2.4,16.6,2.5,13.2C2.6,9.7,3.3,6.9,5.3,5
			c4.7-4.1,18-3.2,21.3-0.2c4.1,3.3,2.7,12.9,2.7,13.2c-0.9,6.5-5.9,6.9-6.8,7.2C19.8,25.8,16.8,26,13.9,25.8L13.9,25.8z"/>
		<path id="Контур_4909" class="st1" d="M19.8,17.9c-0.5-0.4-1.2-0.3-1.7,0.2L17.5,19c-0.2,0.3-0.5,0.4-0.9,0.4
			c-4.2-1.1-5.4-5.5-5.4-5.5c0-0.4,0.1-0.7,0.4-1l0.7-0.6c0.5-0.4,0.6-1.2,0.2-1.8c-0.6-1.1-1.3-2.1-2.1-3.1c-0.4-0.4-1-0.5-1.5-0.2
			l0,0c-1.1,0.6-2.5,1.8-2,3.3c0.7,1.5,2.1,6.1,6.3,9.6c1.9,1.6,4.1,2.8,6.5,3.7l0,0c1.4,0.4,2.6-1,3.3-2.2l0,0
			c0.4-0.5,0.3-1.1-0.2-1.6C21.8,19.1,20.8,18.4,19.8,17.9L19.8,17.9z"/>
		<path id="Сгруппировать_2495" transform="translate(12.578 4.903)" class="st1" d="M2.5,0.5C2.2,0.5,2,0.7,2,1
			c0,0.2,0.2,0.5,0.5,0.5c5.4,0,9.8,3.8,9.8,10.6c0,0.3,0.2,0.6,0.5,0.6c0.3,0,0.6-0.2,0.6-0.5c0,0,0,0,0-0.1l0,0
			C13.3,4.8,8.4,0.5,2.5,0.5z M9.5,11c0,0.3,0.2,0.6,0.5,0.6c0.3,0,0.6-0.2,0.6-0.5c0,0,0,0,0-0.1c0.1-4-2.4-7.4-7.1-7.8
			C2.8,3.1,2.7,4.3,3.3,4.3C7.5,4.7,9.6,7.5,9.5,11L9.5,11z M4.2,7.3c1.7,0.1,2.6,1,2.7,2.9c0,0.8,1,0.6,1-0.1
			C7.9,7.7,6.7,6.4,4.3,6.3C4,6.2,3.8,6.4,3.7,6.7C3.7,7,3.8,7.2,4.2,7.3C4.2,7.3,4.2,7.3,4.2,7.3L4.2,7.3z"/>
	</g>
</g>
</svg>
