<svg xmlns="http://www.w3.org/2000/svg" width="32" height="32" viewBox="0 0 32 32">
  <g id="viber" transform="translate(286.381 61.239)">
    <g id="Сгруппировать_2496" data-name="Сгруппировать 2496" transform="translate(-286.381 -61.24)" opacity="0.75">
      <path id="Контур_4908" data-name="Контур 4908" d="M35.646,22.309c1.067-7.994-.533-13.132-3.289-15.416h0C27.911,2.977,12.71,2.406,7.376,7.055,4.976,9.339,4.087,12.684,4,16.844s-.178,11.909,7.734,14.03h0v3.263s-.089,1.305.889,1.55c1.067.326,1.511-.326,4.712-3.834a31.627,31.627,0,0,0,10.046-.734c1.067-.326,7.29-1.06,8.268-8.809Zm-17.78,7.26s-3.467,3.915-4.445,4.894c-.356.326-.711.326-.711-.326V28.753c-6.667-1.794-6.312-8.4-6.223-11.827.089-3.507.8-6.281,2.845-8.238,4.712-4.078,17.958-3.181,21.336-.245,4.089,3.344,2.667,12.888,2.667,13.214-.889,6.525-5.867,6.933-6.756,7.178a26.789,26.789,0,0,1-8.712.734Z" transform="translate(-3.979 -3.76)" fill="#0a141f"/>
      <path id="Контур_4909" data-name="Контур 4909" d="M28.794,26.826a1.534,1.534,0,0,0-1.909.239l-.716.955a1.009,1.009,0,0,1-.955.358c-4.774-1.313-6.086-6.325-6.086-6.325a1.768,1.768,0,0,1,.358-1.074l.835-.716a1.555,1.555,0,0,0,.239-2.029,27.577,27.577,0,0,0-2.387-3.461,1.283,1.283,0,0,0-1.671-.239h0c-1.432.835-2.864,2.268-2.387,3.819.835,1.671,2.387,6.922,7.161,10.86a23.921,23.921,0,0,0,7.4,4.177h0c1.551.477,2.984-1.074,3.7-2.506h0a1.423,1.423,0,0,0-.239-1.79,32.823,32.823,0,0,0-3.342-2.268Z" transform="translate(-7.42 -8.47)" fill="#0a141f"/>
      <g id="Сгруппировать_2495" data-name="Сгруппировать 2495" transform="translate(12.578 4.903)">
        <path id="Контур_4910" data-name="Контур 4910" d="M21.6,11.5a.657.657,0,0,0,0,1.313c6.683,0,12.173,4.654,12.173,13.247a.657.657,0,1,0,1.313,0h0C35.087,16.87,29,11.5,21.6,11.5Z" transform="translate(-20.975 -11.5)" fill="#0a141f"/>
        <path id="Контур_4911" data-name="Контур 4911" d="M30.13,24.068a.657.657,0,1,0,1.313,0c.119-5.012-2.984-9.189-8.831-9.667-.835-.119-.955,1.313-.119,1.313,5.132.477,7.757,3.938,7.638,8.354Z" transform="translate(-20.792 -10.94)" fill="#0a141f"/>
        <path id="Контур_4912" data-name="Контур 4912" d="M23.407,18.814c2.148.119,3.222,1.193,3.342,3.58,0,.955,1.313.835,1.313-.119-.119-2.984-1.671-4.654-4.535-4.774a.662.662,0,1,0-.119,1.313Z" transform="translate(-20.632 -10.341)" fill="#0a141f"/>
      </g>
    </g>
  </g>
</svg>
