<svg xmlns="http://www.w3.org/2000/svg" width="34.517" height="31.474" viewBox="0 0 34.517 31.474">
  <g id="whatsapp" transform="translate(-4.456 -13.994)" opacity="0.75">
    <path id="Контур_4914" data-name="Контур 4914" d="M3,30.989l2.84-5.911A13.046,13.046,0,0,1,8.069,6.67,16.752,16.752,0,0,1,28.56,6.365c5.94,4.578,7.182,12.434,2.9,18.332s-12.754,7.994-19.766,4.892L3,30.989" transform="translate(3.458 12.477)" fill="none" stroke="#0a141f" stroke-linecap="round" stroke-linejoin="round" stroke-width="3"/>
    <path id="Контур_4915" data-name="Контур 4915" d="M9,11.017a.839.839,0,1,0,1.678,0V9.339A.839.839,0,1,0,9,9.339v1.678a8.49,8.49,0,0,0,3.243,6.627,8.194,8.194,0,0,0,5.148,1.764H19.07a.839.839,0,0,0,0-1.678H17.392a.839.839,0,0,0,0,1.678" transform="translate(7.503 15.539)" fill="none" stroke="#0a141f" stroke-linecap="round" stroke-linejoin="round" stroke-width="3"/>
  </g>
</svg>
