<?xml version="1.0" encoding="utf-8"?>
<!-- Generator: Adobe Illustrator 25.2.3, SVG Export Plug-In . SVG Version: 6.00 Build 0)  -->
<svg version="1.1" id="Layer_1" xmlns="http://www.w3.org/2000/svg" xmlns:xlink="http://www.w3.org/1999/xlink" x="0px" y="0px"
	 viewBox="0 0 34.5 31.5" style="enable-background:new 0 0 34.5 31.5;" xml:space="preserve">
<style type="text/css">
	.st0{opacity:0.75;}
	.st1{fill:none;stroke:#F1E7D9;stroke-width:3;stroke-linecap:round;stroke-linejoin:round;}
</style>
<g id="whatsapp" transform="translate(-4.456 -13.994)" class="st0">
	<path id="Контур_4914" class="st1" d="M6.5,43.5l2.8-5.9c-4.5-5.6-3.5-13.9,2.1-18.3c0,0,0.1-0.1,0.1-0.1
		c6-4.8,14.4-4.9,20.5-0.3c5.9,4.6,7.2,12.4,2.9,18.3s-12.8,8-19.8,4.9L6.5,43.5"/>
	<path id="Контур_4915" class="st1" d="M16.5,26.6c0,0.5,0.4,0.8,0.8,0.8c0.5,0,0.8-0.4,0.8-0.8c0,0,0,0,0,0v-1.7
		c0-0.5-0.4-0.8-0.8-0.8c-0.5,0-0.8,0.4-0.8,0.8c0,0,0,0,0,0V26.6c0,2.6,1.2,5,3.2,6.6c1.5,1.2,3.3,1.8,5.1,1.8h1.7
		c0.5,0,0.8-0.4,0.8-0.8c0-0.5-0.4-0.8-0.8-0.8h-1.7c-0.5,0-0.8,0.4-0.8,0.8c0,0.5,0.4,0.8,0.8,0.8"/>
</g>
</svg>
